<?xml version="1.0" encoding="UTF-8"?>
<!DOCTYPE svg PUBLIC "-//W3C//DTD SVG 1.1//EN" "http://www.w3.org/Graphics/SVG/1.1/DTD/svg11.dtd">
<!-- Creator: CorelDRAW -->
<svg xmlns="http://www.w3.org/2000/svg" xml:space="preserve" width="3.6842mm" height="1.2382mm" style="shape-rendering:geometricPrecision; text-rendering:geometricPrecision; image-rendering:optimizeQuality; fill-rule:evenodd; clip-rule:evenodd"
viewBox="0 0 0.0907056 0.0304847"
 xmlns:xlink="http://www.w3.org/1999/xlink">
 <defs>
  <style type="text/css">
   <![CDATA[
    .fil0 {fill:#B3B3B3}
   ]]>
  </style>
 </defs>
 <g id="Layer_x0020_1">
  <metadata id="CorelCorpID_0Corel-Layer"/>
  <path class="fil0" d="M0.00156338 0.0259324c0.00420512,-0.00154122 0.0064948,-0.00473692 0.01215,-0.00140581 0.0032671,0.00192037 0.00548291,0.00422728 0.00969296,0.00539428 0.0105817,0.00293718 0.0142428,-0.00655881 0.0219464,-0.00672377 0.00770365,0.000164955 0.0113647,0.00966095 0.0219464,0.00672377 0.00421005,-0.001167 0.00642586,-0.0034739 0.00969049,-0.00539428 0.00565771,-0.00333111 0.00794493,-0.000135411 0.0121525,0.00140581l0.00147967 -0.00263928c-0.00189575,-0.00235615 -0.00703644,-0.00427652 -0.0111062,-0.00351822 -0.00464336,0.000864168 -0.00688626,0.00380874 -0.0104513,0.0055937 -0.0103725,0.00519732 -0.0140138,-0.00523917 -0.0230962,-0.00575619l0 -9.84806e-006c-0.000199423,-9.84806e-006 -0.000401309,-1.23101e-005 -0.000603194,-1.23101e-005l-9.84806e-006 0 -4.92403e-006 0 -9.84806e-006 0c-0.000204347,0 -0.000403771,2.46202e-006 -0.000603194,1.23101e-005l0 9.84806e-006c-0.00908238,0.000517023 -0.0127237,0.0109535 -0.0230962,0.00575619 -0.003565,-0.00178496 -0.0058079,-0.00472953 -0.0104513,-0.0055937 -0.00406971,-0.000758301 -0.0092104,0.00116207 -0.0111086,0.00351822l0.00148213 0.00263928zm0.0875493 -0.0195238c-0.00417558,-0.00141812 -0.00589653,-0.00470737 -0.0118201,-0.00156092 -0.00354776,0.00188344 -0.00516285,0.00408695 -0.00964618,0.00544352 -0.0106975,0.00323755 -0.0147204,-0.0064431 -0.0222936,-0.00662775 -0.00757316,0.000184651 -0.0115961,0.0098653 -0.0222936,0.00662775 -0.00448333,-0.00135657 -0.00609841,-0.00356008 -0.00964618,-0.00544352 -0.00592607,-0.00314646 -0.00764456,0.000142797 -0.0118201,0.00156092l-0.00159292 -0.00292241c0.0109929,-0.0080311 0.0165817,-1.72341e-005 0.0219907,0.00253341 0.0104291,0.00491418 0.0137627,-0.00567002 0.0229214,-0.00599255l1.23101e-005 0 1.23101e-005 0 1.23101e-005 0 1.23101e-005 0 1.23101e-005 0 1.23101e-005 -2.46202e-006 1.23101e-005 0 1.23101e-005 0 1.23101e-005 0 1.23101e-005 0 1.23101e-005 0 1.23101e-005 -2.46202e-006 1.23101e-005 0 1.23101e-005 0 8.12465e-005 -2.46202e-006 0.000100943 0 7.38605e-006 0 7.87845e-005 0 7.87845e-005 0 4.92403e-006 0 0.000103405 0 7.87845e-005 2.46202e-006 1.47721e-005 0 1.23101e-005 0 1.23101e-005 2.46202e-006 1.23101e-005 0 1.23101e-005 0 1.23101e-005 0 1.23101e-005 0 1.23101e-005 0 1.23101e-005 2.46202e-006 1.23101e-005 0 1.23101e-005 0 1.23101e-005 0 1.23101e-005 0 1.23101e-005 0c0.0091587,0.000322524 0.0124923,0.0109067 0.0229189,0.00599255 0.00541151,-0.00255065 0.0110003,-0.0105645 0.0219932,-0.00253341l-0.00159292 0.00292241zm-0.0875247 0.00974958c0.00397369,-0.0013221 0.00619443,-0.00473938 0.0118497,-0.00157815 0.00342959,0.00191791 0.00523917,0.00412388 0.0096191,0.0054509 0.010727,0.00325479 0.0146785,-0.0064431 0.022296,-0.00660559 0.00761748,0.000162493 0.011569,0.00986037 0.022296,0.00660559 0.00437993,-0.00132703 0.00618951,-0.00353299 0.0096191,-0.0054509 0.00565525,-0.00316123 0.00787599,0.00025605 0.0118497,0.00157815l0.00157077 -0.00291256c-0.0110446,-0.00773565 -0.0154073,-0.000760763 -0.0219809,0.00251864 -0.0100032,0.00498804 -0.0138341,-0.00546568 -0.0227392,-0.005963l0 -4.92403e-006c-0.000174803,-9.84806e-006 -0.000352068,-1.72341e-005 -0.000529333,-1.47721e-005l-9.84806e-006 0 -2.46202e-006 0 -9.84806e-006 0 -2.46202e-006 0 -9.84806e-006 0 -2.46202e-006 0 -1.23101e-005 0 0 0 -1.23101e-005 0 0 0 -1.23101e-005 0 0 0 -1.23101e-005 0 0 0 -1.23101e-005 0 -2.46202e-006 0 -9.84806e-006 0 0 0 -1.23101e-005 0 -2.46202e-006 0 -9.84806e-006 0 -2.46202e-006 0 -9.84806e-006 0 -2.46202e-006 0 -9.84806e-006 0 -2.46202e-006 0 -9.84806e-006 0c-0.000177265,2.46202e-006 -0.00035453,4.92403e-006 -0.000529333,1.47721e-005l0 4.92403e-006c-0.00890511,0.000497327 -0.012736,0.010951 -0.0227392,0.005963 -0.00657358,-0.00327941 -0.0109363,-0.0102543 -0.0219809,-0.00251864l0.00157077 0.00291256z"/>
 </g>
</svg>
