<?xml version="1.0" encoding="UTF-8"?>
<!DOCTYPE svg PUBLIC "-//W3C//DTD SVG 1.1//EN" "http://www.w3.org/Graphics/SVG/1.1/DTD/svg11.dtd">
<!-- Creator: CorelDRAW -->
<svg xmlns="http://www.w3.org/2000/svg" xml:space="preserve" width="7.1182mm" height="5.9156mm" style="shape-rendering:geometricPrecision; text-rendering:geometricPrecision; image-rendering:optimizeQuality; fill-rule:evenodd; clip-rule:evenodd"
viewBox="0 0 0.238107 0.19788"
 xmlns:xlink="http://www.w3.org/1999/xlink">
 <defs>
  <style type="text/css">
   <![CDATA[
    .fil0 {fill:#666666}
    .fil2 {fill:url(#id0)}
    .fil1 {fill:url(#id1)}
   ]]>
  </style>
  <linearGradient id="id0" gradientUnits="userSpaceOnUse" x1="0.0531161" y1="0.0878209" x2="0.238107" y2="0.0878209">
   <stop offset="0" style="stop-color:#277492"/>
   <stop offset="1" style="stop-color:#BDE6FC"/>
  </linearGradient>
  <linearGradient id="id1" gradientUnits="userSpaceOnUse" x1="-0.00397057" y1="0.104637" x2="0.2379" y2="0.104637">
   <stop offset="0" style="stop-color:#9A9A9A"/>
   <stop offset="1" style="stop-color:#E8E8E8"/>
  </linearGradient>
 </defs>
 <g id="Layer_x0020_1">
  <metadata id="CorelCorpID_0Corel-Layer"/>
  <path class="fil0" d="M0.127952 0.0134672c0.0229236,0.00396054 0.0436663,0.012845 0.0605956,0.0249139l-0.0156548 0.0153672c-0.0131327,-0.0120556 -0.0300319,-0.0209802 -0.0489749,-0.0246898 -0.0469177,-0.00918551 -0.0885669,0.0170765 -0.0930292,0.0586621 -0.0044623,0.0415823 0.0299549,0.0827432 0.0768693,0.0919287 0.0469177,0.00918551 0.0885669,-0.0170765 0.0930292,-0.0586621 0.00161231,-0.015026 -0.00185316,-0.0300018 -0.00915206,-0.0434288l0.0154374 -0.0231176c0.0189999,0.0200971 0.029219,0.0450679 0.0261683,0.0701658 -0.00611141,0.0502761 -0.0631579,0.0820273 -0.12742,0.0709218 -0.0642584,-0.0111056 -0.111397,-0.0608665 -0.105289,-0.111143 0.00611141,-0.0502728 0.0631579,-0.0820273 0.12742,-0.0709184z"/>
  <path class="fil1" d="M0.12956 0.0136077c0.0229236,0.00396054 0.0436663,0.012845 0.0605922,0.0249139l-0.0156548 0.0153672c-0.0131293,-0.0120589 -0.0300319,-0.0209802 -0.0489749,-0.0246898 -0.0469177,-0.00918885 -0.0885669,0.0170765 -0.0930292,0.0586588 -0.00445895,0.0415857 0.0299549,0.0827432 0.0768726,0.091932 0.0469177,0.00918551 0.0885669,-0.0170765 0.0930292,-0.0586621 0.00161231,-0.0150293 -0.0018565,-0.0300018 -0.0091554,-0.0434288l0.0154374 -0.0231176c0.0189999,0.0200937 0.0292224,0.0450679 0.0261717,0.0701658 -0.00611141,0.0502761 -0.0631612,0.0820273 -0.12742,0.0709218 -0.0642618,-0.0111089 -0.1114,-0.0608665 -0.105289,-0.111143 0.00611141,-0.0502761 0.0631579,-0.0820273 0.12742,-0.0709184z"/>
  <polygon class="fil2" points="0.0768994,0.0852319 0.114658,0.121178 0.238107,0 0.12083,0.175642 0.0531161,0.110467 "/>
 </g>
</svg>
