<?xml version="1.0" encoding="UTF-8"?>
<!DOCTYPE svg PUBLIC "-//W3C//DTD SVG 1.1//EN" "http://www.w3.org/Graphics/SVG/1.1/DTD/svg11.dtd">
<!-- Creator: CorelDRAW X7 -->
<svg xmlns="http://www.w3.org/2000/svg" xml:space="preserve" width="42.7468mm" height="31.7905mm" version="1.1" style="shape-rendering:geometricPrecision; text-rendering:geometricPrecision; image-rendering:optimizeQuality; fill-rule:evenodd; clip-rule:evenodd"
viewBox="0 0 4091 3042"
 xmlns:xlink="http://www.w3.org/1999/xlink">
 <defs>
  <style type="text/css">
   <![CDATA[
    .str0 {stroke:#4D4D4D;stroke-width:9.57032;stroke-dasharray:57.393221 38.262147}
    .fil0 {fill:none}
    .fil2 {fill:#1A1A1A}
    .fil5 {fill:#C00000}
    .fil1 {fill:#E6E6E6}
    .fil4 {fill:black;fill-rule:nonzero}
    .fil6 {fill:gray;fill-rule:nonzero}
    .fil3 {fill:#C00000;fill-rule:nonzero}
   ]]>
  </style>
 </defs>
 <g id="Слой_x0020_1">
  <metadata id="CorelCorpID_0Corel-Layer"/>
  <polygon class="fil0 str0" points="5,5 4086,5 4086,2930 5,2930 "/>
  <polygon class="fil1" points="107,107 3984,107 3984,2828 107,2828 "/>
  <g id="_595156744">
   <path id="_595163632" class="fil2" d="M814 3011c0,6 4,12 8,17l4 5c3,2 5,4 9,6l13 3 6 0c4,0 9,-1 12,-1 10,-3 20,-8 29,-15l5 -5c4,-3 6,-5 9,-9 2,-2 4,-6 6,-9 10,-20 -5,-34 11,-44 3,-2 7,-3 10,-4 11,-6 26,-16 37,-22l18 -10c3,-2 6,-3 9,-5 19,-12 40,-23 59,-35l60 -34c-1,-1 -1,-1 -2,-1 -2,-1 -6,-2 -8,-3 -14,-2 -24,-1 -37,2 -4,1 -7,3 -11,4 -1,0 -1,0 -2,1 -4,1 -3,0 -7,3 -7,5 -19,11 -26,16 -2,1 -3,2 -5,3 -1,1 -3,1 -4,2 -2,1 -3,2 -5,3 -8,6 -21,13 -30,19l-18 10c-11,7 -23,15 -34,22l-20 12c-1,0 -1,1 -2,1 -3,3 -10,6 -13,8l-27 16c-3,2 -6,3 -9,5 -6,3 -22,12 -26,16 -5,3 -8,5 -12,9 -3,3 -7,9 -7,14zm74 -38c0,0 0,0 -1,0l-4 2c-11,7 -25,15 -36,20 -7,4 -14,9 -16,17 -2,11 7,14 17,15 15,0 30,-7 40,-16 7,-6 14,-13 17,-24 1,-6 1,-9 -4,-12 -2,-1 -9,-4 -13,-2z"/>
   <path id="_595158328" class="fil2" d="M822 2859c0,8 2,14 7,20 6,6 10,9 17,13 4,2 10,5 12,6 4,3 12,6 16,9 3,1 6,2 8,4 4,2 23,12 28,14 9,5 4,6 20,-4 3,-2 4,-3 7,-5 0,0 -20,-11 -21,-12 -6,-4 -16,-7 -19,-16 -3,-7 2,-19 -2,-30 -3,-9 -7,-15 -14,-20 -3,-2 -7,-5 -10,-6l-16 -4 -5 0c-10,0 -19,6 -23,13 -3,5 -5,12 -5,18zm27 -16c-14,2 -20,19 -4,30 6,4 17,10 23,11 18,3 15,-19 10,-27 -1,-1 -2,-2 -2,-3 -2,-2 -2,-1 -3,-2 -6,-6 -15,-11 -24,-9z"/>
   <path id="_595157848" class="fil2" d="M954 2953c2,0 4,2 5,3l14 8c3,2 6,4 9,6l78 51c5,3 10,4 18,4 2,0 5,0 7,0 3,0 5,0 8,0 5,0 10,0 14,-1 4,0 8,-2 12,-3 -1,-1 -16,-10 -18,-11 -14,-8 -30,-17 -44,-25 -14,-9 -30,-17 -45,-26 -6,-3 -12,-6 -17,-10l-18 -10c-3,2 -22,13 -23,14z"/>
  </g>
  <path class="fil3" d="M1589 1543l-290 0 0 -76 92 0 0 -230 -92 0 0 -71c14,0 27,-1 40,-3 13,-2 24,-4 32,-8 11,-5 18,-12 23,-19 5,-8 8,-18 9,-30l97 0 0 361 89 0 0 76zm451 -218c0,36 -4,69 -10,98 -7,29 -17,53 -31,71 -15,19 -33,34 -56,43 -22,10 -50,15 -83,15 -33,0 -61,-5 -84,-15 -23,-10 -41,-24 -55,-43 -15,-19 -25,-43 -32,-71 -6,-29 -9,-61 -9,-98 0,-38 3,-71 10,-98 6,-28 17,-52 31,-71 15,-19 33,-34 56,-43 23,-10 51,-14 83,-14 33,0 61,4 83,14 23,10 42,25 56,44 14,19 24,43 31,71 6,28 10,60 10,97zm-114 0c0,-53 -5,-90 -15,-113 -10,-22 -27,-33 -51,-33 -24,0 -41,11 -52,33 -10,23 -15,60 -15,113 0,52 5,89 16,112 10,23 27,34 51,34 23,0 40,-11 51,-34 10,-23 15,-60 15,-112zm453 -86c0,49 -11,85 -34,108 -22,24 -55,35 -97,35 -45,0 -78,-12 -100,-35 -22,-24 -34,-59 -34,-106 0,-49 12,-84 34,-108 23,-23 56,-34 100,-34 43,0 76,11 98,34 22,24 33,59 33,106zm228 -131l-228 435 -78 0 227 -435 79 0zm185 301c0,48 -11,84 -34,108 -22,23 -55,35 -97,35 -45,0 -78,-12 -100,-36 -22,-23 -34,-59 -34,-106 0,-48 12,-84 35,-107 22,-23 55,-35 99,-35 43,0 76,12 98,35 22,23 33,58 33,106zm-499 -169c0,-31 -4,-52 -11,-63 -7,-11 -19,-16 -35,-16 -17,0 -28,5 -36,16 -7,11 -10,32 -10,63 0,32 3,53 10,64 8,11 19,16 36,16 16,0 28,-5 35,-16 7,-11 11,-32 11,-64zm413 170c0,-32 -4,-53 -11,-63 -7,-11 -19,-17 -35,-17 -17,0 -28,6 -36,17 -7,10 -10,31 -10,63 0,31 3,52 10,63 8,11 19,16 36,16 16,0 28,-5 35,-16 7,-11 11,-32 11,-63z"/>
  <path class="fil4" d="M3525 363l-20 0 -59 -111 0 111 -15 0 0 -124 25 0 54 101 0 -101 15 0 0 124zm144 0l-17 0 0 -107 -34 73 -10 0 -34 -73 0 107 -16 0 0 -124 23 0 33 69 32 -69 23 0 0 124zm123 -36c0,5 -1,10 -3,15 -2,5 -5,9 -10,12 -4,3 -9,6 -15,8 -6,2 -13,3 -21,3 -9,0 -17,-1 -25,-2 -7,-2 -14,-5 -21,-8l0 -20 1 0c6,5 13,9 22,12 8,2 15,4 23,4 10,0 18,-2 24,-6 5,-4 8,-9 8,-15 0,-6 -1,-10 -4,-12 -3,-3 -7,-5 -12,-6 -4,-2 -9,-2 -14,-3 -5,-1 -10,-2 -15,-3 -11,-2 -19,-6 -25,-12 -5,-6 -8,-13 -8,-22 0,-10 5,-19 14,-25 8,-7 19,-10 33,-10 9,0 17,0 24,2 7,2 14,4 19,6l0 20 -1 0c-5,-4 -11,-8 -18,-10 -8,-3 -16,-4 -24,-4 -9,0 -16,2 -21,5 -6,4 -8,9 -8,14 0,6 1,10 4,13 2,3 7,5 14,6 3,1 8,2 15,3 6,1 12,2 17,4 9,2 16,6 20,11 5,5 7,12 7,20zm-1184 134l-44 0 0 109 -17 0 0 -109 -44 0 0 -15 105 0 0 15zm671 74c0,5 -1,10 -3,14 -2,5 -6,9 -10,12 -4,4 -9,7 -15,9 -6,2 -13,3 -21,3 -9,0 -17,-1 -25,-3 -7,-2 -14,-4 -21,-7l0 -21 1 0c6,5 13,9 22,12 8,3 15,4 23,4 10,0 18,-2 23,-5 6,-4 9,-9 9,-16 0,-5 -1,-9 -4,-12 -3,-3 -7,-5 -12,-6 -4,-1 -9,-2 -14,-3 -5,0 -10,-1 -15,-2 -11,-3 -19,-7 -25,-12 -5,-6 -8,-13 -8,-22 0,-11 5,-19 13,-26 9,-7 20,-10 34,-10 9,0 17,1 24,3 7,1 14,3 19,6l0 19 -1 0c-5,-4 -11,-7 -18,-10 -8,-2 -16,-4 -24,-4 -9,0 -16,2 -21,6 -6,4 -8,8 -8,14 0,5 1,9 4,12 2,3 7,5 14,7 3,1 8,2 15,3 6,1 12,2 16,3 10,3 17,6 21,11 5,5 7,12 7,21zm-576 -11c0,15 -4,27 -12,36 -8,9 -18,13 -31,13 -13,0 -24,-4 -32,-13 -7,-9 -11,-21 -11,-36 0,-15 4,-27 11,-36 8,-9 19,-13 32,-13 13,0 23,4 31,13 8,9 12,21 12,36zm-16 0c0,-12 -3,-21 -8,-27 -4,-6 -11,-9 -19,-9 -9,0 -15,3 -20,9 -5,6 -7,15 -7,27 0,11 2,20 7,26 5,6 11,9 20,9 8,0 15,-3 19,-9 5,-6 8,-14 8,-26zm157 -47l-24 93 -15 0 -23 -71 -24 71 -15 0 -24 -93 16 0 17 72 24 -72 12 0 24 72 17 -72 15 0zm39 -15l-17 0 0 -17 17 0 0 17zm-1 108l-15 0 0 -93 15 0 0 93zm110 0l-16 0 0 -53c0,-4 0,-8 -1,-12 0,-3 -1,-6 -3,-8 -1,-3 -3,-5 -6,-6 -2,-1 -6,-1 -10,-1 -4,0 -9,1 -13,3 -5,2 -9,5 -14,8l0 69 -15 0 0 -93 15 0 0 11c5,-4 10,-8 15,-10 6,-2 11,-3 17,-3 10,0 17,3 23,9 5,6 8,15 8,26l0 60zm105 -10c0,16 -3,27 -11,34 -7,8 -18,12 -33,12 -5,0 -10,-1 -14,-2 -5,0 -10,-1 -14,-2l0 -16 1 0c2,1 6,2 12,3 5,2 11,2 17,2 5,0 9,0 13,-2 3,-1 6,-3 8,-5 2,-2 3,-5 4,-8 1,-3 1,-6 1,-10l0 -8c-4,4 -9,6 -13,8 -4,2 -10,3 -17,3 -11,0 -20,-4 -26,-12 -7,-8 -10,-19 -10,-34 0,-8 1,-15 3,-21 3,-5 6,-10 10,-15 3,-4 8,-7 13,-9 5,-2 10,-3 15,-3 6,0 10,0 14,1 4,1 7,3 11,5l1 -4 15 0 0 83zm-16 -15l0 -51c-4,-2 -8,-3 -11,-4 -4,-1 -7,-1 -11,-1 -9,0 -15,3 -20,9 -5,5 -8,14 -8,25 0,10 2,18 6,23 3,6 10,9 18,9 5,0 9,-1 14,-3 4,-2 9,-4 12,-7zm302 -20l-69 0c0,6 1,11 3,15 1,5 4,8 7,11 3,2 6,4 10,6 4,1 8,2 13,2 6,0 13,-1 19,-4 7,-3 11,-5 14,-7l1 0 0 17c-6,2 -11,4 -16,5 -6,2 -12,2 -18,2 -15,0 -27,-4 -36,-12 -9,-8 -13,-20 -13,-36 0,-15 4,-27 13,-36 8,-9 19,-13 32,-13 13,0 23,3 29,11 7,7 11,17 11,31l0 8zm-16 -11c0,-9 -2,-15 -6,-20 -4,-4 -10,-6 -18,-6 -9,0 -16,2 -21,7 -5,5 -7,11 -8,19l53 0zm98 -20l-1 0c-3,0 -5,-1 -7,-1 -2,0 -5,0 -8,0 -5,0 -9,1 -14,3 -4,2 -9,5 -13,8l0 66 -16 0 0 -93 16 0 0 14c6,-5 12,-8 17,-11 4,-2 9,-3 14,-3 3,0 5,0 6,1 1,0 3,0 6,0l0 16zm95 -17l-38 93 -16 0 -37 -93 17 0 29 74 28 -74 17 0zm37 -15l-18 0 0 -17 18 0 0 17zm-1 108l-16 0 0 -93 16 0 0 93zm100 -5c-5,2 -10,4 -15,5 -5,2 -10,2 -15,2 -7,0 -13,-1 -18,-3 -6,-1 -11,-4 -15,-8 -4,-4 -7,-10 -9,-16 -2,-6 -3,-13 -3,-21 0,-15 4,-27 12,-36 8,-9 19,-13 33,-13 6,0 11,1 16,2 5,2 10,4 14,6l0 17 -1 0c-5,-3 -10,-6 -15,-8 -5,-2 -10,-3 -14,-3 -9,0 -16,3 -22,9 -5,6 -7,14 -7,26 0,11 2,20 7,26 5,6 12,9 22,9 3,0 6,-1 9,-1 3,-1 6,-2 9,-4 2,-1 4,-2 6,-3 2,-2 4,-3 5,-4l1 0 0 18zm98 -40l-69 0c0,6 1,11 3,15 2,5 4,8 7,11 3,2 6,4 10,6 4,1 9,2 13,2 7,0 13,-1 20,-4 6,-3 11,-5 13,-7l1 0 0 17c-5,2 -11,4 -16,5 -6,2 -11,2 -17,2 -16,0 -28,-4 -36,-12 -9,-8 -13,-20 -13,-36 0,-15 4,-27 12,-36 8,-9 19,-13 33,-13 12,0 22,3 29,11 7,7 10,17 10,31l0 8zm-15 -11c0,-9 -2,-15 -6,-20 -4,-4 -11,-6 -19,-6 -8,0 -15,2 -20,7 -5,5 -8,11 -9,19l54 0zm-1024 237c0,8 -4,15 -11,21 -7,5 -16,8 -28,8 -7,0 -14,-1 -19,-3 -6,-1 -11,-3 -15,-5l0 -18 1 0c5,4 10,7 16,9 7,3 12,4 18,4 7,0 12,-1 16,-4 4,-2 6,-5 6,-10 0,-4 -1,-7 -3,-8 -3,-2 -7,-4 -13,-5 -2,-1 -5,-1 -8,-2 -4,-1 -7,-1 -10,-2 -8,-2 -14,-6 -17,-10 -4,-4 -5,-9 -5,-15 0,-4 0,-8 2,-11 2,-3 4,-6 7,-9 3,-3 7,-5 12,-6 5,-2 10,-3 16,-3 6,0 11,1 17,2 6,2 11,3 14,5l0 17 0 0c-4,-3 -9,-5 -15,-7 -6,-2 -11,-3 -17,-3 -6,0 -10,1 -14,3 -4,2 -6,5 -6,10 0,4 1,6 3,8 3,2 6,4 12,5 3,1 6,1 9,2 4,1 7,1 9,2 8,2 13,4 17,9 4,4 6,9 6,16zm104 -21c0,8 -1,15 -3,21 -2,6 -5,11 -9,16 -4,4 -8,7 -13,9 -5,3 -10,4 -16,4 -5,0 -9,-1 -13,-2 -4,-1 -8,-3 -12,-5l0 39 -16 0 0 -127 16 0 0 10c4,-4 9,-7 14,-9 5,-3 11,-4 17,-4 11,0 20,4 26,13 6,8 9,20 9,35zm-16 1c0,-12 -2,-20 -6,-26 -3,-5 -9,-8 -17,-8 -5,0 -9,1 -14,3 -4,2 -9,5 -13,8l0 52c4,2 8,4 12,4 3,1 6,2 10,2 9,0 16,-3 21,-9 5,-6 7,-15 7,-26zm119 2l-69 0c0,6 1,11 3,15 1,4 4,8 7,10 3,3 6,5 10,6 4,2 8,2 13,2 6,0 13,-1 19,-4 7,-2 11,-5 14,-7l1 0 0 17c-5,2 -11,4 -16,6 -6,1 -12,2 -18,2 -15,0 -27,-4 -36,-13 -9,-8 -13,-20 -13,-35 0,-15 4,-27 13,-36 8,-9 19,-14 32,-14 13,0 23,4 29,11 7,8 11,18 11,31l0 9zm-16 -12c0,-8 -2,-15 -6,-19 -4,-5 -10,-7 -18,-7 -9,0 -15,3 -20,8 -5,5 -8,11 -9,18l53 0zm108 51c-5,2 -10,4 -15,6 -4,1 -9,2 -14,2 -7,0 -13,-1 -19,-3 -6,-2 -10,-5 -14,-9 -4,-4 -8,-9 -10,-15 -2,-6 -3,-13 -3,-22 0,-15 4,-27 12,-35 9,-9 20,-13 34,-13 5,0 10,0 15,2 5,1 10,3 14,5l0 18 0 0c-5,-4 -10,-7 -15,-9 -5,-2 -10,-3 -15,-3 -9,0 -16,3 -21,9 -5,6 -8,15 -8,26 0,12 3,20 8,26 5,6 12,9 21,9 3,0 6,0 10,-1 3,-1 6,-2 8,-3 3,-1 5,-3 7,-4 2,-1 3,-2 5,-3l0 0 0 17zm37 -103l-18 0 0 -16 18 0 0 16zm-1 109l-16 0 0 -93 16 0 0 93zm104 0l-16 0 0 -10c-1,1 -3,2 -6,4 -2,2 -4,3 -6,4 -3,1 -6,2 -9,3 -4,1 -8,1 -12,1 -9,0 -16,-2 -22,-8 -5,-5 -8,-13 -8,-21 0,-7 1,-13 4,-17 3,-5 8,-8 13,-11 6,-2 13,-4 20,-5 8,-1 17,-1 26,-2l0 -2c0,-4 -1,-7 -2,-9 -1,-2 -3,-4 -5,-6 -2,-1 -5,-2 -8,-2 -3,-1 -7,-1 -10,-1 -4,0 -9,1 -14,2 -5,1 -10,2 -15,5l-1 0 0 -16c3,-1 7,-2 13,-3 6,-1 12,-2 17,-2 7,0 12,1 17,2 5,1 9,3 13,6 3,2 6,5 8,10 2,4 3,9 3,15l0 63zm-16 -23l0 -26c-5,0 -10,1 -17,1 -6,1 -11,1 -15,3 -5,1 -8,3 -11,6 -3,2 -4,6 -4,11 0,5 1,9 5,12 3,3 8,4 14,4 6,0 11,-1 15,-3 5,-2 9,-5 13,-8zm61 23l-15 0 0 -130 15 0 0 130zm171 -47c0,16 -4,27 -12,36 -8,9 -18,13 -31,13 -13,0 -24,-4 -31,-13 -8,-9 -12,-20 -12,-36 0,-15 4,-27 12,-36 7,-8 18,-13 31,-13 13,0 23,5 31,13 8,9 12,21 12,36zm-16 0c0,-12 -3,-21 -7,-26 -5,-6 -12,-9 -20,-9 -8,0 -15,3 -20,9 -4,5 -7,14 -7,26 0,12 3,21 7,27 5,6 12,9 20,9 8,0 15,-3 20,-9 4,-6 7,-15 7,-27zm90 -68l-1 0c-1,0 -4,-1 -6,-1 -3,-1 -6,-1 -8,-1 -6,0 -11,1 -14,4 -3,3 -5,9 -5,17l0 3 28 0 0 13 -27 0 0 80 -16 0 0 -80 -11 0 0 -13 11 0 0 -3c0,-11 3,-20 8,-26 6,-6 14,-9 24,-9 3,0 7,0 9,1 3,0 6,0 8,1l0 14zm60 0l-1 0c-1,0 -4,-1 -6,-1 -3,-1 -6,-1 -8,-1 -6,0 -11,1 -14,4 -3,3 -5,9 -5,17l0 3 28 0 0 13 -27 0 0 80 -16 0 0 -80 -11 0 0 -13 11 0 0 -3c0,-11 3,-20 8,-26 6,-6 14,-9 24,-9 4,0 7,0 9,1 3,0 6,0 8,1l0 14zm88 70l-68 0c0,6 0,11 2,15 2,4 4,8 7,10 3,3 7,5 11,6 3,2 8,2 13,2 6,0 12,-1 19,-4 6,-2 11,-5 13,-7l1 0 0 17c-5,2 -10,4 -16,6 -5,1 -11,2 -17,2 -16,0 -28,-4 -36,-13 -9,-8 -13,-20 -13,-35 0,-15 4,-27 12,-36 8,-9 19,-14 33,-14 13,0 22,4 29,11 7,8 10,18 10,31l0 9zm-15 -12c0,-8 -2,-15 -6,-19 -4,-5 -11,-7 -19,-7 -8,0 -15,3 -20,8 -5,5 -8,11 -8,18l53 0zm97 -19l-1 0c-2,-1 -4,-1 -7,-1 -2,-1 -4,-1 -7,-1 -5,0 -10,1 -14,4 -5,2 -9,4 -13,8l0 66 -16 0 0 -93 16 0 0 14c6,-5 11,-9 16,-11 5,-2 10,-3 15,-3 2,0 4,0 6,0 1,0 3,0 5,1l0 16zm81 49c0,8 -3,15 -10,21 -7,5 -17,8 -29,8 -7,0 -13,-1 -19,-3 -6,-1 -11,-3 -14,-5l0 -18 0 0c5,4 11,7 17,9 6,3 12,4 17,4 7,0 12,-1 16,-4 4,-2 6,-5 6,-10 0,-4 -1,-7 -3,-8 -2,-2 -6,-4 -12,-5 -2,-1 -5,-1 -9,-2 -3,-1 -7,-1 -10,-2 -8,-2 -14,-6 -17,-10 -3,-4 -5,-9 -5,-15 0,-4 1,-8 2,-11 2,-3 4,-6 8,-9 3,-3 7,-5 11,-6 5,-2 11,-3 17,-3 5,0 11,1 17,2 5,2 10,3 14,5l0 17 -1 0c-4,-3 -9,-5 -15,-7 -5,-2 -11,-3 -16,-3 -6,0 -11,1 -15,3 -4,2 -6,5 -6,10 0,4 1,6 4,8 2,2 6,4 11,5 3,1 6,1 10,2 3,1 6,1 9,2 7,2 12,4 16,9 4,4 6,9 6,16z"/>
  <path class="fil4" d="M1616 1853c0,35 -10,63 -30,84 -21,20 -48,31 -84,31 -35,0 -63,-11 -83,-31 -20,-21 -30,-49 -30,-84 0,-35 10,-63 30,-83 20,-21 48,-31 83,-31 36,0 63,10 83,31 21,20 31,48 31,83zm-75 56c5,-7 9,-15 12,-24 2,-9 4,-19 4,-32 0,-13 -2,-24 -5,-33 -3,-10 -7,-17 -12,-23 -5,-6 -11,-10 -17,-13 -7,-2 -13,-4 -20,-4 -8,0 -14,2 -21,4 -6,3 -12,7 -17,13 -5,5 -9,13 -12,23 -3,9 -5,21 -5,33 0,13 2,25 5,34 3,9 7,16 12,22 4,6 10,10 17,13 6,3 13,4 21,4 7,0 14,-1 20,-4 7,-3 13,-7 18,-13zm275 -123l-100 0 0 41 92 0 0 42 -92 0 0 94 -57 0 0 -219 157 0 0 42zm196 0l-100 0 0 41 93 0 0 42 -93 0 0 94 -57 0 0 -219 157 0 0 42zm299 0l-100 0 0 41 93 0 0 42 -93 0 0 94 -57 0 0 -219 157 0 0 42zm253 67c0,35 -10,63 -30,84 -20,20 -48,31 -83,31 -36,0 -63,-11 -83,-31 -20,-21 -30,-49 -30,-84 0,-35 10,-63 30,-83 20,-21 47,-31 83,-31 35,0 62,10 83,31 20,20 30,48 30,83zm-75 56c5,-7 9,-15 12,-24 3,-9 4,-19 4,-32 0,-13 -2,-24 -5,-33 -3,-10 -7,-17 -12,-23 -5,-6 -10,-10 -17,-13 -6,-2 -13,-4 -20,-4 -7,0 -14,2 -21,4 -6,3 -12,7 -17,13 -5,5 -9,13 -12,23 -3,9 -5,21 -5,33 0,13 2,25 5,34 3,9 7,16 12,22 5,6 10,10 17,13 7,3 13,4 21,4 7,0 14,-1 21,-4 6,-3 12,-7 17,-13zm240 -98c0,-6 -1,-10 -3,-14 -2,-4 -6,-7 -11,-10 -4,-1 -9,-2 -14,-2 -5,-1 -10,-1 -17,-1l-20 0 0 59 17 0c9,0 16,-1 22,-2 6,-1 11,-3 15,-6 4,-3 7,-6 9,-10 2,-3 2,-8 2,-14zm89 152l-69 0 -60 -81 -25 0 0 81 -57 0 0 -219 95 0c13,0 24,0 33,2 10,1 18,5 26,9 9,5 15,12 20,19 5,8 7,18 7,30 0,16 -3,29 -11,39 -7,11 -18,19 -32,26l73 94zm-2109 298c0,21 -9,39 -27,52 -18,14 -43,21 -75,21 -18,0 -34,-2 -47,-5 -14,-3 -26,-7 -38,-12l0 -53 6 0c12,9 25,17 39,22 15,5 29,7 42,7 4,0 8,0 14,-1 5,0 10,-1 13,-3 5,-2 8,-4 11,-6 3,-3 4,-7 4,-12 0,-5 -2,-9 -6,-13 -4,-3 -10,-6 -18,-8 -8,-2 -17,-3 -26,-5 -9,-2 -18,-4 -26,-7 -18,-6 -32,-14 -40,-24 -8,-10 -12,-23 -12,-38 0,-21 9,-37 28,-50 18,-13 41,-20 70,-20 15,0 29,2 43,5 14,2 26,6 37,10l0 51 -6 0c-9,-7 -20,-13 -33,-18 -13,-5 -26,-7 -39,-7 -5,0 -9,0 -14,1 -5,0 -9,2 -14,3 -3,2 -7,4 -9,7 -3,3 -5,6 -5,10 0,6 3,10 7,14 4,3 13,5 25,8 8,2 16,3 23,5 8,1 16,4 24,6 17,6 29,13 37,23 8,9 12,22 12,37zm198 69l-159 0 0 -220 159 0 0 43 -102 0 0 38 95 0 0 42 -95 0 0 54 102 0 0 43zm247 0l-55 0 -93 -151 0 151 -51 0 0 -220 67 0 80 126 0 -126 52 0 0 220zm174 0l-128 0 0 -39 36 0 0 -142 -36 0 0 -39 128 0 0 39 -35 0 0 142 35 0 0 39zm260 -110c0,35 -10,63 -30,83 -20,21 -48,31 -83,31 -36,0 -63,-10 -83,-31 -20,-20 -30,-48 -30,-83 0,-35 10,-63 30,-84 20,-20 47,-30 83,-30 35,0 63,10 83,30 20,21 30,49 30,84zm-75 56c5,-7 9,-15 12,-24 3,-9 4,-20 4,-32 0,-13 -1,-24 -5,-34 -3,-9 -7,-16 -11,-22 -5,-6 -11,-10 -18,-13 -6,-3 -13,-4 -20,-4 -7,0 -14,1 -20,4 -7,2 -13,7 -18,13 -5,5 -9,13 -12,22 -3,10 -5,21 -5,34 0,13 2,24 5,33 3,10 7,17 12,23 5,6 10,10 17,13 7,2 14,4 21,4 7,0 14,-2 21,-4 6,-3 12,-8 17,-13zm241 -99c0,-5 -2,-10 -4,-14 -2,-4 -6,-7 -11,-9 -4,-1 -8,-2 -13,-3 -5,0 -11,0 -18,0l-20 0 0 58 17 0c9,0 16,0 22,-1 6,-1 11,-3 15,-6 4,-3 7,-6 9,-10 2,-4 3,-9 3,-15zm88 153l-69 0 -60 -81 -25 0 0 81 -57 0 0 -220 95 0c13,0 24,1 33,3 10,1 18,4 26,9 9,5 15,11 20,19 5,8 7,18 7,29 0,17 -3,30 -11,40 -7,10 -18,19 -32,26l73 94zm227 4c-16,0 -31,-2 -45,-7 -14,-5 -26,-12 -36,-22 -9,-9 -17,-21 -23,-35 -5,-15 -8,-31 -8,-50 0,-17 3,-33 8,-47 5,-14 13,-27 23,-37 9,-9 21,-17 35,-22 14,-6 30,-8 46,-8 10,0 18,0 25,1 8,1 15,3 21,4 7,2 13,4 18,7 5,2 10,4 14,6l0 53 -7 0c-2,-2 -6,-5 -10,-8 -4,-3 -9,-6 -14,-10 -6,-3 -11,-5 -18,-7 -6,-3 -13,-4 -20,-4 -8,0 -15,2 -23,4 -7,3 -13,7 -20,13 -5,5 -10,13 -14,22 -3,9 -5,20 -5,33 0,14 2,26 6,35 4,9 9,16 15,22 6,5 12,9 20,11 7,2 14,4 21,4 7,0 14,-1 21,-3 7,-2 13,-5 19,-9 4,-3 9,-6 13,-9 4,-3 7,-6 10,-8l6 0 0 52c-6,3 -11,5 -16,7 -5,2 -10,4 -16,6 -7,2 -13,3 -20,5 -6,1 -15,1 -26,1zm238 -4l-128 0 0 -39 35 0 0 -142 -35 0 0 -39 128 0 0 39 -36 0 0 142 36 0 0 39zm218 -177l-69 0 0 177 -56 0 0 -177 -69 0 0 -43 194 0 0 43zm152 177l-128 0 0 -39 36 0 0 -142 -36 0 0 -39 128 0 0 39 -36 0 0 142 36 0 0 39zm216 0l-184 0 0 -42 109 -135 -104 0 0 -43 173 0 0 42 -109 135 115 0 0 43zm198 0l-159 0 0 -220 159 0 0 43 -102 0 0 38 95 0 0 42 -95 0 0 54 102 0 0 43zm247 0l-55 0 -93 -151 0 151 -52 0 0 -220 68 0 80 126 0 -126 52 0 0 220zm231 -69c0,21 -9,39 -27,52 -19,14 -44,21 -75,21 -18,0 -34,-2 -47,-5 -14,-3 -27,-7 -38,-12l0 -53 6 0c12,9 25,17 39,22 14,5 28,7 42,7 3,0 8,0 13,-1 6,0 10,-1 14,-3 4,-2 8,-4 11,-6 2,-3 4,-7 4,-12 0,-5 -2,-9 -6,-13 -4,-3 -10,-6 -18,-8 -8,-2 -17,-3 -26,-5 -10,-2 -18,-4 -26,-7 -19,-6 -32,-14 -40,-24 -8,-10 -12,-23 -12,-38 0,-21 9,-37 27,-50 19,-13 42,-20 71,-20 14,0 29,2 43,5 14,2 26,6 36,10l0 51 -6 0c-9,-7 -19,-13 -32,-18 -13,-5 -26,-7 -39,-7 -5,0 -10,0 -14,1 -5,0 -10,2 -14,3 -4,2 -7,4 -10,7 -3,3 -4,6 -4,10 0,6 2,10 7,14 4,3 12,5 25,8 8,2 15,3 23,5 7,1 15,4 24,6 17,6 29,13 37,23 8,9 12,22 12,37z"/>
  <path id="_375678808" class="fil5" d="M258 767l465 0 0 -232 -64 0 0 169 -337 0 0 -337 169 0 0 -64 -233 0 0 464zm465 -296l0 -168 -168 0 0 64 104 0 0 104 64 0z"/>
  <g id="_547447520">
   <path id="_375679576" class="fil6" d="M843 591l0 -242c0,-14 4,-26 14,-35 10,-9 21,-13 34,-13 11,0 22,3 32,9 10,5 18,14 24,26l44 94 0 -127 91 0 0 243c0,17 -5,30 -15,39 -9,8 -20,13 -33,13 -10,0 -20,-3 -30,-9 -10,-6 -18,-14 -23,-24l-47 -91 0 117 -91 0z"/>
   <path id="_375679696" class="fil6" d="M1092 616l22 -279c0,-17 7,-32 22,-42 14,-11 31,-17 49,-17 16,0 30,4 42,13 12,8 20,21 24,38l26 109 30 -116c3,-13 11,-23 25,-31 13,-7 28,-11 43,-11 19,0 34,5 47,15 15,12 23,28 23,49l22 272 -101 0 -11 -193 -41 171c-1,8 -6,15 -12,20 -7,4 -14,7 -23,7 -8,0 -15,-2 -21,-6 -6,-4 -9,-10 -11,-18l-44 -174 -12 193 -99 0z"/>
   <path id="_368675264" class="fil6" d="M1485 606l0 -91 70 0c7,0 14,-1 20,-4 5,-2 8,-6 8,-10 0,-2 0,-4 -1,-5 -2,-4 -5,-8 -10,-10 -29,-21 -50,-39 -61,-52 -17,-20 -26,-42 -26,-64l-1 -4c0,-27 13,-47 40,-60 18,-10 39,-14 63,-14l95 0 0 85 -66 0c-7,0 -13,1 -18,3 -5,2 -7,5 -7,8 0,4 4,9 11,14 35,27 56,43 61,48 20,19 30,40 30,61l0 11c0,27 -12,48 -35,64 -21,13 -46,20 -75,20l-98 0z"/>
  </g>
  <path id="_491115792" class="fil6" d="M846 695l10 0 42 62 0 -62 7 0 0 74 -7 0 -44 -65 0 65 -8 0 0 -74zm79 49c0,4 1,7 3,10 2,3 5,5 8,7 3,2 6,2 10,2 2,0 5,0 8,-1 2,-1 5,-2 7,-4 2,-2 3,-4 4,-7l8 0c-1,4 -3,7 -6,10 -3,3 -6,5 -9,7 -4,2 -8,3 -12,3 -5,0 -10,-2 -14,-4 -5,-3 -8,-6 -11,-11 -2,-4 -4,-9 -4,-14 0,-6 2,-10 4,-15 3,-4 6,-8 11,-10 4,-3 9,-4 14,-4 4,0 9,1 12,3 4,1 8,4 10,7 3,3 4,7 5,10 1,3 2,7 2,11l-50 0zm42 -6c0,-4 -2,-7 -4,-9 -2,-3 -4,-5 -7,-7 -3,-1 -6,-2 -10,-2 -3,0 -6,1 -9,2 -3,2 -6,4 -8,7 -2,2 -4,5 -4,9l42 0zm74 31l-7 0 0 -10c-1,2 -3,5 -5,6 -2,2 -5,3 -8,4 -2,1 -5,2 -8,2 -4,0 -9,-1 -13,-3 -4,-2 -8,-5 -12,-9 -1,-2 -2,-4 -3,-7 -1,-3 -2,-7 -2,-11 0,-3 1,-6 2,-10 1,-3 3,-5 4,-6 7,-8 15,-12 24,-12 4,0 8,1 12,3 4,2 7,5 9,9l0 -11 7 0 0 55zm-50 -27c0,4 1,7 3,11 2,3 4,6 8,8 3,1 7,2 11,2 4,0 7,-1 10,-3 4,-1 6,-4 8,-7 2,-4 3,-7 3,-11 0,-4 -1,-8 -3,-11 -1,-3 -4,-6 -7,-8 -4,-2 -7,-3 -11,-3 -4,0 -8,1 -11,3 -4,2 -6,4 -8,8 -2,3 -3,7 -3,11zm63 -28l7 0 0 8c3,-6 8,-9 16,-9l0 7c-4,0 -7,2 -10,4 -2,2 -4,4 -4,6 -1,2 -1,5 -1,8l0 31 -8 0 0 -55zm60 -19l11 0 28 63 27 -63 11 0 0 74 -7 0 0 -66 -28 66 -7 0 -28 -66 0 66 -7 0 0 -74zm97 49c0,4 1,7 3,10 2,3 5,5 8,7 3,2 6,2 10,2 2,0 5,0 8,-1 2,-1 5,-2 7,-4 2,-2 3,-4 4,-7l8 0c-1,4 -3,7 -6,10 -3,3 -6,5 -10,7 -3,2 -7,3 -11,3 -5,0 -10,-2 -14,-4 -5,-3 -8,-6 -11,-11 -2,-4 -4,-9 -4,-14 0,-6 2,-10 4,-15 3,-4 6,-8 11,-10 4,-3 9,-4 14,-4 4,0 8,1 12,3 4,1 7,4 10,7 3,3 4,7 5,10 1,3 2,7 2,11l-50 0zm42 -6c0,-4 -2,-7 -4,-9 -2,-3 -4,-5 -7,-7 -3,-1 -7,-2 -10,-2 -3,0 -7,1 -10,2 -3,2 -5,4 -7,7 -2,2 -4,5 -4,9l42 0zm50 10c0,3 1,6 2,8 1,2 3,4 5,5 3,2 5,2 8,2 3,0 5,0 8,-1 2,-2 4,-3 5,-6 2,-2 2,-5 2,-7 0,-2 0,-4 -1,-6 -1,-2 -2,-4 -4,-5 -1,-1 -3,-2 -5,-3 -2,-1 -4,-1 -6,-2 -4,-1 -6,-2 -8,-2 -2,-1 -4,-2 -6,-4 -4,-3 -6,-8 -6,-13 0,-4 1,-8 3,-11 2,-3 4,-5 8,-7 3,-2 6,-3 10,-3 4,0 8,1 11,3 3,2 5,4 7,7 2,3 3,7 3,11l-8 0c0,-3 -1,-5 -2,-7 -1,-2 -3,-4 -5,-5 -2,-1 -4,-1 -7,-1 -2,0 -4,0 -6,1 -2,2 -4,3 -5,5 -1,2 -1,4 -1,7 0,2 0,5 2,6 1,2 3,3 5,4 2,1 4,2 7,3 4,1 7,2 9,2 2,1 4,2 6,4 2,2 4,4 5,7 1,3 2,6 2,9 0,4 -1,7 -3,11 -2,3 -5,6 -9,8 -3,2 -7,3 -11,3 -4,0 -8,-1 -12,-3 -3,-2 -6,-5 -8,-8 -2,-4 -3,-7 -3,-12l8 0zm52 -4c0,4 1,7 3,10 2,3 4,5 8,7 3,2 6,2 9,2 3,0 6,0 9,-1 2,-1 5,-2 7,-4 2,-2 3,-4 4,-7l8 0c-1,4 -3,7 -6,10 -3,3 -6,5 -10,7 -3,2 -7,3 -11,3 -5,0 -10,-2 -14,-4 -5,-3 -8,-6 -11,-11 -3,-4 -4,-9 -4,-14 0,-6 1,-10 4,-15 3,-4 6,-8 10,-10 5,-3 10,-4 15,-4 4,0 8,1 12,3 4,1 7,4 10,7 3,3 4,7 5,10 1,3 2,7 2,11l-50 0zm42 -6c0,-4 -2,-7 -4,-9 -2,-3 -4,-5 -7,-7 -3,-1 -7,-2 -10,-2 -3,0 -7,1 -10,2 -3,2 -5,4 -7,7 -2,2 -4,5 -4,9l42 0zm18 -24l7 0 0 8c3,-6 8,-9 16,-9l0 7c-4,0 -7,2 -10,4 -2,2 -4,4 -5,6 0,2 -1,5 -1,8l0 31 -7 0 0 -55zm25 0l8 0 19 46 19 -46 8 0 -23 55 -8 0 -23 -55zm61 0l8 0 0 55 -8 0 0 -55zm0 -19l8 0 0 12 -8 0 0 -12zm75 58c-2,6 -6,10 -10,13 -5,3 -11,5 -16,5 -6,0 -11,-2 -16,-4 -4,-3 -8,-6 -11,-11 -2,-4 -4,-9 -4,-14 0,-6 2,-11 4,-15 3,-4 7,-8 11,-10 5,-3 10,-4 15,-4 4,0 8,1 12,2 3,1 6,4 9,6 3,3 5,6 7,10l-9 0c-1,-2 -3,-4 -5,-6 -2,-2 -4,-3 -6,-4 -3,-1 -5,-1 -8,-1 -4,0 -7,1 -11,3 -3,2 -6,4 -8,7 -2,4 -3,7 -3,11 0,4 1,8 3,12 2,3 4,6 8,7 3,2 7,3 11,3 4,0 8,0 11,-2 3,-2 6,-4 8,-8l8 0zm16 -9c0,4 1,7 3,10 2,3 5,5 8,7 3,2 7,2 10,2 3,0 5,0 8,-1 3,-1 5,-2 7,-4 2,-2 4,-4 5,-7l8 0c-2,4 -4,7 -6,10 -3,3 -6,5 -10,7 -4,2 -7,3 -11,3 -6,0 -10,-2 -15,-4 -4,-3 -8,-6 -10,-11 -3,-4 -4,-9 -4,-14 0,-6 1,-10 4,-15 2,-4 6,-8 10,-10 4,-3 9,-4 14,-4 5,0 9,1 13,3 4,1 7,4 10,7 2,3 4,7 5,10 1,3 1,7 1,11l-50 0zm43 -6c-1,-4 -2,-7 -4,-9 -2,-3 -5,-5 -8,-7 -3,-1 -6,-2 -9,-2 -4,0 -7,1 -10,2 -3,2 -6,4 -8,7 -2,2 -3,5 -4,9l43 0zm20 15c0,2 1,4 2,5 1,2 2,3 3,4 2,1 4,1 5,1 3,0 5,0 7,-2 2,-2 3,-4 3,-7 0,-3 -1,-5 -3,-7 -2,-1 -4,-3 -8,-3 -2,-1 -4,-2 -6,-3 -1,0 -2,-1 -4,-2 -3,-3 -4,-6 -4,-11 0,-3 1,-5 2,-8 2,-2 3,-4 6,-5 2,-2 5,-2 8,-2 3,0 5,0 7,2 3,1 5,3 6,5 1,3 2,5 2,8l-7 0c0,-3 -1,-5 -3,-6 -1,-1 -3,-2 -6,-2 -2,0 -4,1 -5,2 -2,2 -3,3 -3,6 0,2 1,3 2,4 1,1 2,2 3,3 1,1 3,1 5,2 3,1 6,2 8,3 2,1 4,3 6,5 1,2 2,5 2,8 0,3 -1,6 -3,9 -1,3 -3,5 -6,6 -3,2 -6,3 -9,3 -3,0 -6,-1 -9,-3 -2,-1 -4,-3 -6,-6 -1,-3 -2,-6 -2,-9l7 0z"/>
 </g>
</svg>
