<?xml version="1.0" encoding="UTF-8"?>
<!DOCTYPE svg PUBLIC "-//W3C//DTD SVG 1.1//EN" "http://www.w3.org/Graphics/SVG/1.1/DTD/svg11.dtd">
<!-- Creator: CorelDRAW -->
<svg xmlns="http://www.w3.org/2000/svg" xml:space="preserve" width="42.7468mm" height="31.7905mm" style="shape-rendering:geometricPrecision; text-rendering:geometricPrecision; image-rendering:optimizeQuality; fill-rule:evenodd; clip-rule:evenodd"
viewBox="0 0 19.4927 14.4966"
 xmlns:xlink="http://www.w3.org/1999/xlink">
 <defs>
  <style type="text/css">
   <![CDATA[
    .str0 {stroke:#4D4D4D;stroke-width:0.0456004;stroke-dasharray:0.228002 0.136801}
    .fil0 {fill:none}
    .fil5 {fill:#1A1A1A}
    .fil1 {fill:#E6E6E6}
    .fil2 {fill:#F39513}
    .fil7 {fill:#153452;fill-rule:nonzero}
    .fil3 {fill:#163452;fill-rule:nonzero}
    .fil4 {fill:#2B2A29;fill-rule:nonzero}
    .fil6 {fill:#F39513;fill-rule:nonzero}
   ]]>
  </style>
 </defs>
 <g id="Layer_x0020_1">
  <metadata id="CorelCorpID_0Corel-Layer"/>
  <polygon class="fil0 str0" points="0.0228002,0.0228002 19.4699,0.0228002 19.4699,13.9598 0.0228002,13.9598 "/>
  <polygon class="fil1" points="0.508991,0.508991 18.9837,0.508991 18.9837,13.4736 0.508991,13.4736 "/>
  <g id="_424723064">
   <path id="_375678808" class="fil2" d="M1.31201 3.34128l2.26392 0 0 -1.13198 -0.311268 0 0 0.82067 -1.64143 0 0 -1.64134 0.820716 0 0 -0.311314 -1.13194 0 0 2.26397zm2.26392 -1.4433l0 -0.82067 -0.820716 0 0 0.311314 0.509447 0 0 0.509356 0.311268 0z"/>
   <g>
    <path id="_375679576" class="fil3" d="M3.98784 2.51723l0 -1.11438c0,-0.066531 0.0222074,-0.119883 0.0665766,-0.160057 0.0443692,-0.0402195 0.096992,-0.0603293 0.158005,-0.0603293 0.0498868,0 0.0977216,0.0131785 0.143413,0.0394899 0.0457828,0.026357 0.0825367,0.0665766 0.110216,0.120613l0.203788 0.432428 0 -0.582089 0.417882 0 0 1.11438c0,0.0776118 -0.0228914,0.137896 -0.068583,0.180897 -0.0402651,0.0387603 -0.090836,0.0581861 -0.151849,0.0581861 -0.0456916,0 -0.0917936,-0.0131329 -0.138215,-0.0394899 -0.0464212,-0.0263114 -0.0814423,-0.0630653 -0.105018,-0.110171l-0.218335 -0.417927 0 0.538449 -0.417882 0z"/>
    <path id="_375679696" class="fil3" d="M5.1326 2.63005l0.10292 -1.28237c0,-0.0797551 0.0334707,-0.144736 0.100503,-0.194987 0.066987,-0.050206 0.141908,-0.0753318 0.224855,-0.0753318 0.073371,0 0.138352,0.019517 0.194987,0.0585965 0.0565901,0.0390795 0.0929336,0.0977216 0.108894,0.175835l0.119564 0.500054 0.138808 -0.533524c0.0143185,-0.0574109 0.052258,-0.104106 0.113636,-0.139993 0.0613781,-0.0358419 0.128,-0.0538084 0.199775,-0.0538084 0.0845431,0 0.156318,0.0231194 0.215325,0.0693582 0.070179,0.0542645 0.105291,0.130007 0.105291,0.227272l0.102829 1.2489 -0.464121 0 -0.0502516 -0.887611 -0.188968 0.784783c-0.00802567,0.0398547 -0.0271322,0.0705438 -0.0574109,0.0921128 -0.0303699,0.0214778 -0.0646157,0.0322851 -0.10292,0.0322851 -0.0366627,0 -0.0689478,-0.00880087 -0.0968552,-0.0263114 -0.027953,-0.0176017 -0.0450988,-0.0446428 -0.0514372,-0.0813511l-0.201006 -0.801518 -0.0574109 0.887611 -0.457007 0z"/>
    <path id="_368675264" class="fil3" d="M6.94193 2.58399l0 -0.419295 0.319522 0c0.0347475,0 0.0653453,-0.00528964 0.0917936,-0.0158689 0.0264482,-0.0105793 0.0396723,-0.0264026 0.0396723,-0.0475612 0,-0.00907448 -0.00150481,-0.0166441 -0.00451444,-0.0226634 -0.00907448,-0.0196538 -0.0241682,-0.0355227 -0.0453268,-0.0476068 -0.136026,-0.0966728 -0.230464,-0.175972 -0.283315,-0.237988 -0.0785695,-0.0921128 -0.117831,-0.190336 -0.117831,-0.294578l-0.00456004 -0.0158689c0,-0.125355 0.0604661,-0.218335 0.181307,-0.278755 0.0860935,-0.0423172 0.182812,-0.0634301 0.29011,-0.0634301l0.439633 0 0 0.389792 -0.303699 0c-0.0347475,0 -0.0626549,0.00528964 -0.0838135,0.0158689 -0.0211586,0.0105793 -0.0317379,0.023393 -0.0317379,0.0385323 0,0.0165985 0.0165985,0.0369819 0.0498412,0.0611501 0.163158,0.125401 0.256092,0.198726 0.278755,0.219885 0.092204,0.090608 0.13826,0.185046 0.13826,0.283224l0 0.0498868c0,0.123851 -0.053626,0.221344 -0.160924,0.292344 -0.0936632,0.0619253 -0.207755,0.0929336 -0.342185,0.0929336l-0.450988 0z"/>
   </g>
   <path id="_491115792" class="fil3" d="M4.00371 2.99198l0.0465124 0 0.192206 0.284683 0 -0.284683 0.0343827 0 0 0.343188 -0.0343827 0 -0.204381 -0.301738 0 0.301738 -0.0343371 0 0 -0.343188zm0.362295 0.228412c0.000684006,0.0155497 0.00565445,0.0300963 0.0148657,0.0436396 0.00916568,0.0134521 0.021113,0.0242138 0.0356595,0.0321939 0.0146377,0.00798007 0.0296402,0.0119929 0.0451444,0.0119929 0.0126769,0 0.0250346,-0.00223442 0.0371187,-0.00670326 0.0119929,-0.00460564 0.0228458,-0.0109897 0.0322851,-0.019517 0.00953048,-0.00852727 0.0167353,-0.0183314 0.021569,-0.0295034l0.0357051 0c-0.00588245,0.0169177 -0.0150937,0.0320571 -0.027725,0.0455092 -0.0126313,0.0135433 -0.0273146,0.024077 -0.0440956,0.0317379 -0.0167809,0.00766086 -0.0339723,0.0114913 -0.0516652,0.0114913 -0.0242594,0 -0.0466492,-0.00592805 -0.0670782,-0.0177841 -0.020429,-0.0117193 -0.0366171,-0.0277706 -0.0484276,-0.0481084 -0.0118561,-0.0202922 -0.0177385,-0.0425908 -0.0177385,-0.0669414 0,-0.024077 0.00588245,-0.0463756 0.0176473,-0.0668502 0.0118561,-0.020429 0.0278618,-0.0365715 0.048154,-0.0483364 0.020201,-0.0118105 0.0424084,-0.0176929 0.0664854,-0.0176929 0.0198818,0 0.0386691,0.00433204 0.0564533,0.0129961 0.0177841,0.00866407 0.0330147,0.0207482 0.0457828,0.0362979 0.0108985,0.0135433 0.0184226,0.0277706 0.0226634,0.0428188 0.00419524,0.0149569 0.00652085,0.0325587 0.00706806,0.0527596l-0.229872 0zm0.195489 -0.0310539c-0.00291842,-0.0149113 -0.00912008,-0.0285914 -0.018605,-0.0408579 -0.00943928,-0.0123121 -0.0210218,-0.0220706 -0.0347931,-0.0292754 -0.0138169,-0.00715926 -0.028409,-0.0107161 -0.0437308,-0.0107161 -0.0156409,0 -0.0305067,0.00346563 -0.0445972,0.0103513 -0.0140449,0.00697686 -0.0258554,0.0165529 -0.0353403,0.0289562 -0.00953048,0.0124033 -0.0156409,0.0262202 -0.0184226,0.0415419l0.195489 0zm0.340361 0.14583l-0.0329691 0 0 -0.0478348c-0.00633845,0.0116737 -0.0146377,0.0215234 -0.0248522,0.0295946 -0.0102145,0.00802567 -0.0216602,0.0140449 -0.0345195,0.018149 -0.0128137,0.00410403 -0.0258098,0.00615605 -0.0391707,0.00615605 -0.0197906,0 -0.0394443,-0.00451444 -0.0589613,-0.0134977 -0.0194714,-0.00889207 -0.0371643,-0.0224354 -0.052942,-0.0404019 -0.00579125,-0.00633845 -0.0114457,-0.0171001 -0.0169177,-0.0321027 -0.00542645,-0.0150937 -0.00816247,-0.0313731 -0.00816247,-0.0487924 0,-0.0154129 0.00305523,-0.0308715 0.00912008,-0.04633 0.00615605,-0.0155041 0.0119473,-0.0257642 0.0174193,-0.0307347 0.0334707,-0.0358875 0.0699054,-0.053854 0.109532,-0.053854 0.0209762,0 0.0404931,0.00460564 0.0585965,0.0138625 0.0181034,0.00925688 0.0317379,0.0225722 0.0408579,0.0399915l0 -0.0482908 0.0329691 0 0 0.254085zm-0.234112 -0.125857c0,0.0180578 0.00469684,0.0346107 0.0142273,0.0498868 0.00948488,0.0152305 0.0221618,0.0272234 0.0379395,0.0359331 0.0157777,0.00880087 0.0326043,0.0130873 0.050434,0.0130873 0.0173737,0 0.0335163,-0.00446884 0.0487012,-0.0134521 0.0151849,-0.00902888 0.0272234,-0.0211586 0.0362979,-0.0362067 0.00902888,-0.0150937 0.0135433,-0.0313731 0.0135433,-0.0487924 0,-0.0183314 -0.00433204,-0.0352947 -0.0129961,-0.0509356 -0.00875527,-0.0155041 -0.0207482,-0.0278618 -0.0359787,-0.0368907 -0.0152305,-0.00898327 -0.0321483,-0.0134521 -0.0504796,-0.0134521 -0.0182858,0 -0.0352035,0.00446884 -0.0507532,0.0134521 -0.0155953,0.00889207 -0.027953,0.0212042 -0.0371643,0.0366627 -0.00921128,0.0155041 -0.0137713,0.0323763 -0.0137713,0.0507076zm0.292618 -0.128228l0.0326043 0 0 0.0367539c0.0120385,-0.0269954 0.0366627,-0.0411315 0.0737358,-0.0423172l0 0.0338811c-0.0183314,0.00150481 -0.0336531,0.00734166 -0.045874,0.0176929 -0.0110809,0.00939368 -0.018149,0.0186506 -0.021341,0.0278162 -0.00310083,0.00921128 -0.00474244,0.0218882 -0.00474244,0.0381675l0 0.142091 -0.0343827 0 0 -0.254085zm0.274423 -0.0891031l0.052942 0 0.125355 0.292025 0.125036 -0.292025 0.052942 0 0 0.343188 -0.0343827 0 0 -0.305067 -0.12914 0.305067 -0.0292298 0 -0.12914 -0.305067 0 0.305067 -0.0343827 0 0 -0.343188zm0.445425 0.228412c0.000684006,0.0155497 0.00565445,0.0300963 0.0148657,0.0436396 0.00921128,0.0134521 0.0211586,0.0242138 0.0356595,0.0321939 0.0146377,0.00798007 0.0296858,0.0119929 0.0451444,0.0119929 0.0126769,0 0.0250802,-0.00223442 0.0371643,-0.00670326 0.0119929,-0.00460564 0.0228002,-0.0109897 0.0322851,-0.019517 0.00948488,-0.00852727 0.0166897,-0.0183314 0.021569,-0.0295034l0.0356595 0c-0.00583685,0.0169177 -0.0150937,0.0320571 -0.0276794,0.0455092 -0.0126313,0.0135433 -0.0273146,0.024077 -0.0441412,0.0317379 -0.0167809,0.00766086 -0.0339723,0.0114913 -0.0516196,0.0114913 -0.024305,0 -0.0466492,-0.00592805 -0.0671238,-0.0177841 -0.0203834,-0.0117193 -0.0365715,-0.0277706 -0.048382,-0.0481084 -0.0118561,-0.0202922 -0.0177841,-0.0425908 -0.0177841,-0.0669414 0,-0.024077 0.00592805,-0.0463756 0.0176929,-0.0668502 0.0118105,-0.020429 0.0278618,-0.0365715 0.0481084,-0.0483364 0.020201,-0.0118105 0.0424084,-0.0176929 0.0664854,-0.0176929 0.0198818,0 0.0387147,0.00433204 0.0564989,0.0129961 0.0177385,0.00866407 0.0329691,0.0207482 0.0457828,0.0362979 0.0108985,0.0135433 0.018377,0.0277706 0.0226634,0.0428188 0.00414963,0.0149569 0.00647525,0.0325587 0.00702246,0.0527596l-0.229872 0zm0.195489 -0.0310539c-0.00291842,-0.0149113 -0.00912008,-0.0285914 -0.0185594,-0.0408579 -0.00943928,-0.0123121 -0.0210674,-0.0220706 -0.0348387,-0.0292754 -0.0137713,-0.00715926 -0.028409,-0.0107161 -0.0436852,-0.0107161 -0.0156865,0 -0.0305067,0.00346563 -0.0445972,0.0103513 -0.0140905,0.00697686 -0.0258554,0.0165529 -0.0353859,0.0289562 -0.00948488,0.0124033 -0.0156409,0.0262202 -0.0184226,0.0415419l0.195489 0zm0.228002 0.0497044c0.000364803,0.0125401 0.00355683,0.024077 0.00962168,0.0345651 0.00601925,0.0105793 0.0142273,0.0189242 0.0246698,0.025217 0.0103969,0.00624725 0.0219338,0.00939368 0.0344283,0.00939368 0.0130417,0 0.0249434,-0.00287282 0.0357507,-0.00866407 0.0107617,-0.00579125 0.0194714,-0.0138169 0.0258098,-0.024305 0.00642965,-0.0103513 0.00957608,-0.0219794 0.00957608,-0.0347931 0,-0.00930248 -0.00214322,-0.018377 -0.00642965,-0.027041 -0.00424084,-0.00866407 -0.0100321,-0.0159145 -0.0172369,-0.0217514 -0.00720486,-0.00588245 -0.0147745,-0.0103057 -0.0228458,-0.0133609 -0.00798007,-0.00314643 -0.0180122,-0.00620165 -0.0301875,-0.00930248 -0.0146377,-0.00396723 -0.0264482,-0.00766086 -0.0354315,-0.0110809 -0.00907448,-0.00346563 -0.0173281,-0.00843607 -0.0250346,-0.0150025 -0.0191522,-0.0163249 -0.0287738,-0.0376659 -0.0287738,-0.0640685 0,-0.0180578 0.00433204,-0.0341547 0.0130873,-0.048154 0.00866407,-0.0139993 0.020429,-0.0248978 0.0352947,-0.0326955 0.0148657,-0.00770646 0.0312819,-0.0115825 0.0491572,-0.0115825 0.0171001,0 0.0328779,0.00410403 0.0473788,0.0122209 0.0144553,0.00820807 0.025901,0.0193802 0.0343371,0.0336075 0.00843607,0.0142273 0.0127225,0.0298682 0.0127225,0.0470596l-0.0357963 0c-0.000775206,-0.0115369 -0.00392163,-0.0218426 -0.00943928,-0.0309627 -0.00556325,-0.00912008 -0.0129049,-0.0162793 -0.022025,-0.0213866 -0.00921128,-0.00501604 -0.0196082,-0.00756966 -0.0311907,-0.00756966 -0.0108529,0 -0.0208394,0.00273602 -0.0298682,0.00811687 -0.00907448,0.00542645 -0.0162337,0.0127225 -0.0214778,0.0219338 -0.00515284,0.00912008 -0.00779767,0.0191066 -0.00779767,0.0298682 0,0.0127681 0.00310083,0.0229826 0.00930248,0.0307803 0.00615605,0.00784327 0.0139081,0.0137257 0.0232106,0.0177385 0.00925688,0.00396723 0.0210674,0.00798007 0.0352947,0.0118561 0.0181034,0.00501604 0.0314187,0.00921128 0.0400827,0.0125401 0.00857287,0.00332883 0.0172369,0.00889207 0.0259466,0.0166897 0.0101233,0.00875527 0.0180122,0.019517 0.0236666,0.0322851 0.00565445,0.0127681 0.00843607,0.0259922 0.00843607,0.0397635 0,0.0184226 -0.00478804,0.0352947 -0.0144097,0.0507076 -0.00957608,0.0153217 -0.0224354,0.0274058 -0.0384411,0.0362979 -0.0160057,0.00884647 -0.0332883,0.0132697 -0.0517108,0.0132697 -0.019289,0 -0.0370731,-0.00437764 -0.0534436,-0.0129961 -0.0162337,-0.00880087 -0.0291386,-0.0209306 -0.0386691,-0.0365715 -0.00953048,-0.0156409 -0.0143185,-0.0331971 -0.0143185,-0.0526228l0.0367539 0zm0.238216 -0.0186506c0.000729606,0.0155497 0.00565445,0.0300963 0.0149113,0.0436396 0.00916568,0.0134521 0.021113,0.0242138 0.0356595,0.0321939 0.0146377,0.00798007 0.0296402,0.0119929 0.0450988,0.0119929 0.0127225,0 0.0250802,-0.00223442 0.0371643,-0.00670326 0.0119929,-0.00460564 0.0228458,-0.0109897 0.0322851,-0.019517 0.00953048,-0.00852727 0.0167353,-0.0183314 0.021569,-0.0295034l0.0356595 0c-0.00583685,0.0169177 -0.0150481,0.0320571 -0.0276794,0.0455092 -0.0126313,0.0135433 -0.0273146,0.024077 -0.0440956,0.0317379 -0.0167809,0.00766086 -0.0340179,0.0114913 -0.0516652,0.0114913 -0.024305,0 -0.0466492,-0.00592805 -0.0670782,-0.0177841 -0.020429,-0.0117193 -0.0366171,-0.0277706 -0.0484276,-0.0481084 -0.0118561,-0.0202922 -0.0177385,-0.0425908 -0.0177385,-0.0669414 0,-0.024077 0.00588245,-0.0463756 0.0176473,-0.0668502 0.0118561,-0.020429 0.0278618,-0.0365715 0.048154,-0.0483364 0.020201,-0.0118105 0.0424084,-0.0176929 0.0664398,-0.0176929 0.0199274,0 0.0387147,0.00433204 0.0564989,0.0129961 0.0177385,0.00866407 0.0330147,0.0207482 0.0457828,0.0362979 0.0108985,0.0135433 0.0184226,0.0277706 0.0226634,0.0428188 0.00419524,0.0149569 0.00652085,0.0325587 0.00706806,0.0527596l-0.229917 0zm0.195534 -0.0310539c-0.00291842,-0.0149113 -0.00912008,-0.0285914 -0.018605,-0.0408579 -0.00943928,-0.0123121 -0.0210218,-0.0220706 -0.0347931,-0.0292754 -0.0138169,-0.00715926 -0.0284546,-0.0107161 -0.0437308,-0.0107161 -0.0156409,0 -0.0305067,0.00346563 -0.0445972,0.0103513 -0.0140905,0.00697686 -0.0258554,0.0165529 -0.0353403,0.0289562 -0.00953048,0.0124033 -0.0156865,0.0262202 -0.0184682,0.0415419l0.195534 0zm0.0816247 -0.108255l0.0326043 0 0 0.0367539c0.0120385,-0.0269954 0.0367083,-0.0411315 0.0737358,-0.0423172l0 0.0338811c-0.0183314,0.00150481 -0.0336531,0.00734166 -0.045874,0.0176929 -0.0110809,0.00939368 -0.018149,0.0186506 -0.0212954,0.0278162 -0.00314643,0.00921128 -0.00478804,0.0218882 -0.00478804,0.0381675l0 0.142091 -0.0343827 0 0 -0.254085zm0.114229 0l0.0370731 0 0.0879175 0.210446 0.0878263 -0.210446 0.0371187 0 -0.107389 0.254085 -0.0356595 0 -0.106887 -0.254085zm0.282814 0l0.0343827 0 0 0.254085 -0.0343827 0 0 -0.254085zm0 -0.0891031l0.0343827 0 0 0.0585053 -0.0343827 0 0 -0.0585053zm0.345468 0.268951c-0.0114457,0.0250346 -0.0280442,0.0446884 -0.0498868,0.0589157 -0.0218426,0.0142273 -0.0463756,0.0213866 -0.073599,0.0213866 -0.0249434,0 -0.0480628,-0.00574565 -0.0694494,-0.0172369 -0.021341,-0.0114457 -0.0382131,-0.0273146 -0.050662,-0.0476524 -0.0124489,-0.0203378 -0.0187418,-0.0430924 -0.0187418,-0.0684006 0,-0.0243962 0.00629285,-0.0467404 0.0188786,-0.0670326 0.0125857,-0.0203378 0.0295034,-0.0362979 0.0506164,-0.047926 0.0211586,-0.0116737 0.043822,-0.0174649 0.0678534,-0.0174649 0.0179209,0 0.0352491,0.00332883 0.0522124,0.0100321 0.0168265,0.00674886 0.0317379,0.0164161 0.0444604,0.0289562 0.0128593,0.0125401 0.022481,0.0270866 0.0288194,0.0436396l-0.0385323 0c-0.00574565,-0.00971288 -0.0130873,-0.018377 -0.0222074,-0.0259922 -0.00907448,-0.00766086 -0.0191978,-0.0134521 -0.0303699,-0.0175561 -0.0110353,-0.00410403 -0.0223442,-0.00611045 -0.0337443,-0.00611045 -0.0184226,0 -0.0356595,0.00424084 -0.0516196,0.0128137 -0.0159601,0.00861847 -0.0285458,0.020429 -0.0379395,0.0356139 -0.00934808,0.0150937 -0.0140905,0.0319659 -0.0140905,0.0505252 0,0.0182858 0.00442324,0.0351579 0.0133609,0.0507076 0.00889207,0.0155497 0.0210218,0.0278162 0.0364347,0.0367083 0.0154129,0.00889207 0.0324219,0.0133609 0.0509812,0.0133609 0.0193802,0 0.0362523,-0.00392163 0.0506164,-0.0117649 0.0143185,-0.00779767 0.0271778,-0.0196538 0.0385779,-0.0355227l0.0380307 0zm0.072459 -0.0405387c0.000729606,0.0155497 0.00565445,0.0300963 0.0148657,0.0436396 0.00921128,0.0134521 0.0211586,0.0242138 0.0357051,0.0321939 0.0145921,0.00798007 0.0296402,0.0119929 0.0450988,0.0119929 0.0127225,0 0.0250802,-0.00223442 0.0371643,-0.00670326 0.0119929,-0.00460564 0.0228002,-0.0109897 0.0322851,-0.019517 0.00953048,-0.00852727 0.0166897,-0.0183314 0.021569,-0.0295034l0.0356595 0c-0.00583685,0.0169177 -0.0150481,0.0320571 -0.0276794,0.0455092 -0.0126313,0.0135433 -0.0273146,0.024077 -0.0441412,0.0317379 -0.0167809,0.00766086 -0.0339723,0.0114913 -0.0516196,0.0114913 -0.024305,0 -0.0466492,-0.00592805 -0.0670782,-0.0177841 -0.020429,-0.0117193 -0.0366171,-0.0277706 -0.0484276,-0.0481084 -0.0118561,-0.0202922 -0.0177385,-0.0425908 -0.0177385,-0.0669414 0,-0.024077 0.00588245,-0.0463756 0.0176473,-0.0668502 0.0118561,-0.020429 0.0278618,-0.0365715 0.048154,-0.0483364 0.0201554,-0.0118105 0.0424084,-0.0176929 0.0664398,-0.0176929 0.0198818,0 0.0387147,0.00433204 0.0564989,0.0129961 0.0177385,0.00866407 0.0329691,0.0207482 0.0457828,0.0362979 0.0108985,0.0135433 0.018377,0.0277706 0.0226634,0.0428188 0.00414963,0.0149569 0.00647525,0.0325587 0.00702246,0.0527596l-0.229872 0zm0.195534 -0.0310539c-0.00296402,-0.0149113 -0.00916568,-0.0285914 -0.018605,-0.0408579 -0.00943928,-0.0123121 -0.0210218,-0.0220706 -0.0348387,-0.0292754 -0.0137713,-0.00715926 -0.028409,-0.0107161 -0.0436852,-0.0107161 -0.0156409,0 -0.0305067,0.00346563 -0.0445972,0.0103513 -0.0140905,0.00697686 -0.0258554,0.0165529 -0.0353403,0.0289562 -0.00953048,0.0124033 -0.0156865,0.0262202 -0.0184682,0.0415419l0.195534 0zm0.0950768 0.0711366c0,0.00857287 0.00200642,0.0165529 0.00606485,0.023849 0.00410403,0.00725046 0.00957608,0.0130417 0.0166441,0.0174193 0.00702246,0.00433204 0.0147745,0.00647525 0.0232106,0.00647525 0.0125401,0 0.0230738,-0.00392163 0.0317379,-0.0118105 0.00866407,-0.00788887 0.0129961,-0.0180578 0.0129961,-0.0303699 0,-0.0139993 -0.00442324,-0.0246242 -0.0132241,-0.0317835 -0.00893767,-0.00729606 -0.020885,-0.0129049 -0.0361611,-0.0169633 -0.0124033,-0.00401283 -0.0218426,-0.00743286 -0.0282266,-0.0103057 -0.00642965,-0.00287282 -0.0123577,-0.00688566 -0.0176473,-0.0120841 -0.0136345,-0.0120385 -0.020429,-0.0282266 -0.020429,-0.0482452 0,-0.0133609 0.00328323,-0.0254906 0.00989528,-0.0363891 0.00665766,-0.0109441 0.0156409,-0.0194258 0.0269498,-0.0255818 0.0112633,-0.00606485 0.023393,-0.00916568 0.0364803,-0.00916568 0.0124489,0 0.024077,0.00319203 0.0349299,0.00943928 0.0108073,0.00633845 0.0194258,0.0147745 0.0257642,0.0253994 0.00629285,0.0104881 0.00943928,0.0218882 0.00943928,0.0339723l-0.0343827 0c0,-0.0110353 -0.00369363,-0.0196994 -0.0111265,-0.0261746 -0.00734166,-0.00642965 -0.0168721,-0.00966728 -0.0283178,-0.00966728 -0.00975848,0 -0.0181034,0.00337443 -0.024989,0.0103057 -0.00693126,0.00688566 -0.0103057,0.0152305 -0.0103057,0.024989 0,0.00866407 0.00200642,0.0156865 0.00601925,0.0210218 0.00396723,0.00542645 0.00898327,0.00953048 0.0151393,0.0124945 0.00597365,0.00291842 0.0138169,0.00579125 0.0234386,0.00870967 0.0149113,0.00483364 0.0273602,0.00998648 0.0374379,0.0156409 0.0101233,0.00565445 0.0182858,0.0132241 0.0244418,0.0227546 0.00611045,0.00953048 0.00925688,0.0215234 0.00925688,0.0360699 0,0.0155497 -0.00360243,0.0295034 -0.0107161,0.0418155 -0.00711366,0.0123577 -0.0168721,0.0218882 -0.0294122,0.0286826 -0.0125401,0.00684006 -0.0265394,0.0102601 -0.0421804,0.0102601 -0.0137713,0 -0.0266306,-0.00360243 -0.0383955,-0.0107161 -0.0118105,-0.00711366 -0.0212042,-0.0167809 -0.0282266,-0.0292298 -0.00697686,-0.0124033 -0.0104425,-0.0260378 -0.0104425,-0.0408123l0.0343371 0z"/>
  </g>
  <path class="fil4" d="M16.1488 1.30531c0,0.0514372 -0.0111265,0.0979952 -0.0335619,0.13972 -0.0224354,0.0418611 -0.0522124,0.0742374 -0.0894223,0.0971744 -0.0257642,0.0159601 -0.0545381,0.027497 -0.0863215,0.0346107 -0.0318747,0.00711366 -0.073599,0.0106249 -0.125583,0.0106249l-0.142684 0 0 -0.565308 0.14127 0c0.0550853,0 0.0989984,0.00401283 0.131557,0.0119473 0.0325131,0.00802567 0.0600101,0.0189242 0.0825367,0.0329235 0.0384867,0.0239402 0.0684462,0.0559517 0.0899696,0.0959888 0.0214778,0.0399459 0.0322395,0.0875071 0.0322395,0.142319zm-0.0785239 -0.00104881c0,-0.0443236 -0.00779767,-0.0816247 -0.0232106,-0.112086 -0.0154129,-0.0303243 -0.0384867,-0.0543101 -0.0690846,-0.0716838 -0.022253,-0.0126769 -0.045874,-0.0214778 -0.0709998,-0.0264026 -0.024989,-0.00492484 -0.0550853,-0.00738726 -0.089924,-0.00738726l-0.070635 0 0 0.436213 0.070635 0c0.0361611,0 0.0677622,-0.00273602 0.094712,-0.00807127 0.0269498,-0.00528964 0.0517108,-0.0151393 0.074283,-0.0295034 0.0279986,-0.0180578 0.0491116,-0.0416331 0.0631109,-0.0710454 0.0140905,-0.0292754 0.021113,-0.066075 0.021113,-0.110034zm0.667818 0.283178l-0.0975848 0 -0.189333 -0.224719 -0.10561 0 0 0.224719 -0.075195 0 0 -0.565308 0.15837 0c0.0341091,0 0.0626093,0.00223442 0.0854095,0.00661206 0.022709,0.00442324 0.0432748,0.0123121 0.0614237,0.0237122 0.0204746,0.0129505 0.0365715,0.0291842 0.0481084,0.0488836 0.0115369,0.0195626 0.0172369,0.0444148 0.0172369,0.0746478 0,0.0406755 -0.0102601,0.074739 -0.0307347,0.102236 -0.0204746,0.0274514 -0.0487012,0.0481996 -0.0846343,0.0620621l0.212543 0.247154zm-0.175744 -0.406163c0,-0.0161881 -0.00282722,-0.0305979 -0.00852727,-0.043138 -0.00570005,-0.0125857 -0.0151849,-0.0230738 -0.0282722,-0.0317835 -0.0108529,-0.00725046 -0.023849,-0.0124033 -0.0387147,-0.0152761 -0.0149113,-0.00296402 -0.0325587,-0.00437764 -0.0527596,-0.00437764l-0.0885103 0 0 0.21341 0.0759246 0c0.023849,0 0.0445972,-0.00205202 0.0623357,-0.00620165 0.0176473,-0.00428644 0.0326499,-0.0120385 0.0450988,-0.0234842 0.0114001,-0.0106249 0.0198362,-0.0228002 0.0252626,-0.0365259 0.00547205,-0.0138625 0.00816247,-0.0313731 0.00816247,-0.0526228zm0.621168 0.406163l-0.372464 0 0 -0.565308 0.372464 0 0 0.0668958 -0.297269 0 0 0.154859 0.297269 0 0 0.0668502 -0.297269 0 0 0.209853 0.297269 0 0 0.0668502zm0.56508 0l-0.0799831 0 -0.0553133 -0.157595 -0.244965 0 -0.0553133 0.157595 -0.076335 0 0.205795 -0.565308 0.100321 0 0.205795 0.565308zm-0.158872 -0.222119l-0.0989072 -0.277342 -0.0994088 0.277342 0.198316 0zm0.748165 0.222119l-0.075195 0 0 -0.487149 -0.157185 0.331515 -0.0448252 0 -0.156045 -0.331515 0 0.487149 -0.0702702 0 0 -0.565308 0.10251 0 0.150755 0.314779 0.145784 -0.314779 0.10447 0 0 0.565308zm-5.30177 0.903298c-0.0308715,0.0141361 -0.0645701,0.0264482 -0.101233,0.0369363 -0.0365259,0.0104881 -0.0719118,0.0158233 -0.106021,0.0158233 -0.04405,0 -0.0844975,-0.00611045 -0.12116,-0.0182858 -0.0366627,-0.0120385 -0.067899,-0.0303243 -0.0937088,-0.0545837 -0.0260378,-0.0246242 -0.0462388,-0.0553133 -0.0603749,-0.0921128 -0.0141361,-0.0367995 -0.0212498,-0.0798463 -0.0212498,-0.129231 0,-0.0904256 0.0264482,-0.161745 0.0791623,-0.213957 0.0527596,-0.0522124 0.125219,-0.0783871 0.217331,-0.0783871 0.0321483,0 0.0649349,0.00387603 0.0984968,0.0115369 0.0334251,0.00775206 0.0695862,0.0208394 0.108347,0.0393987l0 0.0891487 -0.00688566 0c-0.00775206,-0.00611045 -0.0191522,-0.0139993 -0.0340635,-0.0239858 -0.0149113,-0.00984968 -0.0296858,-0.0180122 -0.04405,-0.0246242 -0.0175105,-0.00788887 -0.0372099,-0.0143641 -0.0593717,-0.0195626 -0.0221618,-0.00519844 -0.0472876,-0.00779767 -0.075423,-0.00779767 -0.0632477,0 -0.113271,0.0203834 -0.150071,0.0609221 -0.0367995,0.0407211 -0.0552221,0.0956696 -0.0552221,0.164982 0,0.0730974 0.0191978,0.130007 0.0576845,0.170682 0.0384867,0.0405843 0.090836,0.0609221 0.157185,0.0609221 0.0242594,0 0.0484732,-0.00246242 0.0725958,-0.00725046 0.0242138,-0.00483364 0.0453724,-0.0110353 0.0636125,-0.0185594l0 -0.138534 -0.151484 0 0 -0.066075 0.225904 0 0 0.242594zm0.57721 0.0417243l-0.0799831 0 -0.0553133 -0.157595 -0.244965 0 -0.0553133 0.157595 -0.076335 0 0.205795 -0.565308 0.100321 0 0.205795 0.565308zm-0.158872 -0.222119l-0.0989072 -0.277342 -0.0994088 0.277342 0.198316 0zm0.712369 0.222119l-0.0975848 0 -0.189333 -0.224719 -0.10561 0 0 0.224719 -0.075195 0 0 -0.565308 0.15837 0c0.0341091,0 0.0626093,0.00223442 0.0854095,0.00661206 0.022709,0.00442324 0.0432748,0.0123121 0.0614237,0.0237122 0.0204746,0.0129505 0.0365715,0.0291842 0.0481084,0.0488836 0.0115369,0.0195626 0.0172369,0.0444148 0.0172369,0.0746478 0,0.0406755 -0.0102601,0.074739 -0.0307347,0.102236 -0.0204746,0.0274514 -0.0487012,0.0481996 -0.0846343,0.0620621l0.212543 0.247154zm-0.175744 -0.406163c0,-0.0161881 -0.00282722,-0.0305979 -0.00852727,-0.043138 -0.00570005,-0.0125857 -0.0151849,-0.0230738 -0.0282722,-0.0317835 -0.0108529,-0.00725046 -0.023849,-0.0124033 -0.0387147,-0.0152761 -0.0149113,-0.00296402 -0.0325587,-0.00437764 -0.0527596,-0.00437764l-0.0885103 0 0 0.21341 0.0759246 0c0.023849,0 0.0445972,-0.00205202 0.0623357,-0.00620165 0.0176473,-0.00428644 0.0326499,-0.0120385 0.0450988,-0.0234842 0.0114001,-0.0106249 0.0198362,-0.0228002 0.0252626,-0.0365259 0.00547205,-0.0138625 0.00816247,-0.0313731 0.00816247,-0.0526228zm0.68095 0.406163l-0.0799831 0 -0.0553133 -0.157595 -0.244965 0 -0.0553133 0.157595 -0.076335 0 0.205795 -0.565308 0.100321 0 0.205795 0.565308zm-0.158872 -0.222119l-0.0989072 -0.277342 -0.0994088 0.277342 0.198316 0zm0.716154 0.180395c-0.0308715,0.0141361 -0.0645701,0.0264482 -0.101233,0.0369363 -0.0365259,0.0104881 -0.0719118,0.0158233 -0.106021,0.0158233 -0.04405,0 -0.0844975,-0.00611045 -0.12116,-0.0182858 -0.0366627,-0.0120385 -0.067899,-0.0303243 -0.0937088,-0.0545837 -0.0260378,-0.0246242 -0.0462388,-0.0553133 -0.0603749,-0.0921128 -0.0141361,-0.0367995 -0.0212498,-0.0798463 -0.0212498,-0.129231 0,-0.0904256 0.0264482,-0.161745 0.0791623,-0.213957 0.0527596,-0.0522124 0.125219,-0.0783871 0.217331,-0.0783871 0.0321483,0 0.0649349,0.00387603 0.0984968,0.0115369 0.0334251,0.00775206 0.0695862,0.0208394 0.108347,0.0393987l0 0.0891487 -0.00688566 0c-0.00775206,-0.00611045 -0.0191522,-0.0139993 -0.0340635,-0.0239858 -0.0149113,-0.00984968 -0.0296858,-0.0180122 -0.04405,-0.0246242 -0.0175105,-0.00788887 -0.0372099,-0.0143641 -0.0593717,-0.0195626 -0.0221618,-0.00519844 -0.0472876,-0.00779767 -0.075423,-0.00779767 -0.0632477,0 -0.113271,0.0203834 -0.150071,0.0609221 -0.0367995,0.0407211 -0.0552221,0.0956696 -0.0552221,0.164982 0,0.0730974 0.0191978,0.130007 0.0576845,0.170682 0.0384867,0.0405843 0.090836,0.0609221 0.157185,0.0609221 0.0242594,0 0.0484732,-0.00246242 0.0725958,-0.00725046 0.0242138,-0.00483364 0.0453724,-0.0110353 0.0636125,-0.0185594l0 -0.138534 -0.151484 0 0 -0.066075 0.225904 0 0 0.242594zm0.503839 0.0417243l-0.372464 0 0 -0.565308 0.372464 0 0 0.0668958 -0.297269 0 0 0.154859 0.297269 0 0 0.0668502 -0.297269 0 0 0.209853 0.297269 0 0 0.0668502zm0.870146 -0.28213c0,0.0514372 -0.0111265,0.0979952 -0.0335619,0.13972 -0.0224354,0.0418611 -0.0522124,0.0742374 -0.0894223,0.0971744 -0.0257642,0.0159601 -0.0545381,0.027497 -0.0863215,0.0346107 -0.0318747,0.00711366 -0.073599,0.0106249 -0.125583,0.0106249l-0.142684 0 0 -0.565308 0.14127 0c0.0550853,0 0.0989984,0.00401283 0.131557,0.0119473 0.0325131,0.00802567 0.0600101,0.0189242 0.0825367,0.0329235 0.0384867,0.0239402 0.0684462,0.0559517 0.0899696,0.0959888 0.0214778,0.0399459 0.0322395,0.0875071 0.0322395,0.142319zm-0.0785239 -0.00104881c0,-0.0443236 -0.00779767,-0.0816247 -0.0232106,-0.112086 -0.0154129,-0.0303243 -0.0384867,-0.0543101 -0.0690846,-0.0716838 -0.022253,-0.0126769 -0.045874,-0.0214778 -0.0709998,-0.0264026 -0.024989,-0.00492484 -0.0550853,-0.00738726 -0.089924,-0.00738726l-0.070635 0 0 0.436213 0.070635 0c0.0361611,0 0.0677622,-0.00273602 0.094712,-0.00807127 0.0269498,-0.00528964 0.0517108,-0.0151393 0.074283,-0.0295034 0.0279986,-0.0180578 0.0491116,-0.0416331 0.0631109,-0.0710454 0.0140905,-0.0292754 0.021113,-0.066075 0.021113,-0.110034zm0.621579 -0.217195c0.0230282,0.0252626 0.0406755,0.0562253 0.0529876,0.0930704 0.0123121,0.0366627 0.0184226,0.0782503 0.0184226,0.124763 0,0.0466948 -0.00624725,0.0884191 -0.018833,0.125219 -0.0125401,0.0367995 -0.0300507,0.0674886 -0.0525772,0.0920216 -0.0233474,0.0256274 -0.0507988,0.0448252 -0.0825823,0.0577757 -0.0317379,0.0128593 -0.0680358,0.0193346 -0.108711,0.0193346 -0.0398091,0 -0.0759702,-0.00661206 -0.108483,-0.0196994 -0.0325131,-0.0132241 -0.0601469,-0.0322851 -0.0829471,-0.0574109 -0.0228002,-0.0250346 -0.0403107,-0.0557237 -0.0526228,-0.0922952 -0.0123121,-0.0363891 -0.018377,-0.0780223 -0.018377,-0.124945 0,-0.0459652 0.00606485,-0.0873247 0.0182402,-0.123896 0.0120841,-0.0365259 0.0298226,-0.067899 0.05317,-0.0939368 0.0222986,-0.0248978 0.0498868,-0.043822 0.0829471,-0.0570005 0.0330147,-0.0130873 0.069039,-0.0196994 0.108073,-0.0196994 0.0404475,0 0.0768366,0.00661206 0.109122,0.0199274 0.0322395,0.0132241 0.0595997,0.0321483 0.0821719,0.0567725zm-0.00688566 0.217833c0,-0.0733254 -0.0164617,-0.129961 -0.0493852,-0.169861 -0.0329235,-0.0398091 -0.0777486,-0.0597821 -0.134795,-0.0597821 -0.0574109,0 -0.10251,0.019973 -0.135296,0.0597821 -0.0327867,0.0399003 -0.0491116,0.096536 -0.0491116,0.169861 0,0.074283 0.0167353,0.131055 0.0501604,0.170317 0.0333339,0.0393987 0.0781591,0.0590981 0.134248,0.0590981 0.0562709,0 0.100959,-0.0196994 0.134293,-0.0590981 0.0332883,-0.0392619 0.0498868,-0.0960344 0.0498868,-0.170317zm0.61898 -0.217833c0.0230282,0.0252626 0.0406755,0.0562253 0.0529876,0.0930704 0.0123121,0.0366627 0.0184226,0.0782503 0.0184226,0.124763 0,0.0466948 -0.00624725,0.0884191 -0.018833,0.125219 -0.0125401,0.0367995 -0.0300507,0.0674886 -0.0525772,0.0920216 -0.0233474,0.0256274 -0.0507988,0.0448252 -0.0825823,0.0577757 -0.0317379,0.0128593 -0.0680358,0.0193346 -0.108711,0.0193346 -0.0398091,0 -0.0759702,-0.00661206 -0.108483,-0.0196994 -0.0325131,-0.0132241 -0.0601469,-0.0322851 -0.0829471,-0.0574109 -0.0228002,-0.0250346 -0.0403107,-0.0557237 -0.0526228,-0.0922952 -0.0123121,-0.0363891 -0.018377,-0.0780223 -0.018377,-0.124945 0,-0.0459652 0.00606485,-0.0873247 0.0182402,-0.123896 0.0120841,-0.0365259 0.0298226,-0.067899 0.05317,-0.0939368 0.0222986,-0.0248978 0.0498868,-0.043822 0.0829471,-0.0570005 0.0330147,-0.0130873 0.069039,-0.0196994 0.108073,-0.0196994 0.0404475,0 0.0768366,0.00661206 0.109122,0.0199274 0.0322395,0.0132241 0.0595997,0.0321483 0.0821719,0.0567725zm-0.00688566 0.217833c0,-0.0733254 -0.0164617,-0.129961 -0.0493852,-0.169861 -0.0329235,-0.0398091 -0.0777486,-0.0597821 -0.134795,-0.0597821 -0.0574109,0 -0.10251,0.019973 -0.135296,0.0597821 -0.0327867,0.0399003 -0.0491116,0.096536 -0.0491116,0.169861 0,0.074283 0.0167353,0.131055 0.0501604,0.170317 0.0333339,0.0393987 0.0781591,0.0590981 0.134248,0.0590981 0.0562709,0 0.100959,-0.0196994 0.134293,-0.0590981 0.0332883,-0.0392619 0.0498868,-0.0960344 0.0498868,-0.170317zm0.665218 0.28254l-0.0975848 0 -0.189333 -0.224719 -0.10561 0 0 0.224719 -0.075195 0 0 -0.565308 0.15837 0c0.0341091,0 0.0626093,0.00223442 0.0854095,0.00661206 0.022709,0.00442324 0.0432748,0.0123121 0.0614237,0.0237122 0.0204746,0.0129505 0.0365715,0.0291842 0.0481084,0.0488836 0.0115369,0.0195626 0.0172369,0.0444148 0.0172369,0.0746478 0,0.0406755 -0.0102601,0.074739 -0.0307347,0.102236 -0.0204746,0.0274514 -0.0487012,0.0481996 -0.0846343,0.0620621l0.212543 0.247154zm-0.175744 -0.406163c0,-0.0161881 -0.00282722,-0.0305979 -0.00852727,-0.043138 -0.00570005,-0.0125857 -0.0151849,-0.0230738 -0.0282722,-0.0317835 -0.0108529,-0.00725046 -0.023849,-0.0124033 -0.0387147,-0.0152761 -0.0149113,-0.00296402 -0.0325587,-0.00437764 -0.0527596,-0.00437764l-0.0885103 0 0 0.21341 0.0759246 0c0.023849,0 0.0445972,-0.00205202 0.0623357,-0.00620165 0.0176473,-0.00428644 0.0326499,-0.0120385 0.0450988,-0.0234842 0.0114001,-0.0106249 0.0198362,-0.0228002 0.0252626,-0.0365259 0.00547205,-0.0138625 0.00816247,-0.0313731 0.00816247,-0.0526228zm-6.01027 1.18985c0,0.022025 -0.00519844,0.0437764 -0.0154585,0.0652997 -0.0102145,0.0215234 -0.0246242,0.0396723 -0.0430012,0.0546749 -0.0202466,0.0162337 -0.043822,0.0287738 -0.0707718,0.0379851 -0.0269498,0.00907448 -0.0594629,0.0136345 -0.097448,0.0136345 -0.0406755,0 -0.0773838,-0.00378483 -0.109897,-0.0114457 -0.0325131,-0.00747846 -0.0655733,-0.0187874 -0.099272,-0.0337899l0 -0.0941192 0.00528964 0c0.0286826,0.023849 0.0615605,0.0421348 0.099044,0.0550853 0.0374379,0.0128593 0.072687,0.0193346 0.10561,0.0193346 0.0465124,0 0.0828103,-0.00870967 0.108711,-0.0261746 0.0259466,-0.0175105 0.0388971,-0.0407211 0.0388971,-0.0698598 0,-0.0250346 -0.00611045,-0.0435484 -0.0184226,-0.0554957 -0.0123121,-0.0119017 -0.0309627,-0.021113 -0.0559517,-0.027725 -0.019061,-0.00506164 -0.0395355,-0.00921128 -0.0616973,-0.0124489 -0.0221618,-0.00337443 -0.0456004,-0.00747846 -0.0704982,-0.0125401 -0.0500236,-0.0106249 -0.0872335,-0.0287738 -0.111311,-0.0544469 -0.0242594,-0.0258098 -0.0362979,-0.0592349 -0.0362979,-0.100458 0,-0.0472876 0.0199274,-0.0861391 0.0600101,-0.116372 0.0399003,-0.0301875 0.0906992,-0.0453268 0.15226,-0.0453268 0.0396723,0 0.0760614,0.00373923 0.109259,0.0114001 0.0331515,0.00752406 0.0625637,0.0169633 0.0880999,0.0280898l0 0.0887839 -0.00528964 0c-0.0215234,-0.0182402 -0.04975,-0.0332883 -0.0849079,-0.0453268 -0.0349755,-0.0120841 -0.070863,-0.0180122 -0.107571,-0.0180122 -0.0401739,0 -0.0725502,0.00825367 -0.0969008,0.024989 -0.0244874,0.0167353 -0.0367083,0.0382131 -0.0367083,0.0645245 0,0.023621 0.00611045,0.041998 0.0182858,0.0554957 0.0120385,0.0133153 0.0334251,0.0237122 0.0641597,0.0306891 0.0161881,0.00364803 0.0391251,0.00793447 0.0690846,0.0129505 0.029777,0.00506164 0.0550853,0.0102601 0.0759246,0.0155953 0.041998,0.0111265 0.073599,0.027953 0.0948488,0.0505252 0.0212954,0.0224354 0.0319203,0.0538996 0.0319203,0.094484zm0.490523 -0.233155c0,0.0251258 -0.00442324,0.0483364 -0.0130873,0.069723 -0.00870967,0.0213866 -0.0210218,0.0399003 -0.0367083,0.0555869 -0.0194258,0.0194258 -0.0424996,0.0341091 -0.069039,0.043822 -0.026585,0.00971288 -0.0601469,0.0146377 -0.100594,0.0146377l-0.0751494 0 0 0.210719 -0.075195 0 0 -0.565308 0.153308 0c0.0339723,0 0.0627461,0.00287282 0.0861847,0.00857287 0.023621,0.00570005 0.0444604,0.0146377 0.0627461,0.0266762 0.0215234,0.0145465 0.0381219,0.0324219 0.0498868,0.0538996 0.0118105,0.0215234 0.0176473,0.0487468 0.0176473,0.0816703zm-0.0782959 0.00196082c0,-0.0196082 -0.00337443,-0.0364347 -0.0102145,-0.0509356 -0.00688566,-0.0144097 -0.0172369,-0.0261746 -0.0311451,-0.0352491 -0.0121753,-0.00793447 -0.0260378,-0.0134977 -0.0415875,-0.0168721 -0.0155497,-0.00351123 -0.0352491,-0.00515284 -0.0589613,-0.00515284l-0.0743742 0 0 0.225859 0.0633845 0c0.0303243,0 0.0550397,-0.00273602 0.0739638,-0.00816247 0.0189242,-0.00542645 0.0343371,-0.0141361 0.0462844,-0.0260378 0.0119017,-0.0120385 0.0203378,-0.0248978 0.0252626,-0.0383499 0.00492484,-0.0133609 0.00738726,-0.028409 0.00738726,-0.0450988zm0.549849 0.392528l-0.372464 0 0 -0.565308 0.372464 0 0 0.0668958 -0.297269 0 0 0.154859 0.297269 0 0 0.0668502 -0.297269 0 0 0.209853 0.297269 0 0 0.0668502zm0.555869 -0.0409491c-0.0138625,0.00597365 -0.0265394,0.0116737 -0.0377115,0.0169633 -0.0112633,0.00533524 -0.0260378,0.0108985 -0.0443236,0.0167353 -0.0154129,0.00478804 -0.0321483,0.00893767 -0.0502972,0.0123121 -0.0181034,0.00351123 -0.0379395,0.00519844 -0.0597365,0.00519844 -0.0410859,0 -0.0782503,-0.00574565 -0.111812,-0.0172369 -0.0335619,-0.0115369 -0.0627461,-0.029549 -0.0875071,-0.0541733 -0.0243506,-0.0239858 -0.0432748,-0.0545837 -0.0570005,-0.0916568 -0.0136345,-0.0370731 -0.0204746,-0.0802111 -0.0204746,-0.129323 0,-0.0465124 0.00661206,-0.0881455 0.0196994,-0.124808 0.0132241,-0.0367995 0.0321483,-0.0677622 0.0570005,-0.0930248 0.0239858,-0.024533 0.0530332,-0.0433204 0.0870967,-0.0562709 0.0340635,-0.0128137 0.0718206,-0.019289 0.113408,-0.019289 0.0303243,0 0.0606485,0.00360243 0.090836,0.0109897 0.0303243,0.00738726 0.0638861,0.0202466 0.100822,0.0387603l0 0.0891487 -0.00570005 0c-0.0310995,-0.0260378 -0.0619253,-0.0450988 -0.09266,-0.0568637 -0.0305979,-0.0119473 -0.0633845,-0.0179209 -0.0982232,-0.0179209 -0.028637,0 -0.0544469,0.00469684 -0.077247,0.0139081 -0.022937,0.00916568 -0.0434116,0.0235754 -0.0612869,0.0430012 -0.0175105,0.019061 -0.0310995,0.0430468 -0.0408579,0.0720486 -0.00971288,0.0289106 -0.0146377,0.0623357 -0.0146377,0.100321 0,0.0397635 0.00533524,0.0740094 0.0160969,0.10251 0.0107617,0.028637 0.0246242,0.0519844 0.0415875,0.0698598 0.0177385,0.0187874 0.0384867,0.0326499 0.0620621,0.0415875 0.0237122,0.00893767 0.0487468,0.0134977 0.0750582,0.0134977 0.0361611,0 0.0700878,-0.00624725 0.101734,-0.0186962 0.0316011,-0.0123121 0.0611501,-0.0309627 0.0887839,-0.0557237l0.00528964 0 0 0.0881455zm0.305568 0.0409491l-0.223168 0 0 -0.0576845 0.0740094 0 0 -0.449939 -0.0740094 0 0 -0.0576845 0.223168 0 0 0.0576845 -0.0739638 0 0 0.449939 0.0739638 0 0 0.0576845zm0.573744 0l-0.0799831 0 -0.0553133 -0.157595 -0.244965 0 -0.0553133 0.157595 -0.076335 0 0.205795 -0.565308 0.100321 0 0.205795 0.565308zm-0.158872 -0.222119l-0.0989072 -0.277342 -0.0994088 0.277342 0.198316 0zm0.602335 0.222119l-0.357689 0 0 -0.565308 0.075195 0 0 0.498458 0.282494 0 0 0.0668502zm0.769962 -0.500373c0.0230282,0.0252626 0.0406755,0.0562253 0.0529876,0.0930704 0.0123121,0.0366627 0.0184226,0.0782503 0.0184226,0.124763 0,0.0466948 -0.00624725,0.0884191 -0.018833,0.125219 -0.0125401,0.0367995 -0.0300507,0.0674886 -0.0525772,0.0920216 -0.0233474,0.0256274 -0.0507988,0.0448252 -0.0825823,0.0577757 -0.0317379,0.0128593 -0.0680358,0.0193346 -0.108711,0.0193346 -0.0398091,0 -0.0759702,-0.00661206 -0.108483,-0.0196994 -0.0325131,-0.0132241 -0.0601469,-0.0322851 -0.0829471,-0.0574109 -0.0228002,-0.0250346 -0.0403107,-0.0557237 -0.0526228,-0.0922952 -0.0123121,-0.0363891 -0.018377,-0.0780223 -0.018377,-0.124945 0,-0.0459652 0.00606485,-0.0873247 0.0182402,-0.123896 0.0120841,-0.0365259 0.0298226,-0.067899 0.05317,-0.0939368 0.0222986,-0.0248978 0.0498868,-0.043822 0.0829471,-0.0570005 0.0330147,-0.0130873 0.069039,-0.0196994 0.108073,-0.0196994 0.0404475,0 0.0768366,0.00661206 0.109122,0.0199274 0.0322395,0.0132241 0.0595997,0.0321483 0.0821719,0.0567725zm-0.00688566 0.217833c0,-0.0733254 -0.0164617,-0.129961 -0.0493852,-0.169861 -0.0329235,-0.0398091 -0.0777486,-0.0597821 -0.134795,-0.0597821 -0.0574109,0 -0.10251,0.019973 -0.135296,0.0597821 -0.0327867,0.0399003 -0.0491116,0.096536 -0.0491116,0.169861 0,0.074283 0.0167353,0.131055 0.0501604,0.170317 0.0333339,0.0393987 0.0781591,0.0590981 0.134248,0.0590981 0.0562709,0 0.100959,-0.0196994 0.134293,-0.0590981 0.0332883,-0.0392619 0.0498868,-0.0960344 0.0498868,-0.170317zm0.558559 -0.215872l-0.285869 0 0 0.159373 0.245558 0 0 0.0668958 -0.245558 0 0 0.272143 -0.075195 0 0 -0.565308 0.361064 0 0 0.0668958zm0.446838 0l-0.285869 0 0 0.159373 0.245558 0 0 0.0668958 -0.245558 0 0 0.272143 -0.075195 0 0 -0.565308 0.361064 0 0 0.0668958zm0.458238 0.498412l-0.372464 0 0 -0.565308 0.372464 0 0 0.0668958 -0.297269 0 0 0.154859 0.297269 0 0 0.0668502 -0.297269 0 0 0.209853 0.297269 0 0 0.0668502zm0.586968 0l-0.0975848 0 -0.189333 -0.224719 -0.10561 0 0 0.224719 -0.075195 0 0 -0.565308 0.15837 0c0.0341091,0 0.0626093,0.00223442 0.0854095,0.00661206 0.022709,0.00442324 0.0432748,0.0123121 0.0614237,0.0237122 0.0204746,0.0129505 0.0365715,0.0291842 0.0481084,0.0488836 0.0115369,0.0195626 0.0172369,0.0444148 0.0172369,0.0746478 0,0.0406755 -0.0102601,0.074739 -0.0307347,0.102236 -0.0204746,0.0274514 -0.0487012,0.0481996 -0.0846343,0.0620621l0.212543 0.247154zm-0.175744 -0.406163c0,-0.0161881 -0.00282722,-0.0305979 -0.00852727,-0.043138 -0.00570005,-0.0125857 -0.0151849,-0.0230738 -0.0282722,-0.0317835 -0.0108529,-0.00725046 -0.023849,-0.0124033 -0.0387147,-0.0152761 -0.0149113,-0.00296402 -0.0325587,-0.00437764 -0.0527596,-0.00437764l-0.0885103 0 0 0.21341 0.0759246 0c0.023849,0 0.0445972,-0.00205202 0.0623357,-0.00620165 0.0176473,-0.00428644 0.0326499,-0.0120385 0.0450988,-0.0234842 0.0114001,-0.0106249 0.0198362,-0.0228002 0.0252626,-0.0365259 0.00547205,-0.0138625 0.00816247,-0.0313731 0.00816247,-0.0526228zm0.659564 0.244828c0,0.022025 -0.00519844,0.0437764 -0.0154585,0.0652997 -0.0102145,0.0215234 -0.0246242,0.0396723 -0.0430012,0.0546749 -0.0202466,0.0162337 -0.043822,0.0287738 -0.0707718,0.0379851 -0.0269498,0.00907448 -0.0594629,0.0136345 -0.097448,0.0136345 -0.0406755,0 -0.0773838,-0.00378483 -0.109897,-0.0114457 -0.0325131,-0.00747846 -0.0655733,-0.0187874 -0.099272,-0.0337899l0 -0.0941192 0.00528964 0c0.0286826,0.023849 0.0615605,0.0421348 0.099044,0.0550853 0.0374379,0.0128593 0.072687,0.0193346 0.10561,0.0193346 0.0465124,0 0.0828103,-0.00870967 0.108711,-0.0261746 0.0259466,-0.0175105 0.0388971,-0.0407211 0.0388971,-0.0698598 0,-0.0250346 -0.00611045,-0.0435484 -0.0184226,-0.0554957 -0.0123121,-0.0119017 -0.0309627,-0.021113 -0.0559517,-0.027725 -0.019061,-0.00506164 -0.0395355,-0.00921128 -0.0616973,-0.0124489 -0.0221618,-0.00337443 -0.0456004,-0.00747846 -0.0704982,-0.0125401 -0.0500236,-0.0106249 -0.0872335,-0.0287738 -0.111311,-0.0544469 -0.0242594,-0.0258098 -0.0362979,-0.0592349 -0.0362979,-0.100458 0,-0.0472876 0.0199274,-0.0861391 0.0600101,-0.116372 0.0399003,-0.0301875 0.0906992,-0.0453268 0.15226,-0.0453268 0.0396723,0 0.0760614,0.00373923 0.109259,0.0114001 0.0331515,0.00752406 0.0625637,0.0169633 0.0880999,0.0280898l0 0.0887839 -0.00528964 0c-0.0215234,-0.0182402 -0.04975,-0.0332883 -0.0849079,-0.0453268 -0.0349755,-0.0120841 -0.070863,-0.0180122 -0.107571,-0.0180122 -0.0401739,0 -0.0725502,0.00825367 -0.0969008,0.024989 -0.0244874,0.0167353 -0.0367083,0.0382131 -0.0367083,0.0645245 0,0.023621 0.00611045,0.041998 0.0182858,0.0554957 0.0120385,0.0133153 0.0334251,0.0237122 0.0641597,0.0306891 0.0161881,0.00364803 0.0391251,0.00793447 0.0690846,0.0129505 0.029777,0.00506164 0.0550853,0.0102601 0.0759246,0.0155953 0.041998,0.0111265 0.073599,0.027953 0.0948488,0.0505252 0.0212954,0.0224354 0.0319203,0.0538996 0.0319203,0.094484z"/>
  <g id="_421683320">
   <path id="_424724528" class="fil5" d="M3.87708 14.3467c0,0.0308259 0.0226178,0.0588245 0.0400371,0.0811231l0.0178753 0.0215234c0.0130417,0.0140905 0.0248522,0.0235298 0.0430468,0.0326499l0.0626093 0.0146377 0.0283178 0c0.020429,-0.00150481 0.0431836,-0.00538084 0.0568181,-0.00880087 0.048382,-0.0121297 0.0977216,-0.0383043 0.136847,-0.069039l0.026813 -0.023165c0.0191522,-0.0161425 0.0269954,-0.0253994 0.0423172,-0.04405 0.00898327,-0.0108985 0.0206114,-0.0282722 0.0269498,-0.0411771 0.0479716,-0.0982688 -0.0217514,-0.165985 0.0535804,-0.211449 0.0153217,-0.00925688 0.0321027,-0.0131329 0.0483364,-0.0212954 0.05089,-0.0255818 0.123668,-0.0725958 0.175151,-0.100458l0.0862303 -0.0500692c0.0141817,-0.00852727 0.0285002,-0.0160969 0.0431836,-0.024989 0.0894679,-0.0541733 0.189926,-0.109304 0.281628,-0.163569l0.284045 -0.164207c-0.00241682,-0.00328323 -0.00510724,-0.00373923 -0.00966728,-0.00542645 -0.00966728,-0.00355683 -0.0285914,-0.00939368 -0.0376203,-0.0108529 -0.0668502,-0.0108073 -0.113226,-0.00615605 -0.175926,0.00962168 -0.0175561,0.00442324 -0.0350667,0.0102601 -0.0510724,0.0155497 -0.00451444,0.00150481 -0.00770646,0.00264482 -0.0124489,0.00419524 -0.0189242,0.00615605 -0.0120385,0.00209762 -0.0336531,0.0163249 -0.0333795,0.0219338 -0.0880543,0.0538996 -0.123942,0.0759702 -0.00738726,0.00456004 -0.0138169,0.00857287 -0.0206114,0.0126769 -0.00734166,0.00442324 -0.0143185,0.00820807 -0.0217514,0.0130873 -0.00725046,0.00474244 -0.0138169,0.00825367 -0.0206114,0.0127225 -0.0398547,0.0264026 -0.10251,0.0618341 -0.145648,0.0890575l-0.0825367 0.0507532c-0.0558605,0.0333339 -0.110627,0.0684462 -0.166213,0.101826l-0.0938456 0.0575933c-0.00424084,0.00259922 -0.00647525,0.00364803 -0.0102145,0.00642965 -0.0145921,0.0108985 -0.0445516,0.0285458 -0.0613781,0.0385779l-0.12759 0.073827c-0.0139993,0.00802567 -0.028181,0.0160057 -0.0424084,0.0242138 -0.0283178,0.0163249 -0.103604,0.0570917 -0.12686,0.0745566 -0.0227546,0.0170545 -0.0343827,0.0253994 -0.0545837,0.0453724 -0.0147745,0.0146377 -0.0352035,0.0444148 -0.0352035,0.0662574zm0.356413 -0.183314c-0.00177841,0.000866407 -0.00396723,0.00136801 -0.00684006,0.00291842l-0.0182858 0.0103513c-0.0511636,0.0297314 -0.12189,0.0680814 -0.173509,0.09608 -0.0305067,0.0165529 -0.0664398,0.0398547 -0.0741462,0.0789343 -0.0106249,0.0541277 0.0326043,0.0687654 0.0798919,0.070179 0.0702246,0.00209762 0.142136,-0.0316467 0.191567,-0.0759246 0.0335619,-0.0300963 0.0675798,-0.0604661 0.0790255,-0.113271 0.00642965,-0.0296402 0.00342003,-0.0442324 -0.0160969,-0.0570917 -0.0109897,-0.00729606 -0.046558,-0.0196082 -0.0616061,-0.0121753z"/>
   <path id="_424722224" class="fil5" d="M3.91648 13.6213c0,0.0405843 0.00953048,0.0675342 0.0336531,0.0950768 0.0271778,0.0310083 0.0461476,0.0436396 0.0813511,0.0639773 0.0182402,0.0105337 0.0494764,0.0239858 0.0585053,0.0293666 0.0186962,0.0111721 0.0576845,0.0292754 0.0764262,0.0401739 0.0120841,0.00702246 0.0257186,0.0126313 0.0378483,0.0196994 0.0178753,0.0103513 0.109441,0.0570917 0.1337,0.0692214 0.0402651,0.0200642 0.0154129,0.024761 0.0925232,-0.021569 0.0160057,-0.00962168 0.0214322,-0.0119929 0.0357051,-0.0233474 -0.00392163,-0.00104881 -0.096764,-0.0543101 -0.103604,-0.0584597 -0.0255362,-0.0152761 -0.076563,-0.0313275 -0.090836,-0.072687 -0.0120385,-0.0347475 0.0109441,-0.094028 -0.00601925,-0.145465 -0.0136801,-0.0415875 -0.0353859,-0.0693582 -0.069951,-0.0965816 -0.0107161,-0.00848167 -0.0336075,-0.0236666 -0.0450988,-0.0276338l-0.0782503 -0.0186506 -0.0212042 0c-0.04747,0 -0.0930704,0.0280442 -0.112542,0.0630653 -0.0125401,0.0226634 -0.0222074,0.0554045 -0.0222074,0.0838135zm0.131147 -0.0774294c-0.069039,0.00989528 -0.099728,0.0952592 -0.0196082,0.147608 0.0269042,0.0175561 0.0780223,0.0441868 0.109031,0.0498412 0.0823087,0.0150481 0.0713646,-0.0893767 0.0459196,-0.126039 -0.00378483,-0.00542645 -0.00729606,-0.00966728 -0.0110353,-0.0146833 -0.00898327,-0.0119017 -0.00638405,-0.00633845 -0.0127681,-0.0129961 -0.0261746,-0.027497 -0.069267,-0.0497956 -0.111539,-0.0437308z"/>
   <path id="_424714496" class="fil5" d="M4.54795 14.0695c0.00570005,0.00150481 0.0159601,0.00975848 0.0214778,0.0133153l0.0654821 0.0420892c0.0147745,0.00966728 0.028409,0.0184682 0.0430012,0.028181l0.370822 0.240952c0.0274514,0.0162337 0.0480628,0.0208394 0.0867775,0.0207482 0.0121297,-4.56004e-005 0.0242594,-4.56004e-005 0.0363891,0 0.0118105,4.56004e-005 0.0212042,-0.00155041 0.0347931,-0.00155041 0.024761,4.56004e-005 0.0471964,0.000638405 0.0681726,-0.00296402 0.0197906,-0.00342003 0.0378939,-0.00984968 0.0559973,-0.0166897 -0.00378483,-0.00519844 -0.0761982,-0.0446428 -0.0839503,-0.0493396 -0.0663486,-0.0401739 -0.144964,-0.0814423 -0.211631,-0.121525 -0.0673062,-0.0404475 -0.14314,-0.0820807 -0.211631,-0.121479 -0.0279986,-0.0161425 -0.0565901,-0.0318747 -0.0845887,-0.0487012l-0.0850903 -0.048154c-0.0144097,0.00966728 -0.101734,0.0592349 -0.106021,0.0651173z"/>
  </g>
  <g id="_423820416">
   <path id="_482316624" class="fil6" d="M6.56915 6.02404l0 2.11162 -0.600603 0 0 -1.51434 -0.32732 0 0 -0.34442c0.129961,-0.00141361 0.240998,-0.021341 0.33302,-0.0597365 0.0915656,-0.0384411 0.159875,-0.102966 0.204928,-0.193118l0.389974 0zm0.888113 0.785147l-0.53512 -0.13329c0.0180122,-0.0891943 0.048382,-0.174102 0.091064,-0.255225 0.0431836,-0.0811231 0.101552,-0.155132 0.17506,-0.222986 0.0735534,-0.0673518 0.165575,-0.120978 0.275654,-0.16179 0.110535,-0.0403107 0.237213,-0.0606941 0.38049,-0.0606941 0.134704,0 0.252353,0.0180122 0.352947,0.0540821 0.100549,0.0355683 0.183587,0.0849079 0.248568,0.148019 0.0654821,0.0626093 0.114366,0.135661 0.146605,0.219155 0.0327411,0.0830383 0.0488836,0.173145 0.0488836,0.269954 0,0.10292 -0.0165985,0.191658 -0.0498412,0.266124 -0.0331971,0.074967 -0.0777942,0.138078 -0.133792,0.190245 -0.0564533,0.0522124 -0.117147,0.095852 -0.181672,0.13142 -0.0645245,0.0355683 -0.14469,0.0740094 -0.240542,0.115734 -0.105793,0.0469684 -0.185502,0.0854095 -0.239083,0.114822 -0.0540821,0.0294122 -0.096308,0.0578669 -0.127134,0.0854095 -0.0308715,0.027041 -0.0550397,0.0583229 -0.0725958,0.0929792l1.07024 0 0 0.472511 -1.83026 0c0.0147289,-0.185958 0.0550397,-0.343462 0.120522,-0.472511 0.0654365,-0.129049 0.157002,-0.240542 0.274651,-0.333521 0.117649,-0.0929792 0.27041,-0.183131 0.458785,-0.269453 0.10292,-0.047926 0.175516,-0.0825367 0.217286,-0.104835 0.0417243,-0.0218426 0.0815791,-0.0545837 0.12002,-0.0982232 0.0383955,-0.0436396 0.0578669,-0.0953504 0.0578669,-0.155588 0,-0.16749 -0.0920216,-0.250984 -0.275654,-0.250984 -0.0725502,0 -0.144188,0.0242138 -0.214869,0.0730518 -0.0707262,0.0484276 -0.117193,0.143778 -0.138078,0.285595zm2.90059 -0.785603l0 0.441184 -0.927968 0 -0.0313275 0.265212c0.126222,-0.0497956 0.256685,-0.0744654 0.390476,-0.0744654 0.166487,0 0.307392,0.0355683 0.422214,0.107206 0.114776,0.0716382 0.199228,0.166989 0.254769,0.285595 0.0549941,0.119063 0.0825367,0.249069 0.0825367,0.389974 0,0.120476 -0.0275426,0.237669 -0.0825367,0.351533 -0.0555413,0.113864 -0.144234,0.208257 -0.267127,0.282722 -0.122847,0.074511 -0.279394,0.111995 -0.469638,0.111995 -0.185046,0 -0.353449,-0.0299138 -0.50621,-0.090152 -0.152305,-0.0602381 -0.294122,-0.188831 -0.425087,-0.385232l0.4208 -0.261883c0.0332427,0.074511 0.0834943,0.142319 0.151849,0.204016 0.0678078,0.0611957 0.157002,0.0920216 0.26658,0.0920216 0.107708,0 0.193574,-0.0322395 0.258554,-0.096308 0.0650261,-0.0640229 0.0972656,-0.144188 0.0972656,-0.24004 0,-0.0645245 -0.0170545,-0.122893 -0.0512092,-0.17506 -0.0336987,-0.0521668 -0.0816247,-0.0929792 -0.14282,-0.122391 -0.0616517,-0.0294122 -0.13142,-0.0441412 -0.209671,-0.0441412 -0.152305,0 -0.291797,0.0597821 -0.418429,0.179346l-0.296038 -0.196902 0.13899 -1.02423 1.34403 0zm0.372874 0.535622c0,-0.106294 0.0265394,-0.207801 0.0792079,-0.304611 0.0526684,-0.096764 0.127134,-0.175014 0.223442,-0.234796 0.096308,-0.0597821 0.204928,-0.0896959 0.326408,-0.0896959 0.123349,0 0.232927,0.0299138 0.329235,0.090152 0.0958064,0.0602381 0.170317,0.13899 0.223442,0.236256 0.0531244,0.096764 0.0797095,0.197814 0.0797095,0.302695 0,0.0777942 -0.0151849,0.154175 -0.0450532,0.229142 -0.0303699,0.0749214 -0.0735534,0.142775 -0.129551,0.203013 -0.0559517,0.0607397 -0.123349,0.109122 -0.201599,0.145192 -0.0782959,0.0360699 -0.163705,0.0540821 -0.256183,0.0540821 -0.120978,0 -0.229644,-0.0303699 -0.32545,-0.0915656 -0.095852,-0.0607397 -0.170317,-0.139948 -0.223943,-0.237669 -0.0531244,-0.0972656 -0.0796639,-0.198316 -0.0796639,-0.302194zm0.347703 0c0,0.0839503 0.0285002,0.15226 0.0858655,0.204928 0.0569549,0.0526684 0.122437,0.0792079 0.195489,0.0792079 0.0469684,0 0.0929792,-0.0118561 0.137075,-0.0355683 0.0441412,-0.0232562 0.0797095,-0.0569093 0.10675,-0.100549 0.027041,-0.0436852 0.0408123,-0.0930248 0.0408123,-0.148019 0,-0.0550397 -0.0137713,-0.104379 -0.0408123,-0.147563 -0.027041,-0.0431836 -0.0621533,-0.0763806 -0.106249,-0.0996368 -0.0436396,-0.0232106 -0.0896503,-0.0346107 -0.137576,-0.0346107 -0.0735534,0 -0.139036,0.0256274 -0.195945,0.0773382 -0.0569093,0.0517108 -0.0854095,0.12002 -0.0854095,0.204472zm1.70172 -0.692168l0.379532 0 -1.24767 2.52243 -0.378574 0 1.24671 -2.52243zm-0.0792079 1.7335c0,-0.0773382 0.0146833,-0.153719 0.0445972,-0.229142 0.0298682,-0.075423 0.0730518,-0.143778 0.129505,-0.204472 0.0564533,-0.0611957 0.123805,-0.109122 0.202101,-0.14469 0.0787519,-0.0356139 0.16366,-0.05317 0.255225,-0.05317 0.120978,0 0.229644,0.0303699 0.325952,0.0911096 0.0958064,0.0607397 0.170272,0.139948 0.223442,0.238171 0.0531244,0.0977216 0.0796639,0.198772 0.0796639,0.302194 0,0.105793 -0.0265394,0.207299 -0.0792079,0.304063 -0.0526684,0.0972656 -0.127134,0.175561 -0.223442,0.235344 -0.096308,0.0597365 -0.204928,0.0896503 -0.326408,0.0896503 -0.122391,0 -0.231969,-0.0299138 -0.328277,-0.090152 -0.096308,-0.0602381 -0.171275,-0.13899 -0.223943,-0.235754 -0.0526228,-0.0968096 -0.0792079,-0.19786 -0.0792079,-0.303151zm0.347749 0.000456004c0,0.0834943 0.0284546,0.151348 0.0858655,0.203058 0.0574109,0.0521668 0.123349,0.0782503 0.198316,0.0782503 0.0469684,0 0.0920216,-0.0113545 0.135661,-0.0341547 0.0436396,-0.0232106 0.0787519,-0.0559517 0.105337,-0.0986792 0.0265394,-0.042226 0.0398547,-0.0920216 0.0398547,-0.148475 0,-0.0569093 -0.0133153,-0.107206 -0.0403563,-0.15039 -0.0265394,-0.0431836 -0.0616517,-0.0763806 -0.104835,-0.0996368 -0.0431836,-0.0232106 -0.0882367,-0.0346107 -0.135661,-0.0346107 -0.074967,0 -0.140905,0.0265394 -0.198316,0.0797095 -0.0574109,0.0526228 -0.0858655,0.121434 -0.0858655,0.204928z"/>
   <path id="_482347704" class="fil7" d="M7.91873 9.63472c0,-0.142638 0.0211586,-0.262111 0.0637949,-0.358829 0.0319203,-0.0709542 0.075195,-0.135114 0.130235,-0.19175 0.0550397,-0.0563621 0.115278,-0.09836 0.180714,-0.125675 0.0872335,-0.0371187 0.187554,-0.0553589 0.30151,-0.0553589 0.206068,0 0.370822,0.0637949 0.494582,0.19175 0.123714,0.127635 0.185594,0.305431 0.185594,0.533023 0,0.22595 -0.0615605,0.402423 -0.184317,0.530059 -0.122756,0.127316 -0.286826,0.191111 -0.491983,0.191111 -0.208029,0 -0.373422,-0.0634757 -0.496178,-0.190154 -0.122756,-0.126951 -0.183952,-0.301829 -0.183952,-0.524176zm0.290748 -0.00943928c0,0.158233 0.0367995,0.278345 0.109715,0.360106 0.0732798,0.0817159 0.166031,0.122391 0.27871,0.122391 0.112314,0 0.204791,-0.0403563 0.277068,-0.121753 0.0719574,-0.0810775 0.108119,-0.202511 0.108119,-0.364666 0,-0.160194 -0.0351579,-0.279667 -0.105154,-0.358829 -0.0703614,-0.0787519 -0.163797,-0.118151 -0.280032,-0.118151 -0.116555,0 -0.210355,0.0400371 -0.281628,0.119792 -0.0709998,0.0798007 -0.106796,0.199912 -0.106796,0.361109zm1.28771 0.700011l0 -1.39843 0.958885 0 0 0.236712 -0.676254 0 0 0.330785 0.583776 0 0 0.236712 -0.583776 0 0 0.594219 -0.282631 0zm1.19332 0l0 -1.39843 0.958885 0 0 0.236712 -0.676254 0 0 0.330785 0.583776 0 0 0.236712 -0.583776 0 0 0.594219 -0.282631 0z"/>
   <path id="_482348280" class="fil4" d="M3.38118 11.6674l-0.0799831 0 -0.0553133 -0.157595 -0.244965 0 -0.0553133 0.157595 -0.076335 0 0.205795 -0.565308 0.100321 0 0.205795 0.565308zm-0.158872 -0.222119l-0.0989072 -0.277342 -0.0994088 0.277342 0.198316 0zm0.593535 0.222119l-0.0714102 0 0 -0.241454c0,-0.0195626 -0.00114001,-0.0378483 -0.00337443,-0.0549485 -0.00232562,-0.0171001 -0.00647525,-0.0304611 -0.0125401,-0.0400371 -0.00638405,-0.0106249 -0.0154585,-0.0185138 -0.0273602,-0.0237122 -0.0119473,-0.00519844 -0.0273602,-0.00775206 -0.0462844,-0.00775206 -0.0194258,0 -0.0399003,0.00478804 -0.0611501,0.0143641 -0.0212498,0.00971288 -0.0415875,0.0218882 -0.0610589,0.0369363l0 0.316603 -0.0714102 0 0 -0.424038 0.0714102 0 0 0.0470596c0.0222986,-0.0185594 0.0453724,-0.0329235 0.0690846,-0.0433204 0.023849,-0.0103513 0.0481996,-0.0155497 0.0732342,-0.0155497 0.045874,0 0.0807127,0.0137713 0.104835,0.0413595 0.0239858,0.0275882 0.0360243,0.0673974 0.0360243,0.119245l0 0.275244zm0.496588 -0.424038l-0.247519 0.580447 -0.0760614 0 0.0787975 -0.176884 -0.168995 -0.403563 0.0773382 0 0.13028 0.314415 0.131375 -0.314415 0.0747846 0zm0.803798 0.424038l-0.0930704 0 -0.267993 -0.505663 0 0.505663 -0.0702702 0 0 -0.565308 0.116509 0 0.244555 0.461613 0 -0.461613 0.0702702 0 0 0.565308zm0.499598 -0.204655l-0.312363 0c0,0.0260834 0.00392163,0.0488836 0.0118105,0.0681726 0.00779767,0.0193346 0.0185138,0.0352491 0.0322851,0.047698 0.0130873,0.0120841 0.0287738,0.0212498 0.046786,0.0273602 0.018149,0.00606485 0.0380763,0.00907448 0.0598733,0.00907448 0.0287738,0 0.0577757,-0.00570005 0.0870511,-0.0172369 0.0291842,-0.0115369 0.0500236,-0.022937 0.0624725,-0.0341091l0.00378483 0 0 0.0778855c-0.0241226,0.0101233 -0.04861,0.0185594 -0.0736446,0.0253994 -0.0251258,0.00688566 -0.0514372,0.0102601 -0.0790255,0.0102601 -0.0703614,0 -0.125219,-0.019061 -0.164709,-0.0571373 -0.0395355,-0.0381219 -0.0592349,-0.0921584 -0.0592349,-0.162292 0,-0.0693126 0.0189242,-0.124398 0.0567725,-0.165073 0.0378483,-0.0408123 0.0875983,-0.0611957 0.149296,-0.0611957 0.0572741,0 0.101324,0.0167353 0.132287,0.0501604 0.0310083,0.0333339 0.046558,0.0808951 0.046558,0.142319l0 0.0387147zm-0.069495 -0.0546749c-0.000228002,-0.0374379 -0.00971288,-0.0664854 -0.0282266,-0.0869599 -0.0186962,-0.0204746 -0.0469228,-0.0306891 -0.0849079,-0.0306891 -0.0380763,0 -0.0685374,0.0112633 -0.0912464,0.0337899 -0.0226634,0.0224354 -0.0354771,0.050434 -0.0384867,0.0838591l0.242868 0zm0.711092 -0.164709l-0.110399 0.424038 -0.0661206 0 -0.108985 -0.326864 -0.10821 0.326864 -0.0657101 0 -0.111584 -0.424038 0.0743742 0 0.0779311 0.328414 0.105838 -0.328414 0.0588701 0 0.108575 0.328414 0.0736446 -0.328414 0.071775 0zm0.853411 0.382314c-0.0308715,0.0141361 -0.0645701,0.0264482 -0.101233,0.0369363 -0.0365259,0.0104881 -0.0719118,0.0158233 -0.106021,0.0158233 -0.04405,0 -0.0844975,-0.00611045 -0.12116,-0.0182858 -0.0366627,-0.0120385 -0.067899,-0.0303243 -0.0937088,-0.0545837 -0.0260378,-0.0246242 -0.0462388,-0.0553133 -0.0603749,-0.0921128 -0.0141361,-0.0367995 -0.0212498,-0.0798463 -0.0212498,-0.129231 0,-0.0904256 0.0264482,-0.161745 0.0791623,-0.213957 0.0527596,-0.0522124 0.125219,-0.0783871 0.217331,-0.0783871 0.0321483,0 0.0649349,0.00387603 0.0984968,0.0115369 0.0334251,0.00775206 0.0695862,0.0208394 0.108347,0.0393987l0 0.0891487 -0.00688566 0c-0.00775206,-0.00611045 -0.0191522,-0.0139993 -0.0340635,-0.0239858 -0.0149113,-0.00984968 -0.0296858,-0.0180122 -0.04405,-0.0246242 -0.0175105,-0.00788887 -0.0372099,-0.0143641 -0.0593717,-0.0195626 -0.0221618,-0.00519844 -0.0472876,-0.00779767 -0.075423,-0.00779767 -0.0632477,0 -0.113271,0.0203834 -0.150071,0.0609221 -0.0367995,0.0407211 -0.0552221,0.0956696 -0.0552221,0.164982 0,0.0730974 0.0191978,0.130007 0.0576845,0.170682 0.0384867,0.0405843 0.090836,0.0609221 0.157185,0.0609221 0.0242594,0 0.0484732,-0.00246242 0.0725958,-0.00725046 0.0242138,-0.00483364 0.0453724,-0.0110353 0.0636125,-0.0185594l0 -0.138534 -0.151484 0 0 -0.066075 0.225904 0 0 0.242594zm0.455274 0.0417243l-0.0710454 0 0 -0.0450988c-0.00633845,0.00428644 -0.0149113,0.0102601 -0.025673,0.0180122 -0.0107161,0.00766086 -0.021113,0.0138625 -0.0311907,0.0184226 -0.0119473,0.00579125 -0.025673,0.0106249 -0.0410859,0.0146377 -0.0154585,0.00387603 -0.0334707,0.00583685 -0.0543101,0.00583685 -0.0381219,0 -0.0704982,-0.0127225 -0.0970832,-0.0379851 -0.0265394,-0.0252626 -0.0399003,-0.0575477 -0.0399003,-0.0968096 0,-0.0321483 0.00684006,-0.0581861 0.0207482,-0.0780223 0.0137257,-0.0198362 0.0334251,-0.0355227 0.0589613,-0.0469228 0.0257642,-0.0114001 0.0568637,-0.019061 0.0930248,-0.023165 0.0361611,-0.00405843 0.0750582,-0.00702246 0.116509,-0.00907448l0 -0.0110353c0,-0.0161881 -0.00282722,-0.0296858 -0.00852727,-0.0403107 -0.00570005,-0.0106249 -0.0139081,-0.019061 -0.024533,-0.0251258 -0.0100777,-0.00583685 -0.022253,-0.00971288 -0.0363891,-0.0118105 -0.0141361,-0.00191522 -0.0290474,-0.00296402 -0.0444604,-0.00296402 -0.0186506,0 -0.0395355,0.00246242 -0.0626093,0.00738726 -0.0230738,0.00492484 -0.046786,0.0121753 -0.0714102,0.0215234l-0.00373923 0 0 -0.0725958c0.0138625,-0.00373923 0.0340635,-0.00788887 0.0603749,-0.0124489 0.0263114,-0.00451444 0.052258,-0.00684006 0.0777942,-0.00684006 0.0299138,0 0.0558149,0.00246242 0.0779767,0.00738726 0.0221618,0.00492484 0.0413595,0.0133153 0.0575477,0.0252626 0.0159601,0.0116737 0.0281354,0.0266762 0.0364347,0.0452356 0.00843607,0.018377 0.0125857,0.0413139 0.0125857,0.0686742l0 0.28783zm-0.0710454 -0.10447l0 -0.118059c-0.0217514,0.00132241 -0.0474244,0.00310083 -0.0768366,0.00570005 -0.029549,0.00246242 -0.0528964,0.00624725 -0.0701334,0.0110353 -0.0204746,0.00583685 -0.0370275,0.0149113 -0.04975,0.0270866 -0.0125857,0.0123121 -0.0189242,0.0292754 -0.0189242,0.0507988 0,0.0242138 0.00738726,0.0424996 0.022025,0.0548117 0.0146377,0.0123121 0.0370731,0.0184226 0.0671238,0.0184226 0.0251714,0 0.0481084,-0.00492484 0.068811,-0.0146377 0.0207482,-0.00975848 0.0399459,-0.0213866 0.0576845,-0.0351579zm0.473195 -0.241682l-0.00378483 0c-0.0106249,-0.00259922 -0.0209762,-0.00442324 -0.0309627,-0.00556325 -0.00998648,-0.00118561 -0.0217514,-0.00168721 -0.0355227,-0.00168721 -0.022025,0 -0.0432748,0.00492484 -0.0637493,0.0146377 -0.0204746,0.00971288 -0.0403107,0.0222986 -0.0592349,0.0377115l0 0.301054 -0.0714102 0 0 -0.424038 0.0714102 0 0 0.0626093c0.028409,-0.022709 0.053398,-0.0388971 0.0750582,-0.0483364 0.0216146,-0.00948488 0.0436852,-0.0142729 0.0662118,-0.0142729 0.0123121,0 0.0213866,0.000273602 0.0269498,0.000912008 0.00556325,0.000638405 0.0138625,0.00182402 0.0250346,0.00360243l0 0.073371zm0.383226 0.346152l-0.0710454 0 0 -0.0450988c-0.00633845,0.00428644 -0.0149113,0.0102601 -0.025673,0.0180122 -0.0107161,0.00766086 -0.021113,0.0138625 -0.0311907,0.0184226 -0.0119473,0.00579125 -0.025673,0.0106249 -0.0410859,0.0146377 -0.0154585,0.00387603 -0.0334707,0.00583685 -0.0543101,0.00583685 -0.0381219,0 -0.0704982,-0.0127225 -0.0970832,-0.0379851 -0.0265394,-0.0252626 -0.0399003,-0.0575477 -0.0399003,-0.0968096 0,-0.0321483 0.00684006,-0.0581861 0.0207482,-0.0780223 0.0137257,-0.0198362 0.0334251,-0.0355227 0.0589613,-0.0469228 0.0257642,-0.0114001 0.0568637,-0.019061 0.0930248,-0.023165 0.0361611,-0.00405843 0.0750582,-0.00702246 0.116509,-0.00907448l0 -0.0110353c0,-0.0161881 -0.00282722,-0.0296858 -0.00852727,-0.0403107 -0.00570005,-0.0106249 -0.0139081,-0.019061 -0.024533,-0.0251258 -0.0100777,-0.00583685 -0.022253,-0.00971288 -0.0363891,-0.0118105 -0.0141361,-0.00191522 -0.0290474,-0.00296402 -0.0444604,-0.00296402 -0.0186506,0 -0.0395355,0.00246242 -0.0626093,0.00738726 -0.0230738,0.00492484 -0.046786,0.0121753 -0.0714102,0.0215234l-0.00373923 0 0 -0.0725958c0.0138625,-0.00373923 0.0340635,-0.00788887 0.0603749,-0.0124489 0.0263114,-0.00451444 0.052258,-0.00684006 0.0777942,-0.00684006 0.0299138,0 0.0558149,0.00246242 0.0779767,0.00738726 0.0221618,0.00492484 0.0413595,0.0133153 0.0575477,0.0252626 0.0159601,0.0116737 0.0281354,0.0266762 0.0364347,0.0452356 0.00843607,0.018377 0.0125857,0.0413139 0.0125857,0.0686742l0 0.28783zm-0.0710454 -0.10447l0 -0.118059c-0.0217514,0.00132241 -0.0474244,0.00310083 -0.0768366,0.00570005 -0.029549,0.00246242 -0.0528964,0.00624725 -0.0701334,0.0110353 -0.0204746,0.00583685 -0.0370275,0.0149113 -0.04975,0.0270866 -0.0125857,0.0123121 -0.0189242,0.0292754 -0.0189242,0.0507988 0,0.0242138 0.00738726,0.0424996 0.022025,0.0548117 0.0146377,0.0123121 0.0370731,0.0184226 0.0671238,0.0184226 0.0251714,0 0.0481084,-0.00492484 0.068811,-0.0146377 0.0207482,-0.00975848 0.0399459,-0.0213866 0.0576845,-0.0351579zm0.552494 0.0562709c0,0.0719118 -0.0163249,0.124671 -0.0489748,0.158233 -0.0326499,0.0336987 -0.0829471,0.0505252 -0.150709,0.0505252 -0.0225722,0 -0.0444604,-0.00155041 -0.0658469,-0.00478804 -0.0213866,-0.00310083 -0.0424996,-0.00766086 -0.0632477,-0.0134521l0 -0.0728694 0.00373923 0c0.0116737,0.00456004 0.0301875,0.0102601 0.0554957,0.0168721 0.0252626,0.00674886 0.050662,0.0100777 0.0759246,0.0100777 0.0242594,0 0.0444604,-0.00282722 0.0603749,-0.00866407 0.0159601,-0.00583685 0.0282722,-0.0139993 0.0372099,-0.0243506 0.00880087,-0.00984968 0.0151849,-0.021797 0.0189242,-0.0356595 0.00373923,-0.0139993 0.00570005,-0.029549 0.00570005,-0.046786l0 -0.0386235c-0.0215234,0.0171001 -0.0421348,0.0299595 -0.0616973,0.0384867 -0.0195626,0.00843607 -0.0445516,0.0127225 -0.0750126,0.0127225 -0.0505708,0 -0.0907448,-0.0182858 -0.120522,-0.0548117 -0.0296858,-0.0365715 -0.0445972,-0.0881455 -0.0445972,-0.154768 0,-0.0363891 0.00519844,-0.067899 0.0154129,-0.0943472 0.0102601,-0.0264026 0.0242594,-0.0492484 0.0418611,-0.0685374 0.0164617,-0.0178753 0.0365715,-0.0318747 0.0600101,-0.0418611 0.0235754,-0.00998648 0.0470596,-0.0150481 0.0702246,-0.0150481 0.0246242,0 0.0450988,0.00246242 0.0616973,0.00738726 0.0165985,0.00492484 0.0341091,0.0124489 0.0526228,0.0225722l0.00456004 -0.018149 0.0668502 0 0 0.375838zm-0.0714102 -0.0684462l0 -0.231057c-0.019061,-0.00870967 -0.0366627,-0.0147745 -0.0529876,-0.0185138 -0.0163249,-0.00364803 -0.0325587,-0.00547205 -0.0487468,-0.00547205 -0.0392619,0 -0.0700878,0.0132241 -0.09266,0.0395355 -0.0225266,0.0263114 -0.0338355,0.0645245 -0.0338355,0.114548 0,0.0475612 0.00829927,0.0835855 0.0250346,0.10821 0.0166897,0.0244874 0.0444604,0.0367995 0.0831751,0.0367995 0.0207482,0 0.0416331,-0.00401283 0.0624725,-0.0119017 0.020885,-0.00802567 0.0400371,-0.0186506 0.0575477,-0.0321483zm0.566858 -0.0880087l-0.312363 0c0,0.0260834 0.00392163,0.0488836 0.0118105,0.0681726 0.00779767,0.0193346 0.0185138,0.0352491 0.0322851,0.047698 0.0130873,0.0120841 0.0287738,0.0212498 0.046786,0.0273602 0.018149,0.00606485 0.0380763,0.00907448 0.0598733,0.00907448 0.0287738,0 0.0577757,-0.00570005 0.0870511,-0.0172369 0.0291842,-0.0115369 0.0500236,-0.022937 0.0624725,-0.0341091l0.00378483 0 0 0.0778855c-0.0241226,0.0101233 -0.04861,0.0185594 -0.0736446,0.0253994 -0.0251258,0.00688566 -0.0514372,0.0102601 -0.0790255,0.0102601 -0.0703614,0 -0.125219,-0.019061 -0.164709,-0.0571373 -0.0395355,-0.0381219 -0.0592349,-0.0921584 -0.0592349,-0.162292 0,-0.0693126 0.0189242,-0.124398 0.0567725,-0.165073 0.0378483,-0.0408123 0.0875983,-0.0611957 0.149296,-0.0611957 0.0572741,0 0.101324,0.0167353 0.132287,0.0501604 0.0310083,0.0333339 0.046558,0.0808951 0.046558,0.142319l0 0.0387147zm-0.069495 -0.0546749c-0.000228002,-0.0374379 -0.00971288,-0.0664854 -0.0282266,-0.0869599 -0.0186962,-0.0204746 -0.0469228,-0.0306891 -0.0849079,-0.0306891 -0.0380763,0 -0.0685374,0.0112633 -0.0912464,0.0337899 -0.0226634,0.0224354 -0.0354771,0.050434 -0.0384867,0.0838591l0.242868 0zm0.934261 -0.0228002c0,0.0514372 -0.0111265,0.0979952 -0.0335619,0.13972 -0.0224354,0.0418611 -0.0522124,0.0742374 -0.0894223,0.0971744 -0.0257642,0.0159601 -0.0545381,0.027497 -0.0863215,0.0346107 -0.0318747,0.00711366 -0.073599,0.0106249 -0.125583,0.0106249l-0.142684 0 0 -0.565308 0.14127 0c0.0550853,0 0.0989984,0.00401283 0.131557,0.0119473 0.0325131,0.00802567 0.0600101,0.0189242 0.0825367,0.0329235 0.0384867,0.0239402 0.0684462,0.0559517 0.0899696,0.0959888 0.0214778,0.0399459 0.0322395,0.0875071 0.0322395,0.142319zm-0.0785239 -0.00104881c0,-0.0443236 -0.00779767,-0.0816247 -0.0232106,-0.112086 -0.0154129,-0.0303243 -0.0384867,-0.0543101 -0.0690846,-0.0716838 -0.022253,-0.0126769 -0.045874,-0.0214778 -0.0709998,-0.0264026 -0.024989,-0.00492484 -0.0550853,-0.00738726 -0.089924,-0.00738726l-0.070635 0 0 0.436213 0.070635 0c0.0361611,0 0.0677622,-0.00273602 0.094712,-0.00807127 0.0269498,-0.00528964 0.0517108,-0.0151393 0.074283,-0.0295034 0.0279986,-0.0180578 0.0491116,-0.0416331 0.0631109,-0.0710454 0.0140905,-0.0292754 0.021113,-0.066075 0.021113,-0.110034zm0.555869 0.0712734c0,0.0692214 -0.0177841,0.123759 -0.05317,0.163705 -0.0353403,0.0400371 -0.0829015,0.0600101 -0.14241,0.0600101 -0.0598733,0 -0.107571,-0.019973 -0.14282,-0.0600101 -0.0353859,-0.0399459 -0.0529876,-0.094484 -0.0529876,-0.163705 0,-0.069039 0.0176017,-0.123623 0.0529876,-0.163797 0.0352491,-0.0400371 0.0829471,-0.0601469 0.14282,-0.0601469 0.0595085,0 0.10707,0.0201098 0.14241,0.0601469 0.0353859,0.0401739 0.05317,0.0947576 0.05317,0.163797zm-0.0736446 0c0,-0.0548117 -0.0107161,-0.095624 -0.0322395,-0.122346 -0.0215234,-0.0266762 -0.0514372,-0.0400371 -0.0896959,-0.0400371 -0.0386235,0 -0.0686742,0.0133609 -0.0900608,0.0400371 -0.0213866,0.0267218 -0.0321483,0.0675342 -0.0321483,0.122346 0,0.05317 0.0107617,0.0934352 0.0322851,0.120932 0.0215234,0.0274514 0.051574,0.0412227 0.089924,0.0412227 0.0379851,0 0.0677622,-0.0136345 0.0894223,-0.0408579 0.0216602,-0.0271778 0.0325131,-0.0676254 0.0325131,-0.121297zm0.545654 0c0,0.0692214 -0.0177841,0.123759 -0.05317,0.163705 -0.0353403,0.0400371 -0.0829015,0.0600101 -0.14241,0.0600101 -0.0598733,0 -0.107571,-0.019973 -0.14282,-0.0600101 -0.0353859,-0.0399459 -0.0529876,-0.094484 -0.0529876,-0.163705 0,-0.069039 0.0176017,-0.123623 0.0529876,-0.163797 0.0352491,-0.0400371 0.0829471,-0.0601469 0.14282,-0.0601469 0.0595085,0 0.10707,0.0201098 0.14241,0.0601469 0.0353859,0.0401739 0.05317,0.0947576 0.05317,0.163797zm-0.0736446 0c0,-0.0548117 -0.0107161,-0.095624 -0.0322395,-0.122346 -0.0215234,-0.0266762 -0.0514372,-0.0400371 -0.0896959,-0.0400371 -0.0386235,0 -0.0686742,0.0133609 -0.0900608,0.0400371 -0.0213866,0.0267218 -0.0321483,0.0675342 -0.0321483,0.122346 0,0.05317 0.0107617,0.0934352 0.0322851,0.120932 0.0215234,0.0274514 0.051574,0.0412227 0.089924,0.0412227 0.0379851,0 0.0677622,-0.0136345 0.0894223,-0.0408579 0.0216602,-0.0271778 0.0325131,-0.0676254 0.0325131,-0.121297zm0.448845 -0.134248l-0.00378483 0c-0.0106249,-0.00259922 -0.0209762,-0.00442324 -0.0309627,-0.00556325 -0.00998648,-0.00118561 -0.0217514,-0.00168721 -0.0355227,-0.00168721 -0.022025,0 -0.0432748,0.00492484 -0.0637493,0.0146377 -0.0204746,0.00971288 -0.0403107,0.0222986 -0.0592349,0.0377115l0 0.301054 -0.0714102 0 0 -0.424038 0.0714102 0 0 0.0626093c0.028409,-0.022709 0.053398,-0.0388971 0.0750582,-0.0483364 0.0216146,-0.00948488 0.0436852,-0.0142729 0.0662118,-0.0142729 0.0123121,0 0.0213866,0.000273602 0.0269498,0.000912008 0.00556325,0.000638405 0.0138625,0.00182402 0.0250346,0.00360243l0 0.073371zm0.545563 0.346152l-0.223168 0 0 -0.0576845 0.0740094 0 0 -0.449939 -0.0740094 0 0 -0.0576845 0.223168 0 0 0.0576845 -0.0739638 0 0 0.449939 0.0739638 0 0 0.0576845zm0.476798 0l-0.0714102 0 0 -0.241454c0,-0.0195626 -0.00114001,-0.0378483 -0.00337443,-0.0549485 -0.00232562,-0.0171001 -0.00647525,-0.0304611 -0.0125401,-0.0400371 -0.00638405,-0.0106249 -0.0154585,-0.0185138 -0.0273602,-0.0237122 -0.0119473,-0.00519844 -0.0273602,-0.00775206 -0.0462844,-0.00775206 -0.0194258,0 -0.0399003,0.00478804 -0.0611501,0.0143641 -0.0212498,0.00971288 -0.0415875,0.0218882 -0.0610589,0.0369363l0 0.316603 -0.0714102 0 0 -0.424038 0.0714102 0 0 0.0470596c0.0222986,-0.0185594 0.0453724,-0.0329235 0.0690846,-0.0433204 0.023849,-0.0103513 0.0481996,-0.0155497 0.0732342,-0.0155497 0.045874,0 0.0807127,0.0137713 0.104835,0.0413595 0.0239858,0.0275882 0.0360243,0.0673974 0.0360243,0.119245l0 0.275244zm0.4405 -0.122346c0,0.0387603 -0.0160513,0.0704982 -0.0480628,0.095396 -0.0320115,0.024761 -0.0756966,0.0372099 -0.131192,0.0372099 -0.0313275,0 -0.0601013,-0.00378483 -0.0864127,-0.0111721 -0.0261746,-0.00752406 -0.0481084,-0.0156865 -0.0658469,-0.0246242l0 -0.0800743 0.00378483 0c0.0225266,0.0169633 0.0475612,0.0304611 0.0751494,0.0404019 0.0275882,0.00998648 0.0540365,0.0150481 0.0794359,0.0150481 0.0313731,0 0.0558605,-0.00506164 0.073599,-0.0151393 0.0177841,-0.0101233 0.026585,-0.0260834 0.026585,-0.0478348 0,-0.0167353 -0.00478804,-0.0294122 -0.0144097,-0.0379851 -0.00971288,-0.00866407 -0.0280898,-0.0159145 -0.0554501,-0.022025 -0.0101233,-0.00232562 -0.0233018,-0.00492484 -0.0396723,-0.00802567 -0.0163249,-0.00296402 -0.0311907,-0.00633845 -0.0445516,-0.00984968 -0.0372099,-0.00984968 -0.0636581,-0.0243506 -0.0792079,-0.0434116 -0.0155497,-0.0191978 -0.0233018,-0.0426364 -0.0233018,-0.0704982 0,-0.0175105 0.00360243,-0.0339723 0.0107617,-0.0493852 0.00725046,-0.0154129 0.0182402,-0.0291386 0.0329235,-0.0413595 0.0140905,-0.0119017 0.0321027,-0.0213866 0.0540365,-0.0282266 0.0218882,-0.00702246 0.0463756,-0.0104881 0.0734622,-0.0104881 0.0253994,0 0.0509356,0.00310083 0.0769734,0.00930248 0.0259466,0.00624725 0.0474244,0.0137257 0.0646613,0.0225722l0 0.076335 -0.00373923 0c-0.0182858,-0.0133609 -0.0404475,-0.024761 -0.0664854,-0.0339723 -0.0260378,-0.00921128 -0.051574,-0.0138625 -0.0766086,-0.0138625 -0.0261746,0 -0.0480628,0.00506164 -0.066075,0.0150481 -0.0180122,0.00994088 -0.0269498,0.0248522 -0.0269498,0.0445516 0,0.0175105 0.00542645,0.0305979 0.0163249,0.0395355 0.0106249,0.00880087 0.0278618,0.0160969 0.051574,0.0216602 0.0132241,0.00296402 0.0279986,0.00592805 0.0443236,0.00907448 0.0161881,0.00296402 0.0298226,0.00583685 0.0406755,0.00829927 0.0331971,0.00761526 0.0587333,0.0207026 0.0767454,0.0391251 0.0180122,0.0187874 0.0269498,0.0435484 0.0269498,0.0743742zm0.322303 0.11847c-0.0133609,0.00360243 -0.0279986,0.00647525 -0.043822,0.00880087 -0.0157777,0.00218882 -0.0299138,0.00337443 -0.0423628,0.00337443 -0.0432748,0 -0.0761982,-0.0116737 -0.0986336,-0.0348843 -0.0225266,-0.0233018 -0.0338355,-0.0606485 -0.0338355,-0.111949l0 -0.225494 -0.0481996 0 0 -0.0600101 0.0481996 0 0 -0.121844 0.0714102 0 0 0.121844 0.147244 0 0 0.0600101 -0.147244 0 0 0.193209c0,0.0222986 0.000547205,0.0396723 0.00159601,0.052258 0.00100321,0.0124033 0.00451444,0.0242138 0.0106249,0.0349755 0.00556325,0.0102145 0.0131785,0.0176017 0.022937,0.0222986 0.00971288,0.00465124 0.0246242,0.00697686 0.0445516,0.00697686 0.0116737,0 0.0237122,-0.00168721 0.0364347,-0.00506164 0.0126769,-0.00346563 0.0217514,-0.00633845 0.0273602,-0.00852727l0.00373923 0 0 0.0640229zm0.415739 0.00387603l-0.0710454 0 0 -0.0450988c-0.00633845,0.00428644 -0.0149113,0.0102601 -0.025673,0.0180122 -0.0107161,0.00766086 -0.021113,0.0138625 -0.0311907,0.0184226 -0.0119473,0.00579125 -0.025673,0.0106249 -0.0410859,0.0146377 -0.0154585,0.00387603 -0.0334707,0.00583685 -0.0543101,0.00583685 -0.0381219,0 -0.0704982,-0.0127225 -0.0970832,-0.0379851 -0.0265394,-0.0252626 -0.0399003,-0.0575477 -0.0399003,-0.0968096 0,-0.0321483 0.00684006,-0.0581861 0.0207482,-0.0780223 0.0137257,-0.0198362 0.0334251,-0.0355227 0.0589613,-0.0469228 0.0257642,-0.0114001 0.0568637,-0.019061 0.0930248,-0.023165 0.0361611,-0.00405843 0.0750582,-0.00702246 0.116509,-0.00907448l0 -0.0110353c0,-0.0161881 -0.00282722,-0.0296858 -0.00852727,-0.0403107 -0.00570005,-0.0106249 -0.0139081,-0.019061 -0.024533,-0.0251258 -0.0100777,-0.00583685 -0.022253,-0.00971288 -0.0363891,-0.0118105 -0.0141361,-0.00191522 -0.0290474,-0.00296402 -0.0444604,-0.00296402 -0.0186506,0 -0.0395355,0.00246242 -0.0626093,0.00738726 -0.0230738,0.00492484 -0.046786,0.0121753 -0.0714102,0.0215234l-0.00373923 0 0 -0.0725958c0.0138625,-0.00373923 0.0340635,-0.00788887 0.0603749,-0.0124489 0.0263114,-0.00451444 0.052258,-0.00684006 0.0777942,-0.00684006 0.0299138,0 0.0558149,0.00246242 0.0779767,0.00738726 0.0221618,0.00492484 0.0413595,0.0133153 0.0575477,0.0252626 0.0159601,0.0116737 0.0281354,0.0266762 0.0364347,0.0452356 0.00843607,0.018377 0.0125857,0.0413139 0.0125857,0.0686742l0 0.28783zm-0.0710454 -0.10447l0 -0.118059c-0.0217514,0.00132241 -0.0474244,0.00310083 -0.0768366,0.00570005 -0.029549,0.00246242 -0.0528964,0.00624725 -0.0701334,0.0110353 -0.0204746,0.00583685 -0.0370275,0.0149113 -0.04975,0.0270866 -0.0125857,0.0123121 -0.0189242,0.0292754 -0.0189242,0.0507988 0,0.0242138 0.00738726,0.0424996 0.022025,0.0548117 0.0146377,0.0123121 0.0370731,0.0184226 0.0671238,0.0184226 0.0251714,0 0.0481084,-0.00492484 0.068811,-0.0146377 0.0207482,-0.00975848 0.0399459,-0.0213866 0.0576845,-0.0351579zm0.280716 0.10447l-0.0714102 0 0 -0.590844 0.0714102 0 0 0.590844zm0.213319 0l-0.0714102 0 0 -0.590844 0.0714102 0 0 0.590844zm0.470733 0l-0.0710454 0 0 -0.0450988c-0.00633845,0.00428644 -0.0149113,0.0102601 -0.025673,0.0180122 -0.0107161,0.00766086 -0.021113,0.0138625 -0.0311907,0.0184226 -0.0119473,0.00579125 -0.025673,0.0106249 -0.0410859,0.0146377 -0.0154585,0.00387603 -0.0334707,0.00583685 -0.0543101,0.00583685 -0.0381219,0 -0.0704982,-0.0127225 -0.0970832,-0.0379851 -0.0265394,-0.0252626 -0.0399003,-0.0575477 -0.0399003,-0.0968096 0,-0.0321483 0.00684006,-0.0581861 0.0207482,-0.0780223 0.0137257,-0.0198362 0.0334251,-0.0355227 0.0589613,-0.0469228 0.0257642,-0.0114001 0.0568637,-0.019061 0.0930248,-0.023165 0.0361611,-0.00405843 0.0750582,-0.00702246 0.116509,-0.00907448l0 -0.0110353c0,-0.0161881 -0.00282722,-0.0296858 -0.00852727,-0.0403107 -0.00570005,-0.0106249 -0.0139081,-0.019061 -0.024533,-0.0251258 -0.0100777,-0.00583685 -0.022253,-0.00971288 -0.0363891,-0.0118105 -0.0141361,-0.00191522 -0.0290474,-0.00296402 -0.0444604,-0.00296402 -0.0186506,0 -0.0395355,0.00246242 -0.0626093,0.00738726 -0.0230738,0.00492484 -0.046786,0.0121753 -0.0714102,0.0215234l-0.00373923 0 0 -0.0725958c0.0138625,-0.00373923 0.0340635,-0.00788887 0.0603749,-0.0124489 0.0263114,-0.00451444 0.052258,-0.00684006 0.0777942,-0.00684006 0.0299138,0 0.0558149,0.00246242 0.0779767,0.00738726 0.0221618,0.00492484 0.0413595,0.0133153 0.0575477,0.0252626 0.0159601,0.0116737 0.0281354,0.0266762 0.0364347,0.0452356 0.00843607,0.018377 0.0125857,0.0413139 0.0125857,0.0686742l0 0.28783zm-0.0710454 -0.10447l0 -0.118059c-0.0217514,0.00132241 -0.0474244,0.00310083 -0.0768366,0.00570005 -0.029549,0.00246242 -0.0528964,0.00624725 -0.0701334,0.0110353 -0.0204746,0.00583685 -0.0370275,0.0149113 -0.04975,0.0270866 -0.0125857,0.0123121 -0.0189242,0.0292754 -0.0189242,0.0507988 0,0.0242138 0.00738726,0.0424996 0.022025,0.0548117 0.0146377,0.0123121 0.0370731,0.0184226 0.0671238,0.0184226 0.0251714,0 0.0481084,-0.00492484 0.068811,-0.0146377 0.0207482,-0.00975848 0.0399459,-0.0213866 0.0576845,-0.0351579zm0.428735 0.100594c-0.0133609,0.00360243 -0.0279986,0.00647525 -0.043822,0.00880087 -0.0157777,0.00218882 -0.0299138,0.00337443 -0.0423628,0.00337443 -0.0432748,0 -0.0761982,-0.0116737 -0.0986336,-0.0348843 -0.0225266,-0.0233018 -0.0338355,-0.0606485 -0.0338355,-0.111949l0 -0.225494 -0.0481996 0 0 -0.0600101 0.0481996 0 0 -0.121844 0.0714102 0 0 0.121844 0.147244 0 0 0.0600101 -0.147244 0 0 0.193209c0,0.0222986 0.000547205,0.0396723 0.00159601,0.052258 0.00100321,0.0124033 0.00451444,0.0242138 0.0106249,0.0349755 0.00556325,0.0102145 0.0131785,0.0176017 0.022937,0.0222986 0.00971288,0.00465124 0.0246242,0.00697686 0.0445516,0.00697686 0.0116737,0 0.0237122,-0.00168721 0.0364347,-0.00506164 0.0126769,-0.00346563 0.0217514,-0.00633845 0.0273602,-0.00852727l0.00373923 0 0 0.0640229zm0.162885 -0.491299l-0.0804847 0 0 -0.0740094 0.0804847 0 0 0.0740094zm-0.00456004 0.495175l-0.0714102 0 0 -0.424038 0.0714102 0 0 0.424038zm0.502607 -0.211905c0,0.0692214 -0.0177841,0.123759 -0.05317,0.163705 -0.0353403,0.0400371 -0.0829015,0.0600101 -0.14241,0.0600101 -0.0598733,0 -0.107571,-0.019973 -0.14282,-0.0600101 -0.0353859,-0.0399459 -0.0529876,-0.094484 -0.0529876,-0.163705 0,-0.069039 0.0176017,-0.123623 0.0529876,-0.163797 0.0352491,-0.0400371 0.0829471,-0.0601469 0.14282,-0.0601469 0.0595085,0 0.10707,0.0201098 0.14241,0.0601469 0.0353859,0.0401739 0.05317,0.0947576 0.05317,0.163797zm-0.0736446 0c0,-0.0548117 -0.0107161,-0.095624 -0.0322395,-0.122346 -0.0215234,-0.0266762 -0.0514372,-0.0400371 -0.0896959,-0.0400371 -0.0386235,0 -0.0686742,0.0133609 -0.0900608,0.0400371 -0.0213866,0.0267218 -0.0321483,0.0675342 -0.0321483,0.122346 0,0.05317 0.0107617,0.0934352 0.0322851,0.120932 0.0215234,0.0274514 0.051574,0.0412227 0.089924,0.0412227 0.0379851,0 0.0677622,-0.0136345 0.0894223,-0.0408579 0.0216602,-0.0271778 0.0325131,-0.0676254 0.0325131,-0.121297zm0.538768 0.211905l-0.0714102 0 0 -0.241454c0,-0.0195626 -0.00114001,-0.0378483 -0.00337443,-0.0549485 -0.00232562,-0.0171001 -0.00647525,-0.0304611 -0.0125401,-0.0400371 -0.00638405,-0.0106249 -0.0154585,-0.0185138 -0.0273602,-0.0237122 -0.0119473,-0.00519844 -0.0273602,-0.00775206 -0.0462844,-0.00775206 -0.0194258,0 -0.0399003,0.00478804 -0.0611501,0.0143641 -0.0212498,0.00971288 -0.0415875,0.0218882 -0.0610589,0.0369363l0 0.316603 -0.0714102 0 0 -0.424038 0.0714102 0 0 0.0470596c0.0222986,-0.0185594 0.0453724,-0.0329235 0.0690846,-0.0433204 0.023849,-0.0103513 0.0481996,-0.0155497 0.0732342,-0.0155497 0.045874,0 0.0807127,0.0137713 0.104835,0.0413595 0.0239858,0.0275882 0.0360243,0.0673974 0.0360243,0.119245l0 0.275244zm0.527323 0l-0.0906992 0 0 -0.10821 0.0906992 0 0 0.10821z"/>
  </g>
 </g>
</svg>
