<?xml version="1.0" encoding="UTF-8"?>
<!DOCTYPE svg PUBLIC "-//W3C//DTD SVG 1.1//EN" "http://www.w3.org/Graphics/SVG/1.1/DTD/svg11.dtd">
<!-- Creator: CorelDRAW -->
<svg xmlns="http://www.w3.org/2000/svg" xml:space="preserve" width="33.7729mm" height="9.2353mm" style="shape-rendering:geometricPrecision; text-rendering:geometricPrecision; image-rendering:optimizeQuality; fill-rule:evenodd; clip-rule:evenodd"
viewBox="0 0 20.5595 5.62206"
 xmlns:xlink="http://www.w3.org/1999/xlink">
 <defs>
  <style type="text/css">
   <![CDATA[
    .fil0 {fill:#E5097F}
   ]]>
  </style>
 </defs>
 <g id="Layer_x0020_1">
  <metadata id="CorelCorpID_0Corel-Layer"/>
  <path class="fil0" d="M3.89258 0.0116881l0 0.0116273 0.562005 0c-0.0586234,0.033299 -0.108359,0.0233763 -0.178183,0.0233763 -0.146224,0 -0.292447,0 -0.43861,0 -0.16059,0 -0.26901,-0.011749 -0.424913,-0.0116881 -0.305353,0.000182627 -0.555309,0.0135753 -0.849826,6.08758e-005 -0.116516,-0.00535707 -0.295613,-0.0169843 -0.41359,-0.00213065 -0.299935,0.0376821 -0.530715,0.0320815 -0.819144,0.0494311 -0.178305,0.0107141 -0.356549,0.0226458 -0.535341,0.0226458 -0.0234372,0 -0.0340904,-0.0220979 -0.131431,-0.029403 -0.169904,-0.0126622 -0.342183,-0.00560057 -0.512757,-0.00560057 -0.0416999,0.0975839 -0.0617889,0.125343 -0.0457177,0.225484 0.00590495,0.0364037 0.0121143,0.0579537 0.0320207,0.0894265l0.013697 -0.186584c0,0.115481 0.00724422,0.248251 6.08758e-005,0.361602 -0.00669633,0.10568 -0.0379256,0.231328 -0.041639,0.3378 -0.00420043,0.119864 -0.00328729,0.445184 -0.0208195,0.542464 -0.0331773,0.183297 -0.0733553,0.663789 -0.0746946,0.834302l-0.013697 1.84289c0,0.0572232 0.0266027,0.079869 0.0364646,0.133135 0.00925312,0.0497964 -0.0154624,0.0922268 -0.021063,0.136544l-0.0154016 1.00171c0,0.165704 0.00115664,0.220066 0.0495529,0.233276l0.0902788 0c0.0379865,-0.00359167 0.0863827,-0.00888786 0.147928,-0.011749 0.0654414,-0.00298291 0.138675,0.00858348 0.203812,-0.00164365 0.0535098,-0.00840086 0.0199064,-0.0111403 0.061241,-0.0178366 0.0569797,-0.00925312 0.0428565,0.0113229 0.116334,0.00651371l0.139527 -0.010288 0 -0.0350036c0.124126,0 0.183419,-0.00693984 0.294334,0.0178366 0.0941139,0.0210021 0.801003,0.00553969 0.952949,0.00547882l0.616367 0.0120534c0.0756077,0.00499181 0.092105,0.0234372 0.19182,0.0233763 0.14178,-0.000121752 0.28362,-0.000121752 0.4254,-0.00042613 0.144641,-0.000304379 0.252939,0.0114446 0.406346,0.0116881l0.444028 0c0.0373168,-0.000304379 -0.0327512,-0.026481 0.149267,-0.0231937l0.621724 -0.0100445c0.0077921,-0.00955749 -0.0268462,0.00846173 0.0126622,-0.0135144 0.0812083,-0.0451698 0.977787,-0.0232545 1.07981,-0.0232545 1.42547,0.0233763 1.76887,0.0192976 1.42547,0.0233154 0.219092,0 0.47337,-0.0144884 0.686131,0.0109576l0.204725 0.0357341 0.828397 0c0.381326,-0.000304379 0.847878,-0.0289769 1.19128,-0.0145493 0.167104,0.00706159 0.199612,0.0143058 0.383822,0.0145493l1.2835 0c-0.0370125,-0.0430392 -0.15225,-0.0208804 -0.219822,-0.0228893l-0.246182 -0.0238024c0.142815,0 0.236868,-0.0121143 0.370064,-0.0116881 0.143302,0.000487006 0.23632,-0.0120534 0.370064,-0.0116273l1.13771 -0.0116273c0.137214,0.000243503 0.227006,-0.0116881 0.370003,-0.0116881l0.946253 -0.0120534c0.082304,6.08758e-005 0.0993492,0.0116881 0.177148,0.0125404l0.356915 -0.0121752 -0.013697 0.0350036 2.01481 0.0233154c-0.109028,0 -0.196872,0.0145493 -0.301518,0.0350036 0.127352,0.00986187 0.253913,0.0114446 0.381265,0.0116881l0.114142 0c0.0842521,-0.000243503 0.118464,-0.0168626 0.190967,-0.0224023 0.0754859,-0.0057832 0.136118,-0.00718334 0.216109,-0.0143667 0.281368,-0.0253852 0.601392,0.0262983 0.893108,0.0135144 0.0692157,-0.00304379 0.13624,-0.0204543 0.205456,-0.023498l0.233093 6.08758e-005c0.0060267,-0.0165582 0.00450481,0.00718334 -0.0137579,-0.0233154 0.129239,0 0.343644,0.0106533 0.462291,-0.00316554 0.15432,-0.0124795 0.314728,-0.0201499 0.469778,-0.0201499l0.19188 0c0.0557013,-0.00237415 0.109515,0.00499181 0.164486,0.0116881 0.0510139,-0.186402 -0.0341513,-0.380474 0.022037,-0.634447 0.0123578,-0.055884 0.000182627,-0.114264 0.0252634,-0.153468 0.0418217,-0.0653806 0.0211848,-0.154077 0.0211848,-0.226884 0,-0.19742 0.0137579,-0.359228 0.0137579,-0.548186l-0.0137579 -1.11975 -0.0410911 0.268279c0,-0.0745119 -0.012236,-0.101784 -0.0140014,-0.163086l-0.0129665 -0.350523c-0.000121752,-0.0737206 -0.0148537,-0.0969751 -0.0144884,-0.174287 0.00115664,-0.235772 -0.00560057,-0.47404 -0.0407868,-0.700132l-0.0410911 0c0.00547882,-0.0562492 0.0412738,-0.0541794 0.057345,-0.137762 0.0101054,-0.052414 0.0166191,-0.105437 0.0253852,-0.165034 0.00706159,-0.0477875 0.00967925,-0.0364037 0.0248982,-0.0721378 0.013697,-0.0322033 0.011749,-0.0370125 0.0217326,-0.0748772 0.0211239,-0.080356 0.0128448,-0.0907658 0.00767035,-0.168382 0,-0.061728 0.0281855,-0.0147319 0.00395692,-0.0731727 -0.0218544,-0.0526575 -0.0271506,-0.00170452 -0.0326294,-0.0781645 -0.012236,-0.170696 0.106776,-0.671034 0.0423695,-0.945096 -0.0653197,-0.00121752 -0.0992884,-0.0203934 -0.157546,-0.0164973 -0.0721987,0.00480919 -0.0963663,0.0162538 -0.170817,0.0169843l-0.76813 -0.000487006c-0.0915571,0 -0.311927,0.0133927 -0.363733,0.00724422 -0.228223,-0.0270897 -1.21283,0.00310466 -1.51404,0.00444393 -0.090157,0 -0.136544,-0.00614845 -0.206612,-0.0113229l-0.204543 0.0113229c-0.178244,0.000365255 -0.356123,-0.0233154 -0.53455,-0.0233154 -0.0390822,0 -0.0766426,0.0238633 -0.219275,0.0233763 -0.0822432,-0.000304379 -0.164547,0.000243503 -0.246851,-0.000121752 -0.100384,-0.00042613 -0.142875,0.0120534 -0.232424,0.0121143l-0.740615 -0.0120534c-0.171122,6.08758e-005 -0.333904,0.0139406 -0.477266,0.0042613l-0.207282 -0.0153407c-0.0603888,0.00146102 -0.284655,0.0172278 -0.348575,0.0309858 -0.110307,0.0237415 -0.22524,-0.0119925 -0.337495,-0.0199064 -0.0756077,0 -0.0266636,0.0266636 -0.107385,0.0106533 -0.106046,-0.021063 -0.315519,0.00103489 -0.440923,0.00103489l-2.56305 0c-0.0501616,0 -0.0456568,-0.0132709 -0.0862001,-0.0199673 -0.115238,-0.0191759 -0.234372,-0.0149146 -0.352714,-0.0153407 -0.0955749,-0.000304379 -0.133135,0.0126013 -0.232485,0.0121143 -0.28569,-0.000791385 -0.580024,0.0062702 -0.862914,-0.0125404 -0.101236,-0.00669633 -0.104524,-0.0124187 -0.212274,0.00736597 -0.138614,0.0254461 -1.92483,0.0283681 -2.1323,0.0283681 -0.0945401,0 -0.260853,-0.0104706 -0.322215,-0.00468743l-0.212639 0.027942c-0.107628,0.0236198 -0.578381,-0.0129057 -0.726248,-0.0115055 -0.121143,0.00109576 -0.206917,-0.0211239 -0.314667,-0.0238024l-0.973586 -0.0346383c-0.142084,0 -0.229867,0.0116881 -0.370125,0.0116881z"/>
 </g>
</svg>
