<?xml version="1.0" encoding="UTF-8"?>
<!DOCTYPE svg PUBLIC "-//W3C//DTD SVG 1.1//EN" "http://www.w3.org/Graphics/SVG/1.1/DTD/svg11.dtd">
<!-- Creator: CorelDRAW -->
<svg xmlns="http://www.w3.org/2000/svg" xml:space="preserve" width="9.0375mm" height="8.8087mm" style="shape-rendering:geometricPrecision; text-rendering:geometricPrecision; image-rendering:optimizeQuality; fill-rule:evenodd; clip-rule:evenodd"
viewBox="0 0 0.372368 0.362941"
 xmlns:xlink="http://www.w3.org/1999/xlink">
 <defs>
  <style type="text/css">
   <![CDATA[
    .fil0 {fill:#F19413}
   ]]>
  </style>
 </defs>
 <g id="Layer_x0020_1">
  <metadata id="CorelCorpID_0Corel-Layer"/>
  <path class="fil0" d="M0.197381 0.354692l-0.00824875 -0.00117839c0.00231146,-0.0016069 0.00657181,-0.00110835 0.00824875,0.00117839zm0.0341734 -0.0347626l0.00032138 -0.00126492 -0.00032138 0.00126492 -0.000589197 0 -9.88861e-005 -0.000683962 -0.00049031 0.000683962 0.000589197 0 0.000589197 0zm-0.0318166 0.0141407l-0.000589197 -0.000589197 -0.000589197 -0.00117839 -0.00176759 0 0 -0.000589197 0.00032138 -0.00126492 -0.00032138 0.00126492 0 0.000589197c0.000444988,0.000391424 0.00016481,0.000395545 0.000992982,0.000774608 0.00119899,0.000556234 0.000276057,0.000152449 0.0013638,0.000403785l0.000589197 0.000589197c-0.00171815,0.00256692 -0.00390188,0.00231558 -0.00503495,0.00239799 -0.000135968,8.24051e-006 0.000576836,-0.00108775 -0.00122784,0.000725165 -0.000708684,0.000712804 -0.00273585,0.00121548 -0.00375355,0.00159042 -0.00183763,-0.00346926 0.00100534,-0.00208073 -0.00419442,-0.00700031 -0.00350634,-0.00332093 -0.00540165,-0.00869374 -0.00758951,-0.0130324 0.00253808,5.76836e-005 0.00381948,0.000844652 0.00597849,0.00109599l0.0205354 0.00184999 -0.00268229 0.00294598c-0.0010177,0.000593317 -0.00188708,0.000457348 -0.00379888,0.000589197 0.00149565,0.0022373 0.00131024,0.00341157 -0.000131848,0.00543462l0.00257516 0.00225378 -0.000675722 0.00114955zm-0.0229787 -0.206215l0.00126492 0.00032138 -0.00126492 -0.00032138c0.00104242,-0.0019736 0.000436747,-0.00166458 0.00235679,-0.00294598l0.00117839 0.00117839c0.000836412,-0.00202717 0.001302,-0.0028677 0.000910576,-0.00386068 -0.000494431,-0.00125256 -4.12026e-006,-0.000589197 -0.000889975,-0.000276057 -7.82849e-005,2.88418e-005 -0.000238975,0.000140089 -0.00032138,0.000185411 -9.06456e-005,4.94431e-005 -0.000238975,0.000173051 -0.000337861,0.000234855l-0.00294186 0.00234855c-5.76836e-005,4.94431e-005 -0.000206013,0.000135968 -0.000263696,0.000177171l-0.00158218 0.00146269c-0.00149153,0.00170579 6.18038e-005,-0.00114955 -0.00341157,0.00267405l0.00294598 0c-0.00210545,0.00049031 -0.00307371,0.00110423 -0.00471357,0.00235679 0.0025834,0 0.00356402,-0.000214253 0.00564475,-0.0020148l0.00115779 -0.00119899c5.76836e-005,-6.18038e-005 0.000177171,-0.000218374 0.000267817,-0.00032138zm-0.027103 0.0129623l-0.000679842 -0.00114955 0.000679842 0.00114955 0 0.00117839 -0.000688083 9.47659e-005 0.000688083 0.000494431 0 -0.000589197c0.001953,0 0.000135968,-0.00107539 0,-0.00117839zm-0.0218003 0.00176759l0.00032138 -0.00126904 -0.00032138 0.00126904 -0.000688083 9.88861e-005 0.000688083 0.00049031 0 -0.000589197zm-0.00412438 -0.111358l0.000675722 0.00114955 -0.000675722 -0.00114955 -9.88861e-005 -0.000688083 -0.00049031 0.000688083 0.000589197 0zm-0.0194435 0.261599l0.000173051 -0.000173051c-8.24051e-006,1.23608e-005 -0.000230734,0.000115367 -0.000173051,0.000173051zm0.0889687 -0.0288706l0.000173051 -0.000173051c-8.24051e-006,1.23608e-005 -0.000234855,0.000115367 -0.000173051,0.000173051zm0.0141407 -0.183825l0.000173051 -0.000177171c-1.23608e-005,1.23608e-005 -0.000234855,0.000119487 -0.000173051,0.000177171zm-0.120196 0.0830767l0.000173051 -0.000177171c-8.24051e-006,1.23608e-005 -0.000230734,0.000115367 -0.000173051,0.000177171zm-0.0194435 0.163793l0.000173051 -0.000173051c-8.24051e-006,8.24051e-006 -0.000230734,0.000115367 -0.000173051,0.000173051zm0.0648116 -0.190306l0.000177171 -0.000177171c-1.23608e-005,1.23608e-005 -0.000234855,0.000115367 -0.000177171,0.000177171zm0.0159083 0.172041c5.76836e-005,6.18038e-005 0.000173051,-0.000255456 0.000173051,-0.000173051l0 0c-8.24051e-006,1.23608e-005 -0.000230734,0.000115367 -0.000173051,0.000173051zm0.0265138 -0.176755c5.76836e-005,5.76836e-005 0.000173051,-0.000259576 0.000173051,-0.000177171l0 0c-8.24051e-006,1.23608e-005 -0.000230734,0.000115367 -0.000173051,0.000177171zm0.152598 0.19502c6.18038e-005,6.18038e-005 0.000177171,-0.000255456 0.000177171,-0.000173051l0 0c-1.23608e-005,8.24051e-006 -0.000234855,0.000115367 -0.000177171,0.000173051zm-0.0948565 -0.00294598c5.76836e-005,5.76836e-005 0.000173051,-0.000255456 0.000173051,-0.000173051l0 0c-1.23608e-005,8.24051e-006 -0.000234855,0.000115367 -0.000173051,0.000173051zm-0.112537 -0.170863c5.76836e-005,5.76836e-005 0.000173051,-0.000259576 0.000173051,-0.000177171l0 0c-8.24051e-006,1.23608e-005 -0.000230734,0.000115367 -0.000173051,0.000177171zm0.204447 0.174398c6.18038e-005,5.76836e-005 0.000177171,-0.000255456 0.000177171,-0.000173051l0 0c-1.23608e-005,8.24051e-006 -0.000234855,0.000115367 -0.000177171,0.000173051zm-0.0436005 -0.0365302l-0.00113307 -0.000630399c0.00064276,0.000416146 0.000461469,0.000276057 0.00113307,0.000630399 0,0.00032962 -8.24051e-006,0.00096414 4.12026e-005,0.00114131 0.000309019,0.00106715 0.00016481,0.000630399 0.000552114,0.00121548 0.00136792,0.00187472 0.00232382,0.0015657 0.00326324,0.00245567 0.00112483,0.00106303 4.12026e-006,0.00105479 0.00184587,0.00299955 0.00384008,0.00405021 0.00486602,0.00592081 0.00798505,0.00973204 0.00406669,0.00496491 0.00291714,0.00341157 0.0104696,0.0077914l-0.00294598 -0.00353518c0.0016893,0.000453228 0.00173875,0.000836412 0.00299955,0.00171815 0.00638228,0.004454 0.00368351,0.00398841 0.0070992,0.00763071l0.0105231 0.00891623 -0.00176759 -0.00412438 0.00294598 0c-0.000309019,-0.00375355 -0.00504731,-0.00685198 -0.00589197,-0.0100163 0.00139265,0.000931178 0.00205189,0.00130612 0.00338685,0.00250924l0.00696323 0.00602381c0.00431391,0.00337037 0.00288418,0.00185411 0.00320144,0.000894095 0.00126492,-0.000416146 0.00216725,0.00108363 -0.00105067,-0.00364643l-0.00307371 -0.00460233 0.00176759 0c-0.00603617,-0.011409 -0.0207455,-0.0263408 -0.0299007,-0.035496 -0.00482894,-0.00483306 -0.00614742,-0.00641936 -0.0119323,-0.00987213 0.000824051,0.00308607 0.00494843,0.00596201 0.00648528,0.00824875 -0.00226614,-0.000601557 -0.00423974,-0.00249687 -0.0061433,-0.00387304 -0.00224554,-0.0016275 -0.00409553,-0.00294598 -0.00622983,-0.00437571 0.000358462,0.00155334 0.000535633,0.00173463 0.00117427,0.00294598l-0.00117427 0 -9.88861e-005 -0.000683962 -0.000494431 0.000683962 0.000593317 0c0.000659241,0.00247627 0.00515856,0.00573952 0.00751123,0.00839708l0.00721457 0.00927882c-0.00361346,-0.00241859 -0.00782436,-0.00776256 -0.0111906,-0.0100163 -0.00176759,-0.00263696 -0.0018912,-0.00231558 -0.00471769,-0.00353518 0.000552114,0.00205601 0.00273585,0.00307783 0.00471769,0.00353518l0 0.00176759c-0.00136792,-0.000914697 -0.00232382,-0.00187472 -0.0041285,-0.00235679l-9.47659e-005 -0.000683962 -0.000494431 0.000683962 0.000589197 0c0.0015657,0.00295834 0.00255456,0.00295422 0.0041285,0.00530277l-0.00176759 0c0.00141737,0.00212193 0.00211369,0.00203541 0.00353518,0.00471357 -0.00266581,6.18038e-005 -0.00234443,0.000589197 -0.00530277,0.000589197l0.00117427 -0.00176759c-0.000791089,-0.000444988 -0.000651,-0.00032138 -0.00176759,-0.000589197zm-0.17322 -0.0659859l9.88861e-005 0.000683962 0.00049031 -0.000683962 -0.000589197 0 -9.88861e-005 -0.000688083 -0.00049031 0.000688083 0.000589197 0zm0.0164975 -0.074828l0.000688083 -9.88861e-005 -0.000688083 -0.00049031 0 0.000589197 -0.00117839 0 0 0.00176759c-0.00171815,0.00125668 -0.000721045,0.000374943 -0.00176759,0.00235679l-0.00109187 1.6481e-005 -0.000675722 0.0035187c-0.00175523,0.000655121 -0.000922937,-0.00126492 -0.00117839,0.00176759 0.001302,-0.000906456 0.000729285,-9.88861e-005 0.00117839,-0.00176759 0.00174287,-0.000465589 0.000955899,-0.000243095 0.00235679,-0.00117839 -0.00015657,-0.00182527 4.12026e-006,-0.00111659 -0.000589197,-0.00235679l0.00110423 -2.47215e-005 0.000663361 -0.00233206c0.00126492,-0.000881735 0.000774608,-8.65254e-005 0.00117839,-0.00176759zm0.0477249 0.0612764l-0.000688083 9.47659e-005 0.000688083 0.00049031 0 -0.000585076 0.00117839 -0.00118251 -0.00117839 0c0.000667481,-0.00161514 -0.000469709,-0.00339921 -0.00176759,-0.00529865 0,0.00275645 0.00016893,0.00413262 0.00176759,0.00529865l0 0.00118251zm-0.10252 0.1143l-0.000688083 9.88861e-005 0.000688083 0.00049031 0 -0.000589197 0.00117839 0 0 -0.00117839 0.00530277 -0.00235679 0.000589197 0.00412438 0.00319732 -0.00237327c0.00509264,-0.00310255 0.00120311,-0.000663361 0.00605266,-0.00428095 0.00376591,-0.00281001 0.0219362,-0.0154345 0.025628,-0.0173834l0.00636579 -0.00247627 -0.000589197 -0.00117839 -0.00353518 -0.00353518 0.00471357 -0.00117839c0,-0.00123608 0.000193652,-0.00292126 -0.000539753,-0.00393896 -0.00105479,-0.00146681 0.000115367,-9.47659e-005 -0.00128552,-0.000379063 -0.00606914,-0.0012402 -0.00585076,0.00117427 -0.0129046,0.00490722l-0.00117839 -0.00235679 0.00515032 -0.00192416c0.00226202,-0.0013638 0.00236915,-0.0035805 0.00115367,-0.0041903 -0.000984741,-0.00049031 -0.00167694,0.000420266 -0.00335801,0.00081169l0.00353518 -0.00353518 -0.00530277 -0.00176759c-0.00978561,0.00850833 -0.0107456,0.00437159 -0.0176759,0.0176759l0 -0.00294598c-0.00150389,0.00100534 -0.00184175,0.00100946 -0.00235679,0.00294598 -0.00161926,0.000140089 -0.0012814,5.76836e-005 -0.00235679,0.000589197 0.00120723,0.00167282 0.000894095,0.00159454 0.00235679,-0.000589197l0.00117839 0 0 0.00176759 -0.00176759 0.00117839c0.00280177,0.000238975 0.00253808,-0.000988861 -0.00235679,0.00530277 0.0035805,-0.000296658 0.00598673,-0.00497315 0.00942714,-0.00589197l0 0.00353518 -0.00127728 0.000177171c-0.00135556,0.000585076 -0.000428507,-0.00016069 -0.00132672,0.00129376 -0.00401725,0.00652648 -0.00337037,0.00215489 -0.00958783,0.0087679 -0.00131848,0.00140501 -0.000712804,0.000745766 -0.00165222,0.00116191 -0.00371235,0.0016481 -0.000152449,0.00097238 -0.00383184,0.00278117 -0.0016481,0.00080757 -0.000593317,-0.00112895 -0.00155334,0.00117839l-0.000214253 0.00408317 -0.00117839 0.00117839zm0.0365302 -0.199733l-0.000688083 9.88861e-005 0.000688083 0.00049031 0 -0.000589197 0.00235679 0.00117839 0.00235679 -0.00648116 0.00353518 0.00294598c0.00239799,-0.0045364 0.00251336,-0.0068561 0.000358462,-0.0121465 -0.00139265,-0.00342393 -0.0127934,-0.0195383 -0.0159165,-0.0235555 -0.00141325,-0.00181291 -0.00253808,-0.00259988 -0.0038854,-0.00436335 -0.00367527,-0.00481246 -0.00786557,-0.00786969 -0.0116521,-0.0113307l-0.00762247 -0.00828583c-0.00127316,-0.0012196 -0.00563239,-0.0032962 -0.00952191,-0.00639052l-0.00224554 -0.00204777 -0.0013638 0.000951779 -0.00117839 -0.00235679 -0.00530277 0 0.00353518 0.0100163c-0.00170991,0.000457348 -0.00113719,0.000473829 -0.00353518,0.00235679 0.000721045,0.00270701 0.001302,0.00120723 0.00188708,0.00328796 0.000515032,0.00182527 -0.000782849,0.00173463 -0.000379063,0.00406257 0.000622159,0.00361346 0.00151213,0.00124432 0.00363407,0.00458996 0.00541402,0.00853305 0.00599497,0.0084012 0.0127151,0.0143921l0.00149565 0.00203541c0.00487838,0.00822403 0.0144127,0.0175976 0.0165634,0.0217385 5.76836e-005,0.000111247 0.000148329,0.000284298 0.000201893,0.000387304l0.00032138 0.000745766 0.000679842 -0.00351458c0.00404197,0.00107951 0.00736702,0.00857837 0.00942714,0.0123731 0.00134732,-0.000712804 -0.000210133,-0.000366703 0.00159866,-0.00079933 0.00170991,-0.000407905 0.0016687,4.12026e-005 0.00193652,0.000210133zm0.126088 0.0282814l-9.88861e-005 -0.000688083 -0.00049031 0.000688083 0.000589197 0 0.000589197 0.00235679 0.00117839 -0.00176759c-0.000795209,-0.000449108 -0.000651,-0.00032138 -0.00176759,-0.000589197zm-0.0318166 0.0606872c0,0.00146269 0.000939418,0.000148329 0.000362582,0 0,-4.12026e-006 -4.53228e-005,-1.6481e-005 -4.53228e-005,-1.6481e-005 -0.000362582,-2.47215e-005 -0.00031726,-0.00130612 -0.00031726,1.6481e-005zm0.0294598 0.112532c0,0.00146681 0.000939418,0.000152449 0.000362582,0 0,0 -4.53228e-005,-1.23608e-005 -4.53228e-005,-1.23608e-005 -0.000362582,-2.47215e-005 -0.00031726,-0.00131024 -0.00031726,1.23608e-005zm-0.104288 -0.291648c0,0.00146269 0.000939418,0.000148329 0.000362582,0 0,0 -4.53228e-005,-1.6481e-005 -4.53228e-005,-1.6481e-005 -0.000362582,-2.47215e-005 -0.00031726,-0.00130612 -0.00031726,1.6481e-005zm0.00176759 0.00530277c0,0.00146269 0.000939418,0.000148329 0.000362582,0 0,0 -4.53228e-005,-1.6481e-005 -4.53228e-005,-1.6481e-005 -0.000362582,-2.47215e-005 -0.00031726,-0.00130612 -0.00031726,1.6481e-005zm-0.0182651 0.152013c0,0.00146269 0.000939418,0.000148329 0.000362582,0 0,0 -4.53228e-005,-1.6481e-005 -4.53228e-005,-1.6481e-005 -0.000362582,-2.47215e-005 -0.00031726,-0.00130612 -0.00031726,1.6481e-005zm0.0288706 -0.0624548c0,0.00146269 0.000939418,0.000148329 0.000362582,0 0,0 -4.53228e-005,-1.6481e-005 -4.53228e-005,-1.6481e-005 -0.000362582,-2.47215e-005 -0.00031726,-0.00130612 -0.00031726,1.6481e-005zm-0.0212111 0.032995c0,0.00146269 0.000943538,0.000148329 0.000362582,0 0,-4.12026e-006 -4.53228e-005,-1.6481e-005 -4.53228e-005,-1.6481e-005 -0.000362582,-2.47215e-005 -0.00031726,-0.00130612 -0.00031726,1.6481e-005zm0.101931 0.0807158c0,0.00146681 0.000939418,0.000152449 0.000362582,0 0,0 -4.53228e-005,-1.23608e-005 -4.53228e-005,-1.23608e-005 -0.000362582,-2.47215e-005 -0.00031726,-0.00130612 -0.00031726,1.23608e-005zm0.0123731 0.0777739c0,0.00146681 0.000939418,0.000152449 0.000362582,0 0,0 -4.53228e-005,-1.23608e-005 -4.53228e-005,-1.23608e-005 -0.000362582,-2.47215e-005 -0.00031726,-0.00131024 -0.00031726,1.23608e-005zm-0.15378 -0.0153191c0,0.00146681 0.000939418,0.000152449 0.000362582,0 0,0 -4.53228e-005,-1.23608e-005 -4.53228e-005,-1.23608e-005 -0.000362582,-2.47215e-005 -0.00031726,-0.00131024 -0.00031726,1.23608e-005zm0.150245 0.00765955c0,0.00146681 0.000939418,0.000152449 0.000362582,0 0,0 -4.53228e-005,-1.23608e-005 -4.53228e-005,-1.23608e-005 -0.000362582,-2.47215e-005 -0.00031726,-0.00131024 -0.00031726,1.23608e-005zm0.0553804 -0.0235679c2.47215e-005,0.000197772 0.000651,0.000131848 0.000704564,0.000115367 0.000148329,-5.76836e-005 0.00102182,0.0013638 0.000255456,-0.00016069l-0.000309019 -0.000140089c-0.000453228,-8.24051e-006 -0.00079933,-0.00102594 -0.000651,0.000185411zm-0.170274 -0.00353518c2.47215e-005,0.000197772 0.00064688,0.000131848 0.000700443,0.000115367 0.000148329,-5.76836e-005 0.00102594,0.0013638 0.000255456,-0.00016069 0,-4.12026e-006 -8.24051e-005,-0.000103006 -9.06456e-005,-0.000103006 -0.000889975,-0.000230734 -0.000997102,-0.000889975 -0.000865254,0.000148329zm0.112537 -0.142581c-0.000465589,-0.00174287 0.000560355,-0.000716924 -0.00129788,-0.00106303l0.00129788 0.00106303 0 0.00176759c0.00182939,-0.0013226 0.00182939,-0.000449108 0,-0.00176759zm-0.10252 0.00471357c0.00173875,-0.000461469 0.000716924,0.000560355 0.00105891,-0.00129788l-0.00105891 0.00129788c-0.00175523,0.000655121 -0.000922937,-0.00126492 -0.00117839,0.00176759 0.001302,-0.000906456 0.000729285,-9.88861e-005 0.00117839,-0.00176759zm-0.0406546 0.153776c-0.000292538,0.00156982 0.00117839,-9.88861e-005 0.000745766,-0.000214253 -8.24051e-006,0 -0.000148329,-1.6481e-005 -0.00016481,-1.6481e-005 -0.00110011,7.00443e-005 -0.000354342,-0.000984741 -0.000580956,0.000230734zm0.147888 0.0188543c0.000399665,-0.000659241 0.00151625,0.00123196 0.000276057,-0.000589197 -0.000585076,-0.000857013 0.000593317,-4.12026e-005 -0.000918817,-0.000556234l0.00064276 0.00114543c-8.24051e-005,0.000119487 -0.000193652,0.00016893 -0.000226614,0.000366703l-0.00213017 0.00316848c0.00346513,0.000737526 5.35633e-005,0.000939418 0.00294598,-0.00117839l0 0.00117839c0.00143797,-0.000593317 0.000473829,-0.000395545 0.00242683,-2.06013e-005l-0.000692203 -0.00238563 -0.00114543 0.00063864 -0.00117839 -0.00176759zm-0.0642224 -0.193252l0 0.000589197 0.00303251 -0.00227026c-0.000259576,0.000370823 -0.000428507,0.000840532 -0.000696323,0.00107127 -0.000857013,0.000745766 -0.00114955,0.000609798 -0.00233618,0.000609798zm-0.0312274 0.00471357c0,0.000692203 0.00126492,0.00132672 0.000910576,0 -0.000354342,-0.00133084 0.00149977,-1.6481e-005 -0.000271937,-0.000177171 -0.000741646,-6.59241e-005 -0.00063864,-0.00102182 -0.00063864,0.000177171zm-0.0547953 0.170863c0,0.000692203 0.00126904,0.00133084 0.000910576,0 -0.000354342,-0.00133084 0.00149977,-1.6481e-005 -0.000271937,-0.000173051 -0.000741646,-6.59241e-005 -0.00063864,-0.00102182 -0.00063864,0.000173051zm0.0465465 -0.0818983c0,0.000696323 0.00126492,0.00133084 0.000910576,0 -0.000358462,-0.00133084 0.00149977,-1.23608e-005 -0.000271937,-0.000173051 -0.000741646,-6.59241e-005 -0.00063864,-0.00102182 -0.00063864,0.000173051zm0.0701144 0.103699c0,0.000692203 0.00126492,0.00132672 0.000910576,0 -0.000358462,-0.00133084 0.00149977,-1.23608e-005 -0.000271937,-0.000173051 -0.000741646,-6.59241e-005 -0.00063864,-0.00102182 -0.00063864,0.000173051zm-0.00589197 0.00824875c0,0.000692203 0.00126492,0.00133084 0.000910576,0 -0.000358462,-0.00133084 0.00149977,-1.6481e-005 -0.000271937,-0.000173051 -0.000741646,-6.59241e-005 -0.00063864,-0.00102182 -0.00063864,0.000173051zm-0.115483 -0.00765955c0,0.000696323 0.00126904,0.00132672 0.000910576,0 -0.000354342,-0.00133084 0.00149977,-1.6481e-005 -0.000271937,-0.000173051 -0.000741646,-6.59241e-005 -0.00063864,-0.00102182 -0.00063864,0.000173051zm0.121374 -0.12137c-0.000234855,0.0012608 0.000844652,0.000395545 0.000791089,-0.000119487 0,-4.12026e-006 -4.12026e-005,-9.47659e-005 -4.53228e-005,-9.88861e-005 -0.00119075,-0.000313139 -0.000585076,-0.000667481 -0.000745766,0.000218374zm-0.0724712 0.0324058c-0.000292538,0.0015657 0.00117839,-0.000103006 0.000745766,-0.000218374 -0.00119075,-0.000313139 -0.000585076,-0.000667481 -0.000745766,0.000218374zm0.0907363 0.0718779c0.000601557,0.000605678 0.00213017,-0.000844652 0.000683962,-0.00031726 -1.6481e-005,8.24051e-006 -0.00167282,-0.000671602 -0.000683962,0.00031726zm-0.041833 -0.096039l0.00117839 -0.00176759c-0.00194888,0.000729285 -0.000741646,-0.00079933 -0.00117839,0.00176759zm-0.0453681 -0.0677535c0.000123608,0.000671602 0.00129376,0.00128552 0.000791089,0.000119487 -0.000210133,-0.000494431 -0.00107539,-0.00165222 -0.000791089,-0.000119487zm-0.00117839 0.00176759c0.000123608,0.000671602 0.00129376,0.00128552 0.000791089,0.000119487 -0.000210133,-0.000494431 -0.00107539,-0.00165222 -0.000791089,-0.000119487zm0 -0.109591c0.000123608,0.000671602 0.00129376,0.00128964 0.000791089,0.000119487 -0.000210133,-0.000494431 -0.00107539,-0.0016481 -0.000791089,-0.000119487zm0.0695252 0.256296l0.00176759 0 0 -0.000589197c-0.00311491,0 -0.000881735,4.12026e-006 -0.00176759,0.000589197 -0.0045364,-0.000754007 -0.00283062,0 -0.00707036,-0.00353518l0.000589197 -0.00176759 -0.00589197 0 0 0.00176759 -0.00589197 0 -0.000589197 0.00176759c-0.00145445,-0.00622983 -0.00539341,-0.00812514 -0.00601557,-0.00983505 -2.88418e-005,-7.82849e-005 -6.18038e-005,-0.000259576 -7.41646e-005,-0.000337861l0.000197772 -0.00102182 0.00294598 0.00117839 -0.00117839 -0.00294598 0.00176759 0.000589197 0.00117839 0.00294598c0.00147093,-0.000704564 0.00773784,-0.000881735 0.0100081,-0.000576836 0.00398429,0.000543874 -0.000572715,-0.000189532 0.00186648,0.000857013l0.0128717 -0.000280177 0 -0.00176759c-0.00705388,-0.00342393 -0.00429743,-0.00243507 -0.0129623,-0.00353518 -0.00213841,-0.00388128 -0.000992982,-0.00097238 -0.00217549,-0.000894095 -6.59241e-005,4.12026e-006 -0.000234855,-0.000107127 -0.000288418,-9.06456e-005l-0.00048207 0.000984741 -0.00765955 0.000589197c0.000436747,-0.00187472 0.000947659,-0.00532337 0.000819931,-0.00779552l-0.00494431 -0.0045776c0.00240211,-0.000197772 0.00592493,-0.00126904 0.00841356,-0.00159866l0.00985153 -0.000758127c0.000428507,-0.00138029 0.000605678,0.00116603 -0.000589197,-0.00117839 0.00687671,0 0.00477126,0.000704564 0.00536869,0.000844652l0.00641524 0.000333741c0.00032962,-0.00106303 0.00117839,0.000552114 -0.000333741,-0.000457348l-0.00143385 -0.000721045 0.00412438 0c-0.000898216,-0.00335389 -0.00245155,-0.00163162 -0.00711568,-0.00119487 -0.00445812,0.000420266 -0.00442103,-0.000152449 -0.00761423,-0.00233618l0.00176759 -0.00236091 -0.00765955 -0.00117427 0.000589197 0.00294186 -0.00235679 0c0.000576836,-0.00174287 0.000453228,0.000123608 0.00117839,-0.00294186l-0.00235679 -0.000593317c-0.000465589,0.00105067 4.12026e-005,-0.000255456 7.00443e-005,0.000848773 2.88418e-005,0.00101358 0.000984741,0 -9.88861e-005,0.000922937 -0.000873494,0.000741646 -3.70823e-005,0.000226614 -0.00173875,-0.000593317 -0.000366703,0.000774608 -3.70823e-005,0.00135144 0,0.0029501 -0.00747414,-0.00395545 -0.00420266,-0.000696323 -0.0054511,0.000444988l-0.00103006 0.000729285c0,-0.0044952 -0.000754007,0.00048207 -0.00016069,-0.00478774l0.00016069 -0.00287182c-0.00186648,-0.000725165 -0.00031726,0.00231558 -0.00353518,-0.00294598 -0.00222082,0.000185411 -0.00390188,0.00126492 -0.00589197,0l0.00176759 0 -0.00353518 -0.00294186c0.000115367,-8.65254e-005 0.0003255,-0.00031726 0.000379063,-0.000210133l0.00197772 -0.00155746 -0.0111947 -0.0035393 0.00176759 -0.00117839 -0.00176759 -0.00530277 -0.0106055 0c-0.00217137,-0.00410377 -0.00108775,-0.00198596 -0.00342393,-0.0054099l-0.00475065 -0.0064482c-0.000906456,-0.001302 -0.00293774,-0.0103913 -0.00360934,-0.0128882l-0.00139265 0.0025628c-0.000745766,0.00348986 0.0018706,0.00891211 0.000857013,0.011582 -0.00245567,0.00646468 -0.00416146,0.00483306 -0.00830231,0.0100163l0.00235679 0c0,0.00266168 0.000263696,0.00222906 0.00235679,0.00588784l0.00294598 -0.00117839c0,0.00541814 -0.00188296,0.00635755 0.00318496,0.0121795l0.00112071 0.00145857c0.00114131,0.00164398 0.000131848,0.000379063 0.00217137,0.00163574 0.00147093,0.000910576 0.00201068,0.00203953 0.00404609,0.00307783 0.00228674,0.00116603 0.00100946,-0.00032138 0.00361758,0.00403785 0.00138441,-0.000556234 0.000259576,0.00015657 0.00105891,-0.000708684l0.000708684 -0.00105891c0.000436747,0.00187884 0.000263696,0.00148329 0.00124844,0.00278529 0.00452404,0.00600321 0.00282237,0.0036011 0.00339097,0.00332093 0.00121548,-0.000597437 -0.00143797,-0.000881735 0.000580956,-0.000214253 0.00178407,0.000589197 0.00270701,0.0175729 0.00302839,0.0206219l-0.00176759 0c0.000531513,0.00107539 0.000453228,0.000737526 0.000589197,0.00235679 -0.00289654,0.00212605 -0.00300367,0.011924 -0.00206837,0.016275 2.06013e-005,8.65254e-005 0.000416146,0.00132672 0.000469709,0.00176759 0.000259576,0.00231558 -1.23608e-005,0.000556234 -0.00016893,0.00140089 -0.000622159,0.00336625 0.00113719,0.0021961 0.000519152,0.00825699 -0.00048619,0.00475477 0.000659241,0.00117015 0.000659241,0.00470533l-0.00176759 0.00117839c7.82849e-005,0.000119487 0.000193652,0.00016893 0.000234855,0.000354342l0.00271113 0.00259164c-0.000729285,0.0003255 0,-4.94431e-005 -0.00176759,0 0.000552114,0.00115367 0.000741646,0.00198596 0.00137617,0.00333741 0.000725165,0.00154922 0.000992982,0.00203541 0.00165222,0.00365055l0.00345277 0.00715276 -0.00117839 -0.0100163c0.00256692,0.000683962 0.00107951,0.000284298 0.00155334,0.00325912 1.6481e-005,8.65254e-005 0.000444988,0.0016893 0.000449108,0.00170579 0.00048619,0.00275233 -0.000304899,0.000255456 0.00016893,0.00294186l0.00285122 0.00946011c0.00879675,0.003803 0.00355578,0.000523272 0.0107456,0.00871434 0.00207661,0.00236503 0.00203541,0.00249687 0.00577248,0.00480422l0.00497315 0.00269877 -0.00117839 -0.00353518c0.00323028,0 0.00346513,-0.000519152 0.00647292,-0.000622159 0.00643584,-0.000218374 0.00650588,0.00128964 0.0212193,3.2962e-005l0 -0.00176759c0.00317672,0 0.0048619,-0.00143385 0.00704976,-0.00370823 0.00205189,-0.00212605 0.001302,-0.00117015 2.06013e-005,-0.00159454 0.000515032,-0.00193652 0.00104654,-0.00174287 0.00177171,-0.00352694l0.00117427 -0.00413262 0 0.00117839 0.00353518 0c0,-0.00637816 0.000865254,-0.00839296 0.00294598,-0.0135515l-0.00589197 -0.00471357c0.00016069,-0.00149565 0.000152449,-0.000869374 0.00117839,-0.00294598l-0.000589197 -0.00117839c-0.00116191,-0.00498963 0.00372059,-0.00512148 0.00294598,-0.00765955 -0.000721045,-0.00234443 -0.00296246,-0.000749886 -0.0038648,-0.000391424 -0.00515032,0.00206013 -0.00941066,0.00500199 -0.0108651,0.000980621 0.00302839,-0.000255456 0.00111247,0.000576836 0.00176759,-0.00117839l0.00117839 0.000589197c-0.00015657,-0.00182527 4.12026e-006,-0.00111247 -0.000589197,-0.00235679 0.00279765,0 0.00111659,1.23608e-005 0.00176759,-0.000589197 0.00114131,-0.000300779 0.000910576,-0.000107127 0.00176759,-0.000589197 -0.000412026,-0.00172227 7.41646e-005,-0.000848773 -0.00110835,-0.00174287l-0.000659241 0.00233206c-0.00244743,-0.00179231 0.000119487,-0.00153686 -0.00294598,-0.00235679 0.00117015,0.00323852 -0.00106715,-0.00259164 0.000618038,0.00114955 0.000366703,0.000824051 0.000263696,-0.000898216 0.000560355,0.00179643l-0.00117839 0c-0.000304899,-0.00114131 -0.000111247,-0.000910576 -0.000622159,-0.00185411l-0.00114543 0.000675722 -0.00176759 -0.000589197c-0.000107127,9.47659e-005 -0.000284298,8.24051e-005 -0.00032962,0.000263696l-0.00143797 0.00150389c0.00261636,0.000218374 0.00276469,0.0012196 0.00530277,0l0 0.00117839 -0.00235679 0.00176759c-0.00537693,-0.00359698 -0.00985977,-0.000469709 -0.0161308,-0.00268641 -0.0035599,-0.0012608 -0.00706624,-0.00114955 -0.0109722,-0.00143797 0.00113307,-0.00424798 0.00704152,-8.24051e-005 0.0123649,8.24051e-006l0.0129706 -0.00177583c-0.00310667,0.000259576 -0.000848773,0.000721045 -0.00301603,0.000832292 -0.000873494,4.12026e-005 -0.00177995,-0.000444988 -0.00276469,-0.000412026 -0.00199832,6.59241e-005 0.000535633,1.6481e-005 -0.00096414,0.000206013 -0.00116603,0.000148329 0.000782849,0.00047795 -0.00150801,0 -0.0026246,-0.000547994 -0.00171403,-0.00144209 -0.00438395,-0.00118251l-0.0121094 -0.00121136 -0.000589197 -0.00412438c0.00340333,-0.000791089 0.0064482,-0.000585076 0.0106179,-0.000601557 0.00617214,-2.47215e-005 0.00614742,0.00170579 0.010004,-0.000576836l-0.00824875 -0.00176759c0.000766368,-0.00048207 -7.00443e-005,-0.000214253 0.00127316,-0.000412026l0.005208 -0.000177171 -0.00589197 -0.00235679c0.000997102,-0.00188296 0.00131848,-0.00198596 0.00235679,-0.00353518zm-0.126088 0.0288706c0.000613918,-0.000931178 0.000424386,-0.000667481 0.000589197,-0.00235679l-0.000589197 0 0 0.00235679 -0.00117839 -0.00117839 0 0.00235679 0.00117839 0 0 -0.00117839zm0.116661 -0.193842l0.00176759 0 0 -0.000589197 -0.00176759 0 0 0.000589197zm-0.00117839 0.19502l0.00176759 0 0 -0.000589197 -0.00176759 0 0 0.000589197zm-0.00235679 -0.000589197l0.00176759 0 0 -0.000589197 -0.00176759 0 0 0.000589197zm0.0453681 -0.0106055l0.000589197 0 0 -0.00176759 -0.000589197 0 0 0.00176759zm-0.0978066 -0.173809c0.001302,-0.000906456 0.000729285,-9.88861e-005 0.00117839,-0.00176759 -0.000976501,0.000675722 -0.00113307,0.000123608 -0.00117839,0.00176759zm0.0983958 0.0117839c0.00182939,-0.0013226 0.00182939,-0.000449108 0,-0.00176759l0 0.00176759zm-0.0972174 -0.00824875l0 -0.00176759c-0.00175935,0.00126904 -0.00189944,0.000444988 0,0.00176759zm0.074828 0.167328l0.00176759 0c-0.000259576,-0.000354342 0.000189532,-0.000778728 -0.000749886,-0.000828171 -0.000589197,-2.88418e-005 -0.000848773,-0.000403785 -0.0010177,0.000828171zm-0.0942714 -0.0259246c-0.00132672,-0.00180879 0.000379063,-0.000947659 -0.00235679,-0.00117839 0.000449108,0.000391424 0.00016481,0.000391424 0.000992982,0.000774608 0.00123608,0.000572715 0.000288418,0.000148329 0.0013638,0.000403785zm0.127266 -0.039472c0.00047795,0.000852893 0.000284298,0.000622159 0.000589197,0.00176759 0.00129788,-0.000906456 0.000729285,-9.88861e-005 0.00117839,-0.00176759l-0.00176759 0c0.00370411,-0.00322616 0.00357226,-0.00196948 0.00559531,-0.0045364 4.12026e-006,-8.24051e-006 -0.000276057,-0.000473829 0.00147505,-0.000766368 0.000510912,-0.00618038 0.00613094,-0.0120147 0.0093365,-0.015999 0.00318496,-0.00395545 0.0034775,-0.00174699 0.00448696,-0.00847537 0.00243919,-0.0162832 0.000173051,-0.029398 -0.0067531,-0.0432874 -0.00373707,-0.0074865 -0.014973,-0.02508 -0.0200327,-0.0318166 -0.00262048,-0.00348162 -0.00857837,-0.0120394 -0.013601,-0.0122619 -0.003152,-0.000140089 -0.00186648,0.00107127 -0.00470533,-0.000618038 -0.00180467,-0.00107127 -0.00212193,-0.00133908 -0.00423974,-0.00228262 -0.00320144,-0.00142561 -0.0060609,-0.00257516 -0.00934062,-0.0036217 -0.00171403,-0.000543874 -0.00320556,-0.000955899 -0.00511324,-0.00136792 -0.00339097,-0.000729285 -0.00124844,0.000201893 -0.00483306,-0.00164398l0 0.00412438c-0.00161514,-3.70823e-005 -0.0012196,2.47215e-005 -0.00294598,-0.00117839l-0.00235679 0.00117839c0.00184175,0.00251748 0.015179,0.00497315 0.0188543,0.00589197l0 0.00117839 -0.00416558 3.70823e-005c-0.00169755,0.000144209 -0.00324264,-0.0013432 -0.00585076,-0.00298306l-0.00176759 0.00294598c0.00395132,0.00105479 -0.000988861,0.00156158 0.0164975,0.00530277l0 -0.00117839 -0.00543874 -0.00190356 0.00308195 -0.00281001c0.00498139,0.00115779 0.0187719,0.00963728 0.0216561,0.0131107 0.00276469,0.00333329 0.00097238,0.00334977 0.00167282,0.0054511l0.0114337 0.0150225c-0.000918817,0.00253396 -0.000576836,0.000795209 -0.000947659,0.00356402l-0.000420266 0.00182115c-0.000119487,0.0022579 0.00364231,0.00688495 0.00372471,0.0105231 -0.00301191,-0.00124432 -0.00166046,0.00326324 -0.00127728,0.00538929 0.000502671,0.00278941 0.00127728,0.00530277 0.00127728,0.00816223l-0.00118251 0 -0.00176759 0.0117839c-0.00170991,-0.000144209 -0.000889975,-0.000304899 -0.00235267,0 -0.00016069,0.00704152 -0.0115079,0.0170208 -0.0133743,0.0213882l-0.00253396 0.00924997 -0.00235679 0.000585076c0.00224554,0.00468473 -0.00117839,0.00180879 0.00176759,0.00589197l0.00353518 -0.00117427 -0.00117839 0.00353106c0.00141325,-0.000374943 0.000185411,-0.000379063 0.00235679,-0.000589197l-0.00096826 0.00139265c-0.00117015,0.00128964 -0.0010383,0.00143385 -0.00197772,0.00332093l0.00353518 -0.00176759 -0.00117839 0.00471769c0.000572715,-0.000210133 0.00161102,-0.00107539 0.00298719,-0.000815811l0.00467237 0.000815811c0.00121548,-0.00230322 0.00261224,-0.00389776 0.00471357,-0.00530277zm0.0636703 -0.0564228c3.70823e-005,0.00167694 -0.00047795,0.000440867 0.00113719,0.0016275l0 -0.00176759c0.000457348,0.000716924 0.000288418,-2.88418e-005 0.000506791,0.00132672 0.000288418,0.00176759 -0.000267817,0.00241859 -0.00109599,0.00456524 0.00047795,-1.23608e-005 0.00202717,-0.000255456 0.00208485,-0.000255456 0.00311903,1.6481e-005 0.00201893,0.00259988 0.00616802,0.000894095 0.00661713,-0.00271525 0.000383184,-0.00182939 0.0093983,-0.00243507 0.0060609,-0.000403785 0.0293815,-0.00850833 0.0353724,-0.0111741 0.00325912,-0.00145033 0.00448284,-0.00246391 0.00723517,-0.00454464l0.00808806 -0.00369587 -0.00294598 -0.00117839c0.000366703,-0.0015657 0.00096826,-0.00182939 -0.000420266,-0.00308607l-0.000758127 -0.000449108 0.00471357 -0.00117839c-0.00232794,-0.00620922 -0.000412026,-0.00388128 -0.00942714,-0.00942714l0.00412438 -0.000589197c-0.00325912,-0.0061639 -0.0116068,-0.00430979 -0.0176924,-0.00237739 -0.0016893,0.000535633 -0.0022785,0.00113719 -0.00384832,0.00204365 -0.0109146,0.00628751 -0.0383472,0.0117551 -0.0406916,0.0129252l-0.00670366 0.00567359c0.000733405,0.0020148 0.000222494,0.000103006 0.00176759,0.00294598 -0.00348162,0.000927057 -0.000898216,0.000288418 -0.00294598,0.00589197l0.00294598 0.00235679 -0.00530277 0.00294598 0.00828995 -0.0010383zm-0.177974 -0.0425622c0.0016069,-0.000585076 0.00121136,2.88418e-005 0.00176759,-0.00235679 -0.00225378,0.000910576 -0.000304899,-0.000346101 -0.00176759,0.00235679zm0.0954498 0.0966241l0.00176759 0 0 -0.00117839 -0.00176759 0 0 0.00117839zm0.0447789 -0.123138l-0.00117839 -0.00117839 0 0.00235679 0.00117839 0 0 -0.00117839c0.000988861,0.00155746 0.000337861,0.00363407 0,0.00589197 0.0145363,0 0.0173998,-0.00611446 0.0293156,-0.0160525 0.000741646,-0.000613918 0.00236915,-0.00189944 0.00307371,-0.00216725 0.0029501,-0.00112895 -0.000774608,0.00120311 0.00496903,-0.00155746l0.00250924 -0.00104242c0.00194888,-0.000729285 0.0118705,-0.00233618 0.0143426,-0.00274409 0.00800978,-0.00131436 0.0052286,-0.00131848 0.00824051,-0.0035393l0.00186648 -0.000494431c0.00697559,-0.00100946 0.00205601,-0.00316436 0.00264108,-0.00680666l0.000795209 -0.00448284c-0.00217962,-0.00104654 -0.00240211,0 -0.004454,-0.00174699 -0.000552114,-0.000469709 -0.00032138,0.000622159 -0.000848773,-0.00237739 -0.00134732,0.000358462 -0.000589197,-8.24051e-006 -0.00145445,0.000902336l-0.000902336 0.00145445c-0.00135968,-0.00204365 -0.00117839,-0.00135556 -0.00117839,-0.00294598l0.00294598 0c-0.000370823,-0.00139265 -3.70823e-005,-0.000539753 -0.00133496,-0.00171403 -9.06456e-005,-8.24051e-005 -0.000263696,-0.000173051 -0.000350222,-0.000255456l-0.000580956 -0.00048619 0.00108775 -0.0022579c-0.00389364,0.00032138 -0.000593317,0.00185411 -0.00463529,-1.23608e-005 -0.00144209,-0.000663361 -0.00409553,-0.00107539 -0.0058384,-0.000976501 -0.00802626,0.000440867 -0.00688083,0.00170579 -0.0115573,0.0025216 -0.0133661,0.00232794 -0.00908928,-0.00159042 -0.0209803,0.00730521 -0.00540578,0.00404609 -0.010622,0.00798093 -0.0154716,0.0128058l-0.00927057 0.0196001c-0.00138441,0.000428507 0.00116191,0.000605678 -0.00117839,-0.000589197l-0.000589197 0.00412438 0.00229498 -0.00182939c0.00201893,-0.00203953 0.00493195,-0.00437159 0.00831056,-0.00465177 -0.00147505,0.0021961 -0.00169342,0.000758127 -0.00176759,0.00412438zm-0.0229787 0.0583305c0.000791089,-0.000449108 0.000651,-0.0003255 0.0018912,-0.000716924l-0.0018912 -0.00163986 0 0.00235679zm-0.0294598 -0.0436005c-0.00132672,-0.00181291 0.000379063,-0.000951779 -0.00235679,-0.00117839 0.00111659,0.0016687 0.000824051,0.00180879 0.00235679,0.00117839zm-0.0642224 0.177933l0.00117839 0c-0.000230734,-0.00273585 0.000630399,-0.00103006 -0.00117839,-0.00235679l0 0.00235679zm0.0724712 -0.17263l0 -0.00176759 -0.00176759 0c0.000457348,0.00171815 4.12026e-006,0.0013432 0.00176759,0.00176759zm-0.00235679 0.103694c0.00206837,-0.00151625 0.00137617,-0.0016275 -0.000589197,-0.00294598 0.000309019,0.00134732 0.000453228,0.00135556 0.000589197,0.00294598zm-0.0430113 -0.0153191c0.00203953,-0.000675722 0.000589197,0.00016069 0.000589197,-0.00353518l-0.000589197 0 0 0.00353518zm-0.0471357 -0.0824834c0.00154098,-0.00103418 0.00121548,-0.000300779 0.00176759,-0.00235679l-0.00176759 0 0 0.00235679zm0.20209 0.184414c-0.00110423,-0.00230322 0.000181291,-0.00152037 -0.00176759,-0.00294598 -0.000461469,0.00219198 -0.000786969,0.00226614 0.00176759,0.00294598zm-0.141992 -0.200323l0.00353518 0.000589197 -0.00117839 -0.00235679c-0.00192416,0.0010177 -0.00116191,4.53228e-005 -0.00235679,0.00176759zm0.0194435 0.182058l0.000683962 9.88861e-005 -0.000683962 0.00049031 0 -0.000589197zm-0.0353518 -0.0925039l0.00117839 0.000593317 0 0.00412438 0.00117839 0c0.000428507,-0.0051668 0.00142973,-0.00294186 -0.00235679,-0.00943126l0 0.00471357zm0.0559737 -0.0742346c-0.00187472,-0.00390188 -0.0015451,-0.00412438 -0.00589197,-0.00648116 -0.000527393,0.00247627 -0.00047795,0.0019324 0.00175523,0.00353518 0.00179231,0.00128552 0.0020148,0.00237739 0.00413674,0.00294598zm-0.0500817 0.127262l0.000589197 0.00235679 0.0111947 -0.00117839c-0.000832292,-0.00112895 0.000589197,-0.00143385 -0.0062051,-0.00138029 -0.000634519,4.12026e-006 -0.00048207,4.12026e-006 -0.00103006,0.00016481 -0.000679842,0.000193652 -0.00163162,0.00143797 -0.00454876,3.70823e-005zm0.000589197 -0.147295l0 0zm-0.00294598 0.114893c-0.000881735,0.000387304 8.24051e-005,1.6481e-005 -0.000758127,4.12026e-006 -8.65254e-005,0 -0.000420266,-1.6481e-005 -0.000506791,-1.6481e-005l-0.000502671 1.23608e-005c-0.000416146,0.00495667 -4.12026e-006,0.00489074 0.000589197,0.0106055l0.00176759 -0.000593317c0,0.00239387 -4.12026e-006,0.00269877 0.00117839,0.00471357l0.00117839 -0.00648116 0.00117839 0.00471357c0,-0.0108528 0.000234855,-0.00853305 -0.00412438,-0.0176759l0 0.00471769zm-0.0324058 -0.157315c-0.000523272,-0.00628751 -0.00803038,-0.0255291 -0.0111824,-0.031829 -0.00116603,-0.00233206 -0.000758127,-0.00168106 -0.00295834,-0.00352282 0.000721045,0.00150389 0.00735054,0.0308071 0.0141407,0.0353518zm0.0701144 0.185593l0.000173051 0.000177171c-1.23608e-005,-1.23608e-005 -0.000234855,-0.000115367 -0.000173051,-0.000177171zm-0.000589197 -0.00117839c-0.000214253,-0.00111247 0.000741646,-0.00209309 0.000370823,-0.000370823 -8.24051e-006,4.12026e-005 1.6481e-005,0.00243095 -0.000370823,0.000370823zm0.0129623 -0.00588784l0 0zm-0.0129623 -0.00766368l0 0zm0 0l-0.000589197 -0.000589197 0.000589197 0.000589197zm-0.000589197 -0.000589197c-0.00559943,0.00410377 0.00238563,0.0194394 0.00327148,0.0238316 0.000914697,0.00454052 -0.000605678,0.00138029 0.00193652,0.00572303 0.00173875,0.0029707 0.000659241,0.00298306 0.00217549,0.00548406 0.00311903,0.00513796 0.00149565,-0.000762247 0.00557883,0.0103295l0.00353518 -0.00235679c-0.00213841,-0.00444988 -0.00165634,-0.0117798 -0.00121136,-0.0171155 0.000655121,-0.00785733 -0.00143797,-0.0140583 -0.00173463,-0.0176429 0.00106303,-0.00182939 -0.00665833,-0.0137411 -0.00765955,-0.0153232 0,0.00295834 -0.000894095,0.00434687 -0.00176759,0.00825287 -0.00417382,-0.00221258 -0.00159042,-0.00152449 -0.00530277,-0.0041285 0.000358462,0.00155334 0.000535633,0.00173463 0.00117839,0.00294598zm-0.0100163 -0.0536128c0.000679842,0.00107127 0.000659241,-0.00128552 0.00048619,0.00117839 -9.06456e-005,0.00125668 -7.41646e-005,0.000523272 -0.00048619,0.00117839l0 -0.00235679zm0.000589197 -0.00235679c-0.000214253,-0.00111659 0.000741646,-0.00209721 0.000370823,-0.000374943 -8.24051e-006,4.12026e-005 1.6481e-005,0.00243095 -0.000370823,0.000374943zm-0.00353518 -0.00530277l0 0zm-0.00176759 -0.00707036l0.000173051 0.000173051c-8.24051e-006,-1.23608e-005 -0.000234855,-0.000115367 -0.000173051,-0.000173051zm0.00176759 0.00707036l-0.000651 0.00334565c-0.000840532,0.00221258 0.000263696,0.000580956 -0.000729285,0.00410377 -0.0015863,0.00561591 0.00096414,0.00493607 -0.0015657,0.0102265 0.00132672,0.00329208 -0.00189532,-0.00276881 0.00081169,0.000951779 0.00105067,0.00145033 0.000712804,0.00124432 0.000955899,0.00494019l0.00176759 -0.00353518c0.000774608,0.00111659 -7.41646e-005,0.000535633 0.00176759,0.00176759 0,-0.0051256 -0.000284298,-0.00323852 0.00156982,-0.00667893 0.00154922,-0.00287594 0.00108363,-0.00356402 0.00147505,-0.0073629l0.00461469 -0.0130612 -0.00235679 -0.00765955c-0.00354342,0 -0.00581368,-0.000436747 -0.00864018,-0.00138029 -0.00162338,-0.000543874 -0.00257516,-0.00100946 -0.0038236,-0.00147917 -0.00530689,-0.0019942 -0.00468473,-0.00259164 -0.0111824,0.000457348 -0.000407905,0.000193652 -0.00156158,0.000770488 -0.00159866,0.000782849 -0.00252572,0.000857013 -0.00349398,-0.000469709 -0.00480422,-0.00250512 -0.00320144,0.000745766 -0.00480834,0.00295422 -0.00711156,0.00467237l-0.00879675 -0.000547994 -0.00287594 0.00183763c-0.0016893,0.00111659 -0.00129788,0.000778728 -0.00203129,0.00334153 -0.00110835,0.00386892 -0.00130612,0.00356814 0.00255044,0.00248039l-0.00117839 0.00470945c0.00688907,-0.00344453 0.00424798,-0.00246803 0.00882559,-0.000618038 0.00373707,0.00150801 0.0080345,-0.00309019 0.00856189,-0.00320556l0.00618038 -0.000296658 -0.00166458 -0.00305723 0.00284298 0.00246803c0.00080345,-0.000428507 0.00153274,-0.000737526 0.00232794,-0.00120723 0.00398841,-0.00234031 0.00742882,-0.00386068 0.0133414,0.00145857 0.00275645,0.00248451 0.0015451,0.00348574 0.00141737,0.00505143zm-0.113126 0.110176c0,-0.00150389 0.000931178,-9.47659e-005 0.000350222,0 0,0 -4.53228e-005,1.23608e-005 -4.53228e-005,1.23608e-005 -0.000346101,1.23608e-005 -0.000304899,0.0013226 -0.000304899,-1.23608e-005zm0.00412438 -0.000589197l-0.000589197 0.000589197 0.000589197 -0.000589197zm0.000589197 -0.000589197l-0.000589197 0.000589197 0.000589197 -0.000589197zm0 0l0.00117839 -0.00117839 -7.00443e-005 0.00242683c-0.000613918,-0.000840532 0.000502671,-6.59241e-005 -0.00110835,-0.00124844zm0.00589197 -0.00176759l-0.00294598 0.00294598c0.00133908,-0.00369587 0.00190768,-0.00283062 0.00294598,-0.00294598zm-0.00353518 0l0.000173051 0.000177171c-8.24051e-006,-1.23608e-005 -0.000230734,-0.000115367 -0.000173051,-0.000177171zm0.00353518 0l0 -0.00176759c0.00189944,0.000634519 0.00121136,0.000374943 0,0.00176759zm0.00235679 -0.00235679l0.000173051 0.000177171c-8.24051e-006,-1.23608e-005 -0.000230734,-0.000115367 -0.000173051,-0.000177171zm0.00294598 -0.00117839l0 0zm-0.0129623 0c0,-0.00233206 0.0013638,0.000762247 0.000700443,0.000519152 -0.000655121,-0.000238975 -0.000700443,0.000601557 -0.000700443,-0.000519152zm0.0141407 -0.000589197l-0.00117839 0.000589197 0.00117839 -0.000589197zm0 -0.00707036l0.000177171 0.000177171c-1.23608e-005,-1.23608e-005 -0.000234855,-0.000115367 -0.000177171,-0.000177171zm0.00176759 -0.000589197l0 0zm0.00412438 -0.0536169l0.00235679 0c-0.000700443,0.00192828 0.000762247,0.000428507 -0.00176759,0.00176759 -0.000449108,-0.000791089 -0.00032138,-0.00064688 -0.000589197,-0.00176759zm0.00294598 -0.0188543c0.00204365,0.00149977 0.00238563,0.00541814 0.00294598,0.00824875l0.00235679 0 0 0.0041285c-0.00238975,-0.00175523 -0.00530277,-0.00806746 -0.00530277,-0.0123772zm0.00765955 -0.0329909c-0.000214253,-0.00111659 0.000741646,-0.00209721 0.000370823,-0.000374943 -8.24051e-006,4.12026e-005 1.6481e-005,0.00243095 -0.000370823,0.000374943zm-0.0106055 0.0518452l-0.000589197 -0.00117427 -0.00294598 0.00765955 0.0147299 -0.00471769 -0.000786969 -0.00151213c-0.000564475,-0.0020148 0.000506791,-0.00398017 0.00063864,-0.00570243l0.000148329 -0.00987213c8.24051e-005,0.000123608 0.000173051,0.000185411 0.000201893,0.000387304 0.000115367,0.000791089 0.00161926,0.0025216 0.00215489,0.003152 -9.06456e-005,-0.00395132 -0.00108363,-0.0023197 -0.00147093,-0.005105 -9.06456e-005,-0.000634519 5.76836e-005,-0.00119487 -0.000267817,-0.00254632 -0.000333741,-0.00138441 -0.000387304,-0.00126904 -0.000947659,-0.0026246 -0.00199832,-0.00481658 -0.00193652,-0.00692615 -0.000622159,-0.0124803 0.00159454,-0.00674486 0.00500199,-0.0229951 0.00782024,-0.0287141 0.00431391,-0.00875142 0.000255456,-0.00195712 0.00511324,-0.00784085 0.00264108,-0.00320144 0.00381948,-0.00568595 0.00609386,-0.00864018 0.00280589,-0.00364643 0.00145857,-9.88861e-005 0.00349398,-0.00416146 0.00628339,-0.0125503 0.000976501,-0.000609798 0.0061227,-0.00742882l-0.00176759 0.000589197c0.00064688,-0.00278529 0.00175935,-0.00188296 0.00412438,-0.0111947 -0.00271113,0.000980621 0.000189532,-0.000111247 -0.00206425,0.00147093 -0.00103418,0.000729285 -0.00121548,0.000692203 -0.00225378,0.0012814 -0.0022785,0.00128964 -0.00971968,0.00948483 -0.0111535,0.0112359l-0.0118293 0.017783c-0.000424386,0.00206425 0.000201893,-0.00131848 -0.00118251,0.000465589 -0.00137617,0.00177171 -0.00537693,0.0142478 -0.00636167,0.0171732l-0.00157394 0.00549642c-0.000857013,0.00260812 0.00063864,-0.00155334 -0.00032138,0.000857013l-0.000379063 0.00079933 -0.00176759 -0.00471357c0,0.01206 -0.00229086,0.011376 -0.00245567,0.0122742l0.000688083 0.0136504c-0.00148741,-0.00171403 -0.00281825,-0.00670366 -0.00412438,-0.0100163 0,0.00194476 -8.65254e-005,0.00260812 0.00031726,0.00439631 0.000444988,0.0019736 0.00113307,0.00285946 0.001302,0.00400489 0.000506791,0.0034775 -0.00125256,0.00120311 4.94431e-005,0.00878026 0.00205189,0.0119199 0.00318496,0.00282237 0.000688083,0.0152202l0.00176759 0c-0.000449108,0.000795209 -0.00032138,0.000655121 -0.000589197,0.00176759zm0.222123 0.0930931l0 0zm-0.0135515 -0.00942714l0 0zm-0.0170867 -0.00589197l0 0zm0 0l0 0zm-0.0159042 -0.0229787l0 0zm0.00883795 -0.00707036l0 0zm-0.0106055 -0.00471357l0 0zm0 0l-0.000593317 -0.000589197 0.000593317 0.000589197zm-0.0677576 -0.193842l0.000173051 0.000173051c-1.23608e-005,-8.24051e-006 -0.000234855,-0.000115367 -0.000173051,-0.000173051zm0.0164975 -0.0589197l0.000173051 0.000173051c-1.23608e-005,-8.24051e-006 -0.000234855,-0.000115367 -0.000173051,-0.000173051zm-0.00765955 0.00765955c0.00101358,-0.00436335 0.000824051,-0.00428507 0,-0.00824875 -0.00205189,0.00149977 -0.00547994,0.016411 -0.00668305,0.0198308 -0.00161102,0.0045776 -0.00431391,0.00517504 -0.00769252,0.0199997l-0.00271113 0.015554c0.000568595,0.000267817 -0.000416146,0.000626279 0.00235679,-0.000589197l0.00176759 0.00294598 -0.00117839 0.00353518c7.00443e-005,4.12026e-005 0.000210133,0 0.000230734,9.47659e-005l0.00153686 0.00108363 -0.00117839 0.00530277 0.00412438 -0.00589197 0 0.00824875c0.000107127,0.00129788 -0.000243095,0.000494431 0.000370823,0.00139677 0.000712804,0.00104654 0.00205601,0.00149977 0.00316436,0.00213841 0.00138853,-0.00596201 0.00201068,-0.00278529 0.00530277,-0.00765955l0 0.00471357c0.00137617,-0.00100946 0.00134732,-0.00125668 0.00212193,-0.00318084 0.00652236,-0.0161638 0.0114461,-0.0331104 0.012781,-0.0508522l0.000416146 -0.0213841c-0.00157394,0.000568595 -0.00123608,-0.000655121 -0.00235679,0.00530277l-0.00235679 -0.00707036c-0.000927057,0.00397605 -0.000609798,0.00417382 -0.00176759,0.00648116l0 -0.00707036 -0.00117839 0c0,0.00187884 6.59241e-005,0.00451992 -0.000857013,0.00560767 -0.00228674,0.00270701 -5.35633e-005,-0.00435511 -0.00215901,0.000679842 -0.00206425,0.00494019 -0.000655121,0.00812102 -0.00405433,0.0090316zm-0.0983958 -0.0212111l0 0zm0.00176759 -0.000589197l0 0zm0 0c-9.06456e-005,-0.000107127 -0.000222494,-0.000424386 -0.000259576,-0.000333741 -3.70823e-005,9.06456e-005 -0.000201893,-0.000263696 -0.000255456,-0.00032962l-0.00243095 -0.00228262c0.000729285,0.00137617 0.00100946,0.00153274 0.00117839,0.00353518l-0.00117839 0 0.00235679 0.00707036c-0.00269465,-0.0019736 0.00107951,-0.00155746 -0.00412438,-0.00412438 0,0.00893683 0.00566947,0.0232424 0.00962492,0.0310255 0.000947659,0.00186236 0.00137617,0.00314375 0.00216725,0.0049031 0.00443339,0.00985565 0.0096002,0.0269217 0.0134197,0.0343094l0.00424798 0.00989273c8.65254e-005,-0.000127728 0.00016069,-0.000506791 0.000197772,-0.000416146l0.000700443 -0.00113307c0.00097238,-0.000980621 0.000564475,-0.00194064 0.00440455,0.00154922l0.00176759 -0.00648116c0.00188296,0.000502671 0.00285534,0.00173875 0.00530277,0.00353518 -0.00209309,-0.00897392 -0.00119075,-0.0186936 -0.00471357,-0.0265138 -0.00165634,-0.00367115 -0.00326324,-0.00695087 -0.0048825,-0.0110258 -0.00160278,-0.00402137 -0.00307783,-0.0074041 -0.00463529,-0.011273 -0.00146681,-0.00363819 -0.00300779,-0.00767604 -0.00461057,-0.0113019l-0.00479598 -0.0111123c-0.00096826,-0.00229086 -0.00173463,-0.00253808 -0.00289242,-0.00476714 -0.00452816,-0.00871434 -0.00243919,-0.00206425 -0.00723929,-0.011615l-0.00158218 -0.00253808 0.00176759 0.0117839c-0.000630399,-0.000725165 -0.000296658,-0.000222494 -0.000984741,-0.00137205 -0.00097238,-0.00162338 -0.00138853,-0.00335389 -0.00196124,-0.00510912l-0.00117839 0c5.76836e-005,0.00258752 0.000399665,0.00183351 0.000589197,0.00412438zm0.233907 0.273383c0,0.00300779 8.24051e-006,0.000980621 -0.000589197,0.00176759 0,-0.00311491 4.12026e-006,-0.000877614 0.000589197,-0.00176759zm-0.00176759 -0.00235679l0.000177171 0.000177171c-1.23608e-005,-1.23608e-005 -0.000234855,-0.000115367 -0.000177171,-0.000177171zm0.00765955 -0.00294598l-0.00032138 -0.00126492 0.00032138 0.00126492zm-0.0571521 -0.0335842l0 0zm0 0l-0.000589197 -0.000589197 0.000589197 0.000589197zm-0.000589197 -0.000589197l0 0zm0.0518493 0.0394762c0.000663361,-0.000383184 -0.000222494,-0.000815811 0.00235679,0.000589197l0 -0.00353518 0.00471357 0.00353518c-0.000465589,-0.00200656 -0.00112483,-0.00351046 -0.00117839,-0.00589197l0.000313139 -0.00080757c0.000362582,-0.00265756 -0.00199832,-0.00609798 -0.00349398,-0.0083806 -0.00792325,-0.0120435 -0.00707448,-0.0097032 -0.0167035,-0.0186483 -0.00614742,-0.00571891 -0.0217714,-0.0192457 -0.0296411,-0.0198514 -0.00174287,-0.000135968 -0.00540578,-0.000589197 -0.00627103,-0.000453228l-0.00253396 0.00454464 -0.00294598 -0.000593317 -0.000589197 0.00235679c0.000881735,0.00119899 0.00110423,0.00100946 0.00124432,0.00116603 0.000914697,0.00101358 0.000568595,0.000234855 0.000922937,0.00165222l0.000778728 0.00307371c-0.00265344,0.000292538 -0.00234855,0.00120723 -0.00353518,0.00589197 0.00341981,0.000914697 0.00290066,0.00371235 0.00665833,0.00571891 0.00343629,0.00182939 0.00529453,0.00172639 0.00793973,0.00443339 0.00392248,0.00401725 0.0313716,0.023848 0.0357185,0.026143 0.00261636,0.00138029 0.00110011,-0.000189532 0.0042727,0.00215901l0.0025628 0.00161102 -0.000115367 -0.00341569c-0.000263696,-0.00127728 -2.06013e-005,-0.000585076 -0.000473829,-0.00129788zm-0.25335 -0.160847l0.000173051 0.000173051c-8.24051e-006,-1.23608e-005 -0.000234855,-0.000115367 -0.000173051,-0.000173051zm-0.0288706 0.0453681c-0.00160278,0.000659241 -0.00156982,0.000593317 -0.00164398,-0.00189532l0.00164398 0.00189532zm-0.0648116 -0.0471357l0 0zm0 0c-0.00386892,0.00128552 -0.00292126,-0.000201893 -0.00300367,0.00287182 -6.18038e-005,0.00222082 0.00209309,0.00618862 0.00333741,0.00798918 0.00355166,0.0051462 0.00396369,0.00473829 0.00746178,0.00785321 0.00384832,0.00342805 0.00885855,0.00701679 0.0133043,0.00967848 0.00781612,0.00468061 0.0164398,0.00953839 0.0246597,0.0136339l0.0202305 0.0104119c-0.000510912,-0.00219198 -0.00112071,-0.0026452 -0.00117839,-0.00530277l0.00294598 0.00117839 0 -0.00235679 0.00471357 0.00294598 0 -0.00353518 -0.00117839 0 -0.000589197 -0.00353518c0.00117427,-0.000103006 0.00304075,0.00161514 0.000197772,-0.00490722 -0.00513796,-0.0117963 -0.0299666,-0.0258999 -0.0422203,-0.0320226 -0.00385656,-0.00192828 -0.00736702,-0.00358874 -0.0110134,-0.00548406l-0.00796857 -0.00440455c-0.00383184,-0.00207249 -0.00266993,-0.00266581 -0.00440867,-0.00275233l-0.00196124 0.000119487 -0.00568595 -0.00180879 -0.00117839 0.00176759c0.00310255,0.00586312 -0.000428507,0.00218374 0.00212193,0.00544698 0.000910576,0.00116603 0.000758127,0.00097238 0.00141325,0.00221258zm0.252176 -0.00471357l0 0zm0.0276881 -0.0353518l0.000177171 0.000173051c-1.23608e-005,-8.24051e-006 -0.000234855,-0.000115367 -0.000177171,-0.000173051zm-0.272794 0.199144l0.000230734 -0.000354342c-4.94431e-005,7.00443e-005 -0.000148329,0.000238975 -0.000230734,0.000354342zm-0.00707036 -0.00412438l0 0zm0 0l-0.000589197 0.00117839 0.00235679 0.00117839c-0.00166046,0.00111247 -0.00096002,0.000350222 -0.00235679,0.00235679l0.00589197 -0.00176759 0.0015863 0.00137205c0.00141325,0.00141325 0.00133908,9.06456e-005 0.000181291,0.00569831l0.00294598 -0.000589197c-0.000444988,0.00123196 -0.000498551,6.18038e-005 -0.000589197,0.00235679 0.0109681,-0.00255456 0.00460233,6.59241e-005 0.0172804,-0.00628339 0.00629163,-0.00314788 0.028335,-0.0137411 0.0339056,-0.015591 0.00860721,-0.00285534 0.0110176,-0.00298306 0.0165717,-0.00876378l-0.00294598 0.000589197 -0.000589197 -0.00353518 0.00589197 -0.00176759c-5.35633e-005,-7.41646e-005 -0.000593317,-0.000988861 -0.000659241,-0.00110835 -0.00201893,-0.003803 -0.000749886,-0.00307783 -0.00817871,-0.00301603 0.000152449,-0.00183351 0.000572715,-0.00171815 0.000276057,-0.00278941 -8.24051e-006,-4.53228e-005 -0.000531513,-0.000898216 -0.000601557,-0.00096826 -0.00134732,-0.00141325 0.000865254,0.000609798 -0.000671602,-0.000510912l-0.000749886 -0.000354342 0.000568595 -0.00126904c-0.00146269,-0.00218374 -0.00382772,-0.0041285 -0.00686847,-0.00280589 -0.0124885,0.0054305 -0.0172474,0.00402961 -0.0272266,0.00759775 -0.00175523,0.000626279 -0.0253849,0.0118375 -0.0270289,0.0136051 -6.18038e-005,6.59241e-005 -0.00015657,0.000222494 -0.000206013,0.000284298 -0.000556234,0.000716924 0.000902336,0.00110011 -0.00230322,0.000766368l-0.00412438 0.00470945c0.000754007,0.00282237 0.00179643,0.00143385 5.76836e-005,0.00410789 -0.00122372,0.00188296 -0.00175523,0.0022167 -0.00182527,0.00531925zm-0.0141407 -0.078359l0.00589197 0.00883795 -0.00648116 -0.00235679 0.00530277 0.0141366c0.00346926,-0.00080757 0.00159866,-0.000288418 0.00489074,0.0015863 0.00782024,0.00444988 0.0175111,0.00442103 0.0257763,0.00374943 0.00746178,-0.000605678 0.0229581,-0.00120723 0.0306094,-0.00120723 0.00609386,0 0.0103418,0.00215901 0.0112195,0.0012814 0.000745766,-0.000745766 0.000836412,0.000453228 -0.00120311,-0.00245979 0.00396369,-0.00238151 0.00210957,-0.00212605 0.00824875,-0.000589197 0,-0.0044746 -0.00063864,-0.00341569 -0.000819931,-0.00367115l-0.000358462 -0.000457348c0.00348162,-0.00501023 0.00152861,-0.00634107 -0.00471357,-0.0100122 9.47659e-005,-0.00114955 0.00325088,-0.00483718 -0.00564063,-0.00791089 -0.00952191,-0.00328796 -0.0198019,-0.00165634 -0.0297359,-0.00154098 -0.00334153,3.70823e-005 -0.00407493,0.000626279 -0.00761423,0.000630399l-0.0129829 -1.6481e-005c-0.00665833,0 -0.00691791,-0.0020148 -0.0165263,-0.00173875l-0.00527393 -0.000618038c-0.000379063,0.00157806 -0.000589197,0.00110835 -0.000589197,0.00235679zm0.243927 -0.00471357l0 0zm0.000585076 -0.0106055l0.000177171 0.000173051c-1.23608e-005,-8.24051e-006 -0.000234855,-0.000115367 -0.000177171,-0.000173051zm-0.000585076 -0.00294598l0 0zm0.00530277 -0.00117839l0.000173051 0.000173051c-1.23608e-005,-1.23608e-005 -0.000234855,-0.000115367 -0.000173051,-0.000173051zm-0.000589197 -0.00117839c0,-0.00150801 0.000931178,-9.47659e-005 0.000346101,0 0,0 -4.12026e-005,8.24051e-006 -4.12026e-005,8.24051e-006 -0.000350222,1.23608e-005 -0.000304899,0.0013226 -0.000304899,-8.24051e-006zm-0.0665792 0.176166l0.000173051 0.000177171c-8.24051e-006,-1.23608e-005 -0.000234855,-0.000119487 -0.000173051,-0.000177171zm0.0335842 -0.000589197l0 0zm-0.0377086 -0.000589197l0 0zm0 0c-0.000597437,-0.000791089 -0.000589197,0.0012402 -0.000589197,-0.00176759 0.000543874,0.000721045 0.000379063,-0.000659241 0.000589197,0.00176759zm0.0406546 -0.00707036l0 0zm-0.00765955 -0.0135515l0 0zm-0.00648116 0.00176759c-0.00273585,-0.000226614 -0.00103418,0.000634519 -0.00235679,-0.00117839 0.00107127,-0.000531513 0.000733405,-0.000453228 0.00235679,-0.000589197 -0.0010177,0.00237327 0.000201893,0.000189532 0,0.00176759zm0.00648116 -0.00176759c0.000271937,-0.00248863 -0.000906456,-0.00169342 0.00235679,-0.00176759 -0.0012608,0.00172227 -0.000379063,0.000721045 -0.00235679,0.00176759zm-0.0111947 -0.00294598l0.00117839 0c0.000374943,0.00141737 0.000379063,0.000189532 0.000589197,0.00235679 -0.00163574,0.00063864 -0.00142149,0.000366703 -0.00176759,-0.00235679zm0.00353518 0.000589197l0.000173051 0.000177171c-8.24051e-006,-1.23608e-005 -0.000234855,-0.000115367 -0.000173051,-0.000177171zm-0.0265138 -0.00176759l0.000173051 0.000177171c-8.24051e-006,-1.23608e-005 -0.000234855,-0.000115367 -0.000173051,-0.000177171zm0.0235679 -0.00707036l0.000173051 0.000177171c-1.23608e-005,-1.23608e-005 -0.000234855,-0.000115367 -0.000173051,-0.000177171zm-0.00117839 0.000589197c-0.00101358,0.000127728 -0.000832292,-0.00173875 -4.12026e-005,-0.000782849 0,0 2.06013e-005,4.94431e-005 2.06013e-005,5.35633e-005 0,8.24051e-006 1.6481e-005,0.00015657 1.6481e-005,0.00016893 4.12026e-006,5.35633e-005 0.000494431,0.000502671 4.12026e-006,0.000560355zm-0.00235679 -0.00117839c0,-0.00150801 0.000931178,-9.47659e-005 0.000350222,0 0,0 -4.53228e-005,1.23608e-005 -4.53228e-005,1.23608e-005 -0.000346101,1.23608e-005 -0.000304899,0.0013226 -0.000304899,-1.23608e-005zm-0.00765955 -0.000589197l0 0zm0 0l0 0zm0.0159083 -0.00176759c0.000688083,-0.000688083 0.00331269,0.000984741 0.000733405,0.000243095 -7.00443e-005,-2.06013e-005 -0.00175935,0.000782849 -0.000733405,-0.000243095zm0.00294598 -0.000589197l0 0zm-0.0141407 -0.000589197l0.00707036 0 0 0.00117839c-0.00117839,0 -0.00305311,0.000119487 -0.00414086,1.6481e-005 -0.00203953,-0.000185411 -0.00174287,-0.00015657 -0.0029295,-0.00119487zm-0.00589197 -0.00117839c0.00273585,0.000230734 0.00103006,-0.000630399 0.00235679,0.00117839l-0.00235679 0 0 -0.00117839zm-0.00707036 -0.0129623c-0.000214253,-0.00111247 0.000741646,-0.00209309 0.000370823,-0.000370823 -8.24051e-006,4.12026e-005 1.6481e-005,0.00243095 -0.000370823,0.000370823zm0.00707036 -0.00117839l0.000173051 0.000177171c-1.23608e-005,-1.23608e-005 -0.000234855,-0.000115367 -0.000173051,-0.000177171zm-0.00589197 -0.00176759l-0.00235679 0c0.00107127,-0.000679842 -0.00128552,-0.000659241 0.00117839,-0.00048619 0.00126492,9.06456e-005 0.000515032,5.35633e-005 0.00117839,0.00048619zm-0.030049 -0.00530277l0 0.00235679c-0.000679842,-0.00107127 -0.000659241,0.00128552 -0.00048619,-0.00117839 9.06456e-005,-0.0012814 -8.24051e-006,-0.000498551 0.00048619,-0.00117839zm0.027103 0.000589197c-0.000214253,-0.00111247 0.000741646,-0.00209309 0.000370823,-0.000370823 -8.24051e-006,4.12026e-005 1.6481e-005,0.00243095 -0.000370823,0.000370823zm-0.0276922 -0.00471357l0 0zm0.0170867 -0.000589197c0,-0.00150389 0.000931178,-9.47659e-005 0.000350222,0 0,0 -4.53228e-005,1.23608e-005 -4.53228e-005,1.23608e-005 -0.000346101,1.23608e-005 -0.000304899,0.0013226 -0.000304899,-1.23608e-005zm-0.0147299 0.00176759c0.000238975,-0.00102594 0.000333741,-0.0018912 0.000605678,-0.00292538 0.000444988,-0.00168518 0.000135968,-0.00119899 0.00116191,-0.00237739 0,0.00492783 0.000593317,0.00299543 -0.00176759,0.00530277zm0.0153191 -0.00648116l0 0.00294598c-0.00177171,-0.00129376 -0.00192416,-0.0016069 0,-0.00294598zm0.0218003 -0.00235679c0.000626279,-0.000626279 0.00223318,0.000935298 0.000655121,0.000309019 -1.23608e-005,-4.12026e-006 -0.00164398,0.000679842 -0.000655121,-0.000309019zm-0.0200327 0l-0.000589197 0.000589197 0.000589197 -0.000589197zm0 0l0 0zm0.00235679 -0.00648116l0 0zm-0.00294598 -0.0111947l0.00117839 0.00353518c-0.0028471,-6.18038e-005 -0.00529865,-0.00318084 -0.00117839,-0.00353518zm0.0182651 -0.00294598l0.00114543 0.000679842 -0.00114543 -0.000679842zm-0.0159083 0.00471357l-0.00117839 -0.00294598 0.00471357 -0.00176759c-0.00144209,0.00196948 -0.00124844,0.000473829 -0.00230734,0.0022373l-0.00031726 0.000951779c-0.000605678,0.00154922 0.000758127,0.000300779 -0.000910576,0.00152449zm0.0159083 -0.00471357c-0.00279765,0 -0.00112071,1.6481e-005 -0.00176759,-0.000589197 0.00279765,0 0.00111659,-1.23608e-005 0.00176759,0.000589197zm-0.00176759 -0.000589197l-0.00117839 -0.000585076 0.00117839 0.000585076zm-0.00824875 -0.000585076l0.00176759 0c-0.0013226,0.00182939 -0.000449108,0.00182939 -0.00176759,0zm0.00707036 0l0 0zm-0.0229787 -0.00943126l0 0z"/>
 </g>
</svg>
