<?xml version="1.0" encoding="UTF-8"?>
<!DOCTYPE svg PUBLIC "-//W3C//DTD SVG 1.1//EN" "http://www.w3.org/Graphics/SVG/1.1/DTD/svg11.dtd">
<!-- Creator: CorelDRAW -->
<svg xmlns="http://www.w3.org/2000/svg" xml:space="preserve" width="20.5184mm" height="12.6808mm" style="shape-rendering:geometricPrecision; text-rendering:geometricPrecision; image-rendering:optimizeQuality; fill-rule:evenodd; clip-rule:evenodd"
viewBox="0 0 17.7492 10.9694"
 xmlns:xlink="http://www.w3.org/1999/xlink">
 <defs>
  <style type="text/css">
   <![CDATA[
    .fil0 {fill:#163452}
    .fil1 {fill:white}
   ]]>
  </style>
 </defs>
 <g id="Layer_x0020_1">
  <metadata id="CorelCorpID_0Corel-Layer"/>
  <polygon class="fil0" points="0.837964,10.9694 3.27556,10.9694 3.27556,4.18965 14.6259,4.18965 14.6259,10.9694 17.0636,10.9694 17.0636,2.13293 0.837964,2.13293 "/>
  <path class="fil0" d="M12.4169 8.53172l-0.837964 0 -0.228544 -0.304667c0.658036,-0.470063 0.380791,-0.380877 1.14263,-0.380877 0.478108,0 0.298525,0.685544 -0.0761235,0.685544zm-7.0845 -0.685544c0.761927,0 0.484682,-0.0891856 1.14263,0.380877l0 0.0761235 -0.228457 0.228544 -0.837964 0c-0.374735,0 -0.554318,-0.685544 -0.07621,-0.685544zm-0.990298 -1.37117l-0.228544 0.609421 0.609421 0.228457 -0.380877 0.914174 0 2.51381 0.228544 0.228544 1.52351 0 0.228544 -0.228544 0 -0.228544 5.18003 0 0 0.228544 0.228544 0.228544 1.52351 0 0.228544 -0.228544 0 -2.51381 -0.380877 -0.914174 0.609421 -0.228457 -0.228544 -0.609421c-1.57835,0 -0.844625,-0.116002 -1.4473,-0.228544l-6.24654 0c-0.523436,0 0.470495,0.228544 -1.44738,0.228544z"/>
  <polygon class="fil0" points="-0,1.75205 17.7492,1.75205 17.7492,0 -0,0 "/>
  <polygon class="fil0" points="3.42798,4.95149 14.4736,4.95149 14.4736,4.41819 3.42798,4.41819 "/>
  <polygon class="fil0" points="3.42798,5.56082 14.4736,5.56082 14.4736,5.02761 3.42798,5.02761 "/>
  <path class="fil0" d="M8.45559 6.01791l0 -0.152334 0.990298 0 0 0.152334 -0.990298 0zm-5.02761 0.152334l11.0456 0 0 -0.533211 -11.0456 0 0 0.533211z"/>
  <polygon class="fil1" points="8.45559,6.01791 9.44589,6.01791 9.44589,5.86558 8.45559,5.86558 "/>
 </g>
</svg>
