<?xml version="1.0" encoding="UTF-8"?>
<!DOCTYPE svg PUBLIC "-//W3C//DTD SVG 1.1//EN" "http://www.w3.org/Graphics/SVG/1.1/DTD/svg11.dtd">
<!-- Creator: CorelDRAW X7 -->
<svg xmlns="http://www.w3.org/2000/svg" xml:space="preserve" width="42.7468mm" height="31.7905mm" version="1.1" style="shape-rendering:geometricPrecision; text-rendering:geometricPrecision; image-rendering:optimizeQuality; fill-rule:evenodd; clip-rule:evenodd"
viewBox="0 0 3314 2465"
 xmlns:xlink="http://www.w3.org/1999/xlink">
 <defs>
  <style type="text/css">
   <![CDATA[
    .str0 {stroke:#4D4D4D;stroke-width:7.75306;stroke-dasharray:46.495094 30.996729}
    .fil0 {fill:none}
    .fil2 {fill:#1A1A1A}
    .fil5 {fill:#E5097F}
    .fil1 {fill:#EBECEC}
    .fil4 {fill:#2B2A29;fill-rule:nonzero}
    .fil6 {fill:gray;fill-rule:nonzero}
    .fil3 {fill:#E5097F;fill-rule:nonzero}
   ]]>
  </style>
 </defs>
 <g id="Слой_x0020_1">
  <metadata id="CorelCorpID_0Corel-Layer"/>
  <polygon class="fil0 str0" points="4,4 3310,4 3310,2373 4,2373 "/>
  <polygon class="fil1" points="87,87 3228,87 3228,2291 87,2291 "/>
  <g id="_595156744">
   <path id="_595163632" class="fil2" d="M659 2439c0,5 4,10 7,14l3 4c2,2 4,4 7,5l11 3 5 0c3,-1 7,-1 9,-2 9,-2 17,-6 24,-11l4 -4c4,-3 5,-5 7,-8 2,-2 4,-5 5,-7 8,-17 -4,-28 9,-36 3,-1 6,-2 8,-3 9,-5 21,-13 30,-18l15 -8c2,-2 5,-3 7,-4 15,-10 32,-19 48,-28l48 -28c0,-1 -1,-1 -1,-1 -2,-1 -5,-2 -7,-2 -11,-2 -19,-1 -30,2 -3,1 -6,2 -8,2 -1,1 -2,1 -2,1 -4,1 -2,1 -6,3 -6,4 -15,9 -21,13 -1,1 -3,1 -4,2 -1,1 -2,1 -3,2 -2,1 -3,2 -4,2 -7,5 -17,11 -25,16l-14 8c-9,6 -18,12 -28,17l-16 10c-1,1 -1,1 -2,1 -2,2 -7,5 -10,7l-22 12c-2,2 -5,3 -7,5 -5,2 -18,9 -22,12 -3,3 -5,5 -9,8 -2,2 -6,8 -6,11zm61 -31c-1,0 -1,0 -1,1l-3 1c-9,5 -21,12 -30,17 -5,2 -11,6 -13,13 -1,9 6,12 14,12 12,0 24,-5 33,-13 5,-5 11,-10 13,-19 1,-5 1,-8 -3,-10 -2,-1 -8,-3 -10,-2z"/>
   <path id="_595158328" class="fil2" d="M666 2316c0,7 2,11 6,16 4,5 7,8 13,11 4,2 9,4 10,5 4,2 10,5 13,7 2,1 5,2 7,3 3,2 18,10 23,12 6,3 2,4 15,-4 3,-1 4,-2 6,-4 0,0 -16,-9 -17,-10 -5,-2 -13,-5 -16,-12 -2,-6 2,-16 -1,-25 -2,-7 -6,-12 -12,-16 -1,-2 -5,-4 -7,-5l-14 -3 -3 0c-8,0 -16,5 -19,11 -2,4 -4,9 -4,14zm22 -13c-12,1 -17,16 -3,25 4,3 13,7 18,8 14,3 13,-15 8,-21 0,-1 -1,-2 -2,-3 -1,-2 -1,-1 -2,-2 -4,-4 -12,-8 -19,-7z"/>
   <path id="_595157848" class="fil2" d="M773 2392c1,0 3,2 4,2l11 8c3,1 5,3 7,4l63 41c5,3 9,4 15,4 2,0 4,0 6,0 2,0 4,0 6,0 4,0 8,0 12,-1 3,-1 6,-2 9,-3 0,-1 -13,-7 -14,-8 -11,-7 -25,-14 -36,-21 -11,-7 -24,-14 -36,-20 -5,-3 -9,-6 -14,-9l-15 -8c-2,2 -17,10 -18,11z"/>
  </g>
  <path class="fil3" d="M1430 1421l-235 0 0 -62 74 0 0 -186 -74 0 0 -58c11,0 22,0 33,-2 10,-1 19,-3 26,-7 8,-4 14,-9 18,-15 4,-6 6,-14 7,-24l78 0 0 292 73 0 0 62zm365 -177c0,30 -3,56 -8,80 -6,23 -14,43 -25,58 -12,15 -27,26 -45,34 -19,8 -41,12 -68,12 -26,0 -49,-4 -67,-12 -19,-8 -34,-19 -45,-35 -12,-15 -21,-35 -26,-58 -5,-23 -8,-49 -8,-79 0,-30 3,-57 8,-79 6,-23 14,-42 26,-58 12,-15 27,-27 45,-34 19,-8 41,-12 67,-12 27,0 50,4 68,12 18,8 33,20 45,35 11,16 20,35 25,58 5,22 8,49 8,78zm-92 0c0,-42 -4,-73 -12,-91 -9,-18 -23,-27 -42,-27 -19,0 -33,9 -41,27 -9,18 -13,49 -13,92 0,42 4,72 13,90 8,19 22,28 41,28 19,0 33,-9 41,-28 9,-18 13,-49 13,-91zm367 -69c0,39 -9,68 -27,87 -19,19 -45,29 -80,29 -35,0 -62,-10 -80,-29 -19,-19 -28,-48 -28,-86 0,-39 10,-68 28,-87 19,-19 45,-28 80,-28 36,0 62,9 80,28 18,19 27,48 27,86zm185 -107l-185 353 -64 0 185 -353 64 0zm149 244c0,40 -9,69 -27,88 -18,19 -44,28 -79,28 -36,0 -63,-10 -81,-29 -18,-19 -27,-48 -27,-86 0,-39 9,-68 28,-87 18,-18 45,-28 80,-28 35,0 62,10 80,28 18,19 26,48 26,86zm-404 -136c0,-26 -3,-43 -9,-51 -6,-9 -15,-14 -28,-14 -14,0 -23,5 -29,14 -6,8 -9,25 -9,51 0,25 3,42 9,51 6,9 15,13 29,13 13,0 22,-4 28,-13 6,-9 9,-26 9,-51zm335 137c0,-25 -3,-42 -9,-51 -6,-9 -16,-13 -29,-13 -13,0 -23,4 -28,13 -6,9 -9,26 -9,51 0,25 3,42 9,51 5,9 15,14 28,14 13,0 23,-5 29,-14 6,-9 9,-26 9,-51z"/>
  <path class="fil4" d="M2678 244c0,9 -2,17 -6,25 -4,7 -10,13 -16,17 -5,3 -10,5 -16,6 -5,1 -13,2 -22,2l-25 0 0 -101 25 0c10,0 17,1 23,3 6,1 11,3 15,5 7,5 12,10 16,18 4,7 6,15 6,25zm-14 0c0,-8 -2,-15 -5,-20 -2,-6 -6,-10 -12,-13 -4,-2 -8,-4 -12,-5 -5,0 -10,-1 -16,-1l-13 0 0 77 13 0c6,0 12,0 16,-1 5,-1 10,-3 14,-5 5,-3 8,-8 11,-13 2,-5 4,-12 4,-19zm118 50l-17 0 -34 -40 -18 0 0 40 -14 0 0 -101 28 0c6,0 11,1 16,2 4,0 7,2 10,4 4,2 7,5 9,9 2,3 3,7 3,13 0,7 -2,13 -5,18 -4,5 -9,9 -15,11l37 44zm-31 -72c0,-3 0,-6 -1,-8 -1,-2 -3,-4 -5,-5 -2,-2 -5,-3 -7,-3 -3,-1 -6,-1 -10,-1l-15 0 0 38 13 0c4,0 8,-1 11,-1 3,-1 6,-2 8,-4 2,-2 4,-4 5,-7 1,-2 1,-5 1,-9zm110 72l-66 0 0 -101 66 0 0 12 -52 0 0 28 52 0 0 12 -52 0 0 37 52 0 0 12zm101 0l-14 0 -10 -28 -44 0 -9 28 -14 0 37 -101 17 0 37 101zm-28 -40l-18 -49 -17 49 35 0zm133 40l-14 0 0 -87 -28 59 -8 0 -27 -59 0 87 -13 0 0 -101 18 0 27 56 26 -56 19 0 0 101zm-943 161c-6,2 -12,4 -18,6 -7,2 -13,3 -19,3 -8,0 -15,-1 -22,-3 -6,-2 -12,-5 -16,-10 -5,-4 -8,-10 -11,-16 -2,-7 -4,-14 -4,-23 0,-16 5,-29 14,-38 10,-10 23,-14 39,-14 6,0 12,0 18,2 6,1 12,3 19,7l0 16 -1 0c-2,-1 -4,-3 -6,-5 -3,-1 -6,-3 -8,-4 -3,-1 -7,-2 -11,-3 -4,-1 -8,-2 -13,-2 -11,0 -20,4 -27,11 -6,7 -10,17 -10,29 0,13 4,24 10,31 7,7 17,11 28,11 5,0 9,-1 13,-2 5,-1 8,-2 12,-3l0 -25 -27 0 0 -11 40 0 0 43zm103 7l-15 0 -10 -28 -43 0 -10 28 -13 0 36 -100 18 0 37 100zm-29 -39l-17 -50 -18 50 35 0zm127 39l-17 0 -34 -40 -19 0 0 40 -13 0 0 -100 28 0c6,0 11,0 15,1 4,0 8,2 11,4 4,2 7,5 9,9 2,3 3,8 3,13 0,7 -2,13 -6,18 -3,5 -8,9 -15,11l38 44zm-31 -72c0,-3 -1,-6 -2,-8 -1,-2 -2,-4 -5,-5 -2,-2 -4,-3 -7,-3 -2,-1 -5,-1 -9,-1l-16 0 0 38 14 0c4,0 8,0 11,-1 3,-1 6,-2 8,-4 2,-2 3,-4 4,-7 1,-2 2,-5 2,-9zm121 72l-14 0 -10 -28 -44 0 -10 28 -13 0 36 -100 18 0 37 100zm-28 -39l-18 -50 -18 50 36 0zm127 32c-6,2 -12,4 -18,6 -7,2 -13,3 -19,3 -8,0 -15,-1 -21,-3 -7,-2 -13,-5 -17,-10 -5,-4 -8,-10 -11,-16 -2,-7 -4,-14 -4,-23 0,-16 5,-29 14,-38 10,-10 23,-14 39,-14 6,0 12,0 18,2 6,1 12,3 19,7l0 16 -1 0c-2,-1 -4,-3 -6,-5 -3,-1 -6,-3 -8,-4 -3,-1 -7,-2 -11,-3 -4,-1 -8,-2 -13,-2 -11,0 -20,4 -27,11 -6,7 -10,17 -10,29 0,13 4,24 11,31 6,7 16,11 27,11 5,0 9,-1 13,-2 5,-1 8,-2 12,-3l0 -25 -27 0 0 -11 40 0 0 43zm89 7l-66 0 0 -100 66 0 0 11 -52 0 0 28 52 0 0 12 -52 0 0 37 52 0 0 12zm155 -50c0,9 -2,17 -6,25 -4,7 -9,13 -16,17 -4,3 -9,5 -15,6 -6,1 -13,2 -22,2l-26 0 0 -100 26 0c9,0 17,0 23,2 6,1 11,3 15,6 6,4 12,9 16,17 3,7 5,15 5,25zm-14 0c0,-8 -1,-15 -4,-20 -2,-6 -7,-10 -12,-13 -4,-2 -8,-4 -13,-5 -4,0 -9,-1 -16,-1l-12 0 0 77 12 0c7,0 12,0 17,-1 5,-1 9,-3 13,-5 5,-3 9,-8 12,-13 2,-5 3,-11 3,-19zm111 -39c4,5 7,10 9,17 2,6 4,14 4,22 0,8 -2,16 -4,22 -2,7 -5,12 -9,16 -4,5 -9,8 -15,11 -6,2 -12,3 -19,3 -7,0 -14,-1 -19,-3 -6,-3 -11,-6 -15,-11 -4,-4 -7,-9 -10,-16 -2,-6 -3,-14 -3,-22 0,-8 1,-16 3,-22 3,-7 6,-12 10,-17 4,-4 9,-8 15,-10 5,-2 12,-4 19,-4 7,0 13,2 19,4 6,2 11,6 15,10zm-1 39c0,-13 -3,-23 -9,-30 -6,-7 -14,-11 -24,-11 -10,0 -18,4 -24,11 -6,7 -9,17 -9,30 0,13 3,23 9,30 6,7 14,11 24,11 10,0 18,-4 24,-11 6,-7 9,-17 9,-30zm110 -39c4,5 7,10 9,17 2,6 3,14 3,22 0,8 -1,16 -3,22 -2,7 -5,12 -9,16 -4,5 -9,8 -15,11 -6,2 -12,3 -19,3 -7,0 -14,-1 -20,-3 -5,-3 -10,-6 -14,-11 -4,-4 -7,-9 -10,-16 -2,-6 -3,-14 -3,-22 0,-8 1,-16 3,-22 2,-7 6,-12 10,-17 4,-4 9,-8 14,-10 6,-2 13,-4 20,-4 7,0 13,2 19,4 6,2 11,6 15,10zm-2 39c0,-13 -3,-23 -8,-30 -6,-7 -14,-11 -24,-11 -10,0 -18,4 -24,11 -6,7 -9,17 -9,30 0,13 3,23 9,30 6,7 14,11 24,11 10,0 18,-4 24,-11 5,-7 8,-17 8,-30zm119 50l-17 0 -34 -40 -19 0 0 40 -13 0 0 -100 28 0c6,0 11,0 15,1 4,0 8,2 11,4 4,2 7,5 9,9 2,3 3,8 3,13 0,7 -2,13 -6,18 -3,5 -8,9 -15,11l38 44zm-31 -72c0,-3 -1,-6 -2,-8 -1,-2 -3,-4 -5,-5 -2,-2 -4,-3 -7,-3 -2,-1 -6,-1 -9,-1l-16 0 0 38 14 0c4,0 8,0 11,-1 3,-1 6,-2 8,-4 2,-2 3,-4 4,-7 1,-2 2,-5 2,-9zm-1070 211c0,4 0,8 -2,12 -2,4 -5,7 -8,10 -4,3 -8,5 -13,7 -4,1 -10,2 -17,2 -7,0 -14,-1 -19,-2 -6,-1 -12,-3 -18,-6l0 -17 1 0c5,4 11,8 18,10 6,2 12,3 18,3 9,0 15,-1 20,-4 4,-3 7,-8 7,-13 0,-4 -2,-7 -4,-10 -2,-2 -5,-3 -10,-4 -3,-1 -7,-2 -11,-3 -4,0 -8,-1 -12,-2 -9,-2 -16,-5 -20,-10 -4,-4 -6,-10 -6,-17 0,-9 3,-16 10,-21 7,-5 16,-8 27,-8 7,0 14,0 20,2 6,1 11,3 15,5l0 16 0 0c-4,-4 -9,-6 -16,-8 -6,-3 -12,-4 -19,-4 -7,0 -13,2 -17,5 -4,3 -6,7 -6,11 0,4 1,8 3,10 2,3 6,4 11,6 3,0 7,1 12,2 6,1 10,2 14,3 7,2 13,5 17,9 4,4 5,9 5,16zm88 -41c0,4 -1,9 -2,12 -2,4 -4,7 -7,10 -3,4 -8,6 -12,8 -5,2 -11,3 -18,3l-13 0 0 37 -14 0 0 -100 27 0c6,0 12,0 16,1 4,1 8,3 11,5 4,2 7,6 9,9 2,4 3,9 3,15zm-14 0c0,-3 -1,-6 -2,-9 -1,-2 -3,-4 -5,-6 -3,-1 -5,-2 -8,-3 -3,0 -6,-1 -10,-1l-13 0 0 40 11 0c5,0 10,0 13,-1 3,-1 6,-3 8,-5 2,-2 4,-4 5,-7 0,-2 1,-5 1,-8zm98 70l-66 0 0 -100 66 0 0 12 -53 0 0 27 53 0 0 12 -53 0 0 37 53 0 0 12zm99 -7c-3,1 -5,2 -7,3 -2,1 -5,2 -8,3 -3,1 -6,1 -9,2 -3,1 -7,1 -11,1 -7,0 -14,-1 -19,-3 -6,-2 -12,-5 -16,-10 -4,-4 -8,-9 -10,-16 -3,-7 -4,-14 -4,-23 0,-8 1,-16 4,-22 2,-7 5,-12 10,-17 4,-4 9,-7 15,-10 6,-2 13,-3 20,-3 6,0 11,0 17,2 5,1 11,3 18,7l0 16 -1 0c-6,-5 -11,-8 -17,-10 -5,-3 -11,-4 -17,-4 -5,0 -10,1 -14,3 -4,2 -8,4 -11,8 -3,3 -6,7 -7,12 -2,5 -3,11 -3,18 0,7 1,13 3,18 2,5 4,9 7,13 4,3 7,5 11,7 5,2 9,2 14,2 6,0 12,-1 18,-3 5,-2 11,-5 16,-10l1 0 0 16zm54 7l-40 0 0 -10 13 0 0 -80 -13 0 0 -10 40 0 0 10 -13 0 0 80 13 0 0 10zm102 0l-14 0 -10 -28 -44 0 -9 28 -14 0 37 -100 17 0 37 100zm-28 -39l-18 -50 -18 50 36 0zm107 39l-64 0 0 -100 14 0 0 88 50 0 0 12zm137 -89c4,5 7,10 9,17 2,6 3,14 3,22 0,8 -1,16 -3,22 -2,7 -5,12 -9,17 -4,4 -9,7 -15,10 -6,2 -12,3 -19,3 -7,0 -14,-1 -20,-3 -5,-3 -10,-6 -14,-10 -4,-5 -7,-10 -10,-17 -2,-6 -3,-14 -3,-22 0,-8 1,-16 3,-22 2,-7 6,-12 10,-17 4,-4 9,-8 15,-10 5,-2 12,-3 19,-3 7,0 13,1 19,3 6,2 11,6 15,10zm-2 39c0,-13 -2,-23 -8,-30 -6,-7 -14,-11 -24,-11 -10,0 -18,4 -24,11 -6,7 -9,17 -9,30 0,13 3,23 9,30 6,7 14,11 24,11 10,0 18,-4 24,-11 6,-7 8,-17 8,-30zm100 -38l-51 0 0 28 44 0 0 12 -44 0 0 48 -13 0 0 -100 64 0 0 12zm79 0l-50 0 0 28 43 0 0 12 -43 0 0 48 -14 0 0 -100 64 0 0 12zm82 88l-66 0 0 -100 66 0 0 12 -53 0 0 27 53 0 0 12 -53 0 0 37 53 0 0 12zm104 0l-17 0 -34 -40 -18 0 0 40 -14 0 0 -100 28 0c6,0 12,0 16,1 4,1 7,2 11,4 3,2 6,5 8,9 2,3 3,8 3,13 0,7 -2,13 -5,18 -4,5 -9,9 -15,11l37 44zm-31 -72c0,-3 0,-5 -1,-8 -1,-2 -3,-4 -5,-5 -2,-2 -5,-2 -7,-3 -3,-1 -6,-1 -10,-1l-15 0 0 38 13 0c4,0 8,0 11,-1 3,-1 6,-2 8,-4 2,-2 4,-4 5,-7 1,-2 1,-5 1,-9zm117 43c0,4 -1,8 -3,12 -1,4 -4,7 -7,10 -4,3 -8,5 -13,7 -5,1 -10,2 -17,2 -7,0 -14,-1 -20,-2 -5,-1 -11,-3 -17,-6l0 -17 1 0c5,4 11,8 17,10 7,2 13,3 19,3 8,0 15,-1 19,-4 5,-3 7,-8 7,-13 0,-4 -1,-7 -3,-10 -2,-2 -6,-3 -10,-4 -3,-1 -7,-2 -11,-3 -4,0 -8,-1 -12,-2 -9,-2 -16,-5 -20,-10 -5,-4 -7,-10 -7,-17 0,-9 4,-16 11,-21 7,-5 16,-8 27,-8 7,0 14,0 20,2 5,1 11,3 15,5l0 16 -1 0c-4,-4 -9,-6 -15,-8 -6,-3 -12,-4 -19,-4 -7,0 -13,2 -17,5 -5,3 -7,7 -7,11 0,4 1,8 4,10 2,3 5,4 11,6 3,0 7,1 12,2 6,1 10,2 14,3 7,2 13,5 17,9 3,4 5,9 5,16z"/>
  <path id="_375678808" class="fil5" d="M209 622l377 0 0 -188 -52 0 0 136 -273 0 0 -273 137 0 0 -52 -189 0 0 377zm377 -240l0 -137 -137 0 0 52 85 0 0 85 52 0z"/>
  <g id="_770471640">
   <path id="_375679576" class="fil6" d="M683 479l0 -196c0,-12 4,-21 11,-28 8,-8 17,-11 28,-11 9,0 17,2 25,7 9,4 15,12 20,21l36 76 0 -102 73 0 0 196c0,14 -4,24 -12,32 -7,7 -16,10 -26,10 -8,0 -17,-2 -25,-7 -8,-4 -14,-11 -18,-19l-39 -74 0 95 -73 0z"/>
   <path id="_375679696" class="fil6" d="M884 499l18 -226c0,-14 6,-26 18,-34 12,-9 25,-14 40,-14 13,0 24,4 34,11 10,7 17,17 19,31l21 88 25 -94c2,-10 9,-19 20,-25 11,-6 22,-9 35,-9 15,0 28,4 38,12 12,9 19,23 19,40l18 220 -82 0 -9 -156 -33 138c-2,7 -5,12 -10,16 -6,4 -12,6 -18,6 -7,0 -13,-2 -18,-5 -4,-3 -7,-8 -9,-14l-35 -141 -10 156 -81 0z"/>
   <path id="_368675264" class="fil6" d="M1203 491l0 -74 56 0c7,0 12,-1 17,-3 4,-2 7,-5 7,-8 0,-2 -1,-3 -1,-4 -2,-4 -4,-6 -8,-9 -24,-17 -41,-31 -50,-42 -14,-16 -21,-33 -21,-51l-1 -3c0,-22 11,-39 32,-49 15,-8 32,-12 51,-12l78 0 0 69 -54 0c-6,0 -11,1 -14,3 -4,2 -6,4 -6,7 0,3 3,6 9,11 29,22 45,35 49,38 16,16 24,33 24,50l0 9c0,22 -9,39 -28,51 -17,11 -37,17 -60,17l-80 0z"/>
  </g>
  <path id="_491115792" class="fil6" d="M685 563l9 0 33 50 0 -50 7 0 0 60 -7 0 -36 -53 0 53 -6 0 0 -60zm64 40c0,3 1,5 3,8 1,2 4,4 6,5 3,2 5,2 8,2 2,0 5,0 7,-1 2,-1 4,-2 5,-3 2,-2 3,-3 4,-5l6 0c-1,3 -2,5 -4,8 -3,2 -5,4 -8,5 -3,2 -6,2 -9,2 -5,0 -9,-1 -12,-3 -4,-2 -7,-5 -9,-8 -2,-4 -3,-8 -3,-12 0,-4 1,-8 3,-12 2,-4 5,-6 9,-8 3,-3 7,-4 12,-4 3,0 6,1 9,3 4,1 6,3 9,6 1,3 3,5 4,8 0,2 1,5 1,9l-41 0zm35 -6c-1,-2 -2,-5 -4,-7 -1,-2 -3,-4 -6,-5 -2,-1 -5,-2 -7,-2 -3,0 -6,1 -8,2 -3,1 -5,3 -6,5 -2,2 -3,5 -4,7l35 0zm60 26l-6 0 0 -8c-1,2 -3,4 -5,5 -1,1 -3,2 -6,3 -2,1 -4,1 -6,1 -4,0 -7,-1 -11,-2 -3,-2 -6,-4 -9,-7 -1,-1 -2,-3 -3,-6 -1,-3 -2,-5 -2,-8 0,-3 1,-6 2,-9 1,-2 2,-4 3,-5 6,-6 12,-10 19,-10 4,0 7,1 11,3 3,2 5,4 7,7l0 -9 6 0 0 45zm-42 -22c0,3 1,6 3,9 2,2 4,5 7,6 2,2 5,2 9,2 3,0 5,0 8,-2 3,-2 5,-4 6,-6 2,-3 3,-6 3,-9 0,-3 -1,-6 -2,-9 -2,-3 -4,-5 -7,-6 -2,-2 -5,-3 -9,-3 -3,0 -6,1 -9,3 -2,1 -5,3 -6,6 -2,3 -3,6 -3,9zm52 -23l6 0 0 7c2,-5 6,-7 13,-8l0 6c-4,1 -6,2 -8,4 -2,1 -4,3 -4,4 -1,2 -1,4 -1,7l0 25 -6 0 0 -45zm48 -15l10 0 22 51 22 -51 9 0 0 60 -6 0 0 -54 -23 54 -5 0 -23 -54 0 54 -6 0 0 -60zm79 40c0,3 1,5 2,8 2,2 4,4 7,5 2,2 5,2 8,2 2,0 4,0 6,-1 2,-1 4,-2 6,-3 2,-2 3,-3 4,-5l6 0c-1,3 -3,5 -5,8 -2,2 -5,4 -8,5 -3,2 -6,2 -9,2 -4,0 -8,-1 -12,-3 -3,-2 -6,-5 -8,-8 -2,-4 -3,-8 -3,-12 0,-4 1,-8 3,-12 2,-4 5,-6 8,-8 4,-3 8,-4 12,-4 4,0 7,1 10,3 3,1 6,3 8,6 2,3 3,5 4,8 1,2 1,5 1,9l-40 0zm34 -6c0,-2 -1,-5 -3,-7 -2,-2 -4,-4 -6,-5 -3,-1 -5,-2 -8,-2 -3,0 -5,1 -8,2 -2,1 -4,3 -6,5 -2,2 -3,5 -3,7l34 0zm40 9c1,2 1,4 2,6 1,2 3,4 4,5 2,1 4,1 7,1 2,0 4,0 6,-1 2,-1 3,-3 4,-4 2,-2 2,-4 2,-7 0,-1 0,-3 -1,-4 -1,-2 -2,-3 -3,-4 -1,-1 -3,-2 -4,-2 -2,-1 -3,-2 -5,-2 -3,-1 -5,-1 -7,-2 -1,-1 -3,-2 -4,-3 -3,-3 -5,-6 -5,-11 0,-3 1,-6 2,-8 2,-3 4,-5 6,-6 3,-2 6,-2 9,-2 3,0 6,0 8,2 3,1 5,3 6,6 2,2 3,5 3,8l-7 0c0,-2 0,-4 -1,-5 -1,-2 -3,-3 -4,-4 -2,-1 -4,-1 -6,-1 -2,0 -3,0 -5,1 -2,1 -3,2 -4,4 -1,1 -1,3 -1,5 0,2 0,4 2,6 1,1 2,2 4,3 1,0 3,1 6,2 3,1 5,1 7,2 1,1 3,2 4,3 2,1 4,3 5,6 1,2 1,4 1,7 0,3 -1,6 -2,9 -2,2 -4,4 -7,6 -3,1 -6,2 -9,2 -4,0 -7,-1 -10,-2 -3,-2 -5,-4 -7,-6 -1,-3 -2,-6 -2,-10l6 0zm42 -3c1,3 1,5 3,8 2,2 4,4 6,5 3,2 6,2 8,2 3,0 5,0 7,-1 2,-1 4,-2 6,-3 1,-2 2,-3 3,-5l7 0c-1,3 -3,5 -5,8 -3,2 -5,4 -8,5 -3,2 -6,2 -9,2 -4,0 -8,-1 -12,-3 -4,-2 -6,-5 -9,-8 -2,-4 -3,-8 -3,-12 0,-4 1,-8 3,-12 3,-4 5,-6 9,-8 4,-3 7,-4 12,-4 3,0 6,1 10,3 3,1 5,3 8,6 2,3 3,5 4,8 0,2 1,5 1,9l-41 0zm35 -6c-1,-2 -2,-5 -3,-7 -2,-2 -4,-4 -7,-5 -2,-1 -5,-2 -7,-2 -3,0 -6,1 -8,2 -3,1 -5,3 -6,5 -2,2 -3,5 -4,7l35 0zm14 -19l6 0 0 7c2,-5 6,-7 13,-8l0 6c-3,1 -6,2 -8,4 -2,1 -3,3 -4,4 0,2 -1,4 -1,7l0 25 -6 0 0 -45zm20 0l7 0 15 37 16 -37 6 0 -19 45 -6 0 -19 -45zm50 0l6 0 0 45 -6 0 0 -45zm0 -15l6 0 0 10 -6 0 0 -10zm61 47c-2,5 -5,8 -9,10 -4,3 -8,4 -13,4 -4,0 -8,-1 -12,-3 -4,-2 -7,-5 -9,-8 -2,-4 -3,-8 -3,-12 0,-5 1,-8 3,-12 2,-4 5,-6 9,-8 4,-3 8,-4 12,-4 3,0 6,1 9,2 3,1 6,3 8,5 2,3 4,5 5,8l-7 0c-1,-2 -2,-3 -4,-5 -1,-1 -3,-2 -5,-3 -2,0 -4,-1 -6,-1 -3,0 -6,1 -9,3 -3,1 -5,3 -7,6 -1,2 -2,5 -2,9 0,3 1,6 2,9 2,2 4,5 7,6 2,2 5,2 9,2 3,0 6,0 9,-2 2,-1 4,-3 6,-6l7 0zm13 -7c0,3 1,5 2,8 2,2 4,4 7,5 2,2 5,2 8,2 2,0 4,0 6,-1 2,-1 4,-2 6,-3 2,-2 3,-3 4,-5l6 0c-1,3 -3,5 -5,8 -2,2 -5,4 -8,5 -3,2 -6,2 -9,2 -4,0 -8,-1 -12,-3 -3,-2 -6,-5 -8,-8 -2,-4 -3,-8 -3,-12 0,-4 1,-8 3,-12 2,-4 5,-6 8,-8 4,-3 8,-4 12,-4 4,0 7,1 10,3 3,1 6,3 8,6 2,3 3,5 4,8 1,2 1,5 1,9l-40 0zm34 -6c0,-2 -1,-5 -3,-7 -2,-2 -4,-4 -6,-5 -3,-1 -5,-2 -8,-2 -3,0 -5,1 -8,2 -2,1 -4,3 -6,5 -2,2 -3,5 -3,7l34 0zm17 13c0,2 0,3 1,4 1,1 2,3 3,3 1,1 3,1 4,1 2,0 4,0 6,-2 1,-1 2,-3 2,-5 0,-2 -1,-4 -2,-6 -2,-1 -4,-2 -7,-3 -2,0 -4,-1 -5,-1 -1,-1 -2,-2 -3,-3 -2,-2 -3,-5 -3,-8 0,-2 0,-5 1,-6 2,-2 3,-4 5,-5 2,-1 4,-2 7,-2 2,0 4,1 6,2 2,1 3,3 4,5 1,1 2,3 2,6l-6 0c0,-2 -1,-4 -2,-5 -1,-1 -3,-2 -5,-2 -2,0 -3,1 -5,2 -1,1 -1,3 -1,4 0,2 0,3 1,4 0,1 1,2 2,2 1,1 3,1 5,2 2,1 4,2 6,3 2,1 3,2 4,4 2,1 2,3 2,6 0,3 -1,5 -2,7 -1,3 -3,4 -5,5 -2,2 -5,2 -7,2 -3,0 -5,0 -7,-2 -2,-1 -4,-3 -5,-5 -1,-2 -2,-4 -2,-7l6 0z"/>
  <path class="fil4" d="M1256 1702c0,30 -9,53 -26,70 -16,18 -40,26 -70,26 -30,0 -53,-8 -70,-26 -17,-17 -25,-40 -25,-70 0,-30 8,-53 25,-70 17,-18 40,-26 70,-26 30,0 53,8 70,26 17,17 26,40 26,70zm-63 47c4,-6 8,-12 10,-20 2,-8 3,-17 3,-27 0,-11 -1,-21 -4,-28 -2,-8 -6,-14 -10,-19 -4,-5 -9,-9 -14,-11 -6,-2 -12,-3 -18,-3 -6,0 -11,1 -17,3 -5,2 -10,6 -14,10 -5,5 -8,12 -11,20 -2,8 -4,17 -4,28 0,11 2,21 4,28 3,8 6,14 10,19 4,5 9,9 15,11 5,2 11,4 17,4 7,0 12,-2 18,-4 6,-2 10,-6 15,-11zm232 -104l-85 0 0 35 79 0 0 36 -79 0 0 79 -48 0 0 -186 133 0 0 36zm165 0l-84 0 0 35 78 0 0 36 -78 0 0 79 -48 0 0 -186 132 0 0 36zm253 0l-84 0 0 35 78 0 0 36 -78 0 0 79 -48 0 0 -186 132 0 0 36zm213 57c0,30 -8,53 -25,70 -17,18 -40,26 -70,26 -30,0 -53,-8 -70,-26 -17,-17 -26,-40 -26,-70 0,-30 9,-53 26,-70 17,-18 40,-26 70,-26 29,0 53,8 70,26 17,17 25,40 25,70zm-63 47c5,-6 8,-12 10,-20 3,-8 4,-17 4,-27 0,-11 -2,-21 -4,-28 -3,-8 -6,-14 -10,-19 -4,-5 -9,-9 -15,-11 -5,-2 -11,-3 -17,-3 -6,0 -12,1 -17,3 -6,2 -10,6 -15,10 -4,5 -7,12 -10,20 -3,8 -4,17 -4,28 0,11 1,21 4,28 2,8 6,14 10,19 4,5 9,9 14,11 6,2 12,4 18,4 6,0 12,-2 17,-4 6,-2 11,-6 15,-11zm203 -83c0,-5 -1,-9 -3,-12 -1,-3 -5,-6 -9,-8 -3,-1 -7,-2 -11,-2 -5,0 -10,0 -15,0l-17 0 0 49 14 0c8,0 14,0 19,-1 5,-1 9,-2 13,-5 3,-3 5,-5 7,-9 1,-3 2,-7 2,-12zm75 129l-58 0 -51 -68 -21 0 0 68 -48 0 0 -186 80 0c11,0 20,1 28,2 8,2 15,4 22,8 7,5 13,10 17,17 4,6 6,14 6,24 0,14 -3,25 -10,34 -6,8 -15,15 -27,21l62 80zm-1459 309l-49 0 -13 -37 -68 0 -13 37 -48 0 68 -185 55 0 68 185zm-74 -71l-22 -66 -23 66 45 0zm272 71l-50 0 -12 -37 -68 0 -13 37 -49 0 69 -185 55 0 68 185zm-74 -71l-22 -66 -23 66 45 0zm272 71l-50 0 -13 -37 -68 0 -13 37 -48 0 68 -185 55 0 69 185zm-74 -71l-23 -66 -22 66 45 0zm382 71l-48 0 0 -124 -34 81 -33 0 -34 -81 0 124 -45 0 0 -185 55 0 41 93 42 -93 56 0 0 185zm181 0l-134 0 0 -185 134 0 0 36 -86 0 0 32 80 0 0 36 -80 0 0 45 86 0 0 36zm234 0l-48 0 0 -124 -34 81 -33 0 -34 -81 0 124 -45 0 0 -185 55 0 42 93 41 -93 56 0 0 185zm206 -57c0,9 -2,17 -6,24 -3,8 -8,13 -14,18 -8,5 -16,9 -25,12 -8,2 -19,3 -33,3l-81 0 0 -185 72 0c15,0 26,1 33,2 7,1 14,3 21,6 7,4 12,8 15,14 4,6 6,13 6,21 0,9 -3,17 -8,24 -4,7 -11,12 -20,16l0 1c13,2 22,7 29,15 7,7 11,17 11,29zm-61 -76c0,-3 -1,-6 -3,-9 -1,-3 -4,-5 -8,-7 -3,-1 -7,-2 -13,-2 -5,0 -12,0 -21,0l-5 0 0 39 8 0c7,0 13,0 19,0 5,-1 9,-1 12,-3 5,-2 7,-4 9,-7 1,-3 2,-7 2,-11zm11 76c0,-6 -1,-11 -3,-14 -3,-3 -6,-6 -12,-7 -3,-1 -9,-2 -15,-2 -7,0 -13,0 -20,0l-11 0 0 46 4 0c13,0 22,0 28,0 6,0 11,-1 16,-3 5,-2 8,-5 10,-8 2,-4 3,-8 3,-12zm219 57l-134 0 0 -185 134 0 0 36 -86 0 0 32 80 0 0 36 -80 0 0 45 86 0 0 36zm144 -128c0,-5 -1,-9 -3,-12 -2,-4 -5,-6 -10,-8 -3,-1 -7,-2 -11,-2 -4,-1 -9,-1 -15,-1l-17 0 0 50 15 0c7,0 13,-1 19,-2 5,0 9,-2 12,-5 4,-2 6,-5 7,-8 2,-3 3,-7 3,-12zm75 128l-59 0 -50 -68 -22 0 0 68 -48 0 0 -185 80 0c11,0 21,1 29,2 7,1 15,4 22,8 7,4 12,9 16,16 4,7 6,15 6,25 0,14 -3,25 -9,33 -6,9 -15,16 -27,22l62 79zm169 -58c0,18 -8,33 -24,44 -15,12 -36,17 -63,17 -15,0 -28,-1 -40,-4 -11,-2 -22,-6 -32,-10l0 -44 6 0c9,8 20,14 33,18 12,4 24,6 35,6 3,0 7,0 11,0 5,-1 9,-2 12,-3 3,-1 6,-3 9,-5 2,-3 3,-6 3,-10 0,-5 -1,-8 -5,-11 -3,-3 -8,-5 -15,-7 -7,-1 -14,-3 -22,-4 -8,-2 -15,-4 -22,-6 -15,-5 -27,-12 -33,-20 -7,-9 -11,-20 -11,-33 0,-17 8,-31 24,-42 15,-11 35,-16 59,-16 12,0 24,1 36,3 12,3 22,6 31,9l0 43 -5 0c-7,-6 -17,-11 -27,-15 -11,-4 -22,-6 -33,-6 -4,0 -8,0 -12,1 -4,0 -8,1 -12,3 -3,1 -6,3 -8,5 -2,3 -3,6 -3,9 0,5 1,9 5,11 4,3 11,5 21,7 7,2 14,3 20,4 6,2 13,4 20,6 14,5 25,11 31,19 7,8 11,18 11,31z"/>
 </g>
</svg>
