<?xml version="1.0" encoding="UTF-8"?>
<!DOCTYPE svg PUBLIC "-//W3C//DTD SVG 1.1//EN" "http://www.w3.org/Graphics/SVG/1.1/DTD/svg11.dtd">
<!-- Creator: CorelDRAW -->
<svg xmlns="http://www.w3.org/2000/svg" xml:space="preserve" width="4.5561mm" height="3.3765mm" style="shape-rendering:geometricPrecision; text-rendering:geometricPrecision; image-rendering:optimizeQuality; fill-rule:evenodd; clip-rule:evenodd"
viewBox="0 0 0.161787 0.119899"
 xmlns:xlink="http://www.w3.org/1999/xlink">
 <defs>
  <style type="text/css">
   <![CDATA[
    .fil0 {fill:#05285E;fill-rule:nonzero}
   ]]>
  </style>
 </defs>
 <g id="Layer_x0020_1">
  <metadata id="CorelCorpID_0Corel-Layer"/>
  <path class="fil0" d="M0.0742194 0l0.00455593 0.00769856c-0.0175739,0.0092397 -0.029381,0.0175135 -0.0355419,0.0247611 -0.00404103,0.00494299 -0.00602959,0.00955928 -0.00602959,0.0139199 0,0.00442809 0.0032101,0.0096232 0.00969067,0.0155924 0.00647702,0.00602959 0.0107737,0.0112247 0.0130854,0.0155889 0.0016015,0.00313908 0.00243954,0.00680016 0.00243954,0.0109051 0,0.00840166 -0.00301835,0.0156528 -0.00904794,0.0216185 -0.00602959,0.00602959 -0.0134725,0.00904439 -0.022389,0.00904439 -0.00872125,0 -0.0161002,-0.00320655 -0.0220694,-0.00968712 -0.00596568,-0.00648057 -0.008913,-0.0146905 -0.008913,-0.0247007 0,-0.0155214 0.00474413,-0.0295052 0.014307,-0.0419515 0.0126344,-0.0162316 0.0325875,-0.030535 0.0599124,-0.0427895zm0.0828874 0l0.00468021 0.00820991c-0.017897,0.00943145 -0.0296366,0.0175135 -0.0352792,0.0242498 -0.00391675,0.0048116 -0.00584139,0.0096232 -0.00584139,0.0144987 0,0.00449201 0.00346577,0.00987887 0.0103299,0.0161677 0.0096232,0.00866088 0.0144952,0.01713 0.0144952,0.0255281 0,0.00840521 -0.00307516,0.0157203 -0.00916868,0.0219452 -0.00603314,0.00615743 -0.0132168,0.00930006 -0.0214942,0.00930006 -0.00853305,0 -0.0159724,-0.00346577 -0.022389,-0.0102659 -0.00635273,-0.00680016 -0.00955573,-0.0152018 -0.00955573,-0.0250842 0,-0.0155214 0.00525903,-0.0299562 0.0157771,-0.0432334 0.0132843,-0.0170661 0.0327828,-0.0307942 0.0584459,-0.0413159z"/>
 </g>
</svg>
