<?xml version="1.0" encoding="UTF-8"?>
<!DOCTYPE svg PUBLIC "-//W3C//DTD SVG 1.1//EN" "http://www.w3.org/Graphics/SVG/1.1/DTD/svg11.dtd">
<!-- Creator: CorelDRAW -->
<svg xmlns="http://www.w3.org/2000/svg" xml:space="preserve" width="12.0744mm" height="13.1045mm" style="shape-rendering:geometricPrecision; text-rendering:geometricPrecision; image-rendering:optimizeQuality; fill-rule:evenodd; clip-rule:evenodd"
viewBox="0 0 5.42749 5.89053"
 xmlns:xlink="http://www.w3.org/1999/xlink">
 <defs>
  <style type="text/css">
   <![CDATA[
    .fil0 {fill:gray}
    .fil1 {fill:#C00000;fill-rule:nonzero}
   ]]>
  </style>
 </defs>
 <g id="Layer_x0020_1">
  <metadata id="CorelCorpID_0Corel-Layer"/>
  <g id="_339670288">
   <path id="_339664936" class="fil0" d="M2.19273 5.17905c0.14546,-0.00710217 0.0637846,-0.0878331 0.0434221,-0.164024 0.1175,0.0563678 0.24507,0.0273299 0.369043,0.0867992 0,0.245699 -0.14501,0.130266 -0.323643,0.130266 -0.0449954,-0.0100239 -0.00274198,0.0169463 -0.0520975,-0.0155978 -0.0404104,-0.0266556 -0.00656276,-0.00152831 -0.0367245,-0.0374437zm2.03284 0.0313304c-0.0496702,0.0191489 -0.0338027,0.000359603 -0.0572219,0.0479621 -0.0839224,0.0111477 -0.0563678,0.0303865 -0.152966,0.0391069 -0.0848664,0.00764157 -0.138627,-0.0111028 -0.194411,-0.0124063 -0.0211267,-0.0493556 -0.00440514,-0.0322744 -0.0538506,-0.0529516 -0.0372189,-0.0715161 -0.0710666,-0.073449 -0.077989,-0.174632 -0.032589,-0.479037 0.857879,-0.424287 1.02752,-0.536213 0.0584805,-0.0385675 0.10905,-0.0874286 0.119433,-0.157551l0.0703923 -0.0635149c0.311776,-0.0836977 0.408195,-0.295459 0.377763,-0.57568 -0.0140695,-0.129547 0.0729545,-0.152382 0.0123614,-0.315597 -0.0365896,-0.0987111 -0.059829,-0.0867093 -0.0861699,-0.0873836l0 -0.10842c0.100509,-0.0234641 0.132694,-0.0332633 0.184791,-0.119164 0.0159574,-0.0263859 0.0263859,-0.0823941 0.0322744,-0.149955l0 -0.309349c-0.0055289,-0.0680549 -0.0146988,-0.119883 -0.026251,-0.133413l-0.169103 -0.156517c0.0530864,-0.0793375 0.113769,-0.0881028 0.129412,-0.197287 0.0511086,-0.356502 -0.305258,-0.457865 -0.389945,-0.605977 -0.0381179,-0.163664 0.00746177,-0.0683696 0.0225202,-0.218504 0.00966434,-0.0966434 -0.00881028,-0.163844 -0.0659423,-0.194141 -0.0215762,-0.0663019 0.0330835,-0.0224752 -0.0446358,-0.0649983 -0.211087,-0.425006 -0.453954,-0.164384 -0.493241,-0.285705 -0.0354209,-0.109454 0.0818997,-0.260712 -0.377583,-0.470676 -0.244845,-0.111882 -0.216841,0.0329037 -0.408869,0.0275546 -0.00404554,-0.0572219 0.00728197,-0.0327239 -0.0119568,-0.084327 -0.0342522,-0.0919685 0.00121366,-0.0114174 -0.0382079,-0.0552441 -0.0601886,-0.128693 -0.182858,-0.138807 -0.34414,-0.173688 -0.0478722,-0.0120917 -0.0503445,-0.0171711 -0.110803,-0.021711l-0.00894513 0c-0.184162,4.49504e-005 -0.1589,0.00292178 -0.289211,0.173688l-0.0867992 0c-0.0194186,-0.0726399 -0.0312855,-0.0657175 -0.0868891,-0.117051 -0.0404554,-0.0451302 -0.016317,-0.0370841 -0.0826189,-0.0566375 -0.192568,0 -0.454584,0.00863048 -0.575455,0.14519l-0.11341 0.161911c-0.00130356,0.00391069 -0.00975424,0.00215762 -0.0116422,0.00193287 -0.00188792,-0.000224752 -0.00948454,0.000269702 -0.0118669,-0.000224752 -0.0539405,-0.0115972 -0.0832032,-0.0721005 -0.203625,-0.0720106 -0.127255,8.99008e-005 -0.379067,0.166676 -0.452021,0.244755 -0.111297,0.119119 -0.038028,0.194995 -0.0802814,0.268444 -0.0360952,0.0627058 -0.146763,-0.0219808 -0.272534,0.0297122 -0.090665,0.0373088 -0.318833,0.327374 -0.325756,0.369897l0.0233742 0.304944c-0.192657,0.092463 -0.203176,-0.0630654 -0.363109,0.331689 -0.111882,0.27622 -0.0697181,0.257386 0.0591547,0.515042 -0.0587951,0.0802365 -0.0134851,0.012676 -0.088822,0.0631104 -0.0931373,0.0623462 -0.121007,0.118849 -0.128288,0.187848l0 0.354614c0.00512435,0.112601 0.0381629,0.110713 0.21711,0.241114 0,0.278962 -0.220212,0.041669 -0.0409498,0.540259 0.152876,0.425186 0.30827,0.242732 0.37156,0.34432 0.0427928,0.0686393 0.00305663,0.0422534 0.000359603,0.0518278 -0.0103386,0.0365896 -0.063425,0.0928676 -0.0322744,0.195984 0.0282289,0.0935868 0.266106,0.384146 0.336364,0.403835l0.298471 0.0268803c0.0770001,0.186319 -0.127075,0.168249 0.259364,0.391923 0.256038,0.148202 0.197782,0.120422 0.522189,0.0205423 0.0116422,0.0173958 0.0202726,0.0318249 0.0309259,0.0559183 0.0851361,0.192523 0.193287,0.247497 0.511985,0.2497 0.155618,0.00107881 0.232798,-0.0311057 0.282873,-0.131165 0.0589749,-0.11786 0.0202277,-0.272399 -0.0659423,-0.320946l-0.021711 -0.048906c-0.037129,-0.00979919 -0.0452201,-0.00916988 -0.0824391,-0.0216661 -0.0516031,-0.0194635 -0.350973,-0.0676504 -0.403835,-0.0535809 -0.0992056,0.0263859 -0.251857,0.236754 -0.251857,0.00755167 -0.000359603,-0.000809107 -0.010878,-0.0495803 -0.021711,-0.062526 0,-0.0467934 0.00624811,-0.000584355 -0.0377583,-0.021711 -0.00885523,-0.0463888 0.0340275,0.00656276 -0.0350613,-0.0568623 -0.00139346,-0.00130356 -0.0791127,-0.0509288 -0.0795622,-0.0511536 -0.206277,-0.115523 -0.224617,-0.0859452 -0.520616,-0.109095 -0.0330386,-0.0799668 0.0503894,-0.137234 -0.0434221,-0.266421l-0.021711 -0.0375336c0,-0.0467035 0.00624811,-0.000404554 -0.0359603,-0.021711l-0.00746177 -0.00247227c-0.0298021,-0.0672908 0.00683246,-0.044456 -0.0658973,-0.084327 -0.0453999,-0.0702575 -0.0608179,-0.127345 -0.151168,-0.152517 -0.0148336,-0.0100239 -0.0102037,-0.0130356 -0.0402756,-0.0249025 -0.0307461,-0.0121366 -0.0252621,-0.0141144 -0.0695383,-0.016362 -0.128828,-0.00660771 -0.00157326,0.0318698 -0.124692,-0.00161821 0.0951151,-0.279906 0.111747,-0.184072 0.00494455,-0.465192 -0.129952,-0.342073 -0.163485,-0.200524 -0.269792,-0.338072 -0.0293976,-0.038073 0.0592896,-0.0720106 0.100959,-0.137773 0.0521874,-0.0823042 0.0349265,-0.471035 0.00943959,-0.515356l-0.132109 -0.171845c0.0549744,-0.0750672 0.00746177,-0.016362 0.089766,-0.0622114 0.142987,-0.079742 0.129547,-0.113814 0.184117,-0.271815 0.0255318,-0.0738086 0.0739884,-0.154584 0.0733141,-0.230775 -0.00116871,-0.125636 -0.106577,-0.158945 -0.0702575,-0.22201 0.0600088,-0.104195 0.0967333,0.125816 0.371156,-0.215043 0.161552,-0.200659 0.129907,-0.0427478 0.155169,-0.43103 0.256622,0.0057087 0.139616,0.0996101 0.46263,-0.0801016 0.208615,-0.116107 0.159844,-0.0791577 0.25379,-0.332363 0.181375,0.0150584 0.0446807,0.160878 0.450178,0.0810905 0.259454,-0.0510187 0.162181,0.0288132 0.374797,-0.211357 0.0691337,0.0184746 0.0464787,0.0209019 0.0846866,0.0672908 0.114803,0.139346 0.116287,0.112601 0.304494,0.151393 0.254689,0.0525021 0.158765,0.0726848 0.457505,-0.0667064 0.12267,0.255633 -0.0706171,0.130356 0.28121,0.348366 0.20412,0.12649 0.0829335,0.106308 0.435255,0.107521 0.0179352,0.0381179 0.00867543,-0.0149235 0.000134851,0.0311057 -0.0404104,0.217155 -0.014519,0.169193 0.130491,0.359289 0.153461,0.201288 0.0660771,0.14537 0.390394,0.239181 -0.0201827,0.0756515 -0.0713813,0.116422 -0.0832931,0.200973 -0.0139346,0.0992056 0.119343,0.433996 0.131795,0.445279l0.19032 0.113635c-0.00489959,0.220167 -0.153146,0.00485464 -0.151887,0.41269 0.000359603,0.107072 -0.0246328,0.176071 -0.00539405,0.242463 0.0272849,0.0939464 0.0771799,0.114624 0.13557,0.191399l0 0.065223c-0.155618,0.00350613 -0.142718,0.0663468 -0.24907,0.0983515 -0.0731343,0.0219808 -0.0719656,0.00112376 -0.141594,0.0319148 -0.0325441,0.0143841 -0.0868442,0.0567274 -0.112151,0.0868442l-0.061672 0.0614472c-0.236934,0.200659 0.0102487,0.542372 -0.139886,0.624991 -0.0828886,0.0455797 -0.534056,-0.029038 -0.728376,0.0518278 -0.426624,0.177419 -0.666075,0.604493 -0.53936,1.06016 0.119298,0.429142 0.545069,0.732916 0.982526,0.577073 0.347152,-0.123659 0.445953,-0.37183 0.685179,-0.552261 0.138717,-0.1046 0.174138,-0.0901705 0.174138,-0.216796 0,-0.0499849 0.0155978,-0.0433322 -0.021711,-0.0433322 0,-0.0456696 0.00638296,-0.00184297 -0.0302516,-0.0216661 -0.15373,-0.0952949 -0.548979,0.127345 -0.628946,0.195354zm0.246688 -4.05988l0.0121816 -0.0432872c0.0836977,0.0403205 0.110173,0.00719207 0.118085,-0.0852709l0.0185196 -0.0232843c0.0635599,0.0831133 0.121636,0.173509 0.198591,0.24943l-0.0485015 0.0111028c-0.0626609,-0.0575815 -0.0980368,0.0401857 -0.125187,0.108555 -0.0182049,-0.0681898 -0.117186,-0.187308 -0.173688,-0.217245zm0.455932 0.694843l0.0257116 0 0.0828436 0c0.0179802,-0.0215762 0.00669761,-0.0210817 0.0137099,-0.0434221 0.00471979,-0.00373088 0.0123164,-0.0149685 0.0144291,-0.010833 0.00197782,0.00395564 0.0106982,-0.00849563 0.0132604,-0.010878 0.00323643,-0.00296673 0.0171261,-0.0161821 0.021756,-0.021711 0.0119568,0.098801 0.0640094,0.219178 0.088822,0.325666 -0.049895,-0.0333982 -0.0436469,-0.0414892 -0.130266,-0.0434221 -0.0191039,0.0340275 -0.0111028,0.019958 -0.01362,0.0651331l-0.0595143 0.021711c0.0129457,-0.104465 -0.0359603,-0.191444 -0.057132,-0.282244zm-0.04077 -0.021711c0.0474676,0 0.04077,-0.0146538 0.04077,0.021711l-0.04077 -0.021711zm-3.8888 -0.759842c0.033578,0 0.021756,-0.00678751 0.021756,0.0331285l-0.021711 -0.0114174 -4.49504e-005 -0.021711zm0.651331 -0.500568l0.021711 0.0502995c-0.0684595,0.00741682 -0.183622,0.0841022 -0.232169,0.124603 -0.0376684,0 -0.0283188,0.00948454 -0.0283188,-0.028094 0.00638296,-0.00656276 0.0494455,-0.0103835 0.0053491,-0.0822143 -0.0191938,-0.0312855 -0.016272,-0.0212166 -0.0632003,-0.0484565l-0.028993 -0.0148786c0.0827987,-0.0221156 0.160518,-0.0953848 0.238911,-0.130266l0.0433322 0.0211267c-0.0374437,0.0343421 -0.0200479,0.0133952 -0.021711,0.0874286 0.029892,0.0167665 0.0233293,0.0116422 0.0650882,0.0204524zm-1.43378 2.32421c-0.0331734,0.0210368 -0.00988909,0.00489959 -0.0600538,0.021711l0.0175756 -0.347377 0.0868442 0.0868442 0.108555 -0.0651331 0 0.303955c-0.0630205,-0.0422084 -0.0910246,-0.0854058 -0.152921,0zm1.23843 1.85407l0.0157326 -0.0304314 0.0059784 0.021711 -0.021711 0.00872038zm-0.947959 -2.96129l0.0678751 -0.021711 -0.14029 0.303955 -0.0434221 -0.0868442c-0.0586153,0.00485464 -0.0590648,0.0101588 -0.108555,0.021711l0.0868442 -0.303955c0.00346118,0.00395564 0.00750672,0.0057986 0.00890018,0.0130356 0.00188792,0.00988909 0.0146538,0.021801 0.018115,0.026251 0.0166317,0.021711 0.0409049,0.0530415 0.067066,0.0592446 0.107207,0.0255318 0.0302516,0.00377583 0.043467,-0.0116871zm0.178453 -0.564442l-0.0120467 -0.031735c0.0422983,-0.0442762 0.0531763,-0.0569971 0.0964186,-0.110893 0.0215312,-0.0268354 0.0361851,-0.0388372 0.050749,-0.0583906 0.032589,-0.0437817 0.0254869,-0.0195534 0.0273299,-0.0595143l0.042568 0.0216211c0.00332633,0.0895862 0.0227899,0.101498 0.108555,0.108645 -0.0429276,0.0641442 -0.136065,0.199085 -0.195399,0.238822 0.0215762,-0.101858 0.0165418,-0.04077 -0.0441863,-0.134222l-0.0739884 0.0256667zm3.20101 -0.749323l0.0337128 -0.0105184c0.0311506,0.0245429 0.0737187,0.0446358 0.113904,0.0694484 0.0241833,0.0149235 0.0440514,0.0288582 0.0685044,0.040815 0.0568173,0.0277794 0.0211716,0.01816 0.0661221,0.0225202l-0.0391069 0.0446807c-0.00301168,0.00283188 -0.0103386,0.00858553 -0.0130806,0.0110129 -0.00256217,0.00233742 -0.00863048,0.00651781 -0.0129457,0.00970929l-0.0434221 0.0189241 0 0.0867992c-0.0467035,-0.0246778 -0.0682797,-0.0403655 -0.109499,-0.0648634 -0.0236439,-0.0140245 -0.0236439,-0.0169913 -0.0566375,-0.0302516 -0.0711565,-0.0285435 -0.0284087,-0.0156877 -0.0726848,-0.0161372 0,-0.0496702 -0.0143841,-0.0407251 0.0285435,-0.0407251 0.0596042,-0.0501197 0.0823042,-0.0484116 0.0365896,-0.141414zm-3.60385 3.01671l0.0428827 -0.00957444c0.0644589,0.0478722 0.0929125,0.00939464 0.133817,-0.0396013l0.0186994 -0.0255318c0.00961939,0.115972 0.0641442,0.184971 0.0868442,0.282244l-0.0868442 -0.021711c-0.0227899,0.0272399 -0.00413544,0.0160473 -0.00714712,0.0434221 -0.054345,0.0274198 -0.0124513,-0.00409049 -0.048052,0.0301168 -0.00143841,0.00139346 -0.0233742,0.0322744 -0.0251722,0.0350164 -0.0387922,-0.103161 -0.0591547,-0.20403 -0.115028,-0.29438zm4.79792 -0.797465c0,-0.0504344 -0.0122265,-0.0370841 0.0395564,-0.0370841l0.00382079 0.0434221 0.151977 -0.0434221 -0.021711 0.325666c-0.053491,-0.0615821 0.00418039,-0.0461641 -0.151932,-0.0651331l-0.0434221 0.0434221c0.0345219,-0.0719207 0.021711,-0.16326 0.021711,-0.266871zm-2.90915 -2.41937c-0.0138447,-0.0289481 -0.0101138,-0.0318249 -0.021711,-0.0632902 0.0735389,0.0184746 0.209154,-0.0055289 0.266151,-0.0293526l0.0617619 0.00152831 -0.0239586 0.0391518 -0.0434221 0.0461641 0.0867992 0.108555 -0.282199 0.021711c0,-0.152112 -0.0106532,-0.116017 -0.0434221,-0.124468zm0.911819 0.133638l-0.0651331 -0.052592c0.0874735,0 0.00934969,0.0058885 0.0434221,-0.0313304 0.00323643,-0.00368593 0.0387473,0.04985 0.0167665,-0.0703024 -0.00773147,-0.0421185 -0.0129008,-0.0338477 -0.0384776,-0.0720555 0.0849113,0.0197782 0.1678,0.0576264 0.260533,0.0218459l0.0651331 0.0649983c-0.0877882,0 -0.00912493,-0.00710217 -0.0434221,0.0364098 -0.0267005,0.00422534 -0.0159124,-0.0159574 -0.0434221,0.00701226 0.00921483,0.111072 0.0164968,0.0293976 0.0434221,0.130266 -0.0648185,-0.0311057 -0.142628,-0.0500298 -0.238822,-0.0342522zm-1.41117 4.61434c-0.0178004,0.0303415 -0.00350613,0.0307011 -0.021711,0.000719207l0.021711 -0.000719207zm-0.021711 0.000719207l-0.0412645 0 -0.240934 -0.151977 0.108555 -0.0434221 0 -0.0868442c0.116422,0.0271051 0.121231,0.0937216 0.238777,0.100644l-0.0651331 0.0946206c-0.0457146,0.0408599 -0.0216661,0.041714 0,0.086979zm-0.911774 -0.68001c-0.000539405,-0.000988909 -0.0152831,-0.0504344 -0.021711,-0.0581658 0.128693,0 0.0567724,-0.00337128 0.0867992,-0.0278693l0.0434221 -0.080641c0.0766854,0.0513334 0.130896,0.135256 0.195399,0.217066 -0.11768,0.00265207 -0.0859002,0.0272849 -0.0869341,0.0434221 -0.0529516,0.0351063 -0.0432872,-0.0545698 -0.0440514,0.0664367l-0.0461641 -0.0230146 -0.12676 -0.137234zm4.10316 -0.340365l-0.173688 -0.151977 0 -0.0651331 0.325666 0.0434221c0,0.0929125 -0.0669312,0.173688 -0.151977,0.173688zm-4.27685 -0.303955l0 0zm-0.282244 -1.69337l0 0zm3.77754 -1.23748l0 0z"/>
   <path id="_339668920" class="fil1" d="M1.71657 3.47422l-0.838954 0.147932 -0.0311506 -0.17661c0.0560532,-0.0575815 0.111522,-0.118175 0.166766,-0.18169 0.0549744,-0.0635149 0.0987111,-0.11768 0.130716,-0.162226 0.0479171,-0.0662569 0.0805062,-0.122265 0.0976323,-0.168249 0.0169463,-0.0458944 0.0219358,-0.0891816 0.0147437,-0.129862 -0.00858553,-0.0487712 -0.0309259,-0.0836977 -0.0669312,-0.104645 -0.0360053,-0.0209019 -0.0834729,-0.0264758 -0.142268,-0.0160922 -0.0440514,0.00777642 -0.0887321,0.0252621 -0.134042,0.0519177 -0.0452651,0.0267005 -0.0862598,0.0578961 -0.122939,0.0934519l-0.0230146 0.00404554 -0.0418938 -0.237608c0.0314653,-0.0207221 0.0790228,-0.0445009 0.142538,-0.0708419 0.0637846,-0.0266556 0.128828,-0.0457146 0.195265,-0.0574466 0.133997,-0.023599 0.241024,-0.0136649 0.321261,0.0302516 0.0801915,0.0436918 0.129502,0.117096 0.147662,0.219942 0.0118669,0.0673807 0.00629306,0.134582 -0.0168115,0.201243 -0.0231045,0.0667064 -0.06347,0.138492 -0.121411,0.215357 -0.0364997,0.0478722 -0.0738086,0.0925978 -0.111747,0.133907 -0.0381629,0.0415791 -0.0653579,0.0705721 -0.081585,0.0873836l0.480115 -0.0846866 0.0360502 0.204524zm1.01646 -0.433052l-0.145504 0.0256667 0.0439166 0.249115 -0.263544 0.0464338 -0.0439166 -0.24907 -0.517334 0.0912044 -0.0356906 -0.202322 0.390889 -0.708149 0.28067 -0.0494904 0.110578 0.627058 0.145504 -0.0256667 0.034432 0.19522zm-0.443481 -0.123074l-0.0680549 -0.386079 -0.242552 0.440829 0.310607 -0.0547496zm1.22593 -0.912448l-0.33115 1.44947 -0.220437 0.0388372 0.329172 -1.44911 0.222415 -0.0391968zm1.13104 0.0692686l-0.332813 0.941396 -0.307191 0.0541203 0.350074 -0.952499 -0.548934 0.0967782 -0.0360502 -0.204479 0.837471 -0.147662 0.0374437 0.212346z"/>
  </g>
 </g>
</svg>
