<?xml version="1.0" encoding="UTF-8"?>
<!DOCTYPE svg PUBLIC "-//W3C//DTD SVG 1.1//EN" "http://www.w3.org/Graphics/SVG/1.1/DTD/svg11.dtd">
<!-- Creator: CorelDRAW X7 -->
<svg xmlns="http://www.w3.org/2000/svg" xml:space="preserve" width="42.7468mm" height="31.7905mm" version="1.1" style="shape-rendering:geometricPrecision; text-rendering:geometricPrecision; image-rendering:optimizeQuality; fill-rule:evenodd; clip-rule:evenodd"
viewBox="0 0 3604 2680"
 xmlns:xlink="http://www.w3.org/1999/xlink">
 <defs>
  <style type="text/css">
   <![CDATA[
    .str0 {stroke:#4D4D4D;stroke-width:8.43169;stroke-dasharray:50.564829 33.709886}
    .fil0 {fill:none}
    .fil2 {fill:#1A1A1A}
    .fil5 {fill:#E5097F}
    .fil1 {fill:#EBECEC}
    .fil4 {fill:#2B2A29;fill-rule:nonzero}
    .fil6 {fill:gray;fill-rule:nonzero}
    .fil3 {fill:#E5097F;fill-rule:nonzero}
   ]]>
  </style>
 </defs>
 <g id="Слой_x0020_1">
  <metadata id="CorelCorpID_0Corel-Layer"/>
  <polygon class="fil0 str0" points="4,4 3600,4 3600,2581 4,2581 "/>
  <polygon class="fil1" points="94,94 3510,94 3510,2491 94,2491 "/>
  <g id="_595156744">
   <path id="_595163632" class="fil2" d="M717 2653c0,5 4,11 7,15l4 4c2,2 4,4 8,6l11 2 5 0c4,0 8,-1 11,-1 9,-2 18,-7 25,-13l5 -4c4,-3 5,-5 8,-8 2,-2 4,-6 5,-8 9,-18 -4,-31 10,-39 3,-2 6,-2 9,-4 9,-5 23,-13 32,-19l16 -9c3,-1 5,-3 8,-4 17,-10 35,-21 52,-31l53 -30c-1,-1 -1,-1 -2,-1 -2,-1 -5,-2 -7,-2 -12,-2 -21,-1 -33,2 -3,1 -6,2 -9,3 -1,0 -1,0 -2,0 -4,2 -3,1 -7,3 -6,4 -16,10 -22,14 -2,1 -3,2 -4,3 -2,1 -3,1 -4,2 -2,1 -3,2 -4,3 -7,4 -19,11 -27,16l-15 9c-11,7 -21,13 -31,19l-17 11c-1,0 -2,1 -2,1 -3,2 -9,5 -12,7l-23 14c-3,1 -5,3 -8,4 -5,3 -19,11 -24,14 -4,3 -6,5 -10,9 -2,2 -6,8 -6,12zm66 -34c-1,0 -1,0 -1,0l-4 2c-9,6 -22,13 -32,18 -6,3 -12,7 -14,15 -2,10 6,12 15,13 13,0 26,-6 36,-14 6,-6 12,-12 14,-21 1,-6 1,-9 -3,-11 -2,-1 -8,-4 -11,-2z"/>
   <path id="_595158328" class="fil2" d="M724 2519c0,7 2,12 6,17 5,6 9,8 15,12 4,2 10,4 11,5 4,3 11,6 14,8 3,1 5,2 7,4 4,1 21,10 25,12 8,4 3,5 17,-4 3,-1 4,-2 7,-4 -1,0 -18,-10 -19,-11 -5,-3 -14,-6 -17,-13 -2,-7 2,-18 -1,-27 -3,-8 -7,-13 -13,-18 -2,-2 -6,-4 -9,-5l-14 -4 -4 0c-9,0 -17,6 -21,12 -2,4 -4,10 -4,16zm24 -15c-12,2 -18,18 -3,28 5,3 14,8 20,9 15,3 13,-17 8,-23 0,-1 -1,-2 -2,-3 -1,-2 -1,-1 -2,-3 -5,-5 -13,-9 -21,-8z"/>
   <path id="_595157848" class="fil2" d="M841 2602c1,0 3,1 4,2l12 8c3,2 5,3 8,5l69 45c5,3 8,3 16,3 2,0 4,0 6,0 2,0 4,0 7,0 4,0 8,0 12,0 4,-1 7,-2 11,-4 -1,-1 -14,-8 -16,-9 -12,-7 -27,-15 -39,-22 -12,-8 -26,-15 -39,-23 -5,-3 -11,-6 -16,-9l-15 -9c-3,2 -19,11 -20,13z"/>
  </g>
  <path class="fil3" d="M1572 1332c0,32 -4,62 -13,90 -8,27 -20,51 -37,70 -18,20 -41,35 -68,46 -27,10 -58,15 -94,15 -13,0 -27,-1 -41,-2 -15,-2 -25,-3 -29,-4l0 -76 10 0c5,3 12,5 22,8 9,3 22,4 39,4 13,0 26,-2 39,-5 13,-4 24,-9 33,-16 11,-8 19,-17 25,-29 7,-12 11,-26 13,-42 -14,9 -28,15 -41,20 -13,4 -29,6 -48,6 -14,0 -28,-1 -41,-5 -13,-3 -25,-9 -36,-16 -15,-10 -26,-24 -34,-40 -9,-17 -13,-38 -13,-63 0,-41 14,-75 43,-100 28,-26 66,-39 112,-39 24,0 45,3 64,9 18,6 34,16 48,29 15,15 27,34 35,56 8,23 12,51 12,84zm-99 -14c0,-21 -2,-39 -6,-52 -4,-14 -10,-24 -17,-31 -5,-6 -10,-10 -17,-12 -6,-3 -13,-4 -21,-4 -6,0 -13,1 -19,4 -6,2 -12,6 -17,12 -6,5 -10,12 -13,21 -4,9 -5,20 -5,32 0,12 1,22 5,30 4,9 9,15 15,20 6,4 13,8 21,10 8,1 17,2 27,2 8,0 16,-1 25,-3 9,-1 16,-3 21,-6 0,-1 0,-4 1,-8 0,-3 0,-8 0,-15zm474 14c0,32 -4,62 -13,90 -8,27 -20,51 -37,70 -18,20 -41,35 -68,46 -27,10 -58,15 -94,15 -13,0 -27,-1 -41,-2 -15,-2 -25,-3 -30,-4l0 -76 11 0c5,3 12,5 22,8 9,3 22,4 39,4 13,0 26,-2 39,-5 13,-4 24,-9 33,-16 10,-8 19,-17 25,-29 7,-12 11,-26 13,-42 -14,9 -28,15 -41,20 -13,4 -29,6 -48,6 -14,0 -28,-1 -41,-5 -13,-3 -25,-9 -36,-16 -15,-10 -26,-24 -34,-40 -9,-17 -13,-38 -13,-63 0,-41 14,-75 43,-100 28,-26 66,-39 112,-39 24,0 45,3 64,9 18,6 34,16 48,29 15,15 27,34 35,56 8,23 12,51 12,84zm-99 -14c0,-21 -2,-39 -6,-52 -4,-14 -10,-24 -17,-31 -5,-6 -10,-10 -17,-12 -6,-3 -13,-4 -21,-4 -6,0 -13,1 -19,4 -6,2 -12,6 -17,12 -6,5 -10,12 -13,21 -4,9 -5,20 -5,32 0,12 1,22 5,30 4,9 9,15 15,20 6,4 13,8 21,10 8,1 17,2 27,2 8,0 16,-1 25,-3 9,-1 16,-3 21,-6 0,-1 0,-4 1,-8 0,-3 0,-8 0,-15zm478 117c0,29 -12,53 -37,74 -24,21 -56,33 -97,36l0 93 -44 0 0 -92c-20,0 -42,-2 -67,-7 -25,-4 -45,-10 -59,-17l0 -75 11 0c16,9 34,16 55,21 20,5 41,9 61,10l0 -71 -25 -5c-16,-4 -31,-8 -44,-13 -13,-5 -25,-11 -34,-19 -10,-8 -17,-18 -23,-29 -5,-12 -8,-26 -8,-43 0,-26 12,-48 35,-66 24,-18 56,-29 98,-33l0 -60 44 0 0 60c16,0 35,2 56,6 21,4 38,8 50,13l0 74 -11 0c-13,-7 -27,-12 -43,-17 -16,-5 -33,-8 -52,-9l0 66 21 4c39,7 67,19 86,34 18,16 27,37 27,65zm-174 -109l0 -60c-12,1 -22,4 -31,9 -9,5 -13,12 -13,21 0,8 2,14 8,19 6,4 18,8 36,11zm80 119c0,-10 -4,-18 -13,-23 -9,-5 -18,-8 -28,-9l0 64c12,-1 21,-5 29,-10 8,-5 12,-13 12,-22z"/>
  <path class="fil4" d="M2912 265c0,10 -2,19 -7,27 -4,8 -10,15 -17,19 -5,3 -10,5 -17,7 -6,1 -14,2 -24,2l-27 0 0 -110 27 0c10,0 19,1 25,3 7,1 12,3 16,6 8,5 13,11 18,19 4,7 6,17 6,27zm-15 0c0,-9 -2,-16 -5,-22 -3,-5 -7,-10 -13,-13 -4,-3 -9,-5 -14,-6 -5,-1 -11,-1 -17,-1l-14 0 0 84 14 0c7,0 13,0 18,-1 5,-1 10,-3 14,-6 6,-4 10,-8 13,-14 2,-6 4,-13 4,-21zm129 55l-19 0 -37 -44 -20 0 0 44 -15 0 0 -110 31 0c7,0 12,1 17,2 4,1 8,2 12,4 3,3 7,6 9,10 2,3 3,8 3,14 0,8 -2,15 -6,20 -4,5 -9,9 -16,12l41 48zm-34 -79c0,-3 -1,-6 -2,-8 -1,-2 -3,-5 -5,-6 -2,-2 -5,-3 -8,-3 -3,-1 -6,-1 -10,-1l-17 0 0 41 15 0c4,0 8,0 12,-1 3,-1 6,-2 8,-5 3,-2 4,-4 5,-7 1,-2 2,-6 2,-10zm120 79l-72 0 0 -110 72 0 0 13 -57 0 0 30 57 0 0 13 -57 0 0 41 57 0 0 13zm109 0l-15 0 -11 -31 -47 0 -11 31 -15 0 40 -110 19 0 40 110zm-31 -43l-19 -54 -19 54 38 0zm145 43l-14 0 0 -94 -31 64 -8 0 -31 -64 0 94 -13 0 0 -110 20 0 29 61 28 -61 20 0 0 110zm-1025 175c-6,2 -13,5 -20,7 -7,2 -14,3 -20,3 -9,0 -17,-1 -24,-4 -7,-2 -13,-6 -18,-10 -5,-5 -9,-11 -12,-18 -2,-7 -4,-16 -4,-25 0,-18 5,-31 16,-42 10,-10 24,-15 42,-15 6,0 12,1 19,2 6,2 13,4 21,8l0 17 -2 0c-1,-1 -3,-2 -6,-4 -3,-2 -6,-4 -9,-5 -3,-1 -7,-3 -11,-4 -4,-1 -9,-1 -15,-1 -12,0 -22,4 -29,12 -7,7 -10,18 -10,31 0,15 3,26 11,33 7,8 17,12 30,12 5,0 9,0 14,-1 5,-1 9,-2 12,-4l0 -26 -29 0 0 -13 44 0 0 47zm111 8l-15 0 -11 -31 -47 0 -11 31 -15 0 40 -110 20 0 39 110zm-30 -43l-19 -54 -20 54 39 0zm138 43l-19 0 -37 -44 -20 0 0 44 -15 0 0 -110 31 0c6,0 12,1 16,1 5,1 9,3 12,5 4,3 7,6 9,9 3,4 4,9 4,15 0,8 -2,14 -6,20 -4,5 -10,9 -17,12l42 48zm-34 -79c0,-3 -1,-6 -2,-8 -1,-3 -3,-5 -5,-6 -3,-2 -5,-3 -8,-3 -3,-1 -6,-1 -10,-1l-17 0 0 41 14 0c5,0 9,-1 12,-1 4,-1 7,-3 9,-5 2,-2 4,-4 5,-7 1,-3 2,-6 2,-10zm131 79l-15 0 -11 -31 -47 0 -11 31 -15 0 40 -110 19 0 40 110zm-31 -43l-19 -54 -19 54 38 0zm139 35c-6,2 -13,5 -20,7 -7,2 -13,3 -20,3 -9,0 -16,-1 -24,-4 -7,-2 -13,-6 -18,-10 -5,-5 -9,-11 -11,-18 -3,-7 -4,-16 -4,-25 0,-18 5,-31 15,-42 10,-10 24,-15 42,-15 6,0 13,1 19,2 7,2 13,4 21,8l0 17 -1 0c-2,-1 -4,-2 -7,-4 -3,-2 -6,-4 -8,-5 -4,-1 -8,-3 -12,-4 -4,-1 -9,-1 -15,-1 -12,0 -21,4 -29,12 -7,7 -10,18 -10,31 0,15 3,26 11,33 7,8 17,12 30,12 5,0 10,0 14,-1 5,-1 9,-2 13,-4l0 -26 -30 0 0 -13 44 0 0 47zm97 8l-72 0 0 -110 72 0 0 13 -57 0 0 30 57 0 0 13 -57 0 0 41 57 0 0 13zm169 -55c0,10 -2,19 -7,27 -4,8 -10,14 -17,19 -5,3 -11,5 -17,6 -6,2 -14,3 -24,3l-28 0 0 -110 28 0c10,0 19,1 25,2 6,2 12,4 16,7 8,4 13,11 18,18 4,8 6,17 6,28zm-15 0c0,-9 -2,-16 -5,-22 -3,-6 -7,-10 -13,-14 -5,-2 -9,-4 -14,-5 -5,-1 -11,-1 -17,-1l-14 0 0 84 14 0c7,0 13,-1 18,-2 5,-1 10,-3 14,-5 6,-4 10,-8 13,-14 2,-6 4,-13 4,-21zm120 -42c4,5 8,11 10,18 2,7 4,15 4,24 0,9 -2,17 -4,24 -3,7 -6,13 -10,18 -5,5 -10,9 -16,11 -6,3 -13,4 -21,4 -8,0 -15,-2 -21,-4 -7,-3 -12,-6 -16,-11 -5,-5 -8,-11 -10,-18 -3,-7 -4,-15 -4,-24 0,-9 1,-17 4,-24 2,-7 5,-13 10,-18 4,-5 9,-9 16,-11 6,-3 13,-4 21,-4 8,0 15,1 21,4 6,2 11,6 16,11zm-2 42c0,-14 -3,-25 -9,-33 -7,-8 -15,-11 -26,-11 -11,0 -20,3 -26,11 -7,8 -10,19 -10,33 0,14 3,25 10,33 6,7 15,11 26,11 11,0 19,-4 26,-11 6,-8 9,-19 9,-33zm120 -42c5,5 8,11 10,18 3,7 4,15 4,24 0,9 -1,17 -4,24 -2,7 -6,13 -10,18 -4,5 -10,9 -16,11 -6,3 -13,4 -21,4 -8,0 -15,-2 -21,-4 -6,-3 -11,-6 -16,-11 -4,-5 -8,-11 -10,-18 -2,-7 -4,-15 -4,-24 0,-9 2,-17 4,-24 2,-7 6,-13 10,-18 4,-5 10,-9 16,-11 7,-3 14,-4 21,-4 8,0 15,1 21,4 6,2 12,6 16,11zm-1 42c0,-14 -3,-25 -10,-33 -6,-8 -15,-11 -26,-11 -11,0 -20,3 -26,11 -6,8 -9,19 -9,33 0,14 3,25 9,33 7,7 15,11 26,11 11,0 20,-4 26,-11 7,-8 10,-19 10,-33zm129 55l-19 0 -37 -44 -20 0 0 44 -15 0 0 -110 31 0c6,0 12,1 16,1 5,1 9,3 12,5 4,3 7,6 10,9 2,4 3,9 3,15 0,8 -2,14 -6,20 -4,5 -10,9 -16,12l41 48zm-34 -79c0,-3 -1,-6 -2,-8 -1,-3 -3,-5 -5,-6 -3,-2 -5,-3 -8,-3 -3,-1 -6,-1 -10,-1l-17 0 0 41 14 0c5,0 9,-1 12,-1 4,-1 7,-3 9,-5 2,-2 4,-4 5,-7 1,-3 2,-6 2,-10zm-1163 230c0,4 -1,9 -3,13 -2,4 -5,7 -8,10 -4,3 -9,6 -14,8 -5,1 -12,2 -19,2 -8,0 -15,0 -21,-2 -6,-1 -13,-4 -19,-6l0 -19 1 0c5,5 12,8 19,11 7,2 14,4 20,4 9,0 16,-2 21,-5 5,-4 8,-8 8,-14 0,-5 -2,-8 -4,-11 -2,-2 -6,-4 -11,-5 -3,-1 -7,-2 -12,-2 -4,-1 -8,-2 -13,-3 -10,-2 -17,-5 -22,-10 -4,-5 -7,-12 -7,-20 0,-9 4,-16 12,-22 8,-6 17,-9 29,-9 8,0 15,1 21,2 7,2 13,4 17,6l0 17 -1 0c-4,-4 -9,-7 -16,-9 -7,-2 -14,-3 -21,-3 -8,0 -14,1 -19,4 -4,4 -7,8 -7,13 0,4 2,8 4,11 2,2 6,4 12,6 3,0 8,1 14,2 5,1 10,2 14,3 8,2 15,5 19,10 4,4 6,10 6,18zm95 -45c0,5 -1,9 -3,13 -1,5 -4,8 -7,11 -4,4 -8,7 -13,9 -5,2 -12,3 -20,3l-14 0 0 40 -15 0 0 -109 30 0c7,0 12,1 17,2 4,1 8,2 12,5 4,3 7,6 9,10 3,4 4,10 4,16zm-15 0c0,-3 -1,-7 -2,-9 -2,-3 -4,-5 -6,-7 -3,-2 -5,-3 -8,-3 -3,-1 -7,-1 -12,-1l-14 0 0 43 12 0c6,0 11,-1 14,-2 4,-1 7,-2 9,-5 3,-2 4,-4 5,-7 1,-3 2,-5 2,-9zm106 76l-72 0 0 -109 72 0 0 13 -57 0 0 30 57 0 0 13 -57 0 0 40 57 0 0 13zm108 -8c-3,2 -6,3 -8,4 -2,1 -5,2 -8,3 -3,1 -7,2 -10,2 -4,1 -7,1 -12,1 -8,0 -15,-1 -21,-3 -7,-2 -12,-6 -17,-11 -5,-4 -9,-10 -11,-17 -3,-7 -4,-16 -4,-25 0,-9 1,-17 4,-24 2,-7 6,-13 11,-18 4,-5 10,-9 17,-11 6,-3 13,-4 21,-4 6,0 12,1 18,2 6,2 12,4 20,8l0 17 -2 0c-6,-5 -12,-9 -17,-11 -6,-2 -13,-3 -19,-3 -6,0 -11,1 -15,2 -5,2 -9,5 -12,9 -4,3 -6,8 -8,13 -2,6 -3,12 -3,20 0,7 1,14 3,20 2,5 5,10 8,13 4,4 8,6 12,8 5,2 10,3 15,3 7,0 13,-2 19,-4 6,-2 12,-6 18,-11l1 0 0 17zm59 8l-43 0 0 -11 14 0 0 -87 -14 0 0 -11 43 0 0 11 -15 0 0 87 15 0 0 11zm111 0l-16 0 -11 -30 -47 0 -11 30 -14 0 39 -109 20 0 40 109zm-31 -43l-19 -53 -19 53 38 0zm117 43l-70 0 0 -109 15 0 0 96 55 0 0 13zm148 -96c5,4 8,10 11,18 2,7 3,15 3,24 0,9 -1,17 -4,24 -2,7 -5,13 -10,18 -4,5 -10,8 -16,11 -6,2 -13,4 -21,4 -7,0 -14,-2 -21,-4 -6,-3 -11,-6 -16,-11 -4,-5 -7,-11 -10,-18 -2,-7 -3,-15 -3,-24 0,-9 1,-17 3,-24 2,-7 6,-13 10,-18 5,-5 10,-9 16,-11 7,-3 14,-4 21,-4 8,0 15,1 21,4 7,2 12,6 16,11zm-1 42c0,-15 -3,-25 -10,-33 -6,-8 -15,-12 -26,-12 -11,0 -19,4 -26,12 -6,8 -9,18 -9,33 0,14 3,25 9,33 7,7 16,11 26,11 11,0 20,-4 26,-11 7,-8 10,-19 10,-33zm108 -42l-55 0 0 31 47 0 0 13 -47 0 0 52 -15 0 0 -109 70 0 0 13zm87 0l-56 0 0 31 48 0 0 13 -48 0 0 52 -14 0 0 -109 70 0 0 13zm88 96l-72 0 0 -109 72 0 0 13 -57 0 0 30 57 0 0 13 -57 0 0 40 57 0 0 13zm114 0l-19 0 -37 -43 -20 0 0 43 -15 0 0 -109 31 0c7,0 12,0 16,1 5,1 9,3 12,5 4,2 7,5 10,9 2,4 3,9 3,15 0,8 -2,14 -6,19 -4,6 -9,10 -16,13l41 47zm-34 -78c0,-3 -1,-6 -2,-8 -1,-3 -3,-5 -5,-7 -2,-1 -5,-2 -8,-3 -3,0 -6,0 -10,0l-17 0 0 41 15 0c4,0 8,-1 12,-2 3,0 6,-2 8,-4 3,-2 4,-4 5,-7 1,-3 2,-6 2,-10zm127 47c0,4 -1,9 -3,13 -2,4 -5,7 -8,10 -4,3 -9,6 -14,8 -5,1 -11,2 -19,2 -8,0 -15,0 -21,-2 -6,-1 -13,-4 -19,-6l0 -19 1 0c5,5 12,8 19,11 7,2 14,4 20,4 9,0 16,-2 21,-5 5,-4 8,-8 8,-14 0,-5 -1,-8 -4,-11 -2,-2 -6,-4 -10,-5 -4,-1 -8,-2 -12,-2 -5,-1 -9,-2 -14,-3 -10,-2 -17,-5 -22,-10 -4,-5 -7,-12 -7,-20 0,-9 4,-16 12,-22 8,-6 18,-9 30,-9 7,0 14,1 21,2 6,2 12,4 17,6l0 17 -1 0c-4,-4 -10,-7 -17,-9 -6,-2 -13,-3 -20,-3 -8,0 -15,1 -19,4 -5,4 -7,8 -7,13 0,4 1,8 3,11 3,2 7,4 13,6 3,0 7,1 13,2 6,1 11,2 15,3 8,2 14,5 18,10 4,4 6,10 6,18z"/>
  <path id="_375678808" class="fil5" d="M228 676l409 0 0 -205 -56 0 0 149 -297 0 0 -297 148 0 0 -56 -204 0 0 409zm409 -261l0 -148 -148 0 0 56 92 0 0 92 56 0z"/>
  <g id="_770851424">
   <path id="_375679576" class="fil6" d="M742 521l0 -214c0,-12 5,-23 13,-30 9,-8 19,-12 30,-12 10,0 19,3 28,8 9,5 16,13 21,23l39 83 0 -112 80 0 0 214c0,15 -4,26 -13,34 -8,8 -17,12 -29,12 -9,0 -18,-3 -27,-8 -8,-5 -15,-12 -20,-21l-42 -80 0 103 -80 0z"/>
   <path id="_375679696" class="fil6" d="M962 543l19 -246c0,-15 7,-28 20,-37 13,-10 27,-15 43,-15 14,0 26,4 37,11 11,8 18,19 21,34l23 96 27 -102c2,-11 10,-20 21,-27 12,-7 25,-11 39,-11 16,0 30,5 41,14 13,10 20,25 20,43l20 240 -89 0 -10 -170 -36 150c-2,8 -5,13 -11,18 -6,4 -12,6 -20,6 -7,0 -13,-2 -18,-5 -6,-4 -9,-9 -10,-16l-39 -153 -11 170 -87 0z"/>
   <path id="_368675264" class="fil6" d="M1308 534l0 -81 62 0c6,0 12,-1 17,-3 5,-2 8,-5 8,-9 0,-1 0,-3 -1,-4 -2,-4 -5,-7 -9,-9 -26,-19 -44,-34 -54,-46 -15,-17 -23,-36 -23,-56l0 -3c0,-24 11,-42 34,-54 17,-8 35,-12 56,-12l84 0 0 75 -58 0c-7,0 -12,1 -16,3 -4,2 -6,4 -6,7 0,3 3,7 9,12 32,24 49,38 54,42 17,17 26,36 26,54l0 10c0,24 -10,42 -31,56 -18,12 -39,18 -65,18l-87 0z"/>
  </g>
  <path id="_491115792" class="fil6" d="M745 612l9 0 37 55 0 -55 7 0 0 66 -7 0 -39 -58 0 58 -7 0 0 -66zm70 44c0,3 1,6 3,8 1,3 4,5 7,6 2,2 5,3 8,3 3,0 5,-1 7,-2 3,-1 5,-2 6,-3 2,-2 4,-4 5,-6l6 0c-1,3 -2,6 -5,9 -2,2 -5,4 -8,6 -4,1 -7,2 -10,2 -5,0 -9,-1 -13,-4 -4,-2 -7,-5 -9,-9 -3,-4 -4,-8 -4,-13 0,-4 1,-8 4,-12 2,-4 5,-7 9,-10 4,-2 8,-3 13,-3 3,0 7,1 10,2 4,2 7,4 9,7 2,3 4,6 5,9 0,3 1,6 1,10l-44 0zm37 -6c0,-3 -1,-6 -3,-8 -2,-2 -4,-4 -7,-6 -3,-1 -5,-2 -8,-2 -3,0 -6,1 -9,2 -3,2 -5,3 -7,6 -1,2 -3,5 -3,8l37 0zm66 28l-7 0 0 -9c-1,2 -3,4 -5,5 -2,2 -4,3 -6,4 -3,0 -5,1 -8,1 -3,0 -7,-1 -11,-3 -4,-1 -7,-4 -10,-7 -1,-2 -2,-4 -3,-7 -1,-2 -2,-6 -2,-9 0,-3 1,-6 2,-9 1,-3 2,-5 3,-6 7,-7 14,-10 21,-10 4,0 8,1 11,3 4,1 6,4 8,7l0 -9 7 0 0 49zm-45 -24c0,3 1,6 2,9 2,3 5,5 8,7 3,2 6,3 9,3 4,0 7,-1 10,-3 3,-2 5,-4 7,-7 1,-3 2,-6 2,-9 0,-4 -1,-7 -2,-10 -2,-3 -4,-5 -7,-7 -3,-2 -6,-3 -10,-3 -3,0 -7,1 -10,3 -3,2 -5,4 -7,7 -1,3 -2,6 -2,10zm56 -25l6 0 0 7c2,-5 7,-8 14,-8l0 6c-3,1 -6,2 -9,4 -2,2 -3,3 -4,5 0,2 -1,4 -1,8l0 27 -6 0 0 -49zm52 -17l10 0 24 56 24 -56 11 0 0 66 -7 0 0 -59 -25 59 -5 0 -25 -59 0 59 -7 0 0 -66zm86 44c0,3 1,6 3,8 1,3 4,5 6,6 3,2 6,3 9,3 2,0 5,-1 7,-2 2,-1 4,-2 6,-3 2,-2 4,-4 4,-6l7 0c-1,3 -3,6 -5,9 -2,2 -5,4 -8,6 -4,1 -7,2 -10,2 -5,0 -9,-1 -13,-4 -4,-2 -7,-5 -10,-9 -2,-4 -3,-8 -3,-13 0,-4 1,-8 3,-12 3,-4 6,-7 10,-10 4,-2 8,-3 12,-3 4,0 8,1 11,2 4,2 7,4 9,7 2,3 4,6 4,9 1,3 2,6 2,10l-44 0zm37 -6c0,-3 -2,-6 -3,-8 -2,-2 -4,-4 -7,-6 -3,-1 -6,-2 -8,-2 -3,0 -6,1 -9,2 -3,2 -5,3 -7,6 -2,2 -3,5 -3,8l37 0zm44 9c0,3 1,5 2,7 1,2 2,4 4,5 2,1 5,2 7,2 2,0 5,-1 7,-2 2,-1 4,-3 5,-5 1,-2 2,-4 2,-6 0,-2 -1,-4 -2,-6 0,-1 -2,-3 -3,-4 -1,-1 -3,-2 -4,-2 -2,-1 -4,-2 -6,-2 -3,-1 -5,-2 -7,-2 -2,-1 -3,-2 -5,-3 -3,-3 -5,-7 -5,-12 0,-4 1,-7 2,-10 2,-2 4,-4 7,-6 3,-1 6,-2 10,-2 3,0 6,1 9,2 2,2 5,4 6,7 2,2 3,5 3,9l-7 0c0,-3 -1,-4 -2,-6 -1,-2 -3,-3 -4,-4 -2,-1 -4,-2 -6,-2 -2,0 -4,1 -6,2 -2,1 -3,2 -4,4 -1,2 -2,4 -2,6 0,2 1,4 2,6 1,1 3,2 5,3 1,1 4,2 6,2 4,1 6,2 8,3 2,0 3,1 5,3 2,2 4,4 5,6 1,3 1,5 1,8 0,3 -1,6 -3,9 -1,3 -4,6 -7,7 -3,2 -6,3 -10,3 -4,0 -7,-1 -10,-3 -3,-1 -6,-4 -7,-7 -2,-3 -3,-6 -3,-10l7 0zm45 -3c1,3 2,6 3,8 2,3 4,5 7,6 3,2 6,3 9,3 2,0 5,-1 7,-2 2,-1 4,-2 6,-3 2,-2 3,-4 4,-6l7 0c-1,3 -3,6 -5,9 -3,2 -5,4 -9,6 -3,1 -6,2 -10,2 -4,0 -9,-1 -12,-4 -4,-2 -7,-5 -10,-9 -2,-4 -3,-8 -3,-13 0,-4 1,-8 3,-12 3,-4 6,-7 9,-10 4,-2 9,-3 13,-3 4,0 8,1 11,2 3,2 6,4 9,7 2,3 3,6 4,9 1,3 1,6 2,10l-45 0zm38 -6c-1,-3 -2,-6 -4,-8 -1,-2 -4,-4 -6,-6 -3,-1 -6,-2 -9,-2 -3,0 -6,1 -8,2 -3,2 -5,3 -7,6 -2,2 -3,5 -4,8l38 0zm16 -21l6 0 0 7c2,-5 7,-8 14,-8l0 6c-4,1 -6,2 -9,4 -2,2 -3,3 -4,5 -1,2 -1,4 -1,8l0 27 -6 0 0 -49zm21 0l8 0 16 40 17 -40 7 0 -20 49 -7 0 -21 -49zm55 0l6 0 0 49 -6 0 0 -49zm0 -17l6 0 0 11 -6 0 0 -11zm66 52c-2,4 -6,8 -10,11 -4,3 -9,4 -14,4 -5,0 -9,-1 -13,-3 -4,-3 -7,-6 -10,-10 -2,-3 -3,-8 -3,-13 0,-4 1,-9 3,-12 3,-4 6,-7 10,-10 4,-2 8,-3 13,-3 3,0 7,1 10,2 3,1 6,3 8,5 3,3 5,6 6,9l-7 0c-2,-2 -3,-4 -5,-5 -1,-2 -3,-3 -6,-4 -2,0 -4,-1 -6,-1 -4,0 -7,1 -10,3 -3,1 -5,4 -7,7 -2,2 -3,6 -3,9 0,4 1,7 3,10 1,3 4,5 7,7 3,2 6,3 9,3 4,0 7,-1 10,-3 3,-1 5,-3 8,-6l7 0zm14 -8c0,3 1,6 3,8 1,3 4,5 6,6 3,2 6,3 9,3 3,0 5,-1 7,-2 2,-1 5,-2 6,-3 2,-2 4,-4 5,-6l6 0c-1,3 -3,6 -5,9 -2,2 -5,4 -8,6 -4,1 -7,2 -10,2 -5,0 -9,-1 -13,-4 -4,-2 -7,-5 -9,-9 -3,-4 -4,-8 -4,-13 0,-4 1,-8 4,-12 2,-4 5,-7 9,-10 4,-2 8,-3 13,-3 3,0 7,1 10,2 4,2 7,4 9,7 2,3 4,6 4,9 1,3 2,6 2,10l-44 0zm37 -6c0,-3 -2,-6 -3,-8 -2,-2 -4,-4 -7,-6 -3,-1 -5,-2 -8,-2 -3,0 -6,1 -9,2 -3,2 -5,3 -7,6 -2,2 -3,5 -3,8l37 0zm18 13c0,2 1,4 2,5 0,1 1,2 3,3 1,1 3,2 4,2 3,0 5,-1 6,-3 2,-1 3,-3 3,-6 0,-2 -1,-4 -3,-6 -1,-1 -4,-2 -7,-3 -2,-1 -4,-1 -5,-2 -1,0 -2,-1 -3,-2 -3,-2 -4,-6 -4,-9 0,-3 0,-5 2,-7 1,-2 3,-4 5,-5 2,-1 4,-2 7,-2 2,0 4,1 6,2 2,1 4,3 5,5 2,2 2,4 2,6l-6 0c0,-2 -1,-4 -3,-5 -1,-1 -3,-2 -5,-2 -2,0 -3,1 -5,2 -1,2 -2,3 -2,5 0,2 1,3 1,4 1,1 2,2 3,2 1,1 3,2 5,2 3,1 5,2 7,3 2,1 3,3 5,5 1,1 1,4 1,6 0,3 0,6 -2,8 -1,3 -3,5 -5,6 -3,1 -5,2 -8,2 -3,0 -5,-1 -8,-2 -2,-2 -4,-3 -5,-6 -1,-2 -2,-5 -2,-8l6 0z"/>
  <path class="fil4" d="M1607 1885c0,18 -4,35 -13,50 -8,15 -19,26 -32,34 -10,6 -21,10 -32,13 -12,2 -26,3 -42,3l-71 0 0 -201 73 0c16,0 31,1 43,4 11,3 21,7 30,12 13,8 24,20 32,34 8,14 12,31 12,51zm-54 -1c0,-13 -2,-24 -7,-34 -5,-9 -12,-16 -23,-22 -5,-2 -10,-4 -16,-5 -5,-1 -14,-1 -25,-1l-13 0 0 125 13 0c12,0 21,0 27,-1 6,-2 12,-4 17,-7 9,-5 16,-12 21,-21 4,-9 6,-20 6,-34zm240 101l-146 0 0 -201 146 0 0 39 -94 0 0 35 87 0 0 39 -87 0 0 49 94 0 0 39zm189 0l-146 0 0 -201 146 0 0 39 -94 0 0 35 87 0 0 39 -87 0 0 49 94 0 0 39zm210 -138c0,9 -2,18 -5,27 -3,8 -8,16 -14,22 -8,7 -17,13 -26,17 -10,5 -23,7 -37,7l-33 0 0 65 -52 0 0 -201 86 0c13,0 23,1 32,3 9,2 17,6 24,10 8,5 14,12 18,20 4,9 7,19 7,30zm-54 2c0,-6 -2,-11 -5,-15 -3,-4 -7,-7 -11,-9 -5,-2 -10,-3 -15,-3 -5,0 -12,0 -21,0l-9 0 0 60 15 0c9,0 16,-1 22,-2 6,-1 10,-3 14,-6 3,-3 6,-7 7,-11 2,-4 3,-9 3,-14zm-1498 477c-15,0 -29,-2 -42,-7 -13,-4 -24,-11 -33,-19 -9,-9 -16,-20 -21,-33 -5,-13 -7,-28 -7,-46 0,-16 2,-30 7,-43 5,-13 12,-24 21,-34 8,-9 19,-15 32,-20 13,-5 27,-8 43,-8 8,0 16,1 23,2 6,1 13,2 19,3 6,2 11,4 16,6 5,2 9,4 13,6l0 49 -6 0c-3,-2 -6,-5 -10,-8 -3,-3 -8,-6 -13,-8 -5,-3 -10,-6 -16,-8 -6,-2 -12,-3 -18,-3 -8,0 -15,2 -21,4 -7,2 -13,6 -18,11 -6,5 -10,12 -13,21 -4,8 -5,18 -5,30 0,13 1,24 5,32 4,9 8,15 14,20 5,5 11,9 18,11 7,2 13,3 20,3 6,0 13,-1 19,-3 6,-2 12,-4 17,-7 4,-3 8,-6 12,-9 4,-3 7,-5 9,-7l6 0 0 48c-5,2 -10,4 -15,6 -4,2 -9,4 -14,5 -7,2 -13,4 -19,5 -5,0 -13,1 -23,1zm254 -4l-145 0 0 -202 52 0 0 163 93 0 0 39zm177 0l-145 0 0 -202 145 0 0 40 -93 0 0 34 87 0 0 39 -87 0 0 50 93 0 0 39zm230 0l-54 0 -14 -41 -74 0 -14 41 -53 0 75 -202 59 0 75 202zm-81 -78l-24 -71 -25 71 49 0zm293 78l-50 0 -86 -138 0 138 -47 0 0 -202 62 0 73 116 0 -116 48 0 0 202zm160 0l-118 0 0 -36 33 0 0 -130 -33 0 0 -36 118 0 0 36 -33 0 0 130 33 0 0 36zm226 0l-51 0 -85 -138 0 138 -48 0 0 -202 63 0 73 116 0 -116 48 0 0 202zm229 -12c-9,4 -21,7 -36,11 -15,3 -29,5 -44,5 -35,0 -61,-9 -81,-28 -19,-19 -29,-44 -29,-77 0,-32 10,-57 29,-76 20,-19 47,-29 82,-29 14,0 26,2 38,4 12,2 26,7 40,14l0 47 -6 0c-2,-1 -6,-4 -11,-8 -5,-3 -9,-6 -14,-8 -5,-3 -11,-6 -18,-8 -7,-2 -14,-3 -22,-3 -10,0 -18,1 -25,4 -8,3 -15,7 -20,13 -6,5 -11,12 -14,20 -3,8 -5,18 -5,29 0,22 6,39 18,51 12,12 29,18 52,18 2,0 5,0 7,0 2,0 4,0 6,-1l0 -39 -40 0 0 -38 93 0 0 99zm302 -51c0,19 -8,35 -25,48 -17,12 -40,18 -68,18 -17,0 -32,-1 -44,-4 -12,-3 -24,-7 -35,-11l0 -48 6 0c11,8 23,15 36,19 13,5 26,7 38,7 3,0 7,0 13,-1 5,0 9,-1 12,-2 4,-2 7,-4 10,-6 3,-3 4,-6 4,-11 0,-5 -2,-8 -6,-12 -4,-3 -9,-5 -16,-7 -8,-2 -16,-3 -24,-5 -9,-2 -17,-4 -24,-6 -17,-5 -29,-13 -36,-22 -8,-10 -12,-21 -12,-35 0,-19 9,-34 26,-46 16,-12 38,-18 64,-18 14,0 27,1 40,4 13,2 24,6 33,9l0 47 -5 0c-8,-7 -18,-12 -30,-17 -12,-4 -24,-6 -36,-6 -4,0 -9,0 -13,1 -4,0 -8,2 -12,3 -4,2 -7,4 -9,6 -3,3 -4,6 -4,10 0,5 2,9 6,12 4,3 12,5 23,8 7,1 14,3 21,4 7,2 14,4 22,6 16,5 27,12 34,21 8,8 11,20 11,34zm232 -38c0,32 -9,58 -28,77 -18,19 -44,28 -76,28 -32,0 -58,-9 -76,-28 -19,-19 -28,-45 -28,-77 0,-32 9,-58 28,-76 18,-19 44,-29 76,-29 32,0 58,10 76,29 19,18 28,44 28,76zm-69 51c5,-6 9,-13 11,-21 3,-9 4,-19 4,-30 0,-12 -1,-22 -4,-31 -3,-8 -7,-15 -11,-20 -5,-6 -10,-10 -16,-12 -6,-3 -12,-4 -19,-4 -6,0 -13,1 -18,4 -6,2 -12,6 -16,11 -5,5 -9,12 -12,21 -2,9 -4,19 -4,31 0,12 2,22 4,31 3,8 7,15 11,20 5,6 10,10 16,12 6,3 12,4 19,4 7,0 13,-1 19,-4 6,-2 12,-6 16,-12zm253 -112l-92 0 0 37 85 0 0 39 -85 0 0 86 -52 0 0 -202 144 0 0 40zm222 162l-54 0 -14 -41 -74 0 -14 41 -53 0 75 -202 59 0 75 202zm-81 -78l-24 -71 -25 71 49 0z"/>
 </g>
</svg>
