<?xml version="1.0" encoding="UTF-8"?>
<!DOCTYPE svg PUBLIC "-//W3C//DTD SVG 1.1//EN" "http://www.w3.org/Graphics/SVG/1.1/DTD/svg11.dtd">
<!-- Creator: CorelDRAW -->
<svg xmlns="http://www.w3.org/2000/svg" xml:space="preserve" width="16.1568mm" height="4.8545mm" style="shape-rendering:geometricPrecision; text-rendering:geometricPrecision; image-rendering:optimizeQuality; fill-rule:evenodd; clip-rule:evenodd"
viewBox="0 0 16.1568 4.8545"
 xmlns:xlink="http://www.w3.org/1999/xlink">
 <defs>
  <style type="text/css">
   <![CDATA[
    .fil0 {fill:#666666}
    .fil1 {fill:black;fill-rule:nonzero}
   ]]>
  </style>
 </defs>
 <g id="Layer_x0020_1">
  <metadata id="CorelCorpID_0Corel-Layer"/>
  <path id="_375678808" class="fil0" d="M6.7329 2.691l2.6909 0 0 -1.3455 -0.3699 0 0 0.9755 -1.9511 0 0 -1.951 0.9755 0 0 -0.37 -1.3454 0 0 2.691zm2.6909 -1.7155l0 -0.9755 -0.9755 0 0 0.37 0.6056 0 0 0.6055 0.3699 0z"/>
  <path id="_491115792" class="fil1" d="M-0 3.3875l0.1955 0 0.8076 1.1958 0 -1.1958 0.1443 0 0 1.4416 -0.1443 0 -0.8587 -1.2677 0 1.2677 -0.1444 0 0 -1.4416zm1.522 0.9594c0.003,0.0653 0.0238,0.1265 0.0625,0.1834 0.0386,0.0565 0.0888,0.1017 0.1498,0.1352 0.0615,0.0336 0.1246,0.0504 0.1896,0.0504 0.0534,0 0.1053,-0.0093 0.1561,-0.0283 0.0504,-0.0191 0.0959,-0.0461 0.1356,-0.0819 0.04,-0.0358 0.0702,-0.077 0.0907,-0.1239l0.1498 0c-0.0246,0.071 -0.0634,0.1346 -0.1163,0.1912 -0.0531,0.0569 -0.1148,0.1011 -0.1854,0.1334 -0.0705,0.0321 -0.1427,0.0481 -0.2169,0.0481 -0.1021,0 -0.196,-0.0248 -0.2819,-0.0746 -0.0857,-0.0494 -0.1538,-0.1166 -0.2034,-0.2021 -0.0498,-0.0852 -0.0745,-0.1789 -0.0745,-0.2813 0,-0.101 0.0247,-0.1948 0.0741,-0.2808 0.0498,-0.0859 0.1171,-0.1536 0.2023,-0.203 0.0848,-0.0497 0.1781,-0.0744 0.2792,-0.0744 0.0836,0 0.1626,0.0182 0.2374,0.0546 0.0745,0.0363 0.1385,0.0871 0.1922,0.1525 0.0458,0.0569 0.0773,0.1167 0.0952,0.1798 0.0176,0.063 0.0273,0.1368 0.0296,0.2217l-0.9657 0zm0.8213 -0.1304c-0.0123,-0.0627 -0.0383,-0.1202 -0.078,-0.1716 -0.0397,-0.0517 -0.0884,-0.0927 -0.1463,-0.123 -0.0579,-0.0302 -0.1194,-0.0452 -0.1836,-0.0452 -0.0658,0 -0.1282,0.0148 -0.1873,0.0436 -0.0592,0.0293 -0.1087,0.0696 -0.1486,0.1216 -0.04,0.0521 -0.0658,0.1103 -0.0775,0.1746l0.8213 0zm1.43 0.6126l-0.1386 0 0 -0.2009c-0.0266,0.049 -0.0614,0.0903 -0.1043,0.1242 -0.043,0.0338 -0.0911,0.0592 -0.1451,0.0763 -0.0539,0.0173 -0.1085,0.0258 -0.1645,0.0258 -0.0832,0 -0.1659,-0.0189 -0.2478,-0.0567 -0.0819,-0.0373 -0.156,-0.0942 -0.2223,-0.1696 -0.0244,-0.0267 -0.0481,-0.0719 -0.0712,-0.135 -0.0228,-0.0633 -0.0342,-0.1317 -0.0342,-0.2048 0,-0.0648 0.0127,-0.1298 0.0384,-0.1948 0.0257,-0.065 0.0501,-0.1082 0.0731,-0.129 0.1406,-0.1508 0.2937,-0.2263 0.4602,-0.2263 0.0881,0 0.17,0.0195 0.2461,0.0582 0.076,0.039 0.1333,0.095 0.1716,0.1681l0 -0.2029 0.1386 0 0 1.0674zm-0.9836 -0.5286c0,0.0756 0.0198,0.1452 0.0598,0.2094 0.0397,0.064 0.0931,0.1144 0.1593,0.1511 0.0663,0.0368 0.1369,0.0549 0.212,0.0549 0.0729,0 0.1408,-0.0189 0.2045,-0.0566 0.0638,-0.038 0.1145,-0.0887 0.1525,-0.1521 0.038,-0.0634 0.0569,-0.1317 0.0569,-0.2048 0,-0.0771 -0.0182,-0.1483 -0.0546,-0.214 -0.0368,-0.0653 -0.0872,-0.1171 -0.1512,-0.155 -0.064,-0.0377 -0.135,-0.0567 -0.2119,-0.0567 -0.0769,0 -0.148,0.019 -0.2134,0.0567 -0.0654,0.0373 -0.1173,0.089 -0.156,0.154 -0.0387,0.0651 -0.0579,0.136 -0.0579,0.2131zm1.2293 -0.5388l0.1369 0 0 0.1544c0.0506,-0.1134 0.1541,-0.1727 0.3098,-0.1778l0 0.1424c-0.0771,0.0062 -0.1415,0.0308 -0.1928,0.0744 -0.0466,0.0393 -0.0761,0.0783 -0.0895,0.1168 -0.0132,0.0386 -0.02,0.0919 -0.02,0.1603l0 0.5969 -0.1444 0 0 -1.0674zm1.1528 -0.3742l0.2224 0 0.5267 1.2267 0.5252 -1.2267 0.2223 0 0 1.4416 -0.1444 0 0 -1.2816 -0.5425 1.2816 -0.1227 0 -0.5426 -1.2816 0 1.2816 -0.1444 0 0 -1.4416zm1.8712 0.9594c0.0029,0.0653 0.0238,0.1265 0.0625,0.1834 0.0386,0.0565 0.0887,0.1017 0.1498,0.1352 0.0615,0.0336 0.1246,0.0504 0.1896,0.0504 0.0533,0 0.1053,-0.0093 0.1561,-0.0283 0.0504,-0.0191 0.0958,-0.0461 0.1356,-0.0819 0.04,-0.0358 0.0702,-0.077 0.0906,-0.1239l0.1499 0c-0.0247,0.071 -0.0634,0.1346 -0.1163,0.1912 -0.0531,0.0569 -0.1148,0.1011 -0.1854,0.1334 -0.0705,0.0321 -0.1427,0.0481 -0.2169,0.0481 -0.1021,0 -0.1961,-0.0248 -0.2819,-0.0746 -0.0857,-0.0494 -0.1538,-0.1166 -0.2034,-0.2021 -0.0498,-0.0852 -0.0746,-0.1789 -0.0746,-0.2813 0,-0.101 0.0248,-0.1948 0.0742,-0.2808 0.0498,-0.0859 0.1171,-0.1536 0.2023,-0.203 0.0848,-0.0497 0.1781,-0.0744 0.2792,-0.0744 0.0836,0 0.1625,0.0182 0.2373,0.0546 0.0746,0.0363 0.1386,0.0871 0.1923,0.1525 0.0458,0.0569 0.0773,0.1167 0.0952,0.1798 0.0175,0.063 0.0273,0.1368 0.0296,0.2217l-0.9657 0zm0.8213 -0.1304c-0.0123,-0.0627 -0.0383,-0.1202 -0.0781,-0.1716 -0.0396,-0.0517 -0.0883,-0.0927 -0.1462,-0.123 -0.058,-0.0302 -0.1194,-0.0452 -0.1837,-0.0452 -0.0657,0 -0.1281,0.0148 -0.1873,0.0436 -0.0591,0.0293 -0.1087,0.0696 -0.1485,0.1216 -0.04,0.0521 -0.0658,0.1103 -0.0775,0.1746l0.8213 0zm0.9578 0.2088c0.0016,0.0527 0.0149,0.1011 0.0403,0.1453 0.0254,0.0443 0.0598,0.0793 0.1037,0.1057 0.0436,0.0263 0.0921,0.0396 0.1447,0.0396 0.0547,0 0.1047,-0.012 0.1502,-0.0364 0.0452,-0.0244 0.0816,-0.0582 0.1083,-0.1021 0.027,-0.0435 0.0402,-0.0923 0.0402,-0.1463 0,-0.039 -0.009,-0.077 -0.0269,-0.1135 -0.0179,-0.0363 -0.0423,-0.0669 -0.0725,-0.0913 -0.0302,-0.0248 -0.0621,-0.0433 -0.0958,-0.0562 -0.0336,-0.0131 -0.0759,-0.0261 -0.1269,-0.039 -0.0615,-0.0167 -0.1112,-0.0323 -0.1489,-0.0466 -0.038,-0.0146 -0.0728,-0.0355 -0.1051,-0.063 -0.0806,-0.0687 -0.1208,-0.1584 -0.1208,-0.2692 0,-0.0758 0.0181,-0.1435 0.0548,-0.2023 0.0365,-0.0588 0.0858,-0.1046 0.1483,-0.1373 0.0625,-0.0325 0.1314,-0.0487 0.2065,-0.0487 0.0719,0 0.1381,0.0173 0.199,0.0514 0.0608,0.0344 0.1089,0.0813 0.1443,0.1411 0.0355,0.0598 0.0534,0.1256 0.0534,0.1977l-0.1502 0c-0.0033,-0.0485 -0.0167,-0.0917 -0.0398,-0.13 -0.0233,-0.0384 -0.0542,-0.0683 -0.0926,-0.0898 -0.0387,-0.0211 -0.0822,-0.0319 -0.131,-0.0319 -0.0456,0 -0.0875,0.0115 -0.1255,0.0342 -0.038,0.0227 -0.068,0.0533 -0.0901,0.092 -0.0217,0.0384 -0.0328,0.0803 -0.0328,0.1255 0,0.0536 0.013,0.0965 0.039,0.1294 0.026,0.0329 0.0586,0.0575 0.0975,0.0744 0.039,0.0166 0.0885,0.0335 0.1483,0.0498 0.0761,0.0212 0.132,0.0387 0.1684,0.0527 0.0361,0.0139 0.0725,0.0373 0.109,0.0702 0.0425,0.0367 0.0757,0.0819 0.0994,0.1356 0.0237,0.0536 0.0354,0.1092 0.0354,0.1671 0,0.0773 -0.02,0.1482 -0.0604,0.213 -0.0403,0.0643 -0.0942,0.115 -0.1615,0.1525 -0.0673,0.037 -0.1398,0.0556 -0.2173,0.0556 -0.0809,0 -0.1557,-0.0183 -0.2244,-0.0546 -0.0682,-0.0368 -0.1225,-0.0879 -0.1625,-0.1535 -0.04,-0.0657 -0.0602,-0.1395 -0.0602,-0.2211l0.1545 0zm1.0008 -0.0784c0.0029,0.0653 0.0237,0.1265 0.0624,0.1834 0.0386,0.0565 0.0888,0.1017 0.1499,0.1352 0.0614,0.0336 0.1245,0.0504 0.1896,0.0504 0.0533,0 0.1052,-0.0093 0.156,-0.0283 0.0504,-0.0191 0.0959,-0.0461 0.1356,-0.0819 0.04,-0.0358 0.0703,-0.077 0.0907,-0.1239l0.1498 0c-0.0246,0.071 -0.0633,0.1346 -0.1163,0.1912 -0.0531,0.0569 -0.1148,0.1011 -0.1854,0.1334 -0.0704,0.0321 -0.1427,0.0481 -0.2169,0.0481 -0.102,0 -0.196,-0.0248 -0.2818,-0.0746 -0.0858,-0.0494 -0.1538,-0.1166 -0.2035,-0.2021 -0.0497,-0.0852 -0.0745,-0.1789 -0.0745,-0.2813 0,-0.101 0.0248,-0.1948 0.0741,-0.2808 0.0498,-0.0859 0.1171,-0.1536 0.2023,-0.203 0.0849,-0.0497 0.1782,-0.0744 0.2793,-0.0744 0.0835,0 0.1625,0.0182 0.2373,0.0546 0.0745,0.0363 0.1385,0.0871 0.1922,0.1525 0.0459,0.0569 0.0774,0.1167 0.0953,0.1798 0.0175,0.063 0.0273,0.1368 0.0296,0.2217l-0.9657 0zm0.8213 -0.1304c-0.0123,-0.0627 -0.0384,-0.1202 -0.0781,-0.1716 -0.0396,-0.0517 -0.0884,-0.0927 -0.1463,-0.123 -0.0579,-0.0302 -0.1194,-0.0452 -0.1836,-0.0452 -0.0658,0 -0.1281,0.0148 -0.1873,0.0436 -0.0592,0.0293 -0.1087,0.0696 -0.1486,0.1216 -0.04,0.0521 -0.0657,0.1103 -0.0774,0.1746l0.8213 0zm0.343 -0.4548l0.1368 0 0 0.1544c0.0507,-0.1134 0.1542,-0.1727 0.3099,-0.1778l0 0.1424c-0.0771,0.0062 -0.1415,0.0308 -0.1928,0.0744 -0.0466,0.0393 -0.0762,0.0783 -0.0895,0.1168 -0.0132,0.0386 -0.0201,0.0919 -0.0201,0.1603l0 0.5969 -0.1443 0 0 -1.0674zm0.4798 0l0.1557 0 0.3694 0.884 0.369 -0.884 0.1558 0 -0.451 1.0674 -0.1499 0 -0.449 -1.0674zm1.188 0l0.1444 0 0 1.0674 -0.1444 0 0 -1.0674zm0 -0.3742l0.1444 0 0 0.2457 -0.1444 0 0 -0.2457zm1.4514 1.1297c-0.0481,0.1052 -0.1179,0.1877 -0.2096,0.2475 -0.0917,0.0598 -0.1948,0.0898 -0.3092,0.0898 -0.1048,0 -0.2019,-0.0241 -0.2917,-0.0723 -0.0898,-0.0481 -0.1606,-0.1148 -0.2129,-0.2002 -0.0524,-0.0855 -0.0788,-0.1811 -0.0788,-0.2874 0,-0.1024 0.0264,-0.1964 0.0794,-0.2816 0.0529,-0.0855 0.1239,-0.1525 0.2127,-0.2013 0.0887,-0.049 0.184,-0.0734 0.2851,-0.0734 0.0751,0 0.1479,0.014 0.2191,0.0422 0.0709,0.0283 0.1334,0.0689 0.1869,0.1216 0.054,0.0527 0.0944,0.1138 0.1211,0.1834l-0.1619 0c-0.0242,-0.0409 -0.055,-0.0773 -0.0934,-0.1092 -0.0381,-0.0323 -0.0806,-0.0566 -0.1275,-0.0738 -0.0464,-0.0173 -0.0939,-0.0258 -0.1417,-0.0258 -0.0774,0 -0.1499,0.0179 -0.2169,0.054 -0.067,0.0362 -0.12,0.0858 -0.1593,0.1496 -0.0394,0.0633 -0.0592,0.1343 -0.0592,0.2123 0,0.0767 0.0186,0.1477 0.056,0.2129 0.0373,0.0654 0.0884,0.1169 0.1531,0.1542 0.0647,0.0373 0.1362,0.0562 0.2143,0.0562 0.0812,0 0.1521,-0.0166 0.2125,-0.0493 0.0602,-0.0329 0.1142,-0.0827 0.1621,-0.1494l0.1598 0zm0.3044 -0.1703c0.0029,0.0653 0.0237,0.1265 0.0625,0.1834 0.0386,0.0565 0.0887,0.1017 0.1498,0.1352 0.0615,0.0336 0.1246,0.0504 0.1896,0.0504 0.0533,0 0.1053,-0.0093 0.156,-0.0283 0.0505,-0.0191 0.0959,-0.0461 0.1357,-0.0819 0.04,-0.0358 0.0702,-0.077 0.0906,-0.1239l0.1499 0c-0.0247,0.071 -0.0634,0.1346 -0.1163,0.1912 -0.0531,0.0569 -0.1148,0.1011 -0.1854,0.1334 -0.0705,0.0321 -0.1428,0.0481 -0.2169,0.0481 -0.1021,0 -0.1961,-0.0248 -0.2819,-0.0746 -0.0857,-0.0494 -0.1538,-0.1166 -0.2034,-0.2021 -0.0498,-0.0852 -0.0746,-0.1789 -0.0746,-0.2813 0,-0.101 0.0248,-0.1948 0.0742,-0.2808 0.0498,-0.0859 0.1171,-0.1536 0.2023,-0.203 0.0848,-0.0497 0.1781,-0.0744 0.2792,-0.0744 0.0835,0 0.1625,0.0182 0.2373,0.0546 0.0746,0.0363 0.1385,0.0871 0.1923,0.1525 0.0458,0.0569 0.0773,0.1167 0.0952,0.1798 0.0175,0.063 0.0273,0.1368 0.0296,0.2217l-0.9657 0zm0.8213 -0.1304c-0.0123,-0.0627 -0.0383,-0.1202 -0.0781,-0.1716 -0.0396,-0.0517 -0.0884,-0.0927 -0.1463,-0.123 -0.0579,-0.0302 -0.1193,-0.0452 -0.1836,-0.0452 -0.0658,0 -0.1281,0.0148 -0.1873,0.0436 -0.0592,0.0293 -0.1087,0.0696 -0.1485,0.1216 -0.04,0.0521 -0.0658,0.1103 -0.0775,0.1746l0.8213 0zm0.3995 0.2988c0,0.0361 0.0085,0.0696 0.0254,0.1002 0.0173,0.0305 0.0404,0.0549 0.0699,0.0731 0.0296,0.0182 0.0621,0.0273 0.0976,0.0273 0.0527,0 0.0969,-0.0166 0.1333,-0.0497 0.0363,-0.0332 0.0546,-0.0757 0.0546,-0.1275 0,-0.0588 -0.0185,-0.1034 -0.0556,-0.1336 -0.0375,-0.0306 -0.0878,-0.0542 -0.1519,-0.0712 -0.052,-0.0169 -0.0917,-0.0311 -0.1186,-0.0432 -0.027,-0.0121 -0.0518,-0.029 -0.0741,-0.0508 -0.0573,-0.0507 -0.0859,-0.1186 -0.0859,-0.2028 0,-0.056 0.014,-0.107 0.0417,-0.1529 0.0279,-0.0458 0.0656,-0.0815 0.1131,-0.1073 0.0474,-0.0256 0.0984,-0.0386 0.1534,-0.0386 0.0523,0 0.1011,0.0134 0.1467,0.0396 0.0454,0.0267 0.0816,0.0621 0.1083,0.1067 0.0263,0.0442 0.0396,0.0919 0.0396,0.1427l-0.1444 0c0,-0.0462 -0.0156,-0.0826 -0.0468,-0.1099 -0.0309,-0.027 -0.0709,-0.0407 -0.119,-0.0407 -0.0409,0 -0.0761,0.0144 -0.105,0.0433 -0.029,0.029 -0.0432,0.064 -0.0432,0.105 0,0.0365 0.0084,0.0661 0.0253,0.0884 0.0166,0.0229 0.0377,0.04 0.0635,0.0525 0.0252,0.0123 0.0581,0.0243 0.0985,0.0367 0.0627,0.0202 0.115,0.0419 0.1573,0.0656 0.0426,0.0238 0.0767,0.0556 0.1027,0.0956 0.0257,0.04 0.0388,0.0904 0.0388,0.1515 0,0.0654 -0.015,0.124 -0.045,0.1756 -0.0298,0.052 -0.0708,0.092 -0.1235,0.1207 -0.0527,0.0285 -0.1115,0.0429 -0.1772,0.0429 -0.0579,0 -0.1118,-0.015 -0.1612,-0.045 -0.0498,-0.0298 -0.0892,-0.0704 -0.1188,-0.1228 -0.0292,-0.052 -0.0438,-0.1093 -0.0438,-0.1714l0.1443 0z"/>
 </g>
</svg>
