<?xml version="1.0" encoding="UTF-8"?>
<!DOCTYPE svg PUBLIC "-//W3C//DTD SVG 1.1//EN" "http://www.w3.org/Graphics/SVG/1.1/DTD/svg11.dtd">
<!-- Creator: CorelDRAW -->
<svg xmlns="http://www.w3.org/2000/svg" xml:space="preserve" width="27.9724mm" height="5.5352mm" style="shape-rendering:geometricPrecision; text-rendering:geometricPrecision; image-rendering:optimizeQuality; fill-rule:evenodd; clip-rule:evenodd"
viewBox="0 0 7.84141 1.55166"
 xmlns:xlink="http://www.w3.org/1999/xlink">
 <defs>
  <style type="text/css">
   <![CDATA[
    .str0 {stroke:#E5097F;stroke-width:0.0213609}
    .fil1 {fill:none}
    .fil0 {fill:black;fill-rule:nonzero}
   ]]>
  </style>
 </defs>
 <g id="Layer_x0020_1">
  <metadata id="CorelCorpID_0Corel-Layer"/>
  <path class="fil0" d="M0.869237 0.42932c0,0.000869013 -0.0931806,0.107758 -0.279598,0.320666 0.0167916,-0.00883029 0.0335831,-0.0176606 0.0503747,-0.0264909 0.0167635,-0.00885832 0.0340036,-0.0181091 0.0516642,-0.0278364 0.0424134,-0.0185576 0.0808462,-0.028285 0.11527,-0.029154 0.0371153,0 0.0569904,0.016343 0.0596535,0.0490291 0,0.0211927 -0.0176886,0.0507952 -0.0530098,0.0887795 -0.0167916,0.0176606 -0.0353492,0.0337794 -0.0556449,0.0483564 -0.0203237,0.014577 -0.0433105,0.0293782 -0.0689043,0.0444037 -0.0512437,0.0264909 -0.0923396,0.0401988 -0.123232,0.0410679 -0.00709227,0 -0.0128109,-0.00131754 -0.0172401,-0.00398064 -0.00442916,-0.00263507 -0.00883029,-0.00616719 -0.0132595,-0.0105963 -0.00793325,-0.00793325 -0.0119139,-0.0181091 -0.0119139,-0.0304715 0,-0.0247248 0.00838177,-0.0379843 0.0251733,-0.0397503 0.00883029,0 0.014577,0.00263507 0.0172401,0.00796128 0.00263507,0.00353212 0.00616719,0.0096993 0.0105963,0.0185296 0.00616719,0.0132595 0.0198752,0.0198752 0.0410679,0.0198752 0.0273879,0 0.0662412,-0.0211927 0.116616,-0.0636061 0.0512157,-0.0397503 0.0768375,-0.0750715 0.0768375,-0.105992 0,-0.0141285 -0.0158945,-0.0225383 -0.0476836,-0.0251733 -0.030051,0 -0.0605225,0.0096993 -0.0914426,0.029154 -0.0123624,0.00793325 -0.0306958,0.0216412 -0.0550001,0.0410679 -0.0242763,0.0194266 -0.0545516,0.0446 -0.0907698,0.07552 -0.0459175,0.0388813 -0.0931806,0.0850231 -0.141761,0.138481 -0.0486087,0.0534303 -0.0993758,0.115495 -0.152386,0.186165 -0.090125,0.125446 -0.139126,0.205844 -0.147087,0.241165l0 0.0477116c0,0.0123624 -0.00442916,0.0211927 -0.0132595,0.0264909 -0.00706423,0.00529817 -0.015446,0.00883029 -0.0251733,0.0105963 -0.00529817,0 -0.0103721,-0.00042049 -0.0152498,-0.00131754 -0.00484965,-0.000869013 -0.00947504,-0.00308359 -0.0139042,-0.00661571 -0.00883029,-0.00442916 -0.014577,-0.0119419 -0.0172121,-0.0225383 0,-0.0158945 0.0057467,-0.030023 0.0172121,-0.0423854 0.00972734,-0.0176886 0.0174644,-0.0306958 0.023183,-0.0391056 0.0057467,-0.00838177 0.00905455,-0.0134557 0.0099516,-0.0152217 0.0282569,-0.0521408 0.0693528,-0.113981 0.123232,-0.18552 0.0538788,-0.0715674 0.121017,-0.154152 0.201415,-0.247781 0.0379843,-0.0450485 0.0943019,-0.109552 0.168953,-0.193481 0.074623,-0.0839018 0.169822,-0.188604 0.285541,-0.314022 0.0114934,-0.0114934 0.0211927,-0.0176886 0.029154,-0.0185576 0.00442916,0 0.00796128,0.00484965 0.0105963,0.014577zm0.548571 0.266338c0,0.00529817 -0.00176606,0.0101478 -0.00529817,0.014577 -0.0459175,0.0388533 -0.0847988,0.0706704 -0.116588,0.0953952 -0.0318171,0.0247528 -0.0569904,0.0432824 -0.075548,0.0556729 -0.0883309,0.059177 -0.16828,0.0896485 -0.239819,0.0914145 -0.0609711,0 -0.0918911,-0.0313686 -0.0927601,-0.0940776 0,-0.0388813 0.0225102,-0.0843503 0.0675587,-0.136491 0.0477116,-0.0494496 0.088359,-0.074651 0.121914,-0.07552 0.0114934,0 0.0216412,0.00440113 0.0304715,0.0132595 0.00796128,0.00706423 0.0128109,0.0158945 0.014577,0.0264909 0,0.0158945 -0.00793325,0.031789 -0.0238278,0.0477116 -0.00885832,0.00706423 -0.0172401,0.0139042 -0.0252014,0.0205199 -0.00793325,0.00664374 -0.016343,0.0134837 -0.0251733,0.0205479 -0.0264909,0.0229588 -0.0604945,0.0446 -0.102011,0.0649237 -0.000897045,0.0212207 0.00793325,0.0388813 0.0264909,0.0530098 0.0150255,0.00972734 0.0313686,0.014577 0.0490291,0.014577 0.0459455,0 0.114401,-0.0296025 0.205395,-0.0887795 0.00883029,-0.00619522 0.0278084,-0.0198752 0.0569624,-0.0410679 0.029154,-0.0212207 0.0689043,-0.0507952 0.119251,-0.0887795 0.0026631,-0.000897045 0.0057467,-0.00134557 0.00927881,-0.00134557 0.0026631,0 0.00442916,0.0026631 0.00529817,0.00796128zm-0.353772 0.00529817c0,-0.00442916 -0.0057467,-0.00796128 -0.0172401,-0.0105963 -0.0150255,0 -0.0349007,0.0136799 -0.0596255,0.0410679 -0.0247248,0.0247528 -0.0371153,0.0468146 -0.0371153,0.0662692 0.00442916,0 0.0123904,-0.00221458 0.0238558,-0.00664374 0.0574389,-0.0335551 0.0874619,-0.0636061 0.090125,-0.090097zm0.840083 -0.00796128c0,0.0026631 -0.000224261,0.00510195 -0.000644751,0.00728849 -0.000448523,0.00221458 -0.00199032,0.00465342 -0.00465342,0.00728849 -0.0459175,0.0379843 -0.0852474,0.0700256 -0.117933,0.096068 -0.0326861,0.0260704 -0.0587284,0.0452728 -0.0781831,0.0576632 -0.0944981,0.0635781 -0.177559,0.0953952 -0.249098,0.0953952 -0.0176606,0 -0.0349007,-0.00751276 -0.0516922,-0.0225383 -0.0141285,-0.0141285 -0.0220617,-0.031789 -0.0238558,-0.0529817 0,-0.0176886 0.0123904,-0.0406474 0.0371153,-0.0689043 0.0114934,-0.0123904 0.0227345,-0.0245286 0.0337794,-0.0364425 0.0110449,-0.0119419 0.022314,-0.0245286 0.0338074,-0.037788 -0.00883029,0 -0.0178848,0.000672784 -0.0271637,0.00199032 -0.00927881,0.00134557 -0.0196509,0.00288737 -0.0311443,0.00465342 -0.0211927,0.00263507 -0.0379843,0.00398064 -0.0503467,0.00398064l-0.00529817 0c-0.0980583,0.0830328 -0.178905,0.138229 -0.242511,0.165617 -0.0149975,0 -0.0225102,-0.00221458 -0.0225102,-0.00661571 0,-0.00706423 0.00398064,-0.0150255 0.0119139,-0.0238558 0.0256219,-0.00972734 0.0572147,-0.0264909 0.0947504,-0.0503467 0.0375357,-0.0238558 0.0819395,-0.0556449 0.133183,-0.0954232 -0.00619522,-0.00616719 -0.00972734,-0.0127829 -0.0106244,-0.0198752 0,-0.0167635 0.0150255,-0.0415164 0.0450485,-0.0742025 0.0150255,-0.0158945 0.0287335,-0.0275841 0.0410959,-0.0350969 0.0123624,-0.00751276 0.0234073,-0.0121662 0.0331346,-0.0139322 0.0141285,0 0.0225102,0.00664374 0.0251733,0.0198752 0,0.0212207 -0.0150255,0.045497 -0.0450485,0.0728849 0.0185296,-0.00440113 0.0340036,-0.00751276 0.046366,-0.00927881 0.0123624,-0.00176606 0.0216412,-0.00308359 0.0278364,-0.00395261 0.0264909,0 0.0397503,0.00925078 0.0397503,0.0278084 0,0.0212207 -0.0190062,0.0490291 -0.0569904,0.0834813 -0.0353212,0.0326861 -0.0543273,0.0596255 -0.0569624,0.0808462 0,0.0114654 0.00484965,0.0229588 0.014549,0.0344522 0.00885832,0.00793325 0.0212207,0.0132314 0.0371153,0.0158945 0.0521127,0 0.126315,-0.0313686 0.222607,-0.0940776 0.0114934,-0.00706423 0.0324618,-0.0216412 0.0629333,-0.043731 0.0304995,-0.0220897 0.0708946,-0.0530098 0.121269,-0.0927601l0.00793325 0c0.00353212,0 0.00529817,0.00221458 0.00529817,0.00661571zm0.675812 -0.634716c0,0.0380123 -0.0459455,0.110449 -0.137809,0.217337 -0.0874619,0.0998243 -0.182857,0.189473 -0.286214,0.268973 -0.0494777,0.0388813 -0.0965165,0.0731092 -0.141116,0.102712 -0.044628,0.0295745 -0.0881347,0.0545235 -0.13052,0.0748472l-0.0516922 0.0914426 0.219972 0c0.0176606,0 0.0264909,0.00838177 0.0264909,0.0251733 0,0.00706423 -0.00883029,0.0119139 -0.0264909,0.014577l-0.25706 0.0105963c-0.0433105,0.0574109 -0.0779589,0.102684 -0.104029,0.135818 -0.0260704,0.0331346 -0.0439552,0.0545516 -0.0536826,0.0642789 -0.0202957,0.0247248 -0.0446,0.0525613 -0.0728569,0.0834813 -0.028285,0.03092 -0.0618401,0.0657927 -0.100721,0.104674 -0.0256219,0.0256219 -0.0516642,0.0498982 -0.0781831,0.0728849 -0.0264909,0.0229588 -0.0551963,0.0446 -0.0861164,0.0649237 -0.0503467,0.0335551 -0.096965,0.0587284 -0.139799,0.07552 -0.0428339,0.0167916 -0.0841541,0.0251733 -0.123904,0.0251733 -0.0247248,0 -0.045497,-0.00661571 -0.0622606,-0.0198752 -0.0176886,-0.0123624 -0.0265189,-0.0269394 -0.0265189,-0.043731 0,-0.0202957 0.0114934,-0.0304715 0.0344522,-0.0304715 0.00353212,0.0026631 0.00706423,0.0057467 0.0105963,0.00927881 0.00532621,0.00619522 0.015474,0.0150255 0.0304995,0.0264909 0.0114654,0.00972734 0.022286,0.0165673 0.0324618,0.0205479 0.0101478,0.00398064 0.0205199,0.00683997 0.0311443,0.00860603 0.0185296,0 0.0406193,-0.00484965 0.0662412,-0.014577 0.0256219,-0.0096993 0.0560934,-0.0247248 0.0914426,-0.0450485 0.0662412,-0.0388533 0.12895,-0.0887795 0.188155,-0.149722 0.0362182,-0.0371153 0.0715394,-0.07552 0.105992,-0.115298 0.0344522,-0.0397503 0.0684838,-0.0812667 0.102039,-0.124549 0.059177,-0.0803697 0.090097,-0.129847 0.0927601,-0.148405l-0.014577 0c-0.0211927,0 -0.0318171,-0.00927881 -0.0318171,-0.0278364 0,-0.0132314 0.0167916,-0.0207442 0.0503747,-0.0225102l0.0410679 0c0.0176606,-0.028285 0.0444037,-0.0695771 0.0801734,-0.123904 0.0357697,-0.0543273 0.081491,-0.12169 0.137136,-0.202059 0.229672,-0.323329 0.404147,-0.485862 0.523398,-0.487628 0.0167916,0 0.0313686,0.00571866 0.043731,0.0172121 0.0114934,0.0114934 0.0172401,0.0251733 0.0172401,0.0410679zm-0.0516922 0c0,-0.0202957 -0.015446,-0.0304715 -0.046366,-0.0304715 -0.029154,0 -0.0799492,0.0318171 -0.152386,0.0954232 -0.0353492,0.031789 -0.0684558,0.0649237 -0.0993758,0.0993758 -0.03092,0.0344522 -0.0605225,0.0702218 -0.0887795,0.107337 -0.028285,0.0397503 -0.0627371,0.0887795 -0.103356,0.147059 -0.0406474,0.058308 -0.0874619,0.126343 -0.140472,0.204078 0.0212207,-0.0141285 0.0470388,-0.0311443 0.0775103,-0.0510195 0.0304995,-0.0198752 0.066942,-0.0430582 0.109327,-0.0695771 0.090097,-0.0547478 0.185072,-0.136463 0.284896,-0.245118 0.10602,-0.113953 0.159001,-0.199649 0.159001,-0.257088zm0.12853 0.637379c0,0.00529817 -0.00176606,0.0101478 -0.00529817,0.014577 -0.0459175,0.0388533 -0.0847988,0.0706704 -0.116588,0.0953952 -0.0318171,0.0247528 -0.0569904,0.0432824 -0.075548,0.0556729 -0.0883309,0.059177 -0.16828,0.0896485 -0.239819,0.0914145 -0.0609711,0 -0.0918911,-0.0313686 -0.0927601,-0.0940776 0,-0.0388813 0.0225102,-0.0843503 0.0675587,-0.136491 0.0477116,-0.0494496 0.088359,-0.074651 0.121914,-0.07552 0.0114934,0 0.0216412,0.00440113 0.0304715,0.0132595 0.00796128,0.00706423 0.0128109,0.0158945 0.014577,0.0264909 0,0.0158945 -0.00793325,0.031789 -0.0238278,0.0477116 -0.00885832,0.00706423 -0.0172401,0.0139042 -0.0252014,0.0205199 -0.00793325,0.00664374 -0.016343,0.0134837 -0.0251733,0.0205479 -0.0264909,0.0229588 -0.0604945,0.0446 -0.102011,0.0649237 -0.000897045,0.0212207 0.00793325,0.0388813 0.0264909,0.0530098 0.0150255,0.00972734 0.0313686,0.014577 0.0490291,0.014577 0.0459455,0 0.114401,-0.0296025 0.205395,-0.0887795 0.00883029,-0.00619522 0.0278084,-0.0198752 0.0569624,-0.0410679 0.029154,-0.0212207 0.0689043,-0.0507952 0.119251,-0.0887795 0.0026631,-0.000897045 0.0057467,-0.00134557 0.00927881,-0.00134557 0.0026631,0 0.00442916,0.0026631 0.00529817,0.00796128zm-0.353772 0.00529817c0,-0.00442916 -0.0057467,-0.00796128 -0.0172401,-0.0105963 -0.0150255,0 -0.0349007,0.0136799 -0.0596255,0.0410679 -0.0247248,0.0247528 -0.0371153,0.0468146 -0.0371153,0.0662692 0.00442916,0 0.0123904,-0.00221458 0.0238558,-0.00664374 0.0574389,-0.0335551 0.0874619,-0.0636061 0.090125,-0.090097zm0.846727 -0.00131754c0,0.00440113 -0.0260704,0.0282569 -0.0781831,0.0715394 -0.0238558,0.0203237 -0.044628,0.036891 -0.0622886,0.0497019 -0.0176606,0.0128109 -0.0322376,0.0236315 -0.043731,0.0324618 -0.0556449,0.0388533 -0.110196,0.0675868 -0.163627,0.0861164 -0.0534583,0.0185576 -0.105347,0.028285 -0.155721,0.029154 -0.0370872,0 -0.0671382,-0.0110449 -0.090097,-0.0331066 -0.0220897,-0.0185576 -0.0331346,-0.043731 -0.0331346,-0.075548 0,-0.0459175 0.0296025,-0.0953952 0.0887795,-0.148405 0.03092,-0.029154 0.0633819,-0.0510195 0.0974135,-0.0655964 0.0340036,-0.014577 0.0691286,-0.0227345 0.105347,-0.0245006 0.0273599,0 0.0423854,0.0132595 0.0450485,0.0397503 0,0.0256219 -0.0198752,0.0507952 -0.0596255,0.07552 -0.0167916,0.0114934 -0.0326861,0.0196509 -0.0477116,0.0245286 -0.0150255,0.00484965 -0.0287055,0.00770898 -0.0410679,0.00860603 -0.0203237,0 -0.0304995,-0.00484965 -0.0304995,-0.014577 0,-0.0256219 0.0132595,-0.0384328 0.0397503,-0.0384328 0.00179409,0 0.00375638,0.000224261 0.00597096,0.000672784 0.00221458,0.000448523 0.00552244,0.0015418 0.0099516,0.00330786 0.00529817,0.0026631 0.0136799,0.00484965 0.0251733,0.00661571 0.0123624,0 0.0238558,-0.00706423 0.0344522,-0.0211927 0.0123624,-0.0141285 0.0185576,-0.0260704 0.0185576,-0.0357697 0,-0.00706423 -0.0114934,-0.0114934 -0.0344522,-0.0132595 -0.0397503,0 -0.0834813,0.0211927 -0.131193,0.0636061 -0.0432824,0.0406474 -0.0662412,0.0786316 -0.0689043,0.113953 0,0.0229588 0.0114934,0.043731 0.0344522,0.0622886 0.0176606,0.0176606 0.0450485,0.0264909 0.0821638,0.0264909 0.0529817,0 0.117036,-0.0207442 0.192136,-0.0622606 0.0247248,-0.0123904 0.0512157,-0.0278364 0.0795007,-0.0463941 0.0282569,-0.0185576 0.0578594,-0.0406193 0.0887795,-0.0662412 0.0521127,-0.0406474 0.0799492,-0.0609711 0.0834813,-0.0609711 0.00616719,0 0.00927881,0.00398064 0.00927881,0.0119419zm0.662524 -0.294175c0,0.0176606 -0.0176606,0.0278364 -0.0529817,0.0304715l-0.0649517 0 -0.278252 0c-0.119251,0.127212 -0.183754,0.195668 -0.193453,0.205395 -0.089228,0.102459 -0.133856,0.175344 -0.133856,0.218627 0,0.028285 0.0190062,0.0424134 0.0569904,0.0424134 0.0485806,0 0.11485,-0.028285 0.198752,-0.0847988 0.028285,-0.0203237 0.0563176,-0.0408716 0.0841541,-0.0616158 0.0278364,-0.0207722 0.0563176,-0.0426377 0.0854716,-0.0655964 0.000869013,-0.00176606 0.00353212,-0.0026631 0.00793325,-0.0026631 0.0026631,0 0.00442916,0.00311163 0.00532621,0.00927881 0,0.00529817 -0.00179409,0.0101759 -0.00532621,0.014577 -0.0459175,0.0371153 -0.0845746,0.0682315 -0.115943,0.0934329 -0.0313405,0.0251733 -0.0567381,0.0443757 -0.0761928,0.0576352 -0.0874339,0.060074 -0.160767,0.0905455 -0.219944,0.0914145 -0.0212207,0 -0.0384328,-0.00793325 -0.0516922,-0.0238558 -0.0141285,-0.0167635 -0.0211927,-0.0366387 -0.0211927,-0.0596255 0,-0.0529817 0.0446,-0.129847 0.133828,-0.230541 0.0326861,-0.0335831 0.0649237,-0.0671382 0.0967407,-0.100721 0.031789,-0.0335551 0.0640266,-0.0680073 0.0967127,-0.103356l-0.478349 -0.0105963c-0.0114654,0 -0.0158945,-0.00796128 -0.0132314,-0.0238558 0.000869013,-0.00616719 0.0101478,-0.0101478 0.0278084,-0.0119139l0.510167 0 0.119251 -0.116616c0.00353212,-0.00176606 0.00773702,-0.00353212 0.0125867,-0.00529817 0.00484965,-0.00176606 0.0117177,-0.00308359 0.0205479,-0.00398064 0.00440113,0 0.00883029,0.00308359 0.0132314,0.00927881 0.0026631,0.00529817 0.0026631,0.0101478 0,0.014577l-0.116588 0.102039 0.352455 0.0158945zm0.265021 -0.333925c0,0.0750995 -0.0649237,0.182857 -0.194771,0.323329 -0.0812947,0.0865649 -0.172709,0.172709 -0.2743,0.258377 -0.0335831,0.0265189 -0.0695771,0.0547758 -0.107982,0.0847988 -0.0384328,0.030051 -0.0810705,0.0618401 -0.127885,0.0954232 0.000897045,0.0185576 0.0158945,0.0357697 0.0450485,0.0516642 0.0256219,0.0141565 0.0556729,0.0212207 0.090125,0.0212207 0.0653442,0 0.141761,-0.0287335 0.229223,-0.0861444 0.00442916,-0.00353212 0.0207722,-0.0158945 0.0490291,-0.0370872 0.0282569,-0.0212207 0.0698013,-0.0521408 0.124549,-0.0927601 0.0026631,-0.00176606 0.00619522,-0.0026631 0.0105963,-0.0026631 0.0026631,0 0.00398064,0.0026631 0.00398064,0.00796128 0,0.00616719 -0.00131754,0.0110449 -0.00398064,0.014577 -0.0397503,0.0326861 -0.07552,0.0611673 -0.107309,0.0854716 -0.0318171,0.0242763 -0.0605225,0.0443757 -0.0861444,0.0602702 -0.0918631,0.0556729 -0.17313,0.0839298 -0.2438,0.0848269 -0.120148,0 -0.181091,-0.0472631 -0.182857,-0.141789 0,-0.0830328 0.0441515,-0.191687 0.132482,-0.325964 0.0848269,-0.124577 0.181988,-0.233232 0.29154,-0.325964 0.113953,-0.0980583 0.206713,-0.147087 0.278252,-0.147087 0.0211927,0 0.0388813,0.00706423 0.0530098,0.0211927 0.0141285,0.0132595 0.0211927,0.030023 0.0211927,0.0503467zm-0.060943 0.014577c0,-0.0353212 -0.0225383,-0.0512437 -0.0675868,-0.0477116 -0.0247248,0.00176606 -0.0547758,0.0130352 -0.090097,0.0338074 -0.0353492,0.0207442 -0.0768656,0.052337 -0.124549,0.0947504 -0.0477116,0.0397503 -0.0907698,0.0805939 -0.129203,0.122559 -0.0384328,0.0419649 -0.0731092,0.0854716 -0.104029,0.13052 -0.0406193,0.059177 -0.074651,0.125867 -0.102039,0.200097 -0.0220617,0.060943 -0.0344522,0.11129 -0.0370872,0.15104 0,0.0114934 0.00221458,0.0207722 0.00661571,0.0278364 0.0238558,-0.0114934 0.0759685,-0.0494777 0.156366,-0.113953 0.0953952,-0.0786316 0.182857,-0.156815 0.262358,-0.234549 0.0768656,-0.0750715 0.131193,-0.136491 0.162982,-0.184175 0.0441795,-0.0645032 0.0662692,-0.124577 0.0662692,-0.180222zm0.201415 0.638696c0,0.00793325 -0.0287055,0.0415164 -0.0861164,0.100693 -0.0530098,0.0530098 -0.096965,0.0971893 -0.131866,0.13251 -0.0348726,0.0353492 -0.0616158,0.0627371 -0.0801734,0.0821638 -0.0521127,0.0538788 -0.101142,0.107758 -0.147059,0.161664 -0.0459455,0.0538788 -0.090125,0.107758 -0.13251,0.161636 -0.0176886,0.0238558 -0.0306958,0.0441795 -0.0391056,0.0609711 -0.00838177,0.0167916 -0.0134557,0.0296025 -0.0152217,0.0384328 0,0.00263507 0.00042049,0.00552244 0.00131754,0.00860603 0.000869013,0.00308359 0.00176606,0.00728849 0.0026631,0.0125867 0.000869013,0.00529817 0.00131754,0.00992357 0.00131754,0.0139042 0,0.00398064 0,0.00683997 0,0.00863406 -0.0105963,0.0282569 -0.0313686,0.0432824 -0.0622886,0.0450485 -0.00176606,-0.0105963 -0.00308359,-0.0196509 -0.00398064,-0.0271637 -0.000869013,-0.00751276 -0.00176606,-0.0148012 -0.00263507,-0.0218655 0,-0.0424134 0.0247248,-0.090125 0.0742025,-0.143107l0.441234 -0.487628c-0.0750715,0.0485806 -0.133379,0.0728569 -0.174896,0.0728569 -0.0415164,0 -0.0622886,-0.0216412 -0.0622886,-0.0649237 0,-0.0344522 0.0141285,-0.0750715 0.0424134,-0.121886 0.0282569,-0.0388813 0.0516642,-0.0627371 0.0702218,-0.0715674 0.0141285,-0.000897045 0.0220897,0.00353212 0.0238558,0.0132595 0,-0.00176606 -0.015446,0.015446 -0.046366,0.0516642 -0.029154,0.0353492 -0.0450765,0.0702218 -0.0477116,0.104674 0,0.0273879 0.0234073,0.0419649 0.0702218,0.043731 0.0353492,0 0.090097,-0.0304715 0.164328,-0.0914145 0.0733054,-0.060074 0.11527,-0.0905455 0.125867,-0.0914426 0.00883029,0 0.013708,0.0026631 0.014577,0.00796128zm1.02031 -0.0251733c0,0.00440113 -0.0260704,0.0282569 -0.0781831,0.0715394 -0.0238558,0.0203237 -0.044628,0.036891 -0.0622886,0.0497019 -0.0176606,0.0128109 -0.0322376,0.0236315 -0.043731,0.0324618 -0.0556449,0.0388533 -0.110196,0.0675868 -0.163627,0.0861164 -0.0534583,0.0185576 -0.105347,0.028285 -0.155721,0.029154 -0.0370872,0 -0.0671382,-0.0110449 -0.090097,-0.0331066 -0.0220897,-0.0185576 -0.0331346,-0.043731 -0.0331346,-0.075548 0,-0.0459175 0.0296025,-0.0953952 0.0887795,-0.148405 0.03092,-0.029154 0.0633819,-0.0510195 0.0974135,-0.0655964 0.0340036,-0.014577 0.0691286,-0.0227345 0.105347,-0.0245006 0.0273599,0 0.0423854,0.0132595 0.0450485,0.0397503 0,0.0256219 -0.0198752,0.0507952 -0.0596255,0.07552 -0.0167916,0.0114934 -0.0326861,0.0196509 -0.0477116,0.0245286 -0.0150255,0.00484965 -0.0287055,0.00770898 -0.0410679,0.00860603 -0.0203237,0 -0.0304995,-0.00484965 -0.0304995,-0.014577 0,-0.0256219 0.0132595,-0.0384328 0.0397503,-0.0384328 0.00179409,0 0.00375638,0.000224261 0.00597096,0.000672784 0.00221458,0.000448523 0.00552244,0.0015418 0.0099516,0.00330786 0.00529817,0.0026631 0.0136799,0.00484965 0.0251733,0.00661571 0.0123624,0 0.0238558,-0.00706423 0.0344522,-0.0211927 0.0123624,-0.0141285 0.0185576,-0.0260704 0.0185576,-0.0357697 0,-0.00706423 -0.0114934,-0.0114934 -0.0344522,-0.0132595 -0.0397503,0 -0.0834813,0.0211927 -0.131193,0.0636061 -0.0432824,0.0406474 -0.0662412,0.0786316 -0.0689043,0.113953 0,0.0229588 0.0114934,0.043731 0.0344522,0.0622886 0.0176606,0.0176606 0.0450485,0.0264909 0.0821638,0.0264909 0.0529817,0 0.117036,-0.0207442 0.192136,-0.0622606 0.0247248,-0.0123904 0.0512157,-0.0278364 0.0795007,-0.0463941 0.0282569,-0.0185576 0.0578594,-0.0406193 0.0887795,-0.0662412 0.0521127,-0.0406474 0.0799492,-0.0609711 0.0834813,-0.0609711 0.00616719,0 0.00927881,0.00398064 0.00927881,0.0119419zm0.548571 -0.6281c0,0.0750995 -0.0649237,0.182857 -0.194771,0.323329 -0.0812947,0.0865649 -0.172709,0.172709 -0.2743,0.258377 -0.0335831,0.0265189 -0.0695771,0.0547758 -0.107982,0.0847988 -0.0384328,0.030051 -0.0810705,0.0618401 -0.127885,0.0954232 0.000897045,0.0185576 0.0158945,0.0357697 0.0450485,0.0516642 0.0256219,0.0141565 0.0556729,0.0212207 0.090125,0.0212207 0.0653442,0 0.141761,-0.0287335 0.229223,-0.0861444 0.00442916,-0.00353212 0.0207722,-0.0158945 0.0490291,-0.0370872 0.0282569,-0.0212207 0.0698013,-0.0521408 0.124549,-0.0927601 0.0026631,-0.00176606 0.00619522,-0.0026631 0.0105963,-0.0026631 0.0026631,0 0.00398064,0.0026631 0.00398064,0.00796128 0,0.00616719 -0.00131754,0.0110449 -0.00398064,0.014577 -0.0397503,0.0326861 -0.07552,0.0611673 -0.107309,0.0854716 -0.0318171,0.0242763 -0.0605225,0.0443757 -0.0861444,0.0602702 -0.0918631,0.0556729 -0.17313,0.0839298 -0.2438,0.0848269 -0.120148,0 -0.181091,-0.0472631 -0.182857,-0.141789 0,-0.0830328 0.0441515,-0.191687 0.132482,-0.325964 0.0848269,-0.124577 0.181988,-0.233232 0.29154,-0.325964 0.113953,-0.0980583 0.206713,-0.147087 0.278252,-0.147087 0.0211927,0 0.0388813,0.00706423 0.0530098,0.0211927 0.0141285,0.0132595 0.0211927,0.030023 0.0211927,0.0503467zm-0.060943 0.014577c0,-0.0353212 -0.0225383,-0.0512437 -0.0675868,-0.0477116 -0.0247248,0.00176606 -0.0547758,0.0130352 -0.090097,0.0338074 -0.0353492,0.0207442 -0.0768656,0.052337 -0.124549,0.0947504 -0.0477116,0.0397503 -0.0907698,0.0805939 -0.129203,0.122559 -0.0384328,0.0419649 -0.0731092,0.0854716 -0.104029,0.13052 -0.0406193,0.059177 -0.074651,0.125867 -0.102039,0.200097 -0.0220617,0.060943 -0.0344522,0.11129 -0.0370872,0.15104 0,0.0114934 0.00221458,0.0207722 0.00661571,0.0278364 0.0238558,-0.0114934 0.0759685,-0.0494777 0.156366,-0.113953 0.0953952,-0.0786316 0.182857,-0.156815 0.262358,-0.234549 0.0768656,-0.0750715 0.131193,-0.136491 0.162982,-0.184175 0.0441795,-0.0645032 0.0662692,-0.124577 0.0662692,-0.180222zm0.20803 0.609542c0,0.00529817 -0.00176606,0.0101478 -0.00529817,0.014577 -0.0459175,0.0388533 -0.0847988,0.0706704 -0.116588,0.0953952 -0.0318171,0.0247528 -0.0569904,0.0432824 -0.075548,0.0556729 -0.0883309,0.059177 -0.16828,0.0896485 -0.239819,0.0914145 -0.0609711,0 -0.0918911,-0.0313686 -0.0927601,-0.0940776 0,-0.0388813 0.0225102,-0.0843503 0.0675587,-0.136491 0.0477116,-0.0494496 0.088359,-0.074651 0.121914,-0.07552 0.0114934,0 0.0216412,0.00440113 0.0304715,0.0132595 0.00796128,0.00706423 0.0128109,0.0158945 0.014577,0.0264909 0,0.0158945 -0.00793325,0.031789 -0.0238278,0.0477116 -0.00885832,0.00706423 -0.0172401,0.0139042 -0.0252014,0.0205199 -0.00793325,0.00664374 -0.016343,0.0134837 -0.0251733,0.0205479 -0.0264909,0.0229588 -0.0604945,0.0446 -0.102011,0.0649237 -0.000897045,0.0212207 0.00793325,0.0388813 0.0264909,0.0530098 0.0150255,0.00972734 0.0313686,0.014577 0.0490291,0.014577 0.0459455,0 0.114401,-0.0296025 0.205395,-0.0887795 0.00883029,-0.00619522 0.0278084,-0.0198752 0.0569624,-0.0410679 0.029154,-0.0212207 0.0689043,-0.0507952 0.119251,-0.0887795 0.0026631,-0.000897045 0.0057467,-0.00134557 0.00927881,-0.00134557 0.0026631,0 0.00442916,0.0026631 0.00529817,0.00796128zm-0.353772 0.00529817c0,-0.00442916 -0.0057467,-0.00796128 -0.0172401,-0.0105963 -0.0150255,0 -0.0349007,0.0136799 -0.0596255,0.0410679 -0.0247248,0.0247528 -0.0371153,0.0468146 -0.0371153,0.0662692 0.00442916,0 0.0123904,-0.00221458 0.0238558,-0.00664374 0.0574389,-0.0335551 0.0874619,-0.0636061 0.090125,-0.090097zm0.899709 -0.00661571c0,0.00706423 -0.00176606,0.0119139 -0.00529817,0.014577 -0.0450485,0.0388533 -0.0834813,0.0708666 -0.11527,0.096068 -0.0318171,0.0251733 -0.0569904,0.0439272 -0.07552,0.0563176 -0.0450765,0.030023 -0.0856959,0.0527575 -0.121914,0.0682315 -0.0362182,0.015446 -0.0689043,0.023183 -0.0980583,0.023183 -0.0477116,0 -0.0728849,-0.0357697 -0.07552,-0.107337 -0.0212207,0.0176886 -0.0516922,0.0366667 -0.0914426,0.0569904 -0.0379843,0.0203237 -0.0697733,0.0304715 -0.0953952,0.0304715 -0.0176886,0 -0.0340317,-0.00442916 -0.0490291,-0.0132595 -0.0150255,-0.00706423 -0.0225383,-0.0176606 -0.0225383,-0.031789 0,-0.0397503 0.0357697,-0.0874619 0.107337,-0.143107 0.0370872,-0.0273879 0.0713431,-0.0481601 0.102684,-0.0622886 0.0313686,-0.0141285 0.0607468,-0.0211927 0.0881347,-0.0211927 0.0326861,0 0.0494496,0.00796128 0.0503467,0.0238558 0,0.0176606 -0.00529817,0.0304715 -0.0158945,0.0384328 -0.0105963,0.00793325 -0.0220897,0.0119139 -0.0344522,0.0119139 0,-0.000897045 -0.000448523,-0.0026631 -0.00134557,-0.00529817 -0.000869013,-0.00176606 -0.00176606,-0.00375638 -0.00263507,-0.00597096 -0.000897045,-0.00221458 -0.00221458,-0.00507391 -0.00398064,-0.00860603 -0.00529817,-0.0123624 -0.0158945,-0.0194266 -0.031789,-0.0211927 -0.0353492,0 -0.0750995,0.0194266 -0.119279,0.0582799 -0.0450485,0.0371153 -0.0675587,0.0706704 -0.0675587,0.100721 0,0.0185576 0.00661571,0.0282569 0.0198752,0.029154 0.0468146,0 0.0967127,-0.0181091 0.149722,-0.0543273 0.0114934,-0.00796128 0.0313686,-0.0273879 0.0596255,-0.058308 0.0176606,-0.0220897 0.0326861,-0.0322376 0.0450485,-0.0304715 0.0114934,0 0.0172401,0.00440113 0.0172401,0.0132314 0,0.00796128 -0.00751276,0.0252014 -0.0225383,0.0516922 -0.0141285,0.0247248 -0.0211927,0.0428339 -0.0211927,0.0543273 0,0.0326861 0.016343,0.0494777 0.0490291,0.0503467 0.0397503,0 0.103356,-0.030023 0.190818,-0.090097 0.0114654,-0.00706423 0.031789,-0.0211927 0.060943,-0.0424134 0.029154,-0.0211927 0.0680353,-0.0498982 0.116616,-0.0861164 0.00176606,-0.00176606 0.00440113,-0.0026631 0.00793325,-0.0026631 0.00353212,0 0.00529817,0.00221458 0.00529817,0.00664374zm0.618821 0.00131754c0,0.00529817 -0.00176606,0.0101478 -0.00529817,0.014577 -0.0856678,0.0706704 -0.145742,0.117485 -0.180194,0.140444 -0.0803977,0.0547758 -0.149751,0.0821638 -0.20803,0.0821638 -0.0494777,0 -0.074651,-0.0264909 -0.075548,-0.0795007 0,-0.00972734 0.00112131,-0.0218655 0.00330786,-0.0364425 0.00221458,-0.014577 0.00597096,-0.0320133 0.0112691,-0.052337 -0.0335551,0.0194266 -0.067783,0.0395261 -0.102684,0.0602983 -0.0349007,0.0207442 -0.0708946,0.0435067 -0.10801,0.0682315 -0.0521127,0.0344522 -0.0803697,0.0516642 -0.0847988,0.0516642 -0.000869013,0 -0.00440113,-0.00176606 -0.0105963,-0.00529817 -0.00529817,-0.00263507 -0.00796128,-0.00571866 -0.00796128,-0.00927881 0,-0.00616719 0.00375638,-0.016315 0.0112691,-0.0304715 0.00751276,-0.0141285 0.0200994,-0.0335551 0.03776,-0.058308 0.0185576,-0.0273599 0.0333589,-0.0492254 0.0444037,-0.0655684 0.0110449,-0.016343 0.0187819,-0.0280607 0.023183,-0.0351249 -0.00353212,-0.00529817 -0.00529817,-0.0128109 -0.00529817,-0.0225383 0,-0.00706423 0.0057467,-0.014577 0.0172401,-0.0225102 0.0123624,-0.00706423 0.0220617,-0.0110449 0.0291259,-0.0119419 0.028285,0 0.0433105,0.0114934 0.0450765,0.0344522 0,0.00619522 -0.0141565,0.0287335 -0.0424134,0.0675868 -0.0132595,0.0167916 -0.0245006,0.03092 -0.0337794,0.0424134 -0.00927881,0.0114654 -0.0174644,0.0207442 -0.0245286,0.0278084 0.16786,-0.114822 0.276066,-0.172261 0.324646,-0.172261 0.00442916,0 0.00796128,0.0057467 0.0105963,0.0172401 0,0.00176606 -0.0136799,0.0181091 -0.0410679,0.0490291 -0.0256219,0.031789 -0.0388813,0.0618401 -0.0397503,0.090097 0,0.0318171 0.0225102,0.0481601 0.0675868,0.0490291 0.0335551,0 0.0896485,-0.0264909 0.16828,-0.0795007 0.0149975,-0.00883029 0.0689043,-0.0485806 0.161664,-0.119251 0.00263507,-0.000897045 0.00571866,-0.00131754 0.00925078,-0.00131754 0.0026631,0 0.00442916,0.00218655 0.00529817,0.00661571zm0.0861444 0.186838c0,0.030023 -0.0207442,0.045497 -0.0622886,0.046366 -0.0370872,0 -0.0560934,-0.015446 -0.0569624,-0.046366 0,-0.03092 0.0194266,-0.0463941 0.058308,-0.0463941 0.0149975,0 0.029154,0.00487768 0.0423854,0.014577 0.0114934,0.00706423 0.0176886,0.0176886 0.0185576,0.0318171z"/>
  <path class="fil1 str0" d="M5.17674 1.28448c0.497888,-0.11883 1.34616,-0.186557 2.37039,-0.157768"/>
  <path class="fil1 str0" d="M6.27461 1.32721c0.336532,-0.0887795 0.897746,-0.105851 1.56537,-0.016343"/>
 </g>
</svg>
