<?xml version="1.0" encoding="UTF-8"?>
<!DOCTYPE svg PUBLIC "-//W3C//DTD SVG 1.1//EN" "http://www.w3.org/Graphics/SVG/1.1/DTD/svg11.dtd">
<!-- Creator: CorelDRAW -->
<svg xmlns="http://www.w3.org/2000/svg" xml:space="preserve" width="103.377mm" height="24.5733mm" style="shape-rendering:geometricPrecision; text-rendering:geometricPrecision; image-rendering:optimizeQuality; fill-rule:evenodd; clip-rule:evenodd"
viewBox="0 0 370.111 87.9775"
 xmlns:xlink="http://www.w3.org/1999/xlink">
 <defs>
  <style type="text/css">
   <![CDATA[
    .fil0 {fill:#C00000}
    .fil1 {fill:white}
    .fil3 {fill:#C00000;fill-rule:nonzero}
    .fil2 {fill:white;fill-rule:nonzero}
   ]]>
  </style>
 </defs>
 <g id="Layer_x0020_1">
  <metadata id="CorelCorpID_0Corel-Layer"/>
  <g id="_342793008">
   <path id="_354292200" class="fil0" d="M43.9878 0c24.2946,0 43.9896,19.6947 43.9896,43.9878 0,24.2946 -19.6951,43.9896 -43.9896,43.9896 -24.2931,0 -43.9878,-19.6951 -43.9878,-43.9896 0,-24.2931 19.6947,-43.9878 43.9878,-43.9878z"/>
   <path id="_354293328" class="fil1" d="M43.9878 15.7733c15.5839,0 28.216,12.6324 28.216,28.216 0,15.5825 -12.632,28.216 -28.216,28.216 -6.58436,0 -12.6424,-2.25696 -17.4435,-6.0373l-8.43711 3.18137 2.42022 -9.68052c-3.00308,-4.48492 -4.75559,-9.87743 -4.75559,-15.6795 0,-15.5836 12.6338,-28.216 28.216,-28.216z"/>
   <path id="_354435648" class="fil0" d="M84.0886 13.3234l286.022 0 0 61.3289 -286.022 0c7.70603,-7.92371 12.4541,-18.7384 12.4541,-30.6645 0,-11.926 -4.74664,-22.7407 -12.4541,-30.6645z"/>
   <g>
    <path id="_339503208" class="fil2" d="M108.49 26.8551l0 -0.905792 4.94033 0 0 0.675227c-0.397045,0.0200492 -0.708881,0.0712461 -0.939804,0.149295 -0.227701,0.0812707 -0.3906,0.206936 -0.481896,0.37986 -0.0708881,0.138912 -0.10848,0.312194 -0.10848,0.515908 0.00680239,0.0472587 0.0103826,0.0984556 0.0103826,0.149295 0.0272096,0.278182 0.0912952,0.620808 0.196553,1.0243 0.380218,1.23875 0.854953,2.68766 1.4285,4.34995 0.573191,1.65943 0.909014,2.62966 1.00747,2.91142 0.0984556,0.281046 0.200492,0.579993 0.298589,0.89899l0.0408143 0c0.0644437,-0.224121 0.13927,-0.468291 0.21696,-0.726424 0.0816287,-0.257775 0.159319,-0.508747 0.234145,-0.752917 0.0784065,-0.24775 0.302169,-0.956989 0.682387,-2.12772 0.376638,-1.17359 0.657684,-2.03893 0.837768,-2.59529 0.183307,-0.556722 0.35623,-1.08588 0.51913,-1.5846 0.162899,-0.502303 0.512327,-1.60501 1.04828,-3.30811l0.655178 0c0.661264,2.09657 1.08194,3.39618 1.252,3.89849 0.172924,0.501945 0.579993,1.70991 1.21799,3.61672 0.641215,1.9104 1.05509,3.18638 1.24878,3.82724l0.0472587 0c1.40809,-4.25472 2.26627,-6.86719 2.58169,-7.84781 0.315774,-0.977396 0.52271,-1.5982 0.624746,-1.866 0.1049,-0.268157 0.220541,-0.51913 0.35265,-0.753275l-1.62828 0.0712461 0 -0.905792 4.1355 0 0 0.675227c-0.345848,0.0404563 -0.630474,0.101678 -0.854953,0.182948 -0.226985,0.0848509 -0.427119,0.230923 -0.603981,0.444662 -0.172566,0.210516 -0.342268,0.505525 -0.505167,0.882163 -0.162899,0.380218 -0.746831,2.07974 -1.75394,5.10287 -1.00819,3.0199 -1.83235,5.40826 -2.47714,7.16578l-0.603981 0 -3.80719 -10.8845 -3.58951 10.8845 -0.587154 0c-2.53765,-7.57285 -3.85409,-11.4985 -3.94932,-11.7731 -0.0980976,-0.275318 -0.179726,-0.52271 -0.250972,-0.740028 -0.0676659,-0.220183 -0.125307,-0.417452 -0.172924,-0.593598 -0.0472587,-0.173282 -0.0816287,-0.339045 -0.108838,-0.49192l-1.15354 0.0508389zm20.975 8.28567c0,-0.716041 0.122443,-1.40165 0.366613,-2.05611 0.24775,-0.65482 0.593956,-1.23159 1.04506,-1.73747 0.451464,-0.505525 0.991001,-0.905434 1.62148,-1.20438 0.627968,-0.298589 1.32682,-0.447526 2.09728,-0.447526 0.542759,0 1.05544,0.0912952 1.54056,0.278182 0.481538,0.186529 0.905792,0.464711 1.27205,0.834546 0.363033,0.373415 0.651597,0.84099 0.865336,1.40809 0.210516,0.566747 0.315416,1.22801 0.315416,1.98487l-7.02651 0.118505c0,0.0408143 0,0.0816287 0,0.118863 0,0.742893 0.0608635,1.41812 0.179726,2.02568 0.125665,0.640857 0.322218,1.18755 0.59682,1.64188 0.271738,0.455044 0.621166,0.804472 1.04864,1.05186 0.427477,0.24775 0.940162,0.369835 1.5334,0.369835 0.308972,0 0.624388,-0.0440365 0.943384,-0.128529 0.318996,-0.0887891 0.63119,-0.206936 0.926557,-0.356588 0.298589,-0.149295 0.573191,-0.332601 0.824163,-0.543117 0.24775,-0.210158 0.457908,-0.433921 0.624388,-0.675227l0.4955 0.411008c-0.278182,0.420674 -0.593956,0.773324 -0.953409,1.06547 -0.356588,0.291429 -0.729646,0.529154 -1.11309,0.712103 -0.37986,0.183307 -0.766522,0.315774 -1.15318,0.397045 -0.383798,0.0816287 -0.746473,0.122443 -1.07943,0.122443 -0.702436,0 -1.35726,-0.125665 -1.9641,-0.376638 -0.607561,-0.250972 -1.13027,-0.614005 -1.57493,-1.0823 -0.443945,-0.471871 -0.793374,-1.03504 -1.04793,-1.69988 -0.254553,-0.66198 -0.383798,-1.40487 -0.383798,-2.23262zm2.15815 -1.6562l5.18808 0c0,-0.362675 -0.0411724,-0.722127 -0.118863,-1.08194 -0.0816287,-0.359453 -0.206936,-0.682387 -0.383798,-0.967013 -0.176146,-0.288565 -0.403489,-0.51913 -0.681671,-0.695276 -0.278182,-0.180442 -0.614363,-0.268515 -1.01463,-0.268515 -0.793732,0 -1.44855,0.237726 -1.96804,0.709597 -0.51555,0.474735 -0.858175,1.24126 -1.02107,2.30315zm14.2131 1.86636c0,-0.800534 0.13211,-1.54343 0.393465,-2.23584 0.261355,-0.692412 0.620808,-1.29281 1.07943,-1.79834 0.454328,-0.505167 0.993865,-0.902212 1.61825,-1.19078 0.62403,-0.288207 1.29603,-0.430699 2.01888,-0.430699 0.712103,0 1.38411,0.13211 2.00527,0.393465 0.624388,0.260997 1.16321,0.620808 1.62506,1.07872 0.461488,0.461488 0.824521,1.00783 1.09232,1.63902 0.268157,0.630832 0.403847,1.31644 0.403847,2.04895 0,0.790509 -0.13211,1.53018 -0.393465,2.22295 -0.261355,0.688474 -0.620808,1.28887 -1.0823,1.8012 -0.461488,0.509105 -1.00425,0.912952 -1.62864,1.20796 -0.62761,0.295009 -1.30284,0.444662 -2.0221,0.444662 -0.716041,0 -1.38447,-0.129245 -2.00563,-0.383798 -0.617227,-0.254195 -1.15676,-0.613647 -1.61825,-1.07156 -0.461488,-0.458624 -0.824163,-1.00461 -1.0891,-1.63938 -0.264935,-0.630832 -0.397045,-1.32647 -0.397045,-2.08654zm2.07688 -0.593598c0,0.627968 0.0640857,1.23839 0.192973,1.83557 0.129245,0.593598 0.325799,1.12311 0.590376,1.58102 0.268157,0.461847 0.600758,0.828102 1.00103,1.10628 0.400267,0.278182 0.868558,0.417452 1.40451,0.417452 0.539537,0 0.991001,-0.122443 1.35761,-0.363391 0.369477,-0.24059 0.668066,-0.559586 0.895409,-0.956631 0.227343,-0.397045 0.393465,-0.848509 0.49192,-1.35726 0.0984556,-0.509105 0.149653,-1.0311 0.149653,-1.56741 0,-0.610783 -0.0579993,-1.21118 -0.169702,-1.8055 -0.11206,-0.59682 -0.292145,-1.12955 -0.536315,-1.59785 -0.244528,-0.471513 -0.563166,-0.851373 -0.949829,-1.13994 -0.386662,-0.291787 -0.851731,-0.437859 -1.39449,-0.437859 -0.539895,0 -0.997803,0.118863 -1.37802,0.356588 -0.383082,0.237368 -0.695276,0.556364 -0.939446,0.953409 -0.244528,0.397045 -0.427835,0.851373 -0.543117,1.36728 -0.115283,0.515908 -0.172566,1.05186 -0.172566,1.60823zm9.52693 -3.8276l0 -0.905792 1.64904 0 0 -0.427477c0,-0.753275 0.0644437,-1.4285 0.193689,-2.0289 0.13211,-0.597178 0.342268,-1.10593 0.634054,-1.52338 0.292145,-0.417452 0.675227,-0.73609 1.14352,-0.963791 0.468291,-0.223763 1.03862,-0.335823 1.71026,-0.335823 0.227343,0 0.467933,0.0272096 0.729288,0.0848509 0.264935,0.0544191 0.505525,0.146072 0.726066,0.268157 0.220541,0.122085 0.407069,0.278182 0.556722,0.465069 0.148937,0.190109 0.223763,0.417094 0.223763,0.681671 0,0.271738 -0.0812707,0.49192 -0.24775,0.665202 -0.162899,0.172924 -0.373057,0.257775 -0.62403,0.257775 -0.179726,0 -0.322577,-0.0272096 -0.434279,-0.0848509 -0.108838,-0.0576413 -0.200492,-0.128887 -0.271738,-0.214096 -0.0712461,-0.0880731 -0.122443,-0.179726 -0.152517,-0.281046 -0.0307898,-0.0984556 -0.0476167,-0.190109 -0.0476167,-0.268157 0,-0.0812707 0.0100246,-0.162899 0.0272096,-0.24417 0.016827,-0.0852089 0.0440365,-0.169702 0.0848509,-0.254553 -0.0984556,-0.132468 -0.234145,-0.227701 -0.403847,-0.278182 -0.169344,-0.0544191 -0.325799,-0.0816287 -0.471513,-0.0816287 -0.319354,0 -0.579993,0.0712461 -0.784065,0.213738 -0.206936,0.142492 -0.366255,0.329379 -0.485118,0.563524 -0.121727,0.230565 -0.203356,0.491562 -0.254553,0.780127 -0.0504809,0.288565 -0.0741103,0.576771 -0.0741103,0.868916l0 2.13702 2.72418 0 0 0.787645 -2.72418 0.0472587 0.0200492 7.18261c0,0.27496 -0.00322218,0.512685 -0.0103826,0.722843 -0.00680239,0.210516 -0.0336539,0.430699 -0.0809126,0.661622l1.26166 -0.0612215 0 0.838126 -4.12225 0 0 -0.607203c0.305392,0 0.539537,-0.0608635 0.699214,-0.183307 0.159319,-0.122085 0.274602,-0.295009 0.345848,-0.512327 0.0712461,-0.220183 0.11206,-0.481538 0.118863,-0.787287 0.00644437,-0.305392 0.0100246,-0.640857 0.0100246,-1.00425l-0.0204072 -6.20879 -1.64904 0.0300737zm6.89118 0l0 -0.905792 1.64904 0 0 -0.427477c0,-0.753275 0.0640857,-1.4285 0.193331,-2.0289 0.13211,-0.597178 0.342626,-1.10593 0.634412,-1.52338 0.291787,-0.417452 0.675227,-0.73609 1.14352,-0.963791 0.468291,-0.223763 1.03826,-0.335823 1.71026,-0.335823 0.226985,0 0.467933,0.0272096 0.729288,0.0848509 0.264577,0.0544191 0.505167,0.146072 0.726066,0.268157 0.220183,0.122085 0.407069,0.278182 0.556364,0.465069 0.148937,0.190109 0.223763,0.417094 0.223763,0.681671 0,0.271738 -0.0812707,0.49192 -0.247392,0.665202 -0.162899,0.172924 -0.373415,0.257775 -0.624388,0.257775 -0.179726,0 -0.322218,-0.0272096 -0.434279,-0.0848509 -0.108838,-0.0576413 -0.200133,-0.128887 -0.271738,-0.214096 -0.0712461,-0.0880731 -0.122085,-0.179726 -0.152159,-0.281046 -0.0307898,-0.0984556 -0.0476167,-0.190109 -0.0476167,-0.268157 0,-0.0812707 0.0100246,-0.162899 0.0272096,-0.24417 0.016827,-0.0852089 0.0440365,-0.169702 0.0844928,-0.254553 -0.0984556,-0.132468 -0.234145,-0.227701 -0.403847,-0.278182 -0.169344,-0.0544191 -0.325799,-0.0816287 -0.471155,-0.0816287 -0.319354,0 -0.580351,0.0712461 -0.784065,0.213738 -0.206936,0.142492 -0.366613,0.329379 -0.485476,0.563524 -0.121727,0.230565 -0.203356,0.491562 -0.254195,0.780127 -0.0504809,0.288565 -0.0744683,0.576771 -0.0744683,0.868916l0 2.13702 2.72418 0 0 0.787645 -2.72418 0.0472587 0.0204072 7.18261c0,0.27496 -0.00358021,0.512685 -0.0103826,0.722843 -0.00680239,0.210516 -0.0336539,0.430699 -0.0812707,0.661622l1.26202 -0.0612215 0 0.838126 -4.12225 0 0 -0.607203c0.305392,0 0.539537,-0.0608635 0.698856,-0.183307 0.159319,-0.122085 0.27496,-0.295009 0.346206,-0.512327 0.0712461,-0.220183 0.111702,-0.481538 0.118505,-0.787287 0.00680239,-0.305392 0.0100246,-0.640857 0.0100246,-1.00425l-0.0200492 -6.20879 -1.64904 0.0300737zm7.21662 4.21104c0,-0.716041 0.122443,-1.40165 0.366255,-2.05611 0.248108,-0.65482 0.593956,-1.23159 1.04506,-1.73747 0.451464,-0.505525 0.991001,-0.905434 1.62183,-1.20438 0.62761,-0.298589 1.32682,-0.447526 2.09693,-0.447526 0.543117,0 1.05544,0.0912952 1.54056,0.278182 0.481896,0.186529 0.90615,0.464711 1.27241,0.834546 0.362675,0.373415 0.651239,0.84099 0.865336,1.40809 0.210158,0.566747 0.315416,1.22801 0.315416,1.98487l-7.02687 0.118505c0,0.0408143 0,0.0816287 0,0.118863 0,0.742893 0.0608635,1.41812 0.179726,2.02568 0.125665,0.640857 0.322218,1.18755 0.597178,1.64188 0.271738,0.455044 0.621166,0.804472 1.04828,1.05186 0.427835,0.24775 0.940162,0.369835 1.53376,0.369835 0.308972,0 0.624388,-0.0440365 0.943026,-0.128529 0.319354,-0.0887891 0.63119,-0.206936 0.926557,-0.356588 0.298589,-0.149295 0.573549,-0.332601 0.824521,-0.543117 0.247392,-0.210158 0.457908,-0.433921 0.62403,-0.675227l0.4955 0.411008c-0.278182,0.420674 -0.593956,0.773324 -0.953409,1.06547 -0.35623,0.291429 -0.729646,0.529154 -1.11273,0.712103 -0.380218,0.183307 -0.76688,0.315774 -1.15354,0.397045 -0.38344,0.0816287 -0.746473,0.122443 -1.07907,0.122443 -0.702436,0 -1.35726,-0.125665 -1.96446,-0.376638 -0.607203,-0.250972 -1.12991,-0.614005 -1.57457,-1.0823 -0.444303,-0.471871 -0.793732,-1.03504 -1.04793,-1.69988 -0.254553,-0.66198 -0.383798,-1.40487 -0.383798,-2.23262zm2.15779 -1.6562l5.18808 0c0,-0.362675 -0.0408143,-0.722127 -0.118863,-1.08194 -0.0816287,-0.359453 -0.206936,-0.682387 -0.38344,-0.967013 -0.176146,-0.288565 -0.403489,-0.51913 -0.681671,-0.695276 -0.278182,-0.180442 -0.614363,-0.268515 -1.01499,-0.268515 -0.793374,0 -1.44855,0.237726 -1.96768,0.709597 -0.515908,0.474735 -0.858533,1.24126 -1.02143,2.30315zm8.75754 -2.38836l0 -0.834546 0.62403 0c0.292145,0 0.536315,-0.0136048 0.729646,-0.0372341 0.193689,-0.0239874 0.356588,-0.0544191 0.485118,-0.0984556 0.132468,-0.0408143 0.241306,-0.0884311 0.329379,-0.13927 0.0880731,-0.0508389 0.172924,-0.1049 0.254553,-0.162899l0.593598 0c0.0200492,0.200133 0.0408143,0.451464 0.0576413,0.753633 0.016827,0.298231 0.0307898,0.684893 0.0440365,1.15676 0.149653,-0.240948 0.342626,-0.481538 0.580351,-0.726066 0.234145,-0.241306 0.498365,-0.461488 0.79409,-0.655178 0.295009,-0.189393 0.610425,-0.349428 0.953409,-0.471155 0.339045,-0.125665 0.688474,-0.186529 1.04828,-0.186529 0.169344,0 0.335823,0.0236294 0.495142,0.0741103 0.162899,0.0511969 0.302169,0.129245 0.421032,0.234145 0.118505,0.105616 0.213738,0.237726 0.288565,0.397045 0.0712461,0.159319 0.10848,0.349428 0.10848,0.576771 0,0.0916533 -0.017185,0.196911 -0.0511969,0.308972 -0.0336539,0.111702 -0.0880731,0.217318 -0.162899,0.315774 -0.0776905,0.10132 -0.172566,0.182948 -0.288207,0.250972 -0.115283,0.0644437 -0.257775,0.0980976 -0.427477,0.0980976 -0.13927,0 -0.264935,-0.0372341 -0.380218,-0.10848 -0.11206,-0.0712461 -0.206936,-0.16648 -0.281404,-0.278182 -0.0744683,-0.11206 -0.132468,-0.24417 -0.166122,-0.390242 -0.03437,-0.149295 -0.0411724,-0.308972 -0.0204072,-0.475093 -0.0139628,0 -0.0307898,0 -0.0508389,0 -0.244528,0.00680239 -0.488698,0.0579993 -0.733226,0.149295 -0.264219,0.10848 -0.525932,0.261355 -0.780127,0.457908 -0.254553,0.200492 -0.4955,0.441081 -0.719263,0.722843 -0.227343,0.281762 -0.427835,0.593956 -0.607561,0.93336l0.0204072 5.06563c0,0.274602 -0.00358021,0.51555 -0.0100246,0.729288 -0.00680239,0.210158 -0.0307898,0.434637 -0.0712461,0.668424l1.252 -0.0612215 0 0.838126 -4.14301 0 0 -0.607203c0.305392,0 0.535957,-0.0608635 0.692054,-0.186887 0.159677,-0.124949 0.275318,-0.295009 0.346564,-0.518772 0.0708881,-0.220541 0.111702,-0.485476 0.121727,-0.79409 0.0103826,-0.308614 0.0139628,-0.648017 0.0139628,-1.01749l0 -4.71298c0,-0.213738 0.00322218,-0.431057 0.00966655,-0.648017 0.00716041,-0.220899 0.0307898,-0.444662 0.0716041,-0.682029l-1.44211 0.0608635zm13.9889 -0.16648l0 -0.905792 1.64904 0 0 -0.427477c0,-0.753275 0.0640857,-1.4285 0.193331,-2.0289 0.13211,-0.597178 0.342626,-1.10593 0.634412,-1.52338 0.291787,-0.417452 0.675227,-0.73609 1.14352,-0.963791 0.468291,-0.223763 1.03826,-0.335823 1.71026,-0.335823 0.226985,0 0.467933,0.0272096 0.729288,0.0848509 0.264577,0.0544191 0.505167,0.146072 0.726066,0.268157 0.220183,0.122085 0.407069,0.278182 0.556364,0.465069 0.149295,0.190109 0.223763,0.417094 0.223763,0.681671 0,0.271738 -0.0812707,0.49192 -0.247392,0.665202 -0.162899,0.172924 -0.373415,0.257775 -0.624388,0.257775 -0.179726,0 -0.322218,-0.0272096 -0.433921,-0.0848509 -0.109196,-0.0576413 -0.200492,-0.128887 -0.271738,-0.214096 -0.0716041,-0.0880731 -0.122443,-0.179726 -0.152517,-0.281046 -0.0307898,-0.0984556 -0.0476167,-0.190109 -0.0476167,-0.268157 0,-0.0812707 0.0100246,-0.162899 0.0272096,-0.24417 0.016827,-0.0852089 0.0440365,-0.169702 0.0844928,-0.254553 -0.0984556,-0.132468 -0.234145,-0.227701 -0.403847,-0.278182 -0.169344,-0.0544191 -0.325799,-0.0816287 -0.471155,-0.0816287 -0.319354,0 -0.580351,0.0712461 -0.784065,0.213738 -0.206936,0.142492 -0.366613,0.329379 -0.485476,0.563524 -0.121727,0.230565 -0.203356,0.491562 -0.254195,0.780127 -0.0504809,0.288565 -0.0744683,0.576771 -0.0744683,0.868916l0 2.13702 2.72418 0 0 0.787645 -2.72418 0.0472587 0.0204072 7.18261c0,0.27496 -0.00358021,0.512685 -0.0103826,0.722843 -0.00680239,0.210516 -0.0336539,0.430699 -0.0812707,0.661622l1.26202 -0.0612215 0 0.838126 -4.12225 0 0 -0.607203c0.305392,0 0.539537,-0.0608635 0.698856,-0.183307 0.159319,-0.122085 0.27496,-0.295009 0.346206,-0.512327 0.0712461,-0.220183 0.111702,-0.481538 0.118863,-0.787287 0.00644437,-0.305392 0.00966655,-0.640857 0.00966655,-1.00425l-0.0200492 -6.20879 -1.64904 0.0300737zm7.09776 0.16648l0 -0.834546 0.624388 0c0.292145,0 0.535957,-0.0136048 0.729646,-0.0372341 0.193689,-0.0239874 0.35623,-0.0544191 0.485118,-0.0984556 0.13211,-0.0408143 0.240948,-0.0884311 0.329379,-0.13927 0.0880731,-0.0508389 0.172566,-0.1049 0.254195,-0.162899l0.593598 0c0.0204072,0.200133 0.0411724,0.451464 0.0579993,0.753633 0.016827,0.298231 0.0307898,0.684893 0.0440365,1.15676 0.149295,-0.240948 0.342626,-0.481538 0.580351,-0.726066 0.234145,-0.241306 0.498365,-0.461488 0.793732,-0.655178 0.295367,-0.189393 0.610425,-0.349428 0.953409,-0.471155 0.339403,-0.125665 0.688832,-0.186529 1.04864,-0.186529 0.169344,0 0.335823,0.0236294 0.495142,0.0741103 0.162899,0.0511969 0.301811,0.129245 0.420674,0.234145 0.118863,0.105616 0.213738,0.237726 0.288565,0.397045 0.0712461,0.159319 0.10848,0.349428 0.10848,0.576771 0,0.0916533 -0.016827,0.196911 -0.0508389,0.308972 -0.0336539,0.111702 -0.0880731,0.217318 -0.162899,0.315774 -0.0776905,0.10132 -0.172924,0.182948 -0.288207,0.250972 -0.115283,0.0644437 -0.257775,0.0980976 -0.427835,0.0980976 -0.138912,0 -0.264577,-0.0372341 -0.37986,-0.10848 -0.11206,-0.0712461 -0.206936,-0.16648 -0.281404,-0.278182 -0.0748263,-0.11206 -0.132468,-0.24417 -0.16648,-0.390242 -0.034012,-0.149295 -0.0408143,-0.308972 -0.0200492,-0.475093 -0.0139628,0 -0.0307898,0 -0.0511969,0 -0.244528,0.00680239 -0.48834,0.0579993 -0.732868,0.149295 -0.264577,0.10848 -0.525932,0.261355 -0.780485,0.457908 -0.254195,0.200492 -0.4955,0.441081 -0.719263,0.722843 -0.226985,0.281762 -0.427477,0.593956 -0.607203,0.93336l0.0200492 5.06563c0,0.274602 -0.00322218,0.51555 -0.00966655,0.729288 -0.00716041,0.210158 -0.0307898,0.434637 -0.0712461,0.668424l1.25164 -0.0612215 0 0.838126 -4.14266 0 0 -0.607203c0.305392,0 0.535957,-0.0608635 0.692054,-0.186887 0.159677,-0.124949 0.27496,-0.295009 0.346206,-0.518772 0.0708881,-0.220541 0.11206,-0.485476 0.122085,-0.79409 0.0103826,-0.308614 0.0136048,-0.648017 0.0136048,-1.01749l0 -4.71298c0,-0.213738 0.00358021,-0.431057 0.0100246,-0.648017 0.00680239,-0.220899 0.0307898,-0.444662 0.0712461,-0.682029l-1.44211 0.0608635zm8.95732 4.04456c0,-0.716041 0.122443,-1.40165 0.366613,-2.05611 0.24775,-0.65482 0.593956,-1.23159 1.0447,-1.73747 0.451464,-0.505525 0.991359,-0.905434 1.62183,-1.20438 0.627968,-0.298589 1.32682,-0.447526 2.09693,-0.447526 0.543117,0 1.05544,0.0912952 1.54056,0.278182 0.481896,0.186529 0.90615,0.464711 1.27241,0.834546 0.363033,0.373415 0.651597,0.84099 0.865336,1.40809 0.210516,0.566747 0.315416,1.22801 0.315416,1.98487l-7.02687 0.118505c0,0.0408143 0,0.0816287 0,0.118863 0,0.742893 0.0612215,1.41812 0.179726,2.02568 0.126023,0.640857 0.322577,1.18755 0.597178,1.64188 0.271738,0.455044 0.621166,0.804472 1.04864,1.05186 0.427477,0.24775 0.939804,0.369835 1.5334,0.369835 0.308972,0 0.624388,-0.0440365 0.943026,-0.128529 0.319354,-0.0887891 0.63119,-0.206936 0.926915,-0.356588 0.298589,-0.149295 0.573191,-0.332601 0.824163,-0.543117 0.247392,-0.210158 0.457908,-0.433921 0.624388,-0.675227l0.4955 0.411008c-0.278182,0.420674 -0.593956,0.773324 -0.953409,1.06547 -0.356588,0.291429 -0.729646,0.529154 -1.11309,0.712103 -0.380218,0.183307 -0.76688,0.315774 -1.15354,0.397045 -0.38344,0.0816287 -0.746473,0.122443 -1.07907,0.122443 -0.702436,0 -1.35726,-0.125665 -1.96446,-0.376638 -0.607203,-0.250972 -1.12991,-0.614005 -1.57457,-1.0823 -0.443945,-0.471871 -0.793374,-1.03504 -1.04793,-1.69988 -0.254553,-0.66198 -0.383798,-1.40487 -0.383798,-2.23262zm2.15815 -1.6562l5.18772 0c0,-0.362675 -0.0408143,-0.722127 -0.118505,-1.08194 -0.0816287,-0.359453 -0.206936,-0.682387 -0.383798,-0.967013 -0.176146,-0.288565 -0.403489,-0.51913 -0.681671,-0.695276 -0.278182,-0.180442 -0.614363,-0.268515 -1.01499,-0.268515 -0.793374,0 -1.44819,0.237726 -1.96768,0.709597 -0.515908,0.474735 -0.858533,1.24126 -1.02107,2.30315zm8.87605 1.6562c0,-0.716041 0.122085,-1.40165 0.366255,-2.05611 0.248108,-0.65482 0.593956,-1.23159 1.04506,-1.73747 0.451464,-0.505525 0.991001,-0.905434 1.62183,-1.20438 0.62761,-0.298589 1.32647,-0.447526 2.09693,-0.447526 0.543117,0 1.05544,0.0912952 1.54056,0.278182 0.481538,0.186529 0.905792,0.464711 1.27205,0.834546 0.363033,0.373415 0.651597,0.84099 0.865336,1.40809 0.210516,0.566747 0.315416,1.22801 0.315416,1.98487l-7.02651 0.118505c0,0.0408143 0,0.0816287 0,0.118863 0,0.742893 0.0608635,1.41812 0.179726,2.02568 0.125665,0.640857 0.322218,1.18755 0.59682,1.64188 0.271738,0.455044 0.621524,0.804472 1.04864,1.05186 0.427835,0.24775 0.940162,0.369835 1.53376,0.369835 0.308614,0 0.62403,-0.0440365 0.943026,-0.128529 0.319354,-0.0887891 0.63119,-0.206936 0.926557,-0.356588 0.298589,-0.149295 0.573191,-0.332601 0.824163,-0.543117 0.24775,-0.210158 0.458266,-0.433921 0.624388,-0.675227l0.4955 0.411008c-0.278182,0.420674 -0.593956,0.773324 -0.953409,1.06547 -0.35623,0.291429 -0.729646,0.529154 -1.11273,0.712103 -0.380218,0.183307 -0.76688,0.315774 -1.15354,0.397045 -0.383798,0.0816287 -0.746473,0.122443 -1.07907,0.122443 -0.702436,0 -1.35761,-0.125665 -1.96446,-0.376638 -0.607561,-0.250972 -1.13027,-0.614005 -1.57457,-1.0823 -0.444303,-0.471871 -0.793732,-1.03504 -1.04828,-1.69988 -0.254195,-0.66198 -0.38344,-1.40487 -0.38344,-2.23262zm2.15779 -1.6562l5.18808 0c0,-0.362675 -0.0411724,-0.722127 -0.118863,-1.08194 -0.0816287,-0.359453 -0.206936,-0.682387 -0.38344,-0.967013 -0.176504,-0.288565 -0.403847,-0.51913 -0.682029,-0.695276 -0.278182,-0.180442 -0.614005,-0.268515 -1.01463,-0.268515 -0.793732,0 -1.44855,0.237726 -1.96768,0.709597 -0.515908,0.474735 -0.858533,1.24126 -1.02143,2.30315zm14.2131 1.84953c0,-0.475093 0.0579993,-0.939804 0.173282,-1.40129 0.115283,-0.461488 0.284626,-0.89899 0.501945,-1.31644 0.220541,-0.417452 0.485118,-0.807336 0.79767,-1.16392 0.308256,-0.35623 0.661264,-0.664844 1.05831,-0.926199 0.393465,-0.261355 0.824521,-0.464711 1.28923,-0.610783 0.468291,-0.146072 0.963791,-0.220183 1.48614,-0.220183 0.546339,0 1.04506,0.0712461 1.49653,0.210158 0.451464,0.142134 0.834546,0.329021 1.15676,0.563166 0.322218,0.234145 0.570327,0.505883 0.743251,0.810559 0.173282,0.30575 0.261355,0.624746 0.261355,0.960569 0,0.291429 -0.0784065,0.543117 -0.230923,0.753275 -0.152875,0.210516 -0.369835,0.318996 -0.6584,0.325799 -0.169702,0.00644437 -0.308614,-0.0236294 -0.420674,-0.0852089 -0.111702,-0.0640857 -0.203356,-0.142492 -0.27138,-0.237368 -0.0676659,-0.0916533 -0.118863,-0.193331 -0.149295,-0.302169 -0.0304317,-0.111702 -0.0476167,-0.2098 -0.0476167,-0.295009 0,-0.13211 0.0207652,-0.274602 0.0612215,-0.420674 0.0408143,-0.145714 0.115641,-0.281762 0.230923,-0.407069 -0.0952335,-0.240948 -0.227343,-0.431057 -0.407427,-0.576771 -0.176146,-0.142492 -0.369835,-0.254195 -0.576771,-0.332601 -0.206936,-0.0812707 -0.413872,-0.13211 -0.620808,-0.155739 -0.206936,-0.0239874 -0.376638,-0.03437 -0.515908,-0.03437 -0.464711,0 -0.895409,0.0952335 -1.29603,0.285342 -0.403847,0.190109 -0.750053,0.468291 -1.04148,0.834546 -0.291787,0.362675 -0.51913,0.821299 -0.688474,1.36728 -0.17006,0.546339 -0.254553,1.17073 -0.254553,1.87639 0,0.678449 0.0844928,1.30606 0.254553,1.88283 0.169344,0.573549 0.403489,1.06905 0.708881,1.48614 0.305392,0.417452 0.671647,0.73967 1.1027,0.973816 0.430699,0.234145 0.909014,0.349428 1.43172,0.349428 0.308972,0 0.614005,-0.0440365 0.919397,-0.13569 0.301811,-0.0880731 0.587154,-0.213738 0.858533,-0.373057 0.268157,-0.159319 0.51913,-0.346206 0.746473,-0.559944 0.226985,-0.213738 0.424254,-0.441081 0.583573,-0.688474l0.529154 0.410292c-0.274602,0.413872 -0.579993,0.770102 -0.919397,1.06189 -0.339403,0.295367 -0.695276,0.539537 -1.06869,0.729646 -0.369835,0.193689 -0.746473,0.332601 -1.12311,0.424254 -0.37986,0.0916533 -0.73609,0.13569 -1.07227,0.13569 -0.688832,0 -1.33685,-0.115283 -1.94763,-0.349428 -0.610425,-0.234145 -1.14316,-0.573549 -1.60143,-1.01785 -0.454328,-0.441081 -0.817361,-0.987779 -1.0823,-1.63222 -0.264577,-0.644437 -0.397045,-1.37766 -0.397045,-2.1986zm10.8337 0.016827c0,-0.800534 0.13211,-1.54343 0.393465,-2.23584 0.261355,-0.692412 0.620808,-1.29281 1.07907,-1.79834 0.454686,-0.505167 0.994223,-0.902212 1.61861,-1.19078 0.62403,-0.288207 1.29603,-0.430699 2.01852,-0.430699 0.712461,0 1.38447,0.13211 2.00563,0.393465 0.62403,0.260997 1.16321,0.620808 1.62506,1.07872 0.461488,0.461488 0.824163,1.00783 1.09232,1.63902 0.268157,0.630832 0.403847,1.31644 0.403847,2.04895 0,0.790509 -0.13211,1.53018 -0.393465,2.22295 -0.261355,0.688474 -0.620808,1.28887 -1.0823,1.8012 -0.461488,0.509105 -1.00461,0.912952 -1.62864,1.20796 -0.627968,0.295009 -1.30319,0.444662 -2.02246,0.444662 -0.715683,0 -1.38411,-0.129245 -2.00527,-0.383798 -0.617227,-0.254195 -1.15676,-0.613647 -1.61825,-1.07156 -0.461488,-0.458624 -0.824163,-1.00461 -1.0891,-1.63938 -0.264935,-0.630832 -0.397045,-1.32647 -0.397045,-2.08654zm2.07652 -0.593598c0,0.627968 0.0644437,1.23839 0.193331,1.83557 0.129245,0.593598 0.325799,1.12311 0.590376,1.58102 0.267799,0.461847 0.600758,0.828102 1.00103,1.10628 0.399909,0.278182 0.8682,0.417452 1.40451,0.417452 0.539537,0 0.991001,-0.122443 1.35726,-0.363391 0.369835,-0.24059 0.668424,-0.559586 0.895767,-0.956631 0.226985,-0.397045 0.393465,-0.848509 0.49192,-1.35726 0.0984556,-0.509105 0.149653,-1.0311 0.149653,-1.56741 0,-0.610783 -0.0579993,-1.21118 -0.17006,-1.8055 -0.111702,-0.59682 -0.291787,-1.12955 -0.535957,-1.59785 -0.244528,-0.471513 -0.563524,-0.851373 -0.950187,-1.13994 -0.386304,-0.291787 -0.851373,-0.437859 -1.39449,-0.437859 -0.539537,0 -0.997445,0.118863 -1.37766,0.356588 -0.383082,0.237368 -0.695276,0.556364 -0.939446,0.953409 -0.244528,0.397045 -0.427835,0.851373 -0.543117,1.36728 -0.115283,0.515908 -0.172924,1.05186 -0.172924,1.60823zm9.75463 -3.56946l0 -0.834904c0.444303,0 0.804114,-0.0132468 1.08265,-0.0440365 0.281404,-0.0272096 0.505167,-0.0676659 0.678449,-0.118863 0.169344,-0.0504809 0.302169,-0.108122 0.396687,-0.169344 0.0948754,-0.0612215 0.183665,-0.125665 0.264935,-0.196911l0.593598 0c0.0136048,0.149653 0.0304317,0.318996 0.0472587,0.509105 0.017543,0.193331 0.0307898,0.424254 0.0447526,0.695276 0.220183,-0.186529 0.457908,-0.362675 0.719263,-0.525574 0.264219,-0.162899 0.535599,-0.302169 0.820583,-0.424254 0.285342,-0.118863 0.576771,-0.213738 0.87894,-0.281762 0.301811,-0.0676659 0.597536,-0.10132 0.888965,-0.10132 1.18755,0 2.05611,0.369835 2.60603,1.10915 0.545981,0.73609 0.820583,1.88677 0.820583,3.44416l0 3.79645c0,0.27138 -0.00286416,0.512327 -0.00966655,0.719263 -0.00716041,0.210516 -0.0307898,0.430699 -0.0716041,0.661622l1.25558 -0.0612215 0 0.838126 -4.12583 0 0 -0.607203c0.305034,0 0.535957,-0.0608635 0.692054,-0.183307 0.159677,-0.125665 0.27496,-0.295009 0.346206,-0.515908 0.0712461,-0.216602 0.11206,-0.481538 0.122443,-0.786929 0.00966655,-0.305392 0.0132468,-0.641215 0.0132468,-1.00747l0 -2.85342c-0.0132468,-1.17431 -0.206936,-2.06327 -0.576771,-2.65687 -0.369835,-0.593598 -0.960211,-0.892545 -1.76791,-0.892545 -0.244528,0 -0.48834,0.0375922 -0.73251,0.108838 -0.248108,0.0748263 -0.482254,0.169344 -0.706017,0.284626 -0.227343,0.115283 -0.437501,0.254553 -0.637993,0.41423 -0.196553,0.159677 -0.369835,0.332243 -0.51555,0.51913 0.00644437,0.118505 0.0100246,0.24775 0.0100246,0.38344 0,0.13569 0,0.27496 0,0.413872l-0.0204072 5.21493c0,0.274602 -0.00322218,0.515908 -0.00966655,0.726066 -0.00716041,0.206936 -0.0307898,0.427835 -0.0712461,0.661622l1.25522 -0.0612215 0 0.838126 -4.12261 0 0 -0.607203c0.301811,0 0.532735,-0.0608635 0.692054,-0.183307 0.159319,-0.125665 0.271738,-0.295009 0.339403,-0.515908 0.0680239,-0.220183 0.105258,-0.481538 0.115641,-0.790509 0.00966655,-0.305392 0.016827,-0.641215 0.0236294,-1.00747l0.0204072 -4.66179c0,-0.213738 0.00322218,-0.431057 0.00966655,-0.648375 0.00716041,-0.220183 0.0307898,-0.447526 0.0716041,-0.678449l-1.44211 0.0780485zm12.7036 5.67319l0.624388 0c0.0264935,0.424254 0.124949,0.814139 0.291429,1.16715 0.169702,0.355872 0.393465,0.661264 0.668424,0.915817 0.274602,0.254553 0.590376,0.455044 0.943384,0.597536 0.355872,0.142134 0.732868,0.21338 1.12991,0.21338 0.257775,0 0.51913,-0.0300737 0.780127,-0.0948754 0.261355,-0.0612215 0.498723,-0.159677 0.716041,-0.291787 0.213738,-0.13211 0.390242,-0.301811 0.525932,-0.501945 0.13569,-0.204072 0.203356,-0.444662 0.203356,-0.722843 0,-0.325799 -0.0844928,-0.6004 -0.254195,-0.830966 -0.16648,-0.227701 -0.390242,-0.431415 -0.665202,-0.607561 -0.274602,-0.176862 -0.590376,-0.332601 -0.943384,-0.471871 -0.355872,-0.138912 -0.715683,-0.281404 -1.0823,-0.427477 -0.369477,-0.145714 -0.729646,-0.308614 -1.07907,-0.481896 -0.352292,-0.176146 -0.664844,-0.383082 -0.939446,-0.62403 -0.27496,-0.237726 -0.499081,-0.522352 -0.664844,-0.854953 -0.17006,-0.332601 -0.254553,-0.726424 -0.254553,-1.18433 0,-0.284984 0.0540611,-0.6004 0.159319,-0.943026 0.1049,-0.342984 0.291787,-0.665202 0.556364,-0.963791 0.264577,-0.298589 0.620808,-0.549562 1.06905,-0.752917 0.447526,-0.204072 1.01069,-0.305392 1.69308,-0.305392 0.186529,0 0.383082,0.0132468 0.590018,0.0404563 0.210516,0.0272096 0.424254,0.0748263 0.641573,0.146072 0.220183,0.0712461 0.437501,0.162899 0.658042,0.278182 0.21696,0.11206 0.434279,0.254553 0.644795,0.420674l-0.0508389 -0.787287 0.854953 0 0.0200492 3.58307 -0.634412 0c-0.0268515,-0.349786 -0.0952335,-0.699214 -0.206936,-1.04506 -0.10848,-0.342626 -0.267799,-0.655178 -0.478315,-0.929779 -0.210516,-0.274602 -0.475093,-0.498723 -0.797312,-0.671647 -0.318996,-0.172924 -0.702794,-0.258133 -1.14388,-0.258133 -0.315058,0 -0.59682,0.0408143 -0.84457,0.125665 -0.244528,0.0812707 -0.451464,0.193331 -0.620808,0.335823 -0.169702,0.142492 -0.295367,0.308972 -0.38344,0.4955 -0.0848509,0.183307 -0.128887,0.380218 -0.128887,0.587154 0,0.329021 0.0848509,0.613647 0.254553,0.854953 0.169344,0.237368 0.393465,0.451106 0.671647,0.634412 0.27854,0.186171 0.593598,0.35623 0.953767,0.502303 0.359095,0.148937 0.72893,0.301811 1.11273,0.457908 0.383082,0.155739 0.75972,0.322218 1.12955,0.498723 0.369835,0.176504 0.699214,0.38344 0.984198,0.620808 0.288207,0.241306 0.518772,0.519488 0.695634,0.838126 0.172924,0.315416 0.260997,0.695634 0.260997,1.13314 0,0.509105 -0.105258,0.950187 -0.318996,1.32324 -0.210158,0.376996 -0.49192,0.685251 -0.838126,0.929779 -0.342626,0.24417 -0.73609,0.427835 -1.17037,0.545981 -0.434637,0.118863 -0.872138,0.176862 -1.31966,0.176862 -0.68919,0 -1.29317,-0.0880731 -1.81874,-0.268515 -0.52271,-0.179368 -0.953409,-0.379502 -1.28923,-0.606845l0.0680239 0.685251 -0.855311 0 -0.118505 -3.48103z"/>
    <path id="_343186360" class="fil2" d="M284.183 31.2051l0 -0.834546 0.637635 0c0.284984,0 0.529512,-0.0139628 0.736448,-0.0447526 0.206936,-0.0300737 0.37986,-0.0708881 0.525932,-0.125307 0.146072,-0.0508389 0.267799,-0.108122 0.366255,-0.172924 0.0948754,-0.0644437 0.183307,-0.132468 0.261355,-0.203714l0.583573 0 0 6.22956c0,0.593598 0.0408143,1.10593 0.118863,1.54378 0.0812707,0.434637 0.206936,0.797312 0.383082,1.08552 0.176862,0.292145 0.404205,0.502303 0.682387,0.641573 0.278182,0.13569 0.620808,0.203356 1.02465,0.203356 0.257417,0 0.512327,-0.0440365 0.75972,-0.13211 0.24775,-0.0880731 0.485476,-0.206936 0.712461,-0.35623 0.224479,-0.149295 0.434279,-0.318996 0.63119,-0.509105 0.196553,-0.193331 0.363033,-0.397045 0.501945,-0.614005l0 -0.844928 0 -4.37358c0,-0.332243 0.00716041,-0.617227 0.0204072,-0.851373 0.0139628,-0.234145 0.0411724,-0.468291 0.0816287,-0.702436l-1.4149 0.0612215 0 -0.834546 0.620808 0c0.292145,0 0.539537,-0.0139628 0.743251,-0.0447526 0.203356,-0.0300737 0.376638,-0.0708881 0.52271,-0.125307 0.145356,-0.0508389 0.264219,-0.108122 0.359453,-0.172924 0.0948754,-0.0644437 0.182948,-0.132468 0.261355,-0.203714l0.603981 0 -0.0204072 7.72573c0,0.108838 -0.00358021,0.244528 -0.00680239,0.407427 -0.00358021,0.162899 -0.00716041,0.332243 -0.0136048,0.508747 -0.00680239,0.176504 -0.017185,0.353008 -0.0272096,0.529512 -0.0103826,0.176146 -0.0200492,0.332601 -0.034012,0.471513l1.46251 -0.0984556 0 0.834546 -2.9551 0c-0.034012,-0.230565 -0.0612215,-0.444303 -0.0852089,-0.640857 -0.0236294,-0.193689 -0.0440365,-0.3906 -0.0572833,-0.580351 -0.214096,0.210516 -0.448242,0.410292 -0.706017,0.6004 -0.257775,0.190109 -0.532735,0.353008 -0.821299,0.492278 -0.288207,0.138912 -0.586796,0.250972 -0.892187,0.332243 -0.305392,0.0848509 -0.607203,0.125665 -0.905792,0.125665 -0.553142,0 -1.03826,-0.0748263 -1.45535,-0.224121 -0.417452,-0.149295 -0.7633,-0.396687 -1.04184,-0.73967 -0.27496,-0.346206 -0.485476,-0.800534 -0.624388,-1.36728 -0.13927,-0.566389 -0.206936,-1.27241 -0.206936,-2.11411l0 -3.61995c0,-0.210516 0.00322218,-0.427477 0.0103826,-0.644795 0.00680239,-0.220183 0.0304317,-0.444303 0.0676659,-0.678449l-1.41132 0.0612215zm12.2182 -4.96718l0 -0.834904c0.441081,0 0.810917,-0.017185 1.10235,-0.0472587 0.295725,-0.0307898 0.532735,-0.0712461 0.716041,-0.129245 0.186529,-0.0540611 0.332601,-0.115283 0.437859,-0.179726 0.1049,-0.0644437 0.196553,-0.13569 0.27496,-0.210516l0.59682 0 0.0204072 13.2088c0,0.27138 -0.00680239,0.512327 -0.0204072,0.719263 -0.0132468,0.210516 -0.0404563,0.430699 -0.0780485,0.661622l1.252 -0.0612215 0 0.838126 -4.12583 0 0 -0.607203c0.305392,0 0.536315,-0.0608635 0.692054,-0.183307 0.159319,-0.122085 0.275318,-0.295009 0.346206,-0.512327 0.0712461,-0.220183 0.11206,-0.481538 0.122085,-0.787287 0.0103826,-0.301811 0.0139628,-0.637635 0.0139628,-1.00425l0 -9.62896c0,-0.210516 0,-0.417452 0.00286416,-0.614005 0.00358021,-0.200492 0.0239874,-0.434637 0.0579993,-0.706017l-1.41132 0.0784065zm5.43153 4.66179l0 -0.875718c0.356588,-0.00644437 0.682387,-0.1049 0.974174,-0.291787 0.291787,-0.190109 0.549562,-0.424254 0.770102,-0.705658 0.220541,-0.281404 0.41065,-0.586796 0.563166,-0.919397 0.149653,-0.329379 0.27138,-0.641215 0.356588,-0.933002l0.695276 0c0,0.542759 -0.00322218,1.04828 -0.00680239,1.52016 -0.00358021,0.468291 -0.00358021,0.912236 -0.00358021,1.32969l3.44738 0 0 0.79409 -3.44738 0.0408143c-0.00680239,0.882163 -0.00966655,1.63186 -0.00966655,2.25625 0,0.62403 -0.00358021,1.14352 -0.00716041,1.56061 -0.00322218,0.417452 -0.00322218,0.746473 -0.00322218,0.990643 0,0.240948 -0.00358021,0.424254 -0.00716041,0.54992 -0.00286416,0.125307 -0.00286416,0.206936 -0.00286416,0.24417 0,0.0375922 0,0.0579993 0,0.0644437 0,0.464711 0.0232713,0.872138 0.0741103,1.22873 0.0511969,0.352292 0.13569,0.650881 0.254553,0.895409 0.118863,0.240948 0.27496,0.424254 0.471871,0.545981 0.193331,0.122443 0.441081,0.183665 0.73967,0.183665 0.35265,0 0.698856,-0.105258 1.04506,-0.319354 0.342268,-0.210158 0.648017,-0.512327 0.912594,-0.902212l0.545981 0.444303c-0.298231,0.451464 -0.593598,0.804114 -0.888607,1.06189 -0.295367,0.254553 -0.573549,0.444662 -0.838126,0.576771 -0.268157,0.129245 -0.512327,0.210516 -0.742893,0.240948 -0.227701,0.03437 -0.427835,0.0511969 -0.6004,0.0511969 -0.204072,0 -0.414588,-0.016827 -0.63119,-0.0511969 -0.214096,-0.0304317 -0.427835,-0.0948754 -0.63119,-0.193331 -0.206936,-0.0952335 -0.400625,-0.230923 -0.580351,-0.407069 -0.179726,-0.176504 -0.339045,-0.403847 -0.478315,-0.682029 -0.136048,-0.278182 -0.244528,-0.614005 -0.322577,-1.01427 -0.0712461,-0.363033 -0.10848,-0.79409 -0.10848,-1.29281 0,-0.0375922 0,-0.0780485 0,-0.118863l0.0408143 -5.88335 -1.58138 0.0103826zm8.15356 7.22342c0,-0.41423 0.0880731,-0.793732 0.267799,-1.13994 0.176504,-0.342984 0.41423,-0.648017 0.716041,-0.916175 0.298589,-0.267799 0.651597,-0.498723 1.05151,-0.692054 0.400625,-0.197269 0.824879,-0.356588 1.27921,-0.481896 0.451464,-0.132468 0.909372,-0.224121 1.37444,-0.278182 0.420674,-0.0508389 0.827743,-0.0748263 1.22121,-0.0676659 0.0443945,0 0.0948754,0 0.146072,0l0 -1.28959c0,-0.353008 -0.0204072,-0.699214 -0.0608635,-1.03468 -0.0375922,-0.336181 -0.125665,-0.641573 -0.261355,-0.916533 -0.13569,-0.274602 -0.349428,-0.49192 -0.638351,-0.65482 -0.287849,-0.159319 -0.620808,-0.24059 -1.00031,-0.24059 -0.217318,0 -0.427835,0.016827 -0.624388,0.0540611 -0.200492,0.0375922 -0.397045,0.0984556 -0.587154,0.186529 -0.193331,0.0887891 -0.366255,0.200492 -0.52271,0.342984 -0.155739,0.142492 -0.284626,0.308614 -0.383082,0.501945 0.0984556,0.115641 0.16648,0.241306 0.203356,0.380218 0.0372341,0.13569 0.0544191,0.267799 0.0544191,0.397045 0,0.0776905 -0.017185,0.172924 -0.0508389,0.27496 -0.0307898,0.1049 -0.0848509,0.203356 -0.152875,0.291429 -0.0708881,0.0916533 -0.159319,0.16648 -0.267799,0.224121 -0.10848,0.0540611 -0.258133,0.0848509 -0.444662,0.0848509 -0.264219,0 -0.471871,-0.0984556 -0.62761,-0.298589 -0.156097,-0.196911 -0.234145,-0.437501 -0.234145,-0.719263 0,-0.336181 0.0984556,-0.65482 0.298231,-0.949829 0.197269,-0.298589 0.478673,-0.556722 0.834904,-0.777263 0.359811,-0.220541 0.784065,-0.397045 1.27921,-0.522352 0.49192,-0.125665 1.03146,-0.186529 1.61503,-0.186529 1.15354,0 2.00205,0.301811 2.54803,0.905792 0.546697,0.6004 0.818077,1.56025 0.810917,2.87025l-0.0200492 4.57371c0,0.213738 -0.00358021,0.427835 -0.0136048,0.641215 -0.0103826,0.217318 -0.034012,0.464711 -0.0683819,0.742893l1.44211 -0.0608635 0 0.834546 -2.94508 0c-0.0404563,-0.230565 -0.0712461,-0.430699 -0.0912952,-0.603981 -0.0204072,-0.169702 -0.0372341,-0.35265 -0.0511969,-0.542759 -0.457908,0.454686 -0.956273,0.814139 -1.49581,1.07907 -0.543117,0.264935 -1.11309,0.397045 -1.71707,0.397045 -0.485118,0 -0.905792,-0.0615795 -1.26918,-0.183307 -0.359453,-0.122085 -0.661264,-0.292145 -0.89899,-0.508747 -0.237726,-0.220899 -0.417452,-0.475451 -0.535957,-0.77046 -0.118863,-0.291787 -0.179726,-0.607203 -0.179726,-0.946606zm1.77757 -0.257775c0.00680239,0.254553 0.0544191,0.474735 0.146072,0.661264 0.0880731,0.190109 0.203356,0.346206 0.345848,0.468649 0.14285,0.122085 0.308972,0.21696 0.492278,0.278182 0.186529,0.0640857 0.386662,0.0948754 0.59682,0.0948754 0.271738,0 0.52987,-0.0272096 0.76688,-0.0780485 0.237726,-0.0540611 0.465069,-0.132468 0.682387,-0.234145 0.213738,-0.105258 0.424254,-0.227343 0.62761,-0.373415 0.200133,-0.145714 0.403489,-0.315416 0.610783,-0.508747l0 -2.95152c-0.312194,0.0132468 -0.634412,0.0404563 -0.970594,0.0844928 -0.335823,0.0440365 -0.661622,0.10848 -0.98384,0.200133 -0.322218,0.0880731 -0.62403,0.203714 -0.912952,0.342984 -0.284984,0.13927 -0.532377,0.301811 -0.742893,0.495142 -0.213738,0.193331 -0.380218,0.413872 -0.498365,0.665202 -0.105616,0.233787 -0.160035,0.48834 -0.160035,0.76688 0,0.0268515 0,0.0572833 0,0.0880731zm8.28567 -6.96565l0 -0.875718c0.35623,-0.00644437 0.682029,-0.1049 0.974174,-0.291787 0.291429,-0.190109 0.549562,-0.424254 0.769744,-0.705658 0.220899,-0.281404 0.411008,-0.586796 0.563166,-0.919397 0.149653,-0.329379 0.27138,-0.641215 0.356588,-0.933002l0.695634 0c0,0.542759 -0.00358021,1.04828 -0.00716041,1.52016 -0.00322218,0.468291 -0.00322218,0.912236 -0.00322218,1.32969l3.44738 0 0 0.79409 -3.44738 0.0408143c-0.00716041,0.882163 -0.0100246,1.63186 -0.0100246,2.25625 0,0.62403 -0.00358021,1.14352 -0.00680239,1.56061 -0.00358021,0.417452 -0.00358021,0.746473 -0.00358021,0.990643 0,0.240948 -0.00358021,0.424254 -0.00680239,0.54992 -0.00322218,0.125307 -0.00322218,0.206936 -0.00322218,0.24417 0,0.0375922 0,0.0579993 0,0.0644437 0,0.464711 0.0232713,0.872138 0.0744683,1.22873 0.0508389,0.352292 0.13569,0.650881 0.254553,0.895409 0.118505,0.240948 0.274602,0.424254 0.471513,0.545981 0.193689,0.122443 0.441081,0.183665 0.73967,0.183665 0.353008,0 0.698856,-0.105258 1.04506,-0.319354 0.342626,-0.210158 0.648017,-0.512327 0.912952,-0.902212l0.545981 0.444303c-0.298589,0.451464 -0.593598,0.804114 -0.888607,1.06189 -0.295725,0.254553 -0.573907,0.444662 -0.838126,0.576771 -0.268157,0.129245 -0.512327,0.210516 -0.743251,0.240948 -0.227701,0.03437 -0.427477,0.0511969 -0.6004,0.0511969 -0.203714,0 -0.41423,-0.016827 -0.63119,-0.0511969 -0.213738,-0.0304317 -0.427477,-0.0948754 -0.63119,-0.193331 -0.206936,-0.0952335 -0.400267,-0.230923 -0.579993,-0.407069 -0.179726,-0.176504 -0.339403,-0.403847 -0.478315,-0.682029 -0.136048,-0.278182 -0.244528,-0.614005 -0.322577,-1.01427 -0.0716041,-0.363033 -0.10848,-0.79409 -0.10848,-1.29281 0,-0.0375922 0,-0.0780485 0,-0.118863l0.0404563 -5.88335 -1.58102 0.0103826zm8.22123 0.305392l0 -0.834546c0.441081,0 0.807336,-0.0139628 1.09948,-0.0447526 0.291429,-0.0300737 0.529154,-0.0708881 0.712103,-0.125307 0.186887,-0.0508389 0.329379,-0.108122 0.430699,-0.172924 0.102036,-0.0644437 0.193689,-0.132468 0.271738,-0.203714l0.597178 0 0 8.22123c0,0.27138 -0.00358021,0.512327 -0.0100246,0.719263 -0.00680239,0.210516 -0.0304317,0.430699 -0.0680239,0.661622l1.25236 -0.0612215 0 0.838126 -4.12619 0 0 -0.607203c0.305392,0 0.535957,-0.0608635 0.692054,-0.183307 0.159677,-0.125665 0.275318,-0.295009 0.346564,-0.515908 0.0708881,-0.216602 0.111702,-0.481538 0.121727,-0.786929 0.0103826,-0.305392 0.0139628,-0.641215 0.0139628,-1.00461l0 -4.65463c0,-0.214096 0.00322218,-0.417452 0.0132468,-0.617585 0.0103826,-0.200492 0.034012,-0.434637 0.0644437,-0.705658l-1.41132 0.0780485zm1.10593 -4.60092c0,-0.169702 0.0304317,-0.332601 0.0884311,-0.481896 0.0572833,-0.149295 0.13927,-0.278182 0.24059,-0.393465 0.0984556,-0.112418 0.217318,-0.200492 0.346206,-0.261355 0.128887,-0.0644437 0.271738,-0.0948754 0.420674,-0.0948754 0.156455,0 0.298589,0.0304317 0.427835,0.0948754 0.13211,0.0608635 0.247392,0.148937 0.349428,0.261355 0.10132,0.115283 0.179726,0.24417 0.237368,0.393465 0.0576413,0.149295 0.0848509,0.312194 0.0848509,0.481896 0,0.166122 -0.0307898,0.322218 -0.0952335,0.468291 -0.0640857,0.145714 -0.145714,0.274602 -0.247392,0.383082 -0.102036,0.10848 -0.217318,0.193689 -0.353008,0.254553 -0.13569,0.0579993 -0.274602,0.0880731 -0.424254,0.0880731 -0.142492,0 -0.281762,-0.0300737 -0.410292,-0.0880731 -0.129245,-0.0608635 -0.248108,-0.146072 -0.346206,-0.254553 -0.101678,-0.10848 -0.180084,-0.237368 -0.234145,-0.383082 -0.0576413,-0.146072 -0.0848509,-0.302169 -0.0848509,-0.468291zm4.70976 8.7468c0,-0.800534 0.13211,-1.54343 0.393465,-2.23584 0.261355,-0.692412 0.620808,-1.29281 1.07907,-1.79834 0.454686,-0.505167 0.994223,-0.902212 1.61825,-1.19078 0.624388,-0.288207 1.29603,-0.430699 2.01888,-0.430699 0.712461,0 1.38411,0.13211 2.00527,0.393465 0.624388,0.260997 1.16357,0.620808 1.62541,1.07872 0.461488,0.461488 0.824163,1.00783 1.09196,1.63902 0.268515,0.630832 0.404205,1.31644 0.404205,2.04895 0,0.790509 -0.132468,1.53018 -0.393823,2.22295 -0.261355,0.688474 -0.620808,1.28887 -1.08194,1.8012 -0.461488,0.509105 -1.00461,0.912952 -1.62864,1.20796 -0.627968,0.295009 -1.30319,0.444662 -2.02246,0.444662 -0.715683,0 -1.38411,-0.129245 -2.00527,-0.383798 -0.617585,-0.254195 -1.15712,-0.613647 -1.61825,-1.07156 -0.461488,-0.458624 -0.824521,-1.00461 -1.0891,-1.63938 -0.264935,-0.630832 -0.397045,-1.32647 -0.397045,-2.08654zm2.07652 -0.593598c0,0.627968 0.0644437,1.23839 0.193331,1.83557 0.128887,0.593598 0.325441,1.12311 0.590376,1.58102 0.267799,0.461847 0.6004,0.828102 1.00103,1.10628 0.399909,0.278182 0.8682,0.417452 1.40451,0.417452 0.539537,0 0.991001,-0.122443 1.35726,-0.363391 0.369835,-0.24059 0.668424,-0.559586 0.895767,-0.956631 0.226985,-0.397045 0.393465,-0.848509 0.49192,-1.35726 0.0984556,-0.509105 0.149295,-1.0311 0.149295,-1.56741 0,-0.610783 -0.0576413,-1.21118 -0.169702,-1.8055 -0.111702,-0.59682 -0.292145,-1.12955 -0.535957,-1.59785 -0.244528,-0.471513 -0.563524,-0.851373 -0.950187,-1.13994 -0.386662,-0.291787 -0.851373,-0.437859 -1.39449,-0.437859 -0.539537,0 -0.997445,0.118863 -1.37766,0.356588 -0.383082,0.237368 -0.695634,0.556364 -0.939446,0.953409 -0.244528,0.397045 -0.427835,0.851373 -0.543117,1.36728 -0.115283,0.515908 -0.172924,1.05186 -0.172924,1.60823zm9.75427 -3.56946l0 -0.834904c0.444662,0 0.804472,-0.0132468 1.08265,-0.0440365 0.281762,-0.0272096 0.505525,-0.0676659 0.678807,-0.118863 0.169344,-0.0504809 0.301811,-0.108122 0.396687,-0.169344 0.0948754,-0.0612215 0.183665,-0.125665 0.264577,-0.196911l0.593598 0c0.0139628,0.149653 0.0307898,0.318996 0.0476167,0.509105 0.017185,0.193331 0.0307898,0.424254 0.0443945,0.695276 0.220541,-0.186529 0.457908,-0.362675 0.719621,-0.525574 0.264219,-0.162899 0.535599,-0.302169 0.820583,-0.424254 0.285342,-0.118863 0.576771,-0.213738 0.87894,-0.281762 0.301811,-0.0676659 0.597178,-0.10132 0.888965,-0.10132 1.18755,0 2.05575,0.369835 2.60567,1.10915 0.546339,0.73609 0.820941,1.88677 0.820941,3.44416l0 3.79645c0,0.27138 -0.00286416,0.512327 -0.0100246,0.719263 -0.00680239,0.210516 -0.0304317,0.430699 -0.0712461,0.661622l1.25558 -0.0612215 0 0.838126 -4.12583 0 0 -0.607203c0.305034,0 0.535599,-0.0608635 0.692054,-0.183307 0.159677,-0.125665 0.27496,-0.295009 0.346206,-0.515908 0.0712461,-0.216602 0.111702,-0.481538 0.122085,-0.786929 0.0100246,-0.305392 0.0136048,-0.641215 0.0136048,-1.00747l0 -2.85342c-0.0136048,-1.17431 -0.206936,-2.06327 -0.576771,-2.65687 -0.369835,-0.593598 -0.960569,-0.892545 -1.76791,-0.892545 -0.244528,0 -0.488698,0.0375922 -0.73251,0.108838 -0.248108,0.0748263 -0.482254,0.169344 -0.706017,0.284626 -0.227343,0.115283 -0.437501,0.254553 -0.637993,0.41423 -0.196553,0.159677 -0.369835,0.332243 -0.51555,0.51913 0.00644437,0.118505 0.0100246,0.24775 0.0100246,0.38344 0,0.13569 0,0.27496 0,0.413872l-0.0204072 5.21493c0,0.274602 -0.00322218,0.515908 -0.0100246,0.726066 -0.00680239,0.206936 -0.0304317,0.427835 -0.0712461,0.661622l1.25558 -0.0612215 0 0.838126 -4.12261 0 0 -0.607203c0.301811,0 0.532377,-0.0608635 0.692054,-0.183307 0.159319,-0.125665 0.271738,-0.295009 0.339403,-0.515908 0.0680239,-0.220183 0.1049,-0.481538 0.115283,-0.790509 0.0100246,-0.305392 0.016827,-0.641215 0.0239874,-1.00747l0.0200492 -4.66179c0,-0.213738 0.00358021,-0.431057 0.0100246,-0.648375 0.00716041,-0.220183 0.0307898,-0.447526 0.0712461,-0.678449l-1.44211 0.0780485zm-207.557 31.6361c0,-0.41423 0.0884311,-0.79409 0.268157,-1.1403 0.176504,-0.342984 0.41423,-0.648017 0.716041,-0.916175 0.298589,-0.267799 0.651597,-0.498365 1.05151,-0.692054 0.400625,-0.196911 0.824879,-0.356588 1.27921,-0.481538 0.451464,-0.132826 0.909372,-0.224479 1.37444,-0.27854 0.420674,-0.0508389 0.827385,-0.0744683 1.22121,-0.0676659 0.0443945,0 0.0948754,0 0.146072,0l0 -1.28959c0,-0.353008 -0.0204072,-0.698856 -0.0612215,-1.03468 -0.0372341,-0.336181 -0.125665,-0.641573 -0.261355,-0.916175 -0.135332,-0.27496 -0.349428,-0.492278 -0.637993,-0.65482 -0.288207,-0.159677 -0.620808,-0.240948 -1.00031,-0.240948 -0.217318,0 -0.427835,0.016827 -0.624388,0.0540611 -0.200492,0.0375922 -0.397045,0.0984556 -0.587154,0.186887 -0.193689,0.0884311 -0.366255,0.200133 -0.52271,0.342984 -0.156097,0.142492 -0.284626,0.308256 -0.383082,0.501945 0.0984556,0.115283 0.166122,0.240948 0.203356,0.380218 0.0372341,0.13569 0.0544191,0.267799 0.0544191,0.397045 0,0.0776905 -0.017185,0.172566 -0.0508389,0.274602 -0.0307898,0.1049 -0.0848509,0.203356 -0.152875,0.291429 -0.0708881,0.0916533 -0.159677,0.16648 -0.268157,0.224479 -0.108122,0.0540611 -0.257775,0.0844928 -0.444303,0.0844928 -0.264577,0 -0.471871,-0.0984556 -0.627968,-0.298589 -0.155739,-0.196911 -0.234145,-0.437501 -0.234145,-0.719263 0,-0.335823 0.0988137,-0.65482 0.298589,-0.949829 0.196911,-0.298589 0.478673,-0.556364 0.834904,-0.777263 0.359811,-0.220183 0.784065,-0.397045 1.27885,-0.522352 0.492278,-0.125665 1.03182,-0.186529 1.61539,-0.186529 1.15354,0 2.00205,0.301811 2.54803,0.905792 0.546697,0.600758 0.817719,1.56061 0.810917,2.87025l-0.0204072 4.57371c0,0.214096 -0.00322218,0.427835 -0.0132468,0.641215 -0.0103826,0.217318 -0.034012,0.464711 -0.0683819,0.743251l1.44211 -0.0612215 0 0.834904 -2.94508 0c-0.0404563,-0.230923 -0.0712461,-0.430699 -0.0916533,-0.603981 -0.0200492,-0.169702 -0.0368761,-0.353008 -0.0508389,-0.543117 -0.457908,0.455044 -0.956631,0.814497 -1.49617,1.07907 -0.542759,0.264935 -1.11273,0.397045 -1.71671,0.397045 -0.485118,0 -0.905792,-0.0612215 -1.26918,-0.182948 -0.359453,-0.122443 -0.661622,-0.292145 -0.89899,-0.509105 -0.237726,-0.220899 -0.417452,-0.475093 -0.536315,-0.770102 -0.118505,-0.292145 -0.179726,-0.607561 -0.179726,-0.946606zm1.77793 -0.258133c0.00680239,0.254553 0.0544191,0.475093 0.146072,0.661622 0.0880731,0.190109 0.203356,0.345848 0.345848,0.468291 0.142492,0.122085 0.308972,0.217318 0.492278,0.278182 0.186529,0.0644437 0.386662,0.0948754 0.59682,0.0948754 0.271738,0 0.52987,-0.0272096 0.76688,-0.0780485 0.237726,-0.0540611 0.464711,-0.13211 0.682029,-0.234145 0.214096,-0.1049 0.424254,-0.227343 0.627968,-0.373415 0.199775,-0.145356 0.403489,-0.315058 0.610783,-0.508747l0 -2.95152c-0.312552,0.0132468 -0.63477,0.0404563 -0.970952,0.0848509 -0.335465,0.0440365 -0.661264,0.108122 -0.983482,0.199775 -0.322218,0.0880731 -0.624388,0.204072 -0.912952,0.342984 -0.284984,0.13927 -0.532735,0.302169 -0.742893,0.495142 -0.214096,0.193689 -0.380218,0.413872 -0.498723,0.665202 -0.105258,0.233787 -0.159677,0.48834 -0.159677,0.76688 0,0.0268515 0,0.0576413 0,0.0880731zm8.6351 -6.67744l0 -0.834546c0.444303,0 0.804114,-0.0136048 1.08265,-0.0440365 0.281404,-0.0272096 0.505167,-0.0680239 0.678449,-0.118863 0.169344,-0.0504809 0.302169,-0.10848 0.396687,-0.169344 0.0948754,-0.0615795 0.183665,-0.125665 0.264935,-0.196911l0.593598 0c0.0136048,0.149295 0.0304317,0.318638 0.0472587,0.508747 0.017543,0.193689 0.0307898,0.424254 0.0447526,0.695634 0.220183,-0.186887 0.457908,-0.363033 0.719263,-0.525932 0.264219,-0.162899 0.535599,-0.301811 0.820583,-0.424254 0.285342,-0.118863 0.576771,-0.213738 0.87894,-0.281404 0.301811,-0.0680239 0.597536,-0.101678 0.888965,-0.101678 1.18755,0 2.05611,0.369835 2.60603,1.10951 0.545981,0.73609 0.820583,1.88641 0.820583,3.4438l0 3.79645c0,0.27138 -0.00286416,0.512327 -0.00966655,0.719263 -0.00716041,0.210516 -0.0307898,0.431057 -0.0716041,0.661622l1.25558 -0.0608635 0 0.838126 -4.12583 0 0 -0.607561c0.305034,0 0.535957,-0.0608635 0.692054,-0.183307 0.159677,-0.125665 0.27496,-0.295009 0.346206,-0.51555 0.0712461,-0.21696 0.11206,-0.481896 0.122085,-0.787287 0.0100246,-0.305392 0.0136048,-0.641215 0.0136048,-1.00747l0 -2.85342c-0.0136048,-1.17431 -0.206936,-2.06327 -0.576771,-2.65687 -0.369835,-0.593598 -0.960211,-0.892545 -1.76791,-0.892545 -0.244528,0 -0.48834,0.0375922 -0.73251,0.108838 -0.248108,0.0748263 -0.482254,0.169344 -0.706017,0.284984 -0.227343,0.115283 -0.437501,0.254195 -0.637993,0.41423 -0.196553,0.159319 -0.369835,0.332243 -0.51555,0.518772 0.00644437,0.118863 0.0100246,0.248108 0.0100246,0.38344 0,0.13569 0,0.27496 0,0.413872l-0.0204072 5.21493c0,0.27496 -0.00322218,0.515908 -0.00966655,0.726066 -0.00716041,0.206936 -0.0307898,0.427835 -0.0712461,0.661622l1.25522 -0.0608635 0 0.838126 -4.12261 0 0 -0.607561c0.301811,0 0.532735,-0.0608635 0.692054,-0.183307 0.159319,-0.125665 0.271738,-0.295009 0.339403,-0.51555 0.0680239,-0.220541 0.105258,-0.481896 0.115641,-0.790509 0.00966655,-0.30575 0.016827,-0.641215 0.0236294,-1.00747l0.0204072 -4.66214c0,-0.213738 0.00322218,-0.431057 0.00966655,-0.648375 0.00716041,-0.220183 0.0307898,-0.447526 0.0712461,-0.678091l-1.44175 0.0776905zm12.5032 4.23789c0,-0.830966 0.13211,-1.59785 0.393465,-2.30028 0.261355,-0.702436 0.624388,-1.31 1.08588,-1.81874 0.464711,-0.509105 1.01821,-0.90615 1.65585,-1.18755 0.640857,-0.281404 1.33685,-0.423896 2.09335,-0.423896 0.223763,0 0.451106,0.016827 0.675227,0.0504809 0.223763,0.034012 0.441081,0.0784065 0.651597,0.136048 0.206936,0.0540611 0.403489,0.115283 0.579993,0.183307 0.179726,0.0712461 0.335823,0.142492 0.468649,0.21696l0.00966655 -2.79578c0,-0.213738 0,-0.420674 0.00358021,-0.620808 0.00358021,-0.196911 0.0236294,-0.434637 0.0579993,-0.705658l-1.40487 0.0780485 0 -0.834546c0.441081,0 0.807336,-0.017543 1.09912,-0.0476167 0.288207,-0.0307898 0.525932,-0.0712461 0.709239,-0.129245 0.186529,-0.0540611 0.329021,-0.115283 0.431057,-0.179726 0.10132,-0.0644437 0.192973,-0.13569 0.27138,-0.210158l0.6004 0 0 13.2253c0,0.214096 -0.00358021,0.427835 -0.0132468,0.641573 -0.0103826,0.21696 -0.03437,0.465069 -0.0648017,0.743251l1.43853 -0.0784065 0 0.834904 -2.94508 0c-0.0336539,-0.193689 -0.0608635,-0.376996 -0.0812707,-0.546339 -0.0204072,-0.169702 -0.0375922,-0.335823 -0.0508389,-0.4955 -0.390242,0.417452 -0.865336,0.750053 -1.41848,0.997803 -0.552784,0.247392 -1.17037,0.373057 -1.8524,0.373057 -0.63119,0 -1.21154,-0.118863 -1.74392,-0.35623 -0.536315,-0.237726 -0.997803,-0.576771 -1.39127,-1.01785 -0.397045,-0.444662 -0.702436,-0.980618 -0.926199,-1.60859 -0.220899,-0.63119 -0.332601,-1.34007 -0.332601,-2.12378zm2.09693 -0.190109c0,0.549562 0.0748263,1.1027 0.223763,1.66587 0.149653,0.563524 0.349428,1.0354 0.607561,1.4149 0.254195,0.380218 0.566747,0.675227 0.933002,0.888965 0.366255,0.214096 0.790509,0.322577 1.26882,0.322577 0.224121,0 0.451464,-0.0336539 0.685609,-0.0984556 0.230565,-0.0644437 0.454686,-0.156097 0.668424,-0.27496 0.21696,-0.115283 0.417094,-0.254553 0.607203,-0.413872 0.189751,-0.159319 0.359453,-0.336181 0.512685,-0.525574 -0.00716041,-0.162899 -0.0103826,-0.339761 -0.0103826,-0.52629 0,-0.183307 0,-0.383082 0,-0.593598l0.0103826 -5.85972c-0.325799,-0.250972 -0.678807,-0.434279 -1.0626,-0.542759 -0.386662,-0.108838 -0.780127,-0.162899 -1.18397,-0.162899 -0.509105,0 -0.970236,0.11206 -1.38089,0.339045 -0.410292,0.224121 -0.75972,0.543117 -1.04828,0.956989 -0.288565,0.413872 -0.498723,0.885743 -0.63119,1.4149 -0.13211,0.529154 -0.200133,1.194 -0.200133,1.99489zm15.1464 -4.30556l0 -0.90615 1.64868 0 0 -0.427119c0,-0.753633 0.0644437,-1.42886 0.193689,-2.02926 0.13211,-0.59682 0.342626,-1.10593 0.634054,-1.52338 0.292145,-0.417094 0.675227,-0.73609 1.14352,-0.963791 0.468649,-0.223763 1.03862,-0.335465 1.71062,-0.335465 0.226985,0 0.467933,0.0272096 0.729288,0.0844928 0.264577,0.0544191 0.505167,0.146072 0.726066,0.268515 0.220183,0.121727 0.407069,0.278182 0.556364,0.464711 0.148937,0.190109 0.223763,0.417452 0.223763,0.681671 0,0.271738 -0.0812707,0.49192 -0.247392,0.665202 -0.162899,0.172924 -0.373415,0.258133 -0.624388,0.258133 -0.179726,0 -0.322218,-0.0272096 -0.434279,-0.0852089 -0.108838,-0.0572833 -0.200133,-0.128887 -0.271738,-0.213738 -0.0712461,-0.0880731 -0.122085,-0.179726 -0.152517,-0.281404 -0.0304317,-0.0984556 -0.0472587,-0.190109 -0.0472587,-0.268157 0,-0.0812707 0.0100246,-0.162899 0.0272096,-0.24417 0.016827,-0.0852089 0.0440365,-0.169702 0.0844928,-0.254553 -0.0984556,-0.132468 -0.234145,-0.227701 -0.403847,-0.278182 -0.169344,-0.0544191 -0.325799,-0.0816287 -0.471155,-0.0816287 -0.319354,0 -0.580351,0.0712461 -0.784423,0.214096 -0.206936,0.142492 -0.366255,0.329021 -0.485118,0.563166 -0.121727,0.230565 -0.203356,0.491562 -0.254195,0.780127 -0.0508389,0.288565 -0.0744683,0.576771 -0.0744683,0.868916l0 2.13702 2.72418 0 0 0.787645 -2.72418 0.0476167 0.0204072 7.18261c0,0.274602 -0.00358021,0.512327 -0.0103826,0.722485 -0.00680239,0.210516 -0.0336539,0.431057 -0.0812707,0.661622l1.26202 -0.0608635 0 0.838126 -4.12225 0 0 -0.607561c0.305392,0 0.539537,-0.0608635 0.698856,-0.183307 0.159319,-0.122085 0.27496,-0.295009 0.346206,-0.512327 0.0712461,-0.220183 0.111702,-0.481538 0.118505,-0.786929 0.00680239,-0.305392 0.0100246,-0.641215 0.0100246,-1.00461l-0.0204072 -6.20879 -1.64868 0.0304317zm7.09776 0.166122l0 -0.834546 0.624388 0c0.292145,0 0.535957,-0.0136048 0.729646,-0.0372341 0.193331,-0.0236294 0.35623,-0.0544191 0.485118,-0.0984556 0.13211,-0.0404563 0.240948,-0.0880731 0.329021,-0.13927 0.0884311,-0.0508389 0.172924,-0.1049 0.254553,-0.162541l0.593598 0c0.0204072,0.199775 0.0411724,0.451464 0.0579993,0.753275 0.016827,0.298589 0.0304317,0.685251 0.0440365,1.15676 0.149295,-0.240948 0.342626,-0.481538 0.579993,-0.726066 0.234145,-0.240948 0.498723,-0.461488 0.79409,-0.65482 0.295009,-0.189751 0.610425,-0.349428 0.953409,-0.471513 0.339403,-0.125665 0.688832,-0.186529 1.04864,-0.186529 0.169344,0 0.335823,0.0236294 0.495142,0.0741103 0.162899,0.0511969 0.301811,0.129245 0.420674,0.234503 0.118863,0.105258 0.213738,0.237368 0.288565,0.396687 0.0712461,0.159677 0.10848,0.349786 0.10848,0.576771 0,0.0916533 -0.016827,0.197269 -0.0508389,0.308972 -0.0336539,0.11206 -0.0884311,0.217318 -0.162899,0.315774 -0.0776905,0.101678 -0.172924,0.183307 -0.288207,0.250972 -0.115283,0.0644437 -0.257775,0.0980976 -0.427835,0.0980976 -0.138912,0 -0.264577,-0.0372341 -0.380218,-0.10848 -0.111702,-0.0712461 -0.206936,-0.166122 -0.281046,-0.278182 -0.0748263,-0.111702 -0.132826,-0.24417 -0.16648,-0.389884 -0.034012,-0.149653 -0.0408143,-0.308972 -0.0200492,-0.475451 -0.0139628,0 -0.0307898,0 -0.0511969,0 -0.244528,0.00716041 -0.488698,0.0579993 -0.732868,0.149653 -0.264577,0.10848 -0.525932,0.261355 -0.780485,0.457908 -0.254195,0.200492 -0.4955,0.441081 -0.719263,0.722843 -0.227343,0.281404 -0.427477,0.593956 -0.607203,0.933002l0.0200492 5.06563c0,0.27496 -0.00322218,0.51555 -0.00966655,0.729288 -0.00716041,0.210516 -0.0307898,0.434637 -0.0716041,0.668424l1.252 -0.0608635 0 0.838126 -4.14301 0 0 -0.607561c0.30575,0 0.536315,-0.0608635 0.692412,-0.186529 0.159677,-0.125307 0.27496,-0.295009 0.346206,-0.518772 0.0708881,-0.220899 0.11206,-0.485834 0.122085,-0.79409 0.0103826,-0.308972 0.0136048,-0.648017 0.0136048,-1.01785l0 -4.71298c0,-0.213738 0.00358021,-0.431057 0.0100246,-0.648017 0.00680239,-0.220541 0.0307898,-0.444303 0.0712461,-0.682029l-1.44211 0.0608635zm8.95732 4.04456c0,-0.715683 0.122443,-1.40129 0.366255,-2.05611 0.248108,-0.65482 0.594314,-1.23159 1.04506,-1.73747 0.451464,-0.505525 0.991001,-0.905434 1.62183,-1.20438 0.62761,-0.298589 1.32682,-0.447526 2.09693,-0.447526 0.543117,0 1.05544,0.0916533 1.54056,0.278182 0.481896,0.186529 0.90615,0.464711 1.27241,0.834546 0.363033,0.373415 0.651597,0.841348 0.865336,1.40809 0.210516,0.566747 0.315416,1.22801 0.315416,1.98487l-7.02687 0.118505c0,0.0411724 0,0.0816287 0,0.118863 0,0.742893 0.0608635,1.41812 0.179726,2.02568 0.125665,0.641215 0.322218,1.18755 0.597178,1.64224 0.271738,0.454686 0.621166,0.804114 1.04828,1.05186 0.427835,0.247392 0.940162,0.369835 1.53376,0.369835 0.308972,0 0.624388,-0.0440365 0.943026,-0.128887 0.319354,-0.0884311 0.63119,-0.206936 0.926915,-0.35623 0.298231,-0.149653 0.573191,-0.332959 0.824163,-0.543117 0.247392,-0.210516 0.457908,-0.434279 0.624388,-0.675227l0.4955 0.41065c-0.278182,0.421032 -0.594314,0.773324 -0.953767,1.06547 -0.35623,0.291429 -0.729646,0.529154 -1.11273,0.712461 -0.380218,0.182948 -0.76688,0.315774 -1.15354,0.397045 -0.38344,0.0816287 -0.746473,0.122085 -1.07907,0.122085 -0.702436,0 -1.35726,-0.125665 -1.96446,-0.376638 -0.607203,-0.250972 -1.12991,-0.614005 -1.57457,-1.0823 -0.443945,-0.471513 -0.793732,-1.03504 -1.04793,-1.69988 -0.254553,-0.66198 -0.383798,-1.40487 -0.383798,-2.23262zm2.15779 -1.65585l5.18808 0c0,-0.363033 -0.0408143,-0.722485 -0.118863,-1.0823 -0.0816287,-0.359453 -0.206578,-0.682029 -0.38344,-0.966655 -0.176146,-0.288565 -0.403489,-0.519488 -0.681671,-0.695634 -0.278182,-0.180084 -0.614363,-0.268157 -1.01499,-0.268157 -0.793374,0 -1.44855,0.237368 -1.96768,0.709239 -0.515908,0.474735 -0.858533,1.24162 -1.02143,2.3035z"/>
    <path id="_341942616" class="fil2" d="M205.61 59.8413c0,-0.715683 0.122085,-1.40129 0.366255,-2.05611 0.248108,-0.65482 0.593956,-1.23159 1.04506,-1.73747 0.451464,-0.505525 0.991001,-0.905434 1.62183,-1.20438 0.62761,-0.298589 1.32647,-0.447526 2.09693,-0.447526 0.543117,0 1.05544,0.0916533 1.54056,0.278182 0.481538,0.186529 0.905792,0.464711 1.27205,0.834546 0.363033,0.373415 0.651597,0.841348 0.865336,1.40809 0.210516,0.566747 0.315416,1.22801 0.315416,1.98487l-7.02651 0.118505c0,0.0411724 0,0.0816287 0,0.118863 0,0.742893 0.0608635,1.41812 0.179726,2.02568 0.125665,0.641215 0.322218,1.18755 0.59682,1.64224 0.271738,0.454686 0.621524,0.804114 1.04864,1.05186 0.427835,0.247392 0.940162,0.369835 1.53376,0.369835 0.308614,0 0.62403,-0.0440365 0.943026,-0.128887 0.319354,-0.0884311 0.63119,-0.206936 0.926557,-0.35623 0.298589,-0.149653 0.573191,-0.332959 0.824163,-0.543117 0.24775,-0.210516 0.457908,-0.434279 0.624388,-0.675227l0.4955 0.41065c-0.278182,0.421032 -0.593956,0.773324 -0.953409,1.06547 -0.356588,0.291429 -0.729646,0.529154 -1.11273,0.712461 -0.380218,0.182948 -0.76688,0.315774 -1.15354,0.397045 -0.383798,0.0816287 -0.746473,0.122085 -1.07907,0.122085 -0.702794,0 -1.35761,-0.125665 -1.96446,-0.376638 -0.607561,-0.250972 -1.13027,-0.614005 -1.57457,-1.0823 -0.444303,-0.471513 -0.793732,-1.03504 -1.04828,-1.69988 -0.254553,-0.66198 -0.38344,-1.40487 -0.38344,-2.23262zm2.15779 -1.65585l5.18808 0c0,-0.363033 -0.0411724,-0.722485 -0.118863,-1.0823 -0.0816287,-0.359453 -0.206936,-0.682029 -0.383798,-0.966655 -0.176146,-0.288565 -0.403489,-0.519488 -0.681671,-0.695634 -0.278182,-0.180084 -0.614363,-0.268157 -1.01463,-0.268157 -0.793732,0 -1.44855,0.237368 -1.96804,0.709239 -0.51555,0.474735 -0.858175,1.24162 -1.02107,2.3035zm14.2131 1.84953c0,-0.475451 0.0579993,-0.940162 0.173282,-1.40165 0.115283,-0.461488 0.284626,-0.89899 0.501945,-1.31644 0.220541,-0.417094 0.485118,-0.807336 0.79767,-1.16357 0.308256,-0.356588 0.661264,-0.664844 1.05831,-0.926199 0.393465,-0.261355 0.824163,-0.465069 1.28923,-0.611141 0.468291,-0.146072 0.963791,-0.220183 1.48614,-0.220183 0.546339,0 1.04506,0.0712461 1.49653,0.210516 0.451464,0.142134 0.834546,0.328663 1.15676,0.562808 0.322218,0.234145 0.570327,0.505883 0.743251,0.810917 0.172924,0.305392 0.261355,0.624746 0.261355,0.960211 0,0.291787 -0.0784065,0.543117 -0.230923,0.753633 -0.152875,0.210158 -0.369835,0.318638 -0.6584,0.325441 -0.169702,0.00680239 -0.308972,-0.0236294 -0.420674,-0.0848509 -0.11206,-0.0644437 -0.203356,-0.142492 -0.27138,-0.237726 -0.0676659,-0.0916533 -0.118863,-0.192973 -0.149295,-0.301811 -0.0304317,-0.11206 -0.0476167,-0.210158 -0.0476167,-0.295367 0,-0.13211 0.0207652,-0.274602 0.0612215,-0.420674 0.0408143,-0.145356 0.115283,-0.281762 0.230923,-0.406711 -0.0952335,-0.241306 -0.227343,-0.431415 -0.407427,-0.576771 -0.176504,-0.14285 -0.369835,-0.254553 -0.576771,-0.332959 -0.206936,-0.0809126 -0.413872,-0.13211 -0.620808,-0.155739 -0.206936,-0.0239874 -0.376638,-0.034012 -0.515908,-0.034012 -0.464711,0 -0.895409,0.0948754 -1.29603,0.284984 -0.403847,0.190109 -0.750053,0.468291 -1.04148,0.834546 -0.291787,0.363033 -0.519488,0.821299 -0.688832,1.36728 -0.169702,0.546697 -0.254195,1.17073 -0.254195,1.87639 0,0.678807 0.0844928,1.30642 0.254195,1.88319 0.169344,0.573191 0.403489,1.06869 0.709239,1.48614 0.305392,0.417094 0.671647,0.739312 1.1027,0.973458 0.430699,0.234145 0.909014,0.349786 1.43172,0.349786 0.308972,0 0.614005,-0.0440365 0.919397,-0.13569 0.301811,-0.0880731 0.587154,-0.214096 0.858175,-0.373415 0.268515,-0.159319 0.519488,-0.345848 0.746831,-0.559944 0.226985,-0.213738 0.424254,-0.441081 0.583573,-0.688474l0.529154 0.410292c-0.274602,0.413872 -0.580351,0.77046 -0.919397,1.06189 -0.339403,0.295725 -0.695634,0.539537 -1.06869,0.729646 -0.369835,0.193689 -0.746473,0.332601 -1.12311,0.424254 -0.37986,0.0916533 -0.736448,0.13569 -1.07227,0.13569 -0.688832,0 -1.33685,-0.115283 -1.94763,-0.349428 -0.610425,-0.234145 -1.14316,-0.573191 -1.60143,-1.01785 -0.454686,-0.441081 -0.817361,-0.987421 -1.0823,-1.63222 -0.264935,-0.644437 -0.397045,-1.37766 -0.397045,-2.19825zm10.8337 0.016827c0,-0.800534 0.13211,-1.54378 0.393465,-2.2362 0.261355,-0.692054 0.620808,-1.29245 1.07907,-1.79798 0.454686,-0.505525 0.994223,-0.90257 1.61861,-1.19113 0.62403,-0.288207 1.29603,-0.430699 2.01852,-0.430699 0.712461,0 1.38411,0.13211 2.00563,0.393465 0.62403,0.260997 1.16321,0.620808 1.62506,1.07872 0.461488,0.461488 0.824163,1.00783 1.09232,1.63902 0.268157,0.630832 0.403847,1.31644 0.403847,2.04931 0,0.790509 -0.13211,1.53018 -0.393823,2.22259 -0.261355,0.688474 -0.62045,1.28923 -1.08194,1.80156 -0.461488,0.508747 -1.00461,0.912594 -1.62864,1.20796 -0.627968,0.295009 -1.30319,0.444303 -2.02246,0.444303 -0.715683,0 -1.38411,-0.129245 -2.00527,-0.38344 -0.617227,-0.254553 -1.15712,-0.614005 -1.61825,-1.07191 -0.461488,-0.458266 -0.824521,-1.00461 -1.0891,-1.63902 -0.264935,-0.63119 -0.397045,-1.32682 -0.397045,-2.08654zm2.07652 -0.593598c0,0.62761 0.0644437,1.23804 0.193331,1.83557 0.128887,0.593598 0.325441,1.12275 0.590376,1.58066 0.267799,0.461847 0.6004,0.828102 1.00103,1.10628 0.399909,0.278182 0.8682,0.417452 1.40451,0.417452 0.539537,0 0.991001,-0.122443 1.35726,-0.363391 0.369835,-0.24059 0.668424,-0.559586 0.895767,-0.956273 0.226985,-0.397045 0.393465,-0.848509 0.49192,-1.35761 0.0984556,-0.508747 0.149653,-1.0311 0.149653,-1.56741 0,-0.610783 -0.0579993,-1.21118 -0.17006,-1.80514 -0.111702,-0.597178 -0.291787,-1.12991 -0.535957,-1.5982 -0.244528,-0.471155 -0.563524,-0.851373 -0.950187,-1.13994 -0.386662,-0.291787 -0.851373,-0.437501 -1.39449,-0.437501 -0.539537,0 -0.997445,0.118505 -1.37766,0.35623 -0.383082,0.237726 -0.695634,0.556364 -0.939446,0.953409 -0.244528,0.397045 -0.427835,0.851373 -0.543117,1.36728 -0.115283,0.515908 -0.172924,1.05186 -0.172924,1.60859zm10.0536 2.10337l0.62403 0c0.0268515,0.424254 0.125307,0.814139 0.291787,1.16715 0.169702,0.35623 0.393465,0.661622 0.668066,0.915817 0.27496,0.254553 0.590734,0.455044 0.943742,0.597536 0.355872,0.142134 0.73251,0.21338 1.12955,0.21338 0.258133,0 0.519488,-0.0300737 0.780127,-0.0948754 0.261355,-0.0608635 0.499081,-0.159319 0.716399,-0.291787 0.21338,-0.13211 0.390242,-0.301811 0.525932,-0.501945 0.13569,-0.203714 0.203356,-0.444303 0.203356,-0.722485 0,-0.325799 -0.0848509,-0.600758 -0.254553,-0.831324 -0.166122,-0.227701 -0.389884,-0.431057 -0.664844,-0.607561 -0.274602,-0.176504 -0.590376,-0.332601 -0.943384,-0.471513 -0.355872,-0.13927 -0.716041,-0.281762 -1.0823,-0.427835 -0.369835,-0.145714 -0.729646,-0.308614 -1.07907,-0.481538 -0.35265,-0.176504 -0.664844,-0.38344 -0.939804,-0.624388 -0.274602,-0.237726 -0.498723,-0.522352 -0.664844,-0.854953 -0.169702,-0.332601 -0.254195,-0.726066 -0.254195,-1.18397 0,-0.285342 0.0537031,-0.600758 0.159319,-0.943384 0.1049,-0.342984 0.291429,-0.665202 0.556364,-0.963791 0.264577,-0.298589 0.620808,-0.549562 1.06869,-0.752917 0.447526,-0.203714 1.01105,-0.305392 1.69308,-0.305392 0.186887,0 0.38344,0.0132468 0.590376,0.0404563 0.210158,0.0272096 0.423896,0.0748263 0.641215,0.146072 0.220541,0.0712461 0.437859,0.162899 0.658042,0.278182 0.217318,0.11206 0.434637,0.254553 0.645153,0.421032l-0.0511969 -0.787645 0.854953 0 0.0204072 3.58307 -0.63477 0c-0.0264935,-0.349428 -0.0948754,-0.698856 -0.206936,-1.04506 -0.108122,-0.342626 -0.267799,-0.65482 -0.477957,-0.929779 -0.210516,-0.274602 -0.475451,-0.498365 -0.79767,-0.671647 -0.318638,-0.172924 -0.702436,-0.257775 -1.14352,-0.257775 -0.315416,0 -0.59682,0.0404563 -0.84457,0.125665 -0.244528,0.0812707 -0.451464,0.192973 -0.620808,0.335465 -0.169702,0.142492 -0.295367,0.308972 -0.38344,0.4955 -0.0848509,0.183307 -0.128887,0.380218 -0.128887,0.587154 0,0.329379 0.0848509,0.614005 0.254553,0.854953 0.169344,0.237726 0.393465,0.451106 0.671647,0.63477 0.278182,0.186171 0.593598,0.355872 0.953409,0.501945 0.359453,0.148937 0.729288,0.301811 1.11309,0.457908 0.383082,0.156097 0.75972,0.322218 1.12955,0.499081 0.369835,0.176146 0.698856,0.383082 0.984198,0.620808 0.288207,0.240948 0.518772,0.51913 0.695634,0.838126 0.172566,0.315058 0.260639,0.695276 0.260639,1.13314 0,0.508747 -0.1049,0.949829 -0.318638,1.32324 -0.210516,0.376638 -0.492278,0.684893 -0.838126,0.929421 -0.342626,0.24417 -0.73609,0.427835 -1.17037,0.546339 -0.434637,0.118505 -0.872138,0.176504 -1.31966,0.176504 -0.68919,0 -1.29317,-0.0880731 -1.81874,-0.268157 -0.52271,-0.179726 -0.953409,-0.37986 -1.28923,-0.607203l0.0676659 0.685251 -0.855311 0 -0.118147 -3.48103zm8.7937 -5.9614l0 -0.875718c0.356588,-0.00644437 0.682387,-0.1049 0.974532,-0.291429 0.291429,-0.190109 0.549204,-0.424254 0.769744,-0.706017 0.220541,-0.281404 0.41065,-0.586796 0.563166,-0.919397 0.149653,-0.329021 0.27138,-0.640857 0.356588,-0.933002l0.695634 0c0,0.543117 -0.00358021,1.04828 -0.00716041,1.52016 -0.00322218,0.468291 -0.00322218,0.912594 -0.00322218,1.32969l3.44738 0 0 0.79409 -3.44738 0.0411724c-0.00716041,0.882163 -0.0100246,1.6315 -0.0100246,2.25589 0,0.624388 -0.00358021,1.14352 -0.00716041,1.56097 -0.00322218,0.417094 -0.00322218,0.746473 -0.00322218,0.990285 0,0.241306 -0.00358021,0.424254 -0.00680239,0.550278 -0.00322218,0.125307 -0.00322218,0.206936 -0.00322218,0.243812 0,0.0375922 0,0.0579993 0,0.0644437 0,0.465069 0.0232713,0.872138 0.0744683,1.22873 0.0508389,0.35265 0.13569,0.650881 0.254195,0.895409 0.118863,0.241306 0.27496,0.424254 0.471871,0.546339 0.193689,0.122085 0.441081,0.183307 0.73967,0.183307 0.353008,0 0.698856,-0.105258 1.04506,-0.318996 0.342626,-0.210516 0.648017,-0.512327 0.912594,-0.90257l0.546339 0.444662c-0.298589,0.451464 -0.593598,0.803756 -0.888607,1.06189 -0.295725,0.254195 -0.573907,0.444303 -0.838126,0.576413 -0.268515,0.129245 -0.512327,0.210516 -0.743251,0.241306 -0.227701,0.034012 -0.427477,0.0508389 -0.6004,0.0508389 -0.204072,0 -0.41423,-0.016827 -0.63119,-0.0508389 -0.213738,-0.0307898 -0.427835,-0.0952335 -0.63119,-0.193689 -0.206936,-0.0948754 -0.400625,-0.230565 -0.580351,-0.406711 -0.179368,-0.176862 -0.339045,-0.404205 -0.477957,-0.682387 -0.136048,-0.278182 -0.244528,-0.613647 -0.322935,-1.01427 -0.0712461,-0.363033 -0.10848,-0.79409 -0.10848,-1.29245 0,-0.0375922 0,-0.0784065 0,-0.118863l0.0408143 -5.88371 -1.58138 0.0103826zm13.6703 4.24111c0,-0.715683 0.122443,-1.40129 0.366255,-2.05611 0.248108,-0.65482 0.593956,-1.23159 1.04506,-1.73747 0.451464,-0.505525 0.991001,-0.905434 1.62183,-1.20438 0.62761,-0.298589 1.32682,-0.447526 2.09693,-0.447526 0.543117,0 1.05544,0.0916533 1.54056,0.278182 0.481896,0.186529 0.90615,0.464711 1.27241,0.834546 0.362675,0.373415 0.651239,0.841348 0.865336,1.40809 0.210158,0.566747 0.315416,1.22801 0.315416,1.98487l-7.02687 0.118505c0,0.0411724 0,0.0816287 0,0.118863 0,0.742893 0.0608635,1.41812 0.179726,2.02568 0.125665,0.641215 0.322218,1.18755 0.597178,1.64224 0.271738,0.454686 0.621166,0.804114 1.04828,1.05186 0.427835,0.247392 0.940162,0.369835 1.53376,0.369835 0.308972,0 0.624388,-0.0440365 0.943026,-0.128887 0.319354,-0.0884311 0.63119,-0.206936 0.926557,-0.35623 0.298589,-0.149653 0.573549,-0.332959 0.824521,-0.543117 0.247392,-0.210516 0.457908,-0.434279 0.62403,-0.675227l0.4955 0.41065c-0.278182,0.421032 -0.593956,0.773324 -0.953409,1.06547 -0.35623,0.291429 -0.729646,0.529154 -1.11273,0.712461 -0.380218,0.182948 -0.76688,0.315774 -1.15354,0.397045 -0.38344,0.0816287 -0.746473,0.122085 -1.07907,0.122085 -0.702436,0 -1.35726,-0.125665 -1.96446,-0.376638 -0.607203,-0.250972 -1.12991,-0.614005 -1.57457,-1.0823 -0.444303,-0.471513 -0.793732,-1.03504 -1.04793,-1.69988 -0.254553,-0.66198 -0.383798,-1.40487 -0.383798,-2.23262zm2.15779 -1.65585l5.18808 0c0,-0.363033 -0.0408143,-0.722485 -0.118863,-1.0823 -0.0816287,-0.359453 -0.206936,-0.682029 -0.38344,-0.966655 -0.176504,-0.288565 -0.403489,-0.519488 -0.681671,-0.695634 -0.278182,-0.180084 -0.614363,-0.268157 -1.01499,-0.268157 -0.793374,0 -1.44855,0.237368 -1.96768,0.709239 -0.515908,0.474735 -0.858533,1.24162 -1.02143,2.3035zm9.07654 3.37613l0.624388 0c0.0268515,0.424254 0.125307,0.814139 0.291787,1.16715 0.169702,0.35623 0.393465,0.661622 0.668066,0.915817 0.27496,0.254553 0.590734,0.455044 0.943742,0.597536 0.355872,0.142134 0.73251,0.21338 1.12955,0.21338 0.257775,0 0.51913,-0.0300737 0.780127,-0.0948754 0.261355,-0.0608635 0.499081,-0.159319 0.716399,-0.291787 0.21338,-0.13211 0.390242,-0.301811 0.525574,-0.501945 0.13569,-0.203714 0.203714,-0.444303 0.203714,-0.722485 0,-0.325799 -0.0848509,-0.600758 -0.254553,-0.831324 -0.16648,-0.227701 -0.390242,-0.431057 -0.664844,-0.607561 -0.274602,-0.176504 -0.590734,-0.332601 -0.943384,-0.471513 -0.35623,-0.13927 -0.716041,-0.281762 -1.0823,-0.427835 -0.369835,-0.145714 -0.729646,-0.308614 -1.07907,-0.481538 -0.35265,-0.176504 -0.664844,-0.38344 -0.939804,-0.624388 -0.274602,-0.237726 -0.499081,-0.522352 -0.664844,-0.854953 -0.169702,-0.332601 -0.254553,-0.726066 -0.254553,-1.18397 0,-0.285342 0.0540611,-0.600758 0.159677,-0.943384 0.1049,-0.342984 0.291429,-0.665202 0.556364,-0.963791 0.264219,-0.298589 0.620808,-0.549562 1.06869,-0.752917 0.447526,-0.203714 1.01105,-0.305392 1.69308,-0.305392 0.186529,0 0.383082,0.0132468 0.590018,0.0404563 0.210516,0.0272096 0.424254,0.0748263 0.641573,0.146072 0.220541,0.0712461 0.437859,0.162899 0.658042,0.278182 0.217318,0.11206 0.434637,0.254553 0.645153,0.421032l-0.0511969 -0.787645 0.854953 0 0.0204072 3.58307 -0.63477 0c-0.0268515,-0.349428 -0.0948754,-0.698856 -0.206936,-1.04506 -0.10848,-0.342626 -0.267799,-0.65482 -0.478315,-0.929779 -0.210158,-0.274602 -0.475093,-0.498365 -0.797312,-0.671647 -0.318996,-0.172924 -0.702436,-0.257775 -1.14352,-0.257775 -0.315416,0 -0.597178,0.0404563 -0.84457,0.125665 -0.244528,0.0812707 -0.451464,0.192973 -0.620808,0.335465 -0.169702,0.142492 -0.295367,0.308972 -0.383798,0.4955 -0.0844928,0.183307 -0.128529,0.380218 -0.128529,0.587154 0,0.329379 0.0844928,0.614005 0.254553,0.854953 0.169344,0.237726 0.393465,0.451106 0.671647,0.63477 0.278182,0.186171 0.593598,0.355872 0.953409,0.501945 0.359453,0.148937 0.729288,0.301811 1.11273,0.457908 0.38344,0.156097 0.760078,0.322218 1.12991,0.499081 0.369835,0.176146 0.698856,0.383082 0.984198,0.620808 0.287849,0.240948 0.518772,0.51913 0.695276,0.838126 0.172924,0.315058 0.260997,0.695276 0.260997,1.13314 0,0.508747 -0.1049,0.949829 -0.318638,1.32324 -0.210516,0.376638 -0.492278,0.684893 -0.838126,0.929421 -0.342626,0.24417 -0.73609,0.427835 -1.17037,0.546339 -0.434637,0.118505 -0.872138,0.176504 -1.31966,0.176504 -0.68919,0 -1.29317,-0.0880731 -1.8191,-0.268157 -0.52271,-0.179726 -0.953409,-0.37986 -1.28887,-0.607203l0.0676659 0.685251 -0.855311 0 -0.118505 -3.48103zm8.79406 -5.9614l0 -0.875718c0.356588,-0.00644437 0.682387,-0.1049 0.974174,-0.291429 0.291787,-0.190109 0.549562,-0.424254 0.770102,-0.706017 0.220541,-0.281404 0.41065,-0.586796 0.563166,-0.919397 0.149653,-0.329021 0.27138,-0.640857 0.356588,-0.933002l0.695276 0c0,0.543117 -0.00322218,1.04828 -0.00680239,1.52016 -0.00358021,0.468291 -0.00358021,0.912594 -0.00358021,1.32969l3.44774 0 0 0.79409 -3.44774 0.0411724c-0.00680239,0.882163 -0.00966655,1.6315 -0.00966655,2.25589 0,0.624388 -0.00358021,1.14352 -0.00716041,1.56097 -0.00322218,0.417094 -0.00322218,0.746473 -0.00322218,0.990285 0,0.241306 -0.00358021,0.424254 -0.00716041,0.550278 -0.00286416,0.125307 -0.00286416,0.206936 -0.00286416,0.243812 0,0.0375922 0,0.0579993 0,0.0644437 0,0.465069 0.0232713,0.872138 0.0741103,1.22873 0.0511969,0.35265 0.13569,0.650881 0.254553,0.895409 0.118863,0.241306 0.27496,0.424254 0.471871,0.546339 0.193331,0.122085 0.441081,0.183307 0.73967,0.183307 0.35265,0 0.698856,-0.105258 1.04506,-0.318996 0.342268,-0.210516 0.648017,-0.512327 0.912594,-0.90257l0.545981 0.444662c-0.298231,0.451464 -0.59324,0.803756 -0.888607,1.06189 -0.295367,0.254195 -0.573549,0.444303 -0.838126,0.576413 -0.268157,0.129245 -0.512327,0.210516 -0.742893,0.241306 -0.227701,0.034012 -0.427835,0.0508389 -0.6004,0.0508389 -0.204072,0 -0.41423,-0.016827 -0.63119,-0.0508389 -0.214096,-0.0307898 -0.427835,-0.0952335 -0.63119,-0.193689 -0.206936,-0.0948754 -0.400625,-0.230565 -0.580351,-0.406711 -0.179726,-0.176862 -0.339045,-0.404205 -0.478315,-0.682387 -0.136048,-0.278182 -0.24417,-0.613647 -0.322577,-1.01427 -0.0712461,-0.363033 -0.10848,-0.79409 -0.10848,-1.29245 0,-0.0375922 0,-0.0784065 0,-0.118863l0.0408143 -5.88371 -1.58138 0.0103826zm8.22123 0.305392l0 -0.834546c0.441081,0 0.807336,-0.0139628 1.09948,-0.0443945 0.291787,-0.0304317 0.529154,-0.0708881 0.712461,-0.125307 0.186529,-0.0511969 0.329021,-0.10848 0.430699,-0.173282 0.102036,-0.0644437 0.193689,-0.13211 0.271738,-0.203356l0.597178 0 0 8.22087c0,0.27138 -0.00358021,0.512327 -0.0100246,0.719263 -0.00716041,0.210516 -0.0307898,0.431057 -0.0683819,0.661622l1.25236 -0.0608635 0 0.838126 -4.12619 0 0 -0.607561c0.305392,0 0.536315,-0.0608635 0.692054,-0.183307 0.160035,-0.125665 0.275318,-0.295009 0.346564,-0.51555 0.0708881,-0.21696 0.11206,-0.481896 0.121727,-0.787287 0.0103826,-0.305392 0.0139628,-0.641215 0.0139628,-1.00425l0 -4.65498c0,-0.213738 0.00358021,-0.417452 0.0136048,-0.617227 0.0100246,-0.200492 0.034012,-0.434637 0.0640857,-0.706017l-1.41132 0.0780485zm1.10593 -4.60092c0,-0.169702 0.0307898,-0.332601 0.0887891,-0.481538 0.0572833,-0.149653 0.138912,-0.278182 0.24059,-0.393465 0.0984556,-0.112418 0.217318,-0.200492 0.345848,-0.261355 0.129245,-0.0644437 0.271738,-0.0952335 0.420674,-0.0952335 0.156455,0 0.298589,0.0307898 0.427835,0.0952335 0.13211,0.0608635 0.24775,0.148937 0.349428,0.261355 0.101678,0.115283 0.179726,0.243812 0.237726,0.393465 0.0572833,0.148937 0.0844928,0.311836 0.0844928,0.481538 0,0.16648 -0.0304317,0.322218 -0.0948754,0.468291 -0.0644437,0.145714 -0.146072,0.27496 -0.247392,0.38344 -0.102036,0.108122 -0.217318,0.193331 -0.353008,0.254195 -0.13569,0.0579993 -0.27496,0.0880731 -0.424254,0.0880731 -0.142492,0 -0.281762,-0.0300737 -0.41065,-0.0880731 -0.128887,-0.0608635 -0.24775,-0.146072 -0.345848,-0.254195 -0.102036,-0.10848 -0.180084,-0.237726 -0.234145,-0.38344 -0.0579993,-0.146072 -0.0852089,-0.301811 -0.0852089,-0.468291zm4.6113 4.58374l0 -0.834546c0.444662,0 0.804472,-0.0136048 1.08265,-0.0440365 0.281762,-0.0272096 0.505525,-0.0680239 0.678449,-0.118863 0.169702,-0.0504809 0.301811,-0.10848 0.396687,-0.169344 0.0952335,-0.0615795 0.183307,-0.125665 0.264935,-0.196911l0.593598 0c0.0139628,0.128887 0.0272096,0.278182 0.0411724,0.444303 0.0132468,0.169702 0.0268515,0.373415 0.0404563,0.610783 0.206936,-0.169702 0.427477,-0.325441 0.664844,-0.471513 0.241306,-0.146072 0.485118,-0.27138 0.73967,-0.376638 0.257775,-0.10848 0.51913,-0.190109 0.787287,-0.24775 0.268157,-0.0579993 0.532377,-0.0880731 0.797312,-0.0880731 0.692054,0 1.26596,0.121727 1.72387,0.366255 0.457908,0.241306 0.817719,0.566389 1.07514,0.977396 0.224121,-0.190109 0.475093,-0.363391 0.746473,-0.52629 0.271738,-0.162899 0.553142,-0.305034 0.844928,-0.427119 0.291787,-0.126023 0.590376,-0.220899 0.892187,-0.288565 0.305392,-0.0680239 0.603981,-0.101678 0.896125,-0.101678 0.590018,0 1.10235,0.0844928 1.54056,0.257775 0.433921,0.172924 0.790151,0.444303 1.07514,0.810917 0.281762,0.366255 0.488698,0.838126 0.620808,1.4149 0.118863,0.525932 0.176862,1.13994 0.169702,1.84918 0,0.0744683 0,0.145714 0,0.220541l-0.0200492 3.79645c0,0.27138 -0.00358021,0.512327 -0.0103826,0.719263 -0.00644437,0.210516 -0.0304317,0.431057 -0.0680239,0.661622l1.27276 -0.0608635 0 0.838126 -4.14301 0 0 -0.607561c0.308972,0 0.543117,-0.0608635 0.702436,-0.183307 0.162899,-0.125665 0.278182,-0.295009 0.349428,-0.51555 0.0748263,-0.21696 0.115641,-0.481896 0.125307,-0.787287 0.0103826,-0.305392 0.0139628,-0.641215 0.0139628,-1.00747l0 -2.85342c0,-1.17431 -0.186529,-2.05647 -0.556364,-2.63646 -0.369835,-0.583573 -0.960569,-0.87178 -1.76791,-0.87178 -0.424254,0 -0.844928,0.0948754 -1.2656,0.288207 -0.421032,0.193331 -0.787287,0.431057 -1.09912,0.719263 0.138912,0.458266 0.210158,0.953409 0.210158,1.48614l-0.0408143 4.80428c0,0.27496 -0.00322218,0.515908 -0.0100246,0.726066 -0.00680239,0.206936 -0.0307898,0.427835 -0.0676659,0.661622l1.27205 -0.0608635 0 0.838126 -4.14301 0 0 -0.607561c0.308972,0 0.543117,-0.0608635 0.706017,-0.183307 0.159319,-0.125665 0.274602,-0.295009 0.342626,-0.51555 0.0676659,-0.21696 0.108838,-0.481896 0.118863,-0.787287 0.0103826,-0.305392 0.016827,-0.641215 0.0236294,-1.00747l0.0204072 -2.85342c0,-0.017185 0,-0.0408143 0,-0.0680239 0,-1.13672 -0.172924,-1.99811 -0.515908,-2.58169 -0.346206,-0.600758 -0.915817,-0.899706 -1.71993,-0.899706 -0.417094,0 -0.828102,0.0916533 -1.23517,0.275318 -0.407069,0.183307 -0.753275,0.420316 -1.0379,0.712461 0,0.159319 0.00286416,0.329021 0.00644437,0.512327 0.00358021,0.182948 0.00358021,0.379502 0.00358021,0.583573l0 5.25538c0,0.27496 -0.00358021,0.515908 -0.0100246,0.726066 -0.00680239,0.206936 -0.0307898,0.427835 -0.0712461,0.661622l1.25522 -0.0608635 0 0.838126 -4.12619 0 0 -0.607561c0.30575,0 0.536315,-0.0608635 0.692054,-0.183307 0.160035,-0.125665 0.275318,-0.295009 0.346564,-0.51555 0.0708881,-0.220541 0.11206,-0.481896 0.122085,-0.790509 0.0100246,-0.30575 0.0136048,-0.641215 0.0136048,-1.00747l0 -4.66214c0,-0.213738 0.00358021,-0.431057 0.0100246,-0.648375 0.00680239,-0.220183 0.0307898,-0.447526 0.0712461,-0.678091l-1.44211 0.0776905zm18.1932 6.93557c0,-0.41423 0.0884311,-0.79409 0.268157,-1.1403 0.176504,-0.342984 0.41423,-0.648017 0.716041,-0.916175 0.298589,-0.267799 0.651597,-0.498365 1.05151,-0.692054 0.400625,-0.196911 0.824879,-0.356588 1.27921,-0.481538 0.451464,-0.132826 0.909372,-0.224479 1.37444,-0.27854 0.420674,-0.0508389 0.827743,-0.0744683 1.22121,-0.0676659 0.0443945,0 0.0948754,0 0.146072,0l0 -1.28959c0,-0.353008 -0.0204072,-0.698856 -0.0608635,-1.03468 -0.0375922,-0.336181 -0.126023,-0.641573 -0.261355,-0.916175 -0.13569,-0.27496 -0.349786,-0.492278 -0.638351,-0.65482 -0.288207,-0.159677 -0.620808,-0.240948 -1.00031,-0.240948 -0.217318,0 -0.427835,0.016827 -0.624388,0.0540611 -0.200492,0.0375922 -0.397045,0.0984556 -0.587154,0.186887 -0.193331,0.0884311 -0.366255,0.200133 -0.52271,0.342984 -0.155739,0.142492 -0.284626,0.308256 -0.383082,0.501945 0.0984556,0.115283 0.166122,0.240948 0.203356,0.380218 0.0372341,0.13569 0.0544191,0.267799 0.0544191,0.397045 0,0.0776905 -0.017185,0.172566 -0.0508389,0.274602 -0.0307898,0.1049 -0.0848509,0.203356 -0.152875,0.291429 -0.0708881,0.0916533 -0.159677,0.16648 -0.268157,0.224479 -0.108122,0.0540611 -0.257775,0.0844928 -0.444303,0.0844928 -0.264577,0 -0.471871,-0.0984556 -0.62761,-0.298589 -0.156097,-0.196911 -0.234145,-0.437501 -0.234145,-0.719263 0,-0.335823 0.0984556,-0.65482 0.298231,-0.949829 0.197269,-0.298589 0.478673,-0.556364 0.834904,-0.777263 0.359811,-0.220183 0.784065,-0.397045 1.27921,-0.522352 0.49192,-0.125665 1.03146,-0.186529 1.61503,-0.186529 1.15354,0 2.00205,0.301811 2.54803,0.905792 0.546697,0.600758 0.817719,1.56061 0.810917,2.87025l-0.0204072 4.57371c0,0.214096 -0.00322218,0.427835 -0.0132468,0.641215 -0.0103826,0.217318 -0.034012,0.464711 -0.0683819,0.743251l1.44211 -0.0612215 0 0.834904 -2.94508 0c-0.0404563,-0.230923 -0.0712461,-0.430699 -0.0912952,-0.603981 -0.0204072,-0.169702 -0.0372341,-0.353008 -0.0511969,-0.543117 -0.457908,0.455044 -0.956273,0.814497 -1.49617,1.07907 -0.542759,0.264935 -1.11273,0.397045 -1.71671,0.397045 -0.485118,0 -0.905792,-0.0612215 -1.26918,-0.182948 -0.359453,-0.122443 -0.661264,-0.292145 -0.89899,-0.509105 -0.237726,-0.220899 -0.417452,-0.475093 -0.536315,-0.770102 -0.118505,-0.292145 -0.179726,-0.607561 -0.179726,-0.946606zm1.77793 -0.258133c0.00680239,0.254553 0.0544191,0.475093 0.146072,0.661622 0.0880731,0.190109 0.203356,0.345848 0.345848,0.468291 0.142492,0.122085 0.308972,0.217318 0.492278,0.278182 0.186529,0.0644437 0.386662,0.0948754 0.59682,0.0948754 0.271738,0 0.52987,-0.0272096 0.76688,-0.0780485 0.237726,-0.0540611 0.465069,-0.13211 0.682029,-0.234145 0.214096,-0.1049 0.424254,-0.227343 0.627968,-0.373415 0.199775,-0.145356 0.403489,-0.315058 0.610783,-0.508747l0 -2.95152c-0.312194,0.0132468 -0.63477,0.0404563 -0.970594,0.0848509 -0.335823,0.0440365 -0.661622,0.108122 -0.98384,0.199775 -0.322218,0.0880731 -0.624388,0.204072 -0.912952,0.342984 -0.284984,0.13927 -0.532377,0.302169 -0.742893,0.495142 -0.213738,0.193689 -0.380218,0.413872 -0.498723,0.665202 -0.105258,0.233787 -0.159677,0.48834 -0.159677,0.76688 0,0.0268515 0,0.0576413 0,0.0880731zm8.28567 -6.96565l0 -0.875718c0.35623,-0.00644437 0.682029,-0.1049 0.974174,-0.291429 0.291429,-0.190109 0.549204,-0.424254 0.769744,-0.706017 0.220541,-0.281404 0.41065,-0.586796 0.563166,-0.919397 0.149653,-0.329021 0.27138,-0.640857 0.356588,-0.933002l0.695634 0c0,0.543117 -0.00358021,1.04828 -0.00716041,1.52016 -0.00322218,0.468291 -0.00322218,0.912594 -0.00322218,1.32969l3.44738 0 0 0.79409 -3.44738 0.0411724c-0.00716041,0.882163 -0.0100246,1.6315 -0.0100246,2.25589 0,0.624388 -0.00358021,1.14352 -0.00680239,1.56097 -0.00358021,0.417094 -0.00358021,0.746473 -0.00358021,0.990285 0,0.241306 -0.00358021,0.424254 -0.00680239,0.550278 -0.00322218,0.125307 -0.00322218,0.206936 -0.00322218,0.243812 0,0.0375922 0,0.0579993 0,0.0644437 0,0.465069 0.0232713,0.872138 0.0744683,1.22873 0.0508389,0.35265 0.13569,0.650881 0.254195,0.895409 0.118863,0.241306 0.27496,0.424254 0.471871,0.546339 0.193689,0.122085 0.441081,0.183307 0.73967,0.183307 0.353008,0 0.698856,-0.105258 1.04506,-0.318996 0.342626,-0.210516 0.648017,-0.512327 0.912952,-0.90257l0.545981 0.444662c-0.298589,0.451464 -0.593598,0.803756 -0.888607,1.06189 -0.295725,0.254195 -0.573907,0.444303 -0.838126,0.576413 -0.268515,0.129245 -0.512327,0.210516 -0.743251,0.241306 -0.227701,0.034012 -0.427477,0.0508389 -0.6004,0.0508389 -0.204072,0 -0.41423,-0.016827 -0.63119,-0.0508389 -0.213738,-0.0307898 -0.427835,-0.0952335 -0.63119,-0.193689 -0.206936,-0.0948754 -0.400267,-0.230565 -0.579993,-0.406711 -0.179726,-0.176862 -0.339403,-0.404205 -0.478315,-0.682387 -0.136048,-0.278182 -0.244528,-0.613647 -0.322935,-1.01427 -0.0712461,-0.363033 -0.108122,-0.79409 -0.108122,-1.29245 0,-0.0375922 0,-0.0784065 0,-0.118863l0.0404563 -5.88371 -1.58102 0.0103826zm8.31252 4.24111c0,-0.715683 0.122443,-1.40129 0.366255,-2.05611 0.248108,-0.65482 0.594314,-1.23159 1.04506,-1.73747 0.451464,-0.505525 0.991001,-0.905434 1.62183,-1.20438 0.627968,-0.298589 1.32682,-0.447526 2.09693,-0.447526 0.543117,0 1.05544,0.0916533 1.54056,0.278182 0.481896,0.186529 0.90615,0.464711 1.27241,0.834546 0.363033,0.373415 0.651597,0.841348 0.865336,1.40809 0.210516,0.566747 0.315416,1.22801 0.315416,1.98487l-7.02687 0.118505c0,0.0411724 0,0.0816287 0,0.118863 0,0.742893 0.0612215,1.41812 0.179726,2.02568 0.125665,0.641215 0.322577,1.18755 0.597178,1.64224 0.271738,0.454686 0.621166,0.804114 1.04864,1.05186 0.427477,0.247392 0.939804,0.369835 1.5334,0.369835 0.308972,0 0.624388,-0.0440365 0.943026,-0.128887 0.319354,-0.0884311 0.63119,-0.206936 0.926915,-0.35623 0.298231,-0.149653 0.573191,-0.332959 0.824163,-0.543117 0.247392,-0.210516 0.457908,-0.434279 0.624388,-0.675227l0.4955 0.41065c-0.278182,0.421032 -0.594314,0.773324 -0.953409,1.06547 -0.356588,0.291429 -0.730004,0.529154 -1.11309,0.712461 -0.380218,0.182948 -0.76688,0.315774 -1.15354,0.397045 -0.38344,0.0816287 -0.746473,0.122085 -1.07907,0.122085 -0.702436,0 -1.35726,-0.125665 -1.96446,-0.376638 -0.607203,-0.250972 -1.12991,-0.614005 -1.57457,-1.0823 -0.443945,-0.471513 -0.793732,-1.03504 -1.04793,-1.69988 -0.254553,-0.66198 -0.383798,-1.40487 -0.383798,-2.23262zm2.15815 -1.65585l5.18772 0c0,-0.363033 -0.0408143,-0.722485 -0.118505,-1.0823 -0.0819867,-0.359453 -0.206936,-0.682029 -0.383798,-0.966655 -0.176146,-0.288565 -0.403489,-0.519488 -0.681671,-0.695634 -0.278182,-0.180084 -0.614363,-0.268157 -1.01499,-0.268157 -0.793374,0 -1.44855,0.237368 -1.96768,0.709239 -0.515908,0.474735 -0.858533,1.24162 -1.02107,2.3035z"/>
    <path id="_339710928" class="fil2" d="M349.178 61.5613l0.62403 0c0.0268515,0.424254 0.125307,0.814139 0.291787,1.16715 0.169702,0.35623 0.393465,0.661622 0.668066,0.915817 0.27496,0.254553 0.590734,0.455044 0.943742,0.597536 0.355872,0.142134 0.73251,0.21338 1.12955,0.21338 0.258133,0 0.519488,-0.0300737 0.780127,-0.0948754 0.261355,-0.0608635 0.499081,-0.159319 0.716399,-0.291787 0.21338,-0.13211 0.390242,-0.301811 0.525932,-0.501945 0.13569,-0.203714 0.203356,-0.444303 0.203356,-0.722485 0,-0.325799 -0.0848509,-0.600758 -0.254553,-0.831324 -0.166122,-0.227701 -0.389884,-0.431057 -0.664844,-0.607561 -0.274602,-0.176504 -0.590376,-0.332601 -0.943384,-0.471513 -0.355872,-0.13927 -0.716041,-0.281762 -1.0823,-0.427835 -0.369835,-0.145714 -0.729646,-0.308614 -1.07907,-0.481538 -0.35265,-0.176504 -0.664844,-0.38344 -0.939804,-0.624388 -0.274602,-0.237726 -0.498723,-0.522352 -0.664844,-0.854953 -0.169702,-0.332601 -0.254195,-0.726066 -0.254195,-1.18397 0,-0.285342 0.0537031,-0.600758 0.159319,-0.943384 0.1049,-0.342984 0.291429,-0.665202 0.556364,-0.963791 0.264219,-0.298589 0.620808,-0.549562 1.06869,-0.752917 0.447526,-0.203714 1.01105,-0.305392 1.69308,-0.305392 0.186887,0 0.38344,0.0132468 0.590376,0.0404563 0.210158,0.0272096 0.423896,0.0748263 0.641215,0.146072 0.220541,0.0712461 0.437859,0.162899 0.658042,0.278182 0.217318,0.11206 0.434637,0.254553 0.645153,0.421032l-0.0511969 -0.787645 0.854953 0 0.0204072 3.58307 -0.63477 0c-0.0264935,-0.349428 -0.0948754,-0.698856 -0.206936,-1.04506 -0.108122,-0.342626 -0.267799,-0.65482 -0.477957,-0.929779 -0.210516,-0.274602 -0.475451,-0.498365 -0.79767,-0.671647 -0.318638,-0.172924 -0.702436,-0.257775 -1.14352,-0.257775 -0.315416,0 -0.59682,0.0404563 -0.84457,0.125665 -0.244528,0.0812707 -0.451464,0.192973 -0.620808,0.335465 -0.169702,0.142492 -0.295367,0.308972 -0.38344,0.4955 -0.0848509,0.183307 -0.128887,0.380218 -0.128887,0.587154 0,0.329379 0.0848509,0.614005 0.254553,0.854953 0.169344,0.237726 0.393465,0.451106 0.671647,0.63477 0.278182,0.186171 0.593598,0.355872 0.953409,0.501945 0.359453,0.148937 0.729288,0.301811 1.11309,0.457908 0.383082,0.156097 0.75972,0.322218 1.12955,0.499081 0.369835,0.176146 0.698856,0.383082 0.984198,0.620808 0.288207,0.240948 0.518772,0.51913 0.695634,0.838126 0.172566,0.315058 0.260639,0.695276 0.260639,1.13314 0,0.508747 -0.1049,0.949829 -0.318638,1.32324 -0.210516,0.376638 -0.492278,0.684893 -0.838126,0.929421 -0.342626,0.24417 -0.73609,0.427835 -1.17037,0.546339 -0.434637,0.118505 -0.872138,0.176504 -1.31966,0.176504 -0.68919,0 -1.29317,-0.0880731 -1.81874,-0.268157 -0.52271,-0.179726 -0.953409,-0.37986 -1.28923,-0.607203l0.0676659 0.685251 -0.855311 0 -0.118147 -3.48103z"/>
   </g>
   <path id="_341889360" class="fil3" d="M51.5077 27.7194c0,0.369835 -0.0204072,0.811633 -0.0615795,1.32503 -0.0408143,0.513759 -0.143566,1.18147 -0.307898,2.00312l-4.12941 22.1869 -6.03981 0 -4.12905 -22.1869c-0.164331,-0.73967 -0.267083,-1.37659 -0.308256,-1.9104 -0.0411724,-0.534167 -0.0615795,-1.00675 -0.0615795,-1.41776 0,-4.10864 2.50614,-6.16297 7.51879,-6.16297 5.01265,0 7.51879,2.05432 7.51879,6.16297zm-1.47898 34.0814c0,1.72566 -0.595746,3.16383 -1.78724,4.31415 -1.19149,1.15032 -2.6089,1.72566 -4.25257,1.72566 -1.60214,0 -2.99914,-0.595746 -4.19063,-1.78724 -1.19149,-1.19149 -1.78724,-2.6089 -1.78724,-4.25257 0,-1.60214 0.585364,-3.00952 1.75645,-4.22142 1.17073,-1.21226 2.57811,-1.81839 4.22142,-1.81839 1.68449,0 3.11227,0.585722 4.28336,1.75681 1.17109,1.17073 1.75645,2.59851 1.75645,4.283z"/>
  </g>
 </g>
</svg>
