<?xml version="1.0" encoding="UTF-8"?>
<!DOCTYPE svg PUBLIC "-//W3C//DTD SVG 1.1//EN" "http://www.w3.org/Graphics/SVG/1.1/DTD/svg11.dtd">
<!-- Creator: CorelDRAW -->
<svg xmlns="http://www.w3.org/2000/svg" xml:space="preserve" width="15.7114mm" height="9.8448mm" style="shape-rendering:geometricPrecision; text-rendering:geometricPrecision; image-rendering:optimizeQuality; fill-rule:evenodd; clip-rule:evenodd"
viewBox="0 0 6.10953 3.82824"
 xmlns:xlink="http://www.w3.org/1999/xlink">
 <defs>
  <style type="text/css">
   <![CDATA[
    .fil2 {fill:#724A3B}
    .fil1 {fill:gray}
    .fil0 {fill:#C00000;fill-rule:nonzero}
   ]]>
  </style>
 </defs>
 <g id="Layer_x0020_1">
  <metadata id="CorelCorpID_0Corel-Layer"/>
  <path class="fil0" d="M0.883722 2.42154l0.019093 -0.0101881c0.0049774,-0.000855491 0.00645507,-0.00583289 0.00486074,-0.0152044l-0.0275313 0.00478297 0.00357751 0.0206096zm0.42479 -0.52811c0.0137267,-0.00237204 0.0190152,-0.0127157 0.0158266,-0.031031l0.00785496 0.00567735 0.0080105 0.00548292 0.00668838 -0.00116658 -0.00785496 -0.00548292 0.00668838 -0.00116658 0.00843825 0.00540515 0.00909931 0.0127935 -0.00431634 0.01466c0.00532737,0.00357751 0.0127935,0.0071939 0.0225927,0.0104214l0.0139601 -0.00241093 0.01466 0.00431634c-0.00657172,0.0150877 0.000155544,0.0278812 0.0204929,0.0387304l0.0175376 0.0181597 0.0158655 0.0111992c-0.00738833,0.0104603 -0.00808828,0.0200263 -0.0019443,0.0283867 0.000816605,0.00458854 0.00847714,0.00777719 0.0229816,0.0099548 0.000777719,0.00439411 -0.000699947,0.00956594 -0.00486074,0.0152433l-0.0121324 0.00917708c-0.00454966,0.000777719 -0.00338308,0.00742722 0.00346085,0.0199485l-0.0274535 0.00478297c0.00575512,0.0601177 0.00501629,0.0954261 -0.00237204,0.105925 0.0165654,0.0470909 0.0267535,0.0982648 0.0306032,0.153794l-0.00163321 0.0706169 0.0154766 0.0888933c-0.0110047,-0.00754387 -0.0174987,-0.00427745 -0.019443,0.0104214l0.00781608 0.0055218 0.00668838 -0.00116658 -0.00116658 -0.0066495c0.00933263,-0.00163321 0.0153211,0.004433 0.017732,0.0181597l0.00591066 0.034103 -0.0409858 0.00715501c0.00536626,0.00381082 0.0127935,0.00699947 0.0225538,0.00999369 0.00933263,-0.00163321 0.0135323,-0.00466631 0.0127935,-0.00906043 0.00610509,0.00816605 0.00120546,0.0206096 -0.01466,0.0377194l-0.011238 0.015671c-0.00314976,0.010227 -0.0019443,0.0170709 0.00361639,0.0208429 -0.00556069,-0.00377194 -0.0150877,-0.00423857 -0.0286201,-0.00190541l-0.0481019 0.00836048c0.00151655,0.00874934 0.0069217,0.0125213 0.0162543,0.0108881 -0.00198318,0.0145045 -0.0103437,0.0206873 -0.0251592,0.0181209 -0.0196374,-0.00579401 -0.0307588,-0.0154766 -0.0331697,-0.0293978 -0.00808828,0.00657172 -0.0145045,0.0102659 -0.0188986,0.0110047l-0.00859379 -0.00622175c-0.00155544,-0.00894377 -0.00855491,-0.00987703 -0.0213484,-0.00314976 0.00139989,-0.0191319 -0.00019443,-0.0282701 -0.00478297,-0.0274924l-0.0066495 0.00116658 0.00128324 0.00727167 -0.00610509 0.00816605c-0.0195596,-0.00626064 -0.041258,-0.0237204 -0.0650562,-0.0521849l-0.0267535 -0.0305255 -0.0332086 -0.0293978c-0.00155544,-0.00890488 -0.00544403,-0.0176542 -0.0116269,-0.026248l-0.0168376 -0.0178875c-0.016371,-0.0113158 -0.0233316,-0.0244593 -0.021154,-0.0390026l0.0152044 0.00486074 0.00781608 0.0055218 -0.0181209 -0.0251592 -0.0188597 -0.0248092c-0.00435523,0.000738833 -0.00400525,0.00283867 0.00116658,0.0066495l0.00241093 0.0139601c-0.00357751,0.00532737 -0.0166043,-0.00186653 -0.0389248,-0.0215428 -0.0172654,-0.0203762 -0.0360084,-0.0383415 -0.0565013,-0.0536626l-0.00474409 -0.027259c-0.00155544,-0.00894377 -0.00521072,-0.0175376 -0.0113158,-0.0257036l0.00781608 0.0055218 0.0074661 -0.00128324c-0.00661061,-0.00851602 -0.0135712,-0.0212706 -0.0212317,-0.0383415l-0.0272202 -0.038186c-0.0049774,0.000855491 -0.0066495,0.00610509 -0.00501629,0.0154766l0.00863268 0.00532737 0.00233316 0.0135712c-0.0229038,0.00396637 -0.0332475,-0.00132212 -0.0309532,-0.0153988 -0.0131823,0.00676615 -0.0172654,0.0239926 -0.0125602,0.0510184l0.0107325 0.0616731 -0.00785496 -0.0055218 -0.0134934 0.00233316 0.0103437 0.0190152 0.0207651 0.0107714c0.00668838,0.0127546 0.0129101,0.0211151 0.018082,0.0251203l-0.0110047 0.015671c-0.00458854,0.000777719 -0.00836048,0.00614398 -0.0117824,0.0159821l0.0165654 0.0114714c0.000777719,0.00458854 -0.00361639,0.00750499 -0.0129879,0.0091382 0.0147378,0.00213873 0.0208818,0.0104992 0.0189375,0.0250037 -0.00143878,0.0191319 -0.00591066,0.0340641 -0.0136879,0.0446022 0.0101103,0.0027609 0.0154766,0.0200651 0.0158655,0.0517183l-0.000699947 0.0355418c0.00159432,0.0091382 0.00509406,0.0158266 0.0102659,0.019443 -0.00206096,0.0142711 -0.00155544,0.0304866 0.00163321,0.0488019l0.00836048 0.0481019 -0.0274924 0.00478297c-0.000816605,-0.00482186 -0.010227,-0.00571623 -0.0281145,-0.00260536l-0.00466631 -0.0268702 -0.00731056 0.00128324 0.00116658 0.0066495c-0.00357751,0.00532737 -0.0104603,0.00653284 -0.0202207,0.00349974 0.00384971,-0.00513294 0.00532737,-0.0103437 0.00447188,-0.0151266 -0.00536626,-0.00381082 -0.00976037,-0.0030331 -0.0134934,0.00233316l-0.00606621 0.00855491 -0.00661061 0.00116658 -0.0183542 -0.0251203 -0.018743 -0.0250814 -0.00540515 0.00804939 0.00777719 0.0055218c-0.00894377,0.00155544 -0.0136101,-0.0117824 -0.0137267,-0.0396637l-0.000505517 -0.0421524 -0.000738833 -0.0474797 -0.0132601 -0.0328586c-0.00151655,-0.00894377 -0.000583289,-0.0185486 0.00256647,-0.0287367l-0.00120546 -0.00688281 -0.00847714 -0.00540515 -0.00777719 -0.00548292 -0.00128324 -0.00727167c0.00855491,-0.00626064 0.0138823,-0.016371 0.0159044,-0.0304477 -0.00318865,-0.0183153 -0.0104214,-0.0329364 -0.0220094,-0.0440189l-0.00124435 -0.0505906 -0.0166821 -0.0674282c0.0041608,-0.0573568 -0.00108881,-0.101026 -0.0159821,-0.131046 0.00361639,-0.00532737 0.00427745,-0.0148933 0.00190541,-0.0286201l-0.00711613 -0.0408302c-0.00987703,-0.0310699 -0.00847714,-0.0501629 0.00462743,-0.0573957l-0.00804939 -0.00544403 -0.0139601 0.00241093 -0.00591066 -0.0341419c0.0110047,0.0077383 0.0178486,0.00653284 0.0208429,-0.00361639 -0.0155155,-0.00653284 -0.022515,-0.019443 -0.0213095,-0.038536l0.0549458 -0.00956594c0.00594955,0.00816605 0.0166821,0.0157488 0.0322753,0.0227094l0.0376416 0.0142323c0.0304477,0.0135712 0.0519127,0.0308366 0.0648618,0.0521849l0.00859379 0.00536626 0.0146211 0.0049774 0.0113158 0.0257036c0.000894377,0.0049774 0.00606621,0.00641618 0.0154377,0.00482186l0.00349974 0.0201818c0.0149711,0.00707724 0.0318476,0.0229816 0.0503573,0.0478686l0.0181209 0.0251592 0.0254314 0.0230205c-0.0027609,0.0101103 -0.00346085,0.0196763 -0.00190541,0.0286201 0.00283867,-0.0096826 0.00703836,-0.012599 0.0121713,-0.00898265l0.00785496 0.00548292 0.00361639 0.0208429 -0.00314976 0.0213484c0.00894377,-0.00155544 0.0139212,-7.77719e-005 0.0147767,0.00493852l0.00960483 0.0120546c0.00680504,0.0131823 0.0169543,0.0185097 0.0304866,0.0161377 -0.00225538,0.0141156 0.000505517,0.0299033 0.00824382,0.0474797 0.0254314,0.0191319 0.0448355,0.0273368 0.0583678,0.0250037 0.00155544,0.00890488 0.00544403,0.0176931 0.0120546,0.0262091l0.00902154 0.0123657 0.0102659 0.019443c0.00976037,0.00299422 0.017382,0.00618287 0.023176,0.00991592l0.00478297 0.0274535c0.00314976,0.0181209 0.00874934,0.0244593 0.0168765,0.0182764l0.00804939 0.00548292 0.00120546 0.00684393c0.0129101,-0.0069217 0.0201818,-0.00587178 0.0217372,0.00311088 0.00579401,-0.0198707 0.00680504,-0.0412969 0.00283867,-0.0639674l-0.0118602 -0.0682837c0.00357751,-0.00532737 0.0100715,-0.00859379 0.0194041,-0.010227l-0.0125213 -0.0400525 0.00622175 -0.0431245c-0.00867157,-0.0574734 -0.0196763,-0.0969427 -0.0329753,-0.118019l0.0116269 -0.0159432 0.00423857 -0.0150877c-0.00668838,-0.012599 -0.0117824,-0.0281923 -0.0149711,-0.0465465l0.00307199 -0.0217372 -0.00233316 -0.0135712c-0.00972149,-0.00279979 -0.0181986,-0.0107714 -0.0253536,-0.0236427 -0.00703836,-0.0131434 -0.00902154,-0.0246148 -0.00594955,-0.0341419 -0.0159432,-0.011588 -0.0276479,-0.0258592 -0.0351529,-0.0430079 0.00513294,0.00361639 0.00972149,0.00279979 0.0133379,-0.00233316l0.0117047 -0.0052496 -0.00847714 -0.0167598 0.0151266 0.004433 0.00548292 -0.0080105 0.0341419 -0.00591066c0.00972149,0.0030331 0.0159044,0.0113936 0.0183153,0.0250814zm0.62723 0.619842l-0.0316143 0.0243815 -0.0334808 0.013299c-0.0230205,0.004433 -0.0442133,0.00594955 -0.0633452,0.00458854 0.000816605,0.00454966 -0.00559958,0.00828271 -0.0192874,0.0110436l-0.0334808 0.0133768c-0.0309143,-0.0113547 -0.0438245,-0.0153599 -0.0384971,-0.0115491 -0.00727167,0.0108881 -0.0162543,0.0148544 -0.0267924,0.0121713l-0.0146989 -0.00431634 -0.0145822 0.00252759c0.00338308,-0.0101881 0.00174987,-0.0195985 -0.00489963,-0.0280757l-0.00843825 -0.00540515 -0.00902154 -0.0123657 0.021154 -0.00431634c-0.010577,-0.00268313 -0.0165265,-0.00871045 -0.0181597,-0.018082l0.00419968 -0.0153211 -0.00972149 -0.0126768 0.0190541 -0.0176542 0.0174598 -0.0176542c0.0107714,-0.0207262 0.0200651,-0.034103 0.0281145,-0.0406747l-0.000972149 -0.0500073 -0.00182764 -0.0500851 -0.00797162 -0.0419579c-0.00241093,-0.0137267 -0.00213873,-0.0257425 0.000622175,-0.0358917 -0.0136879,0.00754387 -0.0284256,0.00793273 -0.0437467,0.00139989l-0.0226705 -0.00357751 -0.021154 -0.00314976c-0.00279979,-0.0134934 0.00684393,-0.0248092 0.0292422,-0.0340641l-0.00972149 -0.0128712c-0.00575512,-0.00349974 -0.00944928,-0.0099548 -0.0110825,-0.0193263l0.0141545 -0.00244981 0.0114714 -0.0166043c0.0123657,-0.011588 0.0237593,-0.0137656 0.0346863,-0.00645507 -0.00143878,-0.0329753 -0.00668838,-0.074311 -0.0158266,-0.124202l-0.0212706 -0.111214c-0.00163321,-0.0094104 -0.0141156,-0.0121713 -0.0372139,-0.00816605 0.00859379,-0.00598844 0.00948817,-0.0131823 0.00307199,-0.0217372l-0.00427745 -0.0206873 -0.0155933 -0.0110436 -0.0227483 -0.00373305 -0.00116658 -0.0066495 0.0129101 -0.00976037c0.00272202,-0.0101492 0.00198318,-0.0145045 -0.00233316,-0.0133379 -0.00209984,-0.0096826 -0.000505517,-0.0127546 0.00521072,-0.00925486l0.00797162 0.00633841 0.00668838 -0.00116658c-0.000894377,-0.00501629 0.0049774,-0.013299 0.017732,-0.0251981l0.0193263 -0.0108492 0.0196374 -0.0102659c0.0343752,0.00279979 0.0748166,-0.000155544 0.120935,-0.00863268l0.0682837 -0.0193652 0.0663005 -0.00960483 -0.0148544 0.015671c0.0225927,-0.00458854 0.0478297,-0.0110825 0.0757887,-0.0194041l0.0833326 -0.0151266 0.0230205 0.00544403 0.0247315 0.0164876c0.021154,0.0104603 0.0333641,0.0250814 0.0365917,0.0438245 -0.00855491,0.00622175 -0.0184319,0.0173431 -0.0293589,0.033403l-0.0224761 0.0335197c-0.0290478,-0.000544403 -0.0667672,0.00322753 -0.113664,0.0109658l-0.0942206 0.0365528c-0.00435523,0.000738833 -0.0099548,-0.0030331 -0.0162932,-0.0111214l-0.0250425 0.018743c-0.0134545,0.00661061 -0.0251203,0.00863268 -0.0348029,0.00602732l-0.00606621 0.00812716 -0.00727167 0.00128324 0.0121324 0.0266369 0.0139212 0.0333641c0.00369416,0.0186653 0.00427745,0.0355029 0.00198318,0.0507073l-0.0160988 -0.0160988 -0.00143878 0.0386526 0.00727167 -0.00124435 0.00804939 0.00544403 -0.00116658 -0.0066495 0.00902154 0.0121713 -0.00540515 0.00843825 -0.00563846 0.00847714c0.0101881,0.00295533 0.019443,0.0131046 0.0281145,0.0309143l0.0412191 -0.00458854 0.0517572 -0.00579401c0.0174987,-0.0030331 0.036125,-0.00178875 0.0560346,0.00400525 0.00365528,0.0186653 0.0119769,0.0244593 0.0249648,0.0176931 -0.00206096,0.0141156 0.000933263,0.0300977 0.00898265,0.0479853l-0.0133379 0.00233316 -0.00602732 0.00855491 -0.0299422 0.0127157 0.00688281 -0.00120546c-0.0515628,0.0190541 -0.0948039,0.0270257 -0.129685,0.0238371 -0.0134545,0.0027609 -0.0188986,0.0108492 -0.0165654,0.0243426l-0.00474409 0.0158266 0.00104992 0.0395081c-0.00933263,0.00159432 -0.016371,-0.0104603 -0.0212317,-0.0359695 -0.00699947,0.0200651 -0.00964371,0.0468965 -0.00785496,0.0804939l0.00890488 0.0488407 0 0.035814c0.00649395,0.00766053 0.00956594,-0.0016721 0.00972149,-0.0280757l-0.00521072 -0.0261314 0.00272202 -0.0274535c0.0100715,0.00229427 0.0172654,0.0166821 0.021815,0.0427357l0.00626064 0.0321587 0.008866 0.0115102 0.0478297 -0.0220483c0.0274146,-0.00517183 0.0559569,-0.00606621 0.085588,-0.00241093l0.022515 0.00377194 0.0212317 0.00252759 0.0773053 -0.0141156c0.0276479,-0.0052496 0.063773,-0.00699947 0.108375,-0.00575512l0.0194819 0.0219317c-0.0307588,0.00579401 -0.0465854,0.0145433 -0.0475186,0.0264813 0.0213484,0.00917708 0.034103,0.0183153 0.0379916,0.027259l-0.0315754 0.0243815 -0.0645896 0.025587 0.00964371 0.0122491 0.00287756 0.0164876c-0.0195596,-0.00132212 -0.0410636,-0.00190541 -0.065134,-0.00198318l-0.0502795 -0.000699947c0.000855491,0.00501629 0.00373305,0.0066495 0.00843825,0.00540515 -0.00894377,0.00668838 -0.0206096,0.00851602 -0.035464,0.00575512l-0.0225538 -0.00381082c-0.00972149,-0.00283867 -0.019443,-0.00349974 -0.0292422,-0.00178875l-0.00229427 -0.013299zm0.567229 -0.600049c-0.0130657,0.0863268 -0.0283479,0.17347 -0.046352,0.26108l0.0471298 -0.0150489c0.0234871,0.000661061 0.0492296,0.000661061 0.0772664,0.000505517l0.0262869 -0.0116658 -0.0246148 -0.0589511 -0.0254314 -0.0661061c-0.0183931,-0.0528071 -0.0363972,-0.0895543 -0.0542848,-0.109814zm0.142011 -0.108336c0.0108881,-0.0124046 0.0184708,-0.00964371 0.0228261,0.0080105l0.0115102 0.0192485c0.00365528,0.0137267 0.0106159,0.0215039 0.0209984,0.0233705 -0.0125213,0.00820493 -0.0236038,0.0111603 -0.0335975,0.00906043l0.0105381 0.039547c0.0117436,0.0256258 0.0219317,0.0373694 0.0307199,0.0349585 0.00431634,-0.00116658 0.00373305,-0.00338308 -0.00174987,-0.00653284l-0.0101881 -0.0115491 -0.00186653 -0.00715501c0.00676615,0.00804939 0.0182375,0.0160988 0.0342585,0.0242648l0.0228649 0.0588344 0.0148544 0.0274535c0.0041608,0.0239537 0.010927,0.0444078 0.0207262,0.0611676l0.00174987 0.00657172 0.00439411 0.0324698c-0.00451077,0.00120546 -0.00532737,0.00629952 -0.00314976,0.0151266 -0.00431634,0.00116658 -0.00777719,-0.00272202 -0.0101492,-0.0115491l-0.00182764 -0.00653284c-0.00116658,-0.00431634 -0.00377194,-0.00598844 -0.00832159,-0.00478297 -0.00229427,0.0100326 7.77719e-005,0.0188597 0.00715501,0.0264424l0.0120158 0.0184708c0.0136879,0.015671 0.0173042,0.02897 0.0108103,0.0397414 0.00548292,0.00314976 0.0103825,0.00439411 0.0149711,0.00361639l0.00474409 -0.00832159 0.00898265 0.00462743c-0.00229427,0.0100715 -0.00346085,0.0246537 -0.00287756,0.0438245l0.000427745 0.0282312 -0.00104992 0.0222816c-0.00454966,0.00124435 -0.0080105,-0.00268313 -0.0101881,-0.0115102l-0.00544403 -0.0202985c-0.00373305,0.00559958 -0.00318865,0.0174987 0.0016721,0.0355029l0.0359306 0.0400914 0.00474409 0.0199874 -0.00349974 0.0155933 -0.0109658 0.00964371c-0.00334419,0.0055218 -0.00357751,0.0128324 -0.00112769,0.0220872 -0.00917708,0.00244981 -0.0174209,-0.000427745 -0.0241871,-0.00847714l-0.0370583 -0.00723279 0.00657172 0.037836c-0.0210373,0.0107714 -0.0390026,-0.00116658 -0.0534293,-0.0359306l-0.0190152 -0.0451855c-0.00474409,-0.0175764 -0.0106159,-0.0302922 -0.017382,-0.0383415 -0.010927,0.0124046 -0.0234482,0.0180431 -0.0379527,0.0173042 -0.0148155,-0.00128324 -0.0256258,-0.00559958 -0.0323142,-0.0132212 -0.00517183,0.0158655 -0.0225927,0.0230205 -0.0523405,0.0208818l-0.0131046 0.00357751 -0.0049774 0.00839936c-0.0030331,0.00606621 -0.00711613,0.00956594 -0.0118213,0.0108103 -0.0108881,-0.00688281 -0.0319642,-0.00602732 -0.0631119,0.0022165l-0.0390026 0.0174598 -0.0281923 0.000661061c0.00116658,0.00427745 -0.00556069,0.00610509 -0.0205318,0.0052496l-0.00474409 0.00855491 0.00847714 0.00540515c-0.0111992,0.0120158 -0.0225927,0.0316143 -0.033753,0.0586011l-0.0132212 0.0325475 -0.0216984 0.026948c-0.00878822,0.00237204 -0.0184319,0.00256647 -0.0288534,0.000505517l-0.0166432 -0.00952706 0.00777719 -0.0241093 -0.00532737 -0.0196763c-0.00489963,-0.0180042 0.00108881,-0.031692 0.0179653,-0.0408691 -0.00486074,-0.0180042 -0.00384971,-0.0419579 0.0024887,-0.0720557l0.012599 -0.0324309 0.0114325 -0.0390804c0.00878822,-0.00217761 0.0122491,-0.0207651 0.0103825,-0.0558402l0.0030331 -0.0148933 0.011588 -0.00952706 0.00311088 -0.0438245 0.00944928 -0.0469353c0.00987703,-0.0319254 0.0159432,-0.0623731 0.0179264,-0.0916542l0.00684393 -0.0691781c-0.0063773,-0.0415691 -0.00742722,-0.0724834 -0.00307199,-0.0929763l0.0134157 -0.0608565c0.0027609,-0.0247315 0.00330531,-0.0488407 0.00174987,-0.0725612l0.0197929 -0.0341419 0.018082 -0.040247c0.0164876,-0.0283867 0.0346085,-0.0499684 0.0547514,-0.0648618l0.0395081 0.0396637 0.0319254 0.0416857c0.0274924,0.0311865 0.0420746,0.0582511 0.0435523,0.0816216l0.00832159 0.00474409 0.0139601 -0.00369416 0.008866 0.0336363c0.00816605,0.0124824 0.0106159,0.0215039 0.00727167,0.0270257zm0.727828 -0.203179c-0.0101492,0.0202207 -0.0140767,0.037175 -0.0117047,0.0509406 0.00400525,0.0229038 0.0153211,0.0348807 0.0339863,0.0363195 -0.0104992,-0.00738833 -0.0117047,-0.0142711 -0.00349974,-0.0201818l-0.00816605 -0.00610509 -0.013299 0.00233316 0.00431634 -0.0146989 0.00548292 -0.00781608c0.0077383,-0.0109658 0.00696058,-0.0155544 -0.00244981,-0.0139212 0.00859379,-0.00622175 0.0177709,-0.00781608 0.0275313,-0.00478297 0.0105381,0.00781608 0.0194041,0.0178486 0.0267146,0.0304866l0.00723279 0.0414135c-0.00268313,0.0141934 -0.0080105,0.0243815 -0.0161377,0.0304866l0.00909931 0.0127935 0.00762165 0.0439411c-0.0027609,0.0101103 0.000349974,0.0145045 0.00933263,0.012949l-0.00454966 0.0145045 -0.00435523 0.0145045c-0.00591066,-0.00820493 -0.0108881,-0.00948817 -0.0144656,-0.00435523l0.00478297 0.0274535c-0.0109658,-0.00731056 -0.0202985,0.00672727 -0.0278812,0.0419579l0.00797162 0.0458076c0.00894377,-0.00159432 0.0129101,-0.00462743 0.0121324,-0.00917708l-0.00116658 -0.00668838 0.0135323 -0.00233316c-0.00155544,-0.00898265 -0.0069217,-0.0125602 -0.0158655,-0.0110047 0.00213873,-0.0147378 0.0144656,-0.0239537 0.0372139,-0.0278812l0.00707724 0.0407914 -0.0108881 0.0164488c-0.00859379,0.00602732 -0.017382,0.00991592 -0.0262869,0.0114714 0.00229427,0.013299 0.000349974,0.0278035 -0.00626064,0.0430856 -0.00571623,-0.00349974 -0.017382,-0.00381082 -0.0352696,-0.000699947 -0.000777719,-0.00439411 0.000466631,-0.00952706 0.00423857,-0.0151266l0.00548292 -0.0080105 -0.00116658 -0.0066495 -0.0110047 0.0158266 -0.010577 0.0230983c-0.00649395,0.0154766 -0.0165654,0.0243037 -0.0305255,0.0267146l0.0101881 0.0190541 0.0166043 0.0114714c0.0091382,-0.000311088 0.0121713,0.00454966 0.0094104,0.01466l0.0144656 0.00435523 0.0165265 0.0110436 0.0223983 0.0104992 0.0176542 0.0176931 0.018082 0.0251981c0.00855491,0.0218928 0.020104,0.0340252 0.0346085,0.0359695l-0.00738833 0.0365139 0.00594955 0.0341419c0.00909931,0.0264813 0.00847714,0.0499684 -0.00229427,0.0707335 -0.00513294,-0.00361639 -0.0165654,-0.00163321 -0.0341419,0.00591066l-0.00233316 -0.013299 -0.00431634 0.0144656 -0.00781608 -0.00548292 -0.0164876 -0.0108881c-0.0052496,-0.00419968 -0.0118991,-0.00307199 -0.0199485,0.00346085 -0.00244981,-0.0139212 -0.00882711,-0.0222428 -0.0189763,-0.0250037l-0.0091382 -0.0129879 -0.0144267 -0.00431634c0.00361639,-0.00517183 0.0047052,-0.0124435 0.00314976,-0.0213484l-0.00816605 -0.00738833 -0.025587 -0.0236427c-0.0229816,-0.00909931 -0.0346863,-0.0158655 -0.0354251,-0.0202207l0.00377194 -0.0139601 -0.0154377 -0.012288c-0.00540515,-0.0100715 -0.0174598,-0.0227094 -0.0360473,-0.0383804l-0.0140767 -0.0303699 -0.0159432 -0.011588c-0.0139601,0.00116658 -0.0200263,-0.0055218 -0.0178875,-0.0200651l-0.0464687 0.0149711 -0.0481019 0.00836048c-0.0307977,0.0103048 -0.0523794,0.0219706 -0.0642396,0.0349585l0.0107714 0.0189375 0.0102659 0.019443 -0.00781608 -0.00548292 -0.00727167 0.00124435c0.00556069,0.00377194 0.00882711,0.00769942 0.00960483,0.012288 -0.00400525,0.00521072 -0.00839936,0.00832159 -0.0127935,0.00906043l0.00116658 0.00668838 0.0139601 -0.00244981c-0.00454966,0.02932 -0.00120546,0.0635008 0.0103048,0.102464l0.0210762 0.0743499c-0.0355806,-0.00731056 -0.0627619,-0.0231371 -0.0812716,-0.0480241 -0.00676615,0.0140378 -0.00956594,0.0274146 -0.00874934,0.0397026l-0.0376805 -0.0316143 -0.0047052 0.0196763 -0.0200263 -0.0436689 -0.00610509 0.00793273c-0.00898265,0.00155544 -0.0165654,-0.0151655 -0.0226705,-0.0501629l0.020804 -0.00361639 -0.00843825 -0.00540515c-0.00536626,-0.00373305 -0.008866,-0.0101881 -0.0104992,-0.0195985l0.00688281 -0.00120546 0.0024887 0.0141934 -0.00396637 -0.0289311 -0.00521072 -0.0299811c0.010227,-0.0397026 0.00769942,-0.063073 -0.00762165,-0.0696447 0.0121713,-0.0113547 0.0115491,-0.0322364 -0.00217761,-0.063073l-0.0130268 -0.0749332c0.0104603,0.00738833 0.016721,0.00392748 0.0190152,-0.0101881l-0.00937151 -0.012949 -0.00229427 -0.0133379 -0.00431634 0.0145045c-0.00272202,0.0101103 -0.00540515,0.00843825 -0.00781608,-0.0055218l-0.00594955 -0.0341419 0.00781608 0.0055218 0.0066495 -0.00116658c0.00225538,-0.0141156 0.000272202,-0.025587 -0.00594955,-0.034103l-0.0220872 -0.0482963c0.00657172,0.011938 0.0111214,0.0111603 0.013299,-0.00233316l-0.00478297 -0.0274535c-0.000777719,-0.00439411 -0.00283867,-0.00400525 -0.0066495,0.00112769 -0.00591066,-0.00820493 -0.0126768,-0.0209595 -0.0197929,-0.0385749l0.0030331 -0.0219706 -0.00346085 -0.0199874c-0.00618287,-0.00855491 -0.016021,-0.0094104 -0.0293589,-0.00241093 -0.0113158,-0.011938 -0.0193263,-0.0174209 -0.0243426,-0.0165654l-0.00478297 -0.0274535 0.00750499 -0.00132212 0.0145045 0.00435523c-0.00155544,-0.00894377 -0.00672727,-0.0125602 -0.015671,-0.0110047l-0.0141545 0.00244981c-0.00163321,-0.00933263 0.0027609,-0.0124824 0.0129879,-0.00909931 -0.000855491,-0.00501629 -0.0041608,-0.00917708 -0.0099548,-0.0128324l-0.013299 0.00229427c-0.00019443,-0.0280757 -0.00128324,-0.0465465 -0.00279979,-0.0552958l0.0195596 -0.0110825 0.0190152 -0.0101881 0.00116658 0.00668838 -0.00559958 0.00867157 0.0262091 -0.012288 0.0263258 -0.0114325c0.0167598,-0.0121324 0.0298644,-0.0167987 0.0396248,-0.0137656l0.00116658 0.00668838 -0.0133379 0.00229427c0.00517183,0.00381082 0.0101103,0.00513294 0.0145045,0.00435523l0.0123657 -0.00902154 0.0139212 -0.00241093c0.00381082,-0.00517183 0.00342196,-0.0074661 -0.00112769,-0.00668838l0.00548292 -0.00781608 0.020804 -0.00361639c0.0125213,-0.0069217 0.0201818,-0.00349974 0.022515,0.00983814 0.00279979,-0.00976037 0.0161766,-0.0144267 0.0396248,-0.0137656l0.0219706 0.0030331 0.0217761 0.00307199 0.0329753 -0.012599 0.0341419 -0.00594955c0.027259,-0.00474409 0.0465854,-0.00101103 0.0579401,0.0113547 0.0174987,-0.00777719 0.0410247,-0.00711613 0.070578,0.00147767l0.0377583 0.0148544 0.0309921 0.0152044 0.00128324 0.0074661 -0.0133379 0.00233316c-0.00423857,0.0052496 -0.00307199,0.0118991 0.00349974,0.0199874l0.00120546 0.00688281 0.00544403 -0.0080105c0.00361639,-0.00513294 0.00816605,-0.00594955 0.013299,-0.00233316 -0.00272202,0.0101103 0.000388859,0.0145045 0.0091382,0.0129879l0.0274535 -0.00478297zm-0.198435 0.0834104c0.00346085,-0.0147767 -0.00894377,-0.0220483 -0.0370194,-0.0218539l-0.0286201 -0.00186653c-0.0141156,-0.00206096 -0.0234093,-0.00279979 -0.0280368,-0.00202207l0.00583289 -0.00614398 -0.00696058 -0.000505517c-0.00937151,0.00163321 -0.0246537,0.00878822 -0.0457688,0.0216984l-0.0251203 0.0182764 -0.0316532 0.0130268 0.00233316 0.0133379 -0.00493852 0.0147767c-0.00373305,0.00559958 -0.00330531,0.00808828 0.00128324,0.00727167l-0.00454966 0.0145433 0.00859379 0.0124435 0.00793273 0.00610509c-0.000855491,-0.0049774 0.00330531,-0.00808828 0.0126768,-0.00972149 0.00318865,0.0183153 0.00707724,0.0270646 0.0114325,0.0263258l0.0066495 -0.00241093 -0.00419968 0.016371 0.00213873 0.0517572 -0.0055218 0.00781608 -0.0150877 -0.00423857 0.00781608 0.0055218 0.00855491 0.00618287 0.00668838 -0.00116658c0.00972149,0.00283867 0.0150489,0.0063773 0.0158266,0.0110047 0.000972149,0.0324309 -0.00268313,0.0660672 -0.0108103,0.10052 0.00478297,-0.000855491 0.00999369,0.000622175 0.0151266,0.00423857l0.00781608 0.00548292 -0.00349974 -0.0199874c0.0155155,0.00653284 0.0321198,0.00816605 0.0500073,0.00505517l0.0262869 -0.0114714 0.0217761 0.00311088c-0.00155544,-0.00898265 0.00229427,-0.0141545 0.0111992,-0.0157099l0.0193652 -0.0108492 -0.00311088 0.0217761 0.0099548 -0.0268313c0.00933263,-0.00163321 0.0135323,-0.0047052 0.0127935,-0.00909931l-0.00727167 0.00124435 -0.00116658 -0.00661061 0.00727167 -0.00128324 -0.00128324 -0.00750499 0.0145822 0.00521072 0.00116658 0.00661061 0.0124046 -0.00898265 0.0114714 -0.0166043c0.00734944,-0.0104992 0.0169932,-0.0230983 0.0286201,-0.0375638 0.00272202,-0.00882711 0.00439411,-0.033753 0.0052496,-0.0744666l-0.00291645 0.026248 -0.00668838 0.00116658c-0.00454966,0.000816605 -0.00808828,-0.0071939 -0.0109658,-0.0237982 0.00435523,-0.000777719 0.00699947,-0.012599 0.00758276,-0.0352307l-0.00466631 -0.0268702c-0.00598844,-0.00859379 -0.00948817,-0.0150489 -0.0103048,-0.0196374 -0.00454966,0.000777719 -0.00812716,0.00614398 -0.0111603,0.0158655l-0.00711613 -0.0409858 -0.00548292 0.0080105 -0.0126768 0.00972149c-0.00163321,-0.00937151 -0.00474409,-0.0137656 -0.00909931,-0.0129879l-0.00688281 0.00120546 -0.00785496 -0.0055218zm1.21048 0.0131434c-0.00454966,0.000777719 -0.00614398,-0.00836048 -0.00478297,-0.0274924l-0.00349974 -0.0199874 0.00482186 -0.0153988c-0.00933263,0.00163321 -0.0137267,0.0047052 -0.0129101,0.00929374 0.00155544,0.00917708 -0.00237204,0.0124435 -0.0120935,0.00960483 -0.00598844,-0.00859379 -0.00797162,-0.0200263 -0.00591066,-0.0341419 0.00653284,-0.0154766 0.0167987,-0.0243426 0.0304866,-0.0267146 0.00536626,0.00357751 0.00614398,0.00812716 0.00233316,0.013299l0.00244981 0.0141545c0.00898265,-0.00155544 0.0169154,-0.00999369 0.023876,-0.025587l0.00431634 -0.0144656 0.00419968 -0.0153599c-0.00435523,0.000777719 -0.00847714,0.00408302 -0.0119769,0.00983814l-0.00614398 0.00793273 0.00229427 0.0133379 -0.00781608 -0.0055218 -0.00116658 -0.0066495c-0.00163321,-0.00937151 -0.00699947,-0.0133768 -0.0159821,-0.0118213l0.0055218 -0.00777719 -0.00349974 -0.0202207c-0.00521072,-0.00400525 -0.000349974,-0.0166432 0.0148933,-0.0377971 0.0154766,-0.0167987 0.02932,-0.031031 0.0414913,-0.0423857 -0.00163321,-0.00933263 0.00136101,-0.0192874 0.00878822,-0.0295922l0.0127157 -0.00929374 0.00423857 -0.0151266c-0.00155544,-0.00890488 -0.00361639,-0.00855491 -0.0066495,0.00116658l-0.00548292 0.00781608 0.00128324 0.00727167 -0.00859379 -0.00598844 0.00501629 -0.0145822c0.00213873,-0.0147767 -0.0019443,-0.0234871 -0.0120935,-0.0262091l0.00252759 -0.0287367 0.00976037 -0.022515c0.011588,-0.0161377 0.0258203,-0.0280757 0.0429301,-0.0355806l-0.00548292 0.00781608 0.00116658 0.00668838 0.036125 -0.0339474 0.023176 0.00987703 0.0169154 0.0183153 0.00602732 -0.00855491 -0.00233316 -0.0133379c0.00454966,-0.000777719 0.011588,0.000155544 0.0213484,0.00314976l0.00781608 0.0055218c0.00661061,0.00851602 0.0134934,0.00731056 0.020804,-0.00361639l0.0103048 0.0196374c-0.00283867,0.00972149 -0.00622175,0.017382 -0.00976037,0.0229427l0.0168376 0.0178486 0.0175376 0.0181986 0.00462743 0.0697614 0.00400525 0.0625675c0.00435523,0.0509017 -0.000388859,0.0914209 -0.0139601,0.121869 0.00244981,0.0139601 0.0104992,0.0195985 0.0244204,0.0171876 -0.00622175,0.0195207 -0.0138434,0.0300588 -0.0227872,0.0316143l0.00793273 0.00614398 0.00781608 0.00548292 -0.00143878 0.0706169 0.0130657 0.0751276c0.00944928,0.0543626 0.00933263,0.0942206 -0.000661061,0.119341 0.0125213,0.0166821 0.0185875,0.0368639 0.0179653,0.0603899l0.0118991 0.0682448c-0.00777719,0.0110047 -0.0206484,0.0181597 -0.0389637,0.0213484l-0.0268702 0.00466631 -0.00976037 -0.0128712 -0.00233316 -0.0133379c-0.00598844,-0.00859379 -0.0153211,-0.00933263 -0.0279979,-0.00217761 0.00373305,-0.00556069 0.00528849,-0.0223983 0.00517183,-0.0504351 -0.0159432,0.0169154 -0.0300588,0.0172265 -0.0421913,0.000466631 -0.000816605,-0.00458854 0.00112769,-0.00703836 0.00548292,-0.00781608 -0.00676615,-0.0131823 -0.0122491,-0.0311088 -0.0162154,-0.0538181l-0.00404414 -0.0627619 -0.0155933 -0.130462 -0.0214262 -0.123191c-0.0135712,0.00233316 -0.0255092,0.0138434 -0.0362417,0.0346085 -0.00575512,0.0198318 -0.0111603,0.0418413 -0.0165265,0.0663394l-0.016021 -0.0117824c-0.00591066,-0.00797162 -0.00976037,-0.0167987 -0.0113936,-0.0261314l0.00128324 0.00727167 -0.00618287 0.00793273c0.017732,0.0202985 0.0224761,0.0475964 0.0142323,0.081816l-0.00758276 0.036475 -0.00738833 0.036475c-0.0276479,0.00478297 -0.0433578,0.0096826 -0.0470909,0.0150489l-0.0168765 -0.0178875 -0.0174987 -0.0181597c-0.016721,-0.0159821 -0.0364361,-0.0219706 -0.0591066,-0.0180431 -0.00237204,-0.0135323 -0.00124435,-0.0205707 0.00314976,-0.0213484l-0.00909931 -0.0127935 -0.0152822 -0.00419968c-0.0161377,-0.0396637 -0.0390804,-0.0776552 -0.0687892,-0.114325l-0.0358917 -0.0435134 -0.0423857 -0.0415302c-0.00361639,0.00513294 -0.00742722,0.0104992 -0.0110047,0.015671l0.00244981 0.0141156c0.0074661,0.0169543 0.004433,0.0266758 -0.00948817,0.0290867 0.0109658,0.00777719 0.0198318,0.0180431 0.0267535,0.0307588 -0.00734944,0.0107325 -0.0188208,0.0127157 -0.034103,0.00594955l0.00357751 0.0206096c0.00513294,0.00381082 0.00972149,0.00299422 0.0133379,-0.00233316l0.00727167 -0.00124435 0.0080105 0.00544403c-0.00381082,0.00536626 -0.00676615,0.0153211 -0.00937151,0.0299422l0.0143878 0.039547c0.00559958,0.0322364 0.00190541,0.0517572 -0.0110436,0.0585233 -0.00381082,0.00536626 -0.000738833,0.00937151 0.00902154,0.0123657l0.0066495 -0.00116658 0.0291645 0.16756c0.00952706,0.0549458 0.0134545,0.103592 0.0117047,0.146367l-0.0615953 0.0107325 -0.00478297 -0.0274924c0.0019443,-0.0147378 0.000349974,-0.023876 -0.00478297,-0.0274924 -0.0135712,0.00237204 -0.019443,0.00789385 -0.0178875,0.0168376 -0.0101103,-0.00272202 -0.0189763,-0.0129879 -0.0265202,-0.0305644l-0.0103825 -0.0187819c-0.00517183,-0.00381082 -0.0128324,-0.0071939 -0.0230205,-0.0105381l-0.0253536 -0.104798 -0.00614398 -0.0763331 -0.0103048 -0.180897c-0.00812716,-0.0740388 -0.013649,-0.131668 -0.0161377,-0.173276 -0.00855491,-0.0218539 -0.0192874,-0.0577456 -0.0326642,-0.107325l0.00575512 -0.00785496 0.0121324 -0.00898265c0.00400525,-0.00540515 0.00493852,-0.0149711 0.00252759,-0.0287367l0.00777719 0.0055218c0.0030331,-0.00976037 0.00190541,-0.0164099 -0.00349974,-0.0201818l-0.00116658 -0.00668838 -0.00789385 -0.00610509c0.018743,0.0016721 0.0376805,0.00330531 0.0567735,0.00447188l0.036475 0.00758276c0.0125213,0.0166821 0.0244593,0.0311476 0.035814,0.0433189l0.041258 0.0348418c0.0335586,0.0314976 0.0553347,0.0628786 0.0652895,0.0943762l0.00750499 -0.00128324 0.0144656 0.00435523 0.00116658 0.00661061 0.00909931 0.0128324 0.00233316 0.0135323 0.00785496 0.00548292 0.0152822 0.00419968 -0.00419968 0.0153211c0.00591066,0.00816605 0.0137267,0.0136879 0.0234482,0.0164876l0.00132212 0.00750499 -0.00435523 0.0145045c0.00976037,0.00299422 0.0295922,-0.00517183 0.0593011,-0.0240704 0.00591066,0.00820493 0.0074661,0.0171487 0.00466631,0.0268702l0.00594955 0.0341419 0.0066495 -0.00116658c0.00979926,0.00322753 0.0116658,0.000544403 0.00548292,-0.0080105l0.0153211 0.00439411 0.00124435 0.00727167c0.00159432,0.00894377 0.00672727,0.0125602 0.015671,0.0110047 0.000777719,0.00454966 -0.000738833,0.00933263 -0.00431634,0.0146989l-0.00540515 0.00843825 0.00898265 0.0121713 0.00237204 0.0135323c0.00353862,-0.00536626 0.0146211,-0.00964371 0.0329364,-0.0127935l-0.00711613 -0.0408302c-0.00509406,-0.00361639 -0.00991592,-0.0027609 -0.0139212,0.00244981zm0.730939 0.261858l-0.0316143 0.0243815 -0.0334808 0.013299c-0.0230205,0.004433 -0.0442133,0.00594955 -0.0633452,0.00458854 0.000816605,0.00454966 -0.00559958,0.00828271 -0.0192874,0.0110436l-0.0334808 0.0133768c-0.0309143,-0.0113547 -0.0438245,-0.0153599 -0.0384971,-0.0115491 -0.00727167,0.0108881 -0.0162543,0.0148544 -0.0267924,0.0121713l-0.0146989 -0.00431634 -0.0145822 0.00252759c0.00338308,-0.010227 0.00174987,-0.0195985 -0.00489963,-0.0280757l-0.00843825 -0.00540515 -0.00902154 -0.0123657 0.021154 -0.00435523c-0.010577,-0.00264424 -0.0165265,-0.00867157 -0.0181597,-0.0180431l0.00419968 -0.0153211 -0.00972149 -0.0126768 0.0190541 -0.0176542 0.0174598 -0.0176542c0.0107714,-0.0207262 0.0200651,-0.034103 0.0281145,-0.0406747l-0.000972149 -0.0500073 -0.00182764 -0.0500851 -0.00797162 -0.0419579c-0.00241093,-0.0137267 -0.00213873,-0.0257425 0.000622175,-0.0358917 -0.0136879,0.00754387 -0.0284256,0.00793273 -0.0437467,0.00139989l-0.0226705 -0.00357751 -0.021154 -0.00314976c-0.00279979,-0.0134934 0.00684393,-0.0248092 0.0292422,-0.0340641l-0.00972149 -0.0128712c-0.00575512,-0.00349974 -0.00944928,-0.00999369 -0.0110825,-0.0193263l0.0141545 -0.00244981 0.0114714 -0.0166043c0.0123657,-0.011588 0.0237593,-0.0137656 0.0346863,-0.00645507 -0.00143878,-0.0330142 -0.00668838,-0.074311 -0.0158266,-0.124202l-0.0212706 -0.111214c-0.00163321,-0.0094104 -0.0141156,-0.0121713 -0.0372139,-0.00816605 0.00859379,-0.00598844 0.00948817,-0.0131823 0.00307199,-0.0217372l-0.00427745 -0.0206873 -0.0155933 -0.0110436 -0.0227483 -0.00373305 -0.00116658 -0.0066495 0.0129101 -0.00976037c0.00272202,-0.0101492 0.00198318,-0.0145045 -0.00233316,-0.0133379 -0.00209984,-0.0096826 -0.000505517,-0.0127546 0.00521072,-0.00925486l0.00797162 0.00633841 0.00668838 -0.00116658c-0.000894377,-0.00501629 0.0049774,-0.013299 0.017732,-0.0251981l0.0193263 -0.0108492 0.0196374 -0.0102659c0.0343752,0.00279979 0.0748166,-0.000155544 0.120935,-0.00863268l0.0682837 -0.0193652 0.0663005 -0.00960483 -0.0148544 0.015671c0.0225927,-0.00458854 0.0478297,-0.0110825 0.0757887,-0.0194041l0.0833326 -0.0151266 0.0230205 0.00544403 0.0247315 0.0164876c0.021154,0.0104603 0.0333641,0.0250814 0.0365917,0.0437856 -0.00855491,0.00626064 -0.0184319,0.017382 -0.0293589,0.0334419l-0.0224761 0.0334808c-0.0290478,-0.000505517 -0.0667672,0.00326642 -0.113664,0.0110047l-0.0942206 0.0365528c-0.00435523,0.000738833 -0.0099548,-0.0030331 -0.0162932,-0.0111214l-0.0250425 0.018743c-0.0134545,0.00661061 -0.0251203,0.00863268 -0.0348029,0.00602732l-0.00606621 0.00812716 -0.00727167 0.00128324 0.0121324 0.0266369 0.0139212 0.0333641c0.00369416,0.0186653 0.00427745,0.0355029 0.00198318,0.0507073l-0.0160988 -0.0160988 -0.00143878 0.0386526 0.00727167 -0.00124435 0.00804939 0.00544403 -0.00116658 -0.0066495 0.00902154 0.0121713 -0.00540515 0.00843825 -0.00563846 0.00847714c0.0101881,0.00295533 0.019443,0.0131046 0.0281145,0.0309143l0.0412191 -0.00458854 0.0517572 -0.00579401c0.0174987,-0.0030331 0.036125,-0.00178875 0.0560346,0.00400525 0.00365528,0.0186653 0.0119769,0.0244593 0.0249648,0.0176931 -0.00206096,0.0141156 0.000933263,0.0300977 0.00898265,0.0479853l-0.0133379 0.00233316 -0.00602732 0.00855491 -0.0299422 0.0127157 0.00688281 -0.00120546c-0.0515628,0.0190541 -0.0948039,0.0269868 -0.129685,0.0238371 -0.0134545,0.0027609 -0.0188986,0.0108492 -0.0165654,0.0243426l-0.00474409 0.0158266 0.00104992 0.0395081c-0.00933263,0.00159432 -0.016371,-0.0104603 -0.0212317,-0.0359695 -0.00699947,0.0200651 -0.00964371,0.0468965 -0.00785496,0.0804939l0.00890488 0.0488407 0 0.035814c0.00649395,0.00766053 0.00956594,-0.0016721 0.00972149,-0.0280757l-0.00521072 -0.0261314 0.00272202 -0.0274535c0.0100715,0.00229427 0.0172654,0.0166821 0.021815,0.0427357l0.00626064 0.0321587 0.008866 0.0115102 0.0478297 -0.0220483c0.0274146,-0.00517183 0.0559569,-0.00606621 0.085588,-0.00241093l0.022515 0.00377194 0.0212317 0.00252759 0.0773053 -0.0141156c0.0276479,-0.0052496 0.063773,-0.00699947 0.108375,-0.00575512l0.0194819 0.0219317c-0.0307588,0.00579401 -0.0465854,0.0145433 -0.0475186,0.0264813 0.0213095,0.00917708 0.034103,0.0183153 0.0379916,0.027259l-0.0315754 0.0243815 -0.0645896 0.025587 0.00964371 0.0122491 0.00287756 0.0164876c-0.0195596,-0.00136101 -0.0410636,-0.00190541 -0.065134,-0.00198318l-0.0502795 -0.000699947c0.000855491,0.00501629 0.00373305,0.0066495 0.00843825,0.00540515 -0.00894377,0.00668838 -0.0206096,0.00851602 -0.035464,0.00575512l-0.0225538 -0.00381082c-0.00972149,-0.00283867 -0.019443,-0.00349974 -0.0292422,-0.00178875l-0.00229427 -0.013299z"/>
  <g id="_333688424">
   <path id="_634531040" class="fil1" d="M1.61314 3.64058c0.000427745,0.00241093 0.000777719,0.00400525 0.00108881,0.00618287l0.0394692 -0.00696058c-0.00952706,0.000311088 -0.0188208,0.000738833 -0.040558,0.000777719z"/>
   <path id="_634521464" class="fil1" d="M1.84277 3.55814c0.00171098,-0.000816605 0.00451077,0.000349974 0.00699947,0.00384971 0.00559958,0.00769942 0.00513294,0.0155933 -0.000622175,0.0179264 -0.0052496,0.00209984 -0.0101881,-0.004433 -0.0100326,-0.0134934 7.77719e-005,-0.00454966 0.00190541,-0.0074661 0.00365528,-0.00828271z"/>
   <path id="_634519136" class="fil1" d="M1.86345 3.52396c0.00279979,-0.000466631 0.00641618,0.0118991 0.00723279,0.0267146 0.000816605,0.0148155 -0.00124435,0.0269091 -0.00408302,0.0274146 -0.00283867,0.000505517 -0.00622175,-0.0106547 -0.00703836,-0.0254703 -0.000777719,-0.0147767 0.00104992,-0.0281145 0.00388859,-0.0286589z"/>
   <path id="_634523696" class="fil1" d="M5.90394 2.80138c0.0112769,-0.00229427 0.0182764,0.00268313 0.0145045,0.0101492 -0.00186653,0.00373305 -0.00528849,0.00591066 -0.00898265,0.0066495 -0.00373305,0.000777719 -0.0080105,0.000855491 -0.0117436,-0.00174987 -0.00750499,-0.00517183 -0.00501629,-0.0127935 0.00622175,-0.0150489z"/>
   <path id="_634521296" class="fil1" d="M5.64266 2.81946c0.00839936,-0.00206096 0.0130268,0.00295533 0.0108103,0.0108103 -0.00108881,0.00388859 -0.00233316,0.00657172 -0.00509406,0.00723279 -0.0027609,0.000661061 -0.00641618,-0.000505517 -0.00948817,-0.00342196 -0.00618287,-0.00579401 -0.00462743,-0.012599 0.00377194,-0.0146211z"/>
   <path id="_634521872" class="fil1" d="M2.04369 3.42861c0.0112769,-0.00225538 0.0180431,0.00147767 0.0142711,0.00894377 -0.00186653,0.00373305 -0.0052496,0.00591066 -0.00898265,0.0066495 -0.00369416,0.000777719 -0.00797162,0.000855491 -0.0117436,-0.00171098 -0.00750499,-0.00521072 -0.00478297,-0.011588 0.00645507,-0.0138823z"/>
   <path id="_634518392" class="fil1" d="M1.97253 3.43608c0.0027609,-0.000466631 0.00762165,0.00723279 0.0154377,0.0227094 0.000816605,0.00155544 0.00124435,0.00206096 0.00190541,0.00349974 0.000933263,-0.00606621 0.00742722,-0.0153988 0.0164488,-0.0220094 0.000427745,-0.000311088 0.00206096,-0.000155544 0.0024887,-0.000427745 -0.00159432,-0.00466631 -0.000894377,-0.00909931 0.00318865,-0.0107325 0.00392748,-0.00155544 0.00758276,0.0019443 0.00890488,0.00731056 0.00447188,0.000855491 0.00707724,0.00400525 0.00812716,0.0100326 0.00198318,0.011238 -0.00594955,0.0226705 -0.0172654,0.0246537 -0.00828271,0.00147767 -0.0157099,-3.88859e-005 -0.0195985,-0.00287756 0.0041608,0.0110047 0.00299422,0.0157488 -0.00579401,0.0175376 -0.00828271,0.00171098 -0.0148155,-0.00839936 -0.015671,-0.0239537 -0.000894377,-0.0166821 -0.000933263,-0.025237 0.00182764,-0.0257425z"/>
   <path id="_337949080" class="fil1" d="M5.21418 2.85559c0.00174987,-0.000816605 0.00451077,0.000349974 0.00703836,0.00384971 0.00559958,0.00769942 0.00489963,0.0143489 -0.000855491,0.0166821 -0.00521072,0.00209984 -0.00874934,-0.00342196 -0.00855491,-0.0124824 7.77719e-005,-0.00454966 0.000661061,-0.00727167 0.00237204,-0.00804939z"/>
   <path id="_337948864" class="fil1" d="M5.72168 2.7483c0.00159432,-0.000349974 0.00342196,0.000466631 0.00513294,0.000388859 0.0135712,-0.000699947 0.0226316,0.00256647 0.0192097,0.00804939 -0.00575512,0.00925486 -0.0125602,0.0157488 -0.0193652,0.0199485 -0.00132212,0.00847714 -0.00458854,0.018082 -0.00731056,0.0305255 -0.00618287,0.0279979 -0.00680504,0.0543626 -0.0254703,0.0502406 -0.0186653,-0.00408302 -0.0291645,-0.0302533 -0.0229816,-0.0582511 0.00462743,-0.0209595 0.0168376,-0.0372527 0.030681,-0.042269 0.00229427,-0.000816605 0.00482186,-0.00104992 0.00738833,-0.00132212 0.000272202,-0.000233316 0.000972149,7.77719e-005 0.00124435,-0.00019443 0.00295533,-0.00287756 0.00696058,-0.00606621 0.0114714,-0.00711613z"/>
   <path id="_337954048" class="fil1" d="M6.04925 2.68799c-0.0099548,-7.77719e-005 -0.0192485,0.016721 -0.0166821,0.0423857 0.000466631,0.00482186 -0.000622175,0.0100326 -0.00256647,0.0144267 0.00101103,0.00299422 0.0019443,0.00676615 0.00318865,0.0108881 0.00400525,0.0131823 0.00598844,0.0314976 0.0047052,0.0411024 -0.00124435,0.00960483 -0.00528849,-0.00116658 -0.00925486,-0.0237982 -0.00147767,-0.00820493 -0.00287756,-0.0152044 -0.00369416,-0.0209595 -0.00396637,0.00509406 -0.00909931,0.010227 -0.0153211,0.0141545 0.0104603,0.0074661 0.0168376,0.0285812 0.0213873,0.0636174 0.0131434,-0.00447188 0.0273368,-0.00906043 0.0423079,-0.0125602 0.0101881,-0.00237204 0.0164488,-0.00357751 0.0256647,-0.00579401 0.00944928,-0.0193263 0.0129101,-0.0422301 0.008866,-0.065134l-0.0115491 -0.0653284c-0.00209984,0.00505517 -0.00279979,0.0118213 -0.00019443,0.0203762 0.00454966,0.01501 0.00120546,0.0264813 -0.00777719,0.0280368 -0.00847714,0.00151655 -0.0188208,-0.00812716 -0.0228261,-0.0213873 -0.0041608,-0.0136879 -0.0103048,-0.0199485 -0.0162543,-0.0200263z"/>
   <path id="_337953928" class="fil1" d="M1.89717 3.41251c0.00174987,-0.000816605 0.00326642,0.000544403 0.00579401,0.00404414 0.00559958,0.00769942 0.00633841,0.0153988 0.000583289,0.0176931 -0.00521072,0.00209984 -0.0101492,-0.004433 -0.00999369,-0.0134934 7.77719e-005,-0.00451077 0.00190541,-0.0074661 0.00361639,-0.00824382z"/>
   <path id="_337952416" class="fil1" d="M2.67259 3.27451c0.00976037,-0.00151655 0.0181209,0.0019443 0.0186653,0.011938 0.000583289,0.0111214 -0.0094104,0.0220094 -0.0224372,0.0243037 -0.0130268,0.00233316 -0.0237204,-0.00272202 -0.0235649,-0.0110825 0.000233316,-0.0131823 0.0147767,-0.0232149 0.0273368,-0.0251592z"/>
   <path id="_337954480" class="fil1" d="M1.87454 3.41395c0.00563846,-0.00101103 0.0131046,0.00944928 0.015671,0.0239149 0.00256647,0.0145045 -0.000894377,0.0268702 -0.00653284,0.0278812 -0.00563846,0.000972149 -0.0118602,-0.0096826 -0.0144267,-0.0241482 -0.00256647,-0.0145045 -0.000388859,-0.0266758 0.00528849,-0.0276479z"/>
   <path id="_337954576" class="fil1" d="M2.80877 3.23904c0.00987703,-0.00174987 0.0143489,0.00209984 0.010577,0.00956594 -0.00190541,0.00377194 -0.00451077,0.00591066 -0.00777719,0.00645507 -0.00326642,0.000583289 -0.00641618,-0.000505517 -0.00948817,-0.00342196 -0.00610509,-0.00571623 -0.00322753,-0.0108492 0.00668838,-0.012599z"/>
   <path id="_337952536" class="fil1" d="M0.49043 3.64781c0.0112769,-0.00225538 0.0167987,0.0016721 0.0130657,0.0091382 -0.00186653,0.00373305 -0.00528849,0.00594955 -0.00898265,0.00668838 -0.00373305,0.000738833 -0.00676615,0.000622175 -0.0105381,-0.0019443 -0.00750499,-0.00521072 -0.00478297,-0.011588 0.00645507,-0.0138823z"/>
   <path id="_337952272" class="fil1" d="M2.75655 3.24573c0.00707724,-0.00128324 0.0108103,0.00451077 0.00855491,0.0124435 -0.00112769,0.00396637 -0.00295533,0.00563846 -0.00532737,0.00602732 -0.00229427,0.000427745 -0.00462743,-0.000505517 -0.00699947,-0.00384971 -0.00486074,-0.00668838 -0.00330531,-0.0133768 0.00377194,-0.0146211z"/>
   <path id="_337952296" class="fil1" d="M2.72303 3.25036c0.00521072,-0.00209984 0.00871045,0.00342196 0.00855491,0.0124435 -7.77719e-005,0.00454966 -0.000894377,0.00614398 -0.00260536,0.00684393 -0.00174987,0.000699947 -0.00451077,-0.000349974 -0.00703836,-0.00384971 -0.00559958,-0.00769942 -0.0047052,-0.0131434 0.00108881,-0.0154377z"/>
   <path id="_337951072" class="fil1" d="M5.07318 2.83467l0.0892432 0.00843825c0,0 0.0139212,0.0155933 0.0049774,0.0283479 -0.0148933,0.0212706 -0.0850825,0.01501 -0.0850825,0.01501l-0.0091382 -0.0517961z"/>
   <path id="_337950496" class="fil1" d="M2.61776 3.26638c0.00143878,-0.000272202 0.00769942,0.0108492 0.0144267,0.0241482 0.00917708,0.0181209 0.00820493,0.025237 -0.00528849,0.027609 -0.0134934,0.00241093 -0.018082,-0.00373305 -0.015671,-0.0239149 0.00174987,-0.0148155 0.00513294,-0.027609 0.00653284,-0.0278423z"/>
   <path id="_337951768" class="fil1" d="M5.21935 2.79112c0.00680504,-0.00124435 0.0120158,0.00139989 0.0142711,0.00890488 0.00349974,0.0114325 -0.00206096,0.0220094 -0.0135323,0.0240315 -0.0115102,0.00202207 -0.0217372,-0.000544403 -0.0227483,-0.00618287 -0.00229427,-0.0131823 0.0106936,-0.0247315 0.0220094,-0.0267535z"/>
   <path id="_337948792" class="fil1" d="M4.91122 2.81748c0.00241093,-0.000427745 0.0049774,-0.00112769 0.00738833,-0.00132212 0.046702,-0.00412191 0.0502406,-0.000894377 0.0391581,0.0274146 -0.00357751,0.00917708 -0.0197541,0.0181986 -0.0386526,0.025898 0.00299422,0.00182764 0.00544403,0.00544403 0.00688281,0.010227 0.0113158,0.0373694 -0.085238,0.101298 -0.208273,0.138434 -0.00867157,0.00264424 -0.0175764,0.00563846 -0.0264813,0.00847714 -0.000155544,7.77719e-005 -0.00104992,0.00019443 -0.00124435,0.000233316 -0.0533126,0.0172654 -0.107014,0.037836 -0.128596,0.0493852 -0.0126379,0.00676615 -0.023876,0.0106547 -0.0321976,0.0120158 -0.00832159,0.00139989 -0.0134545,0.000699947 -0.0134157,-0.00396637 0.000233316,-0.032742 0.0984981,-0.0926652 0.231916,-0.14135 0.0677782,-0.0247315 0.130657,-0.0530015 0.148622,-0.0656006 -0.0297089,0.00855491 -0.0589122,0.0110436 -0.0586789,-0.00112769 0.000466631,-0.023876 0.0370583,-0.052496 0.0735722,-0.0587178z"/>
   <path id="_647240416" class="fil1" d="M5.49595 2.69402c0.0522627,-0.00976037 0.102309,-0.00956594 0.101959,0.00871045 -0.000349974,0.0200651 -0.037836,0.0399359 -0.0863657,0.0508628 -0.0291256,0.00653284 -0.0625286,0.0106159 -0.0937929,0.008866l-0.0591066 -0.00353862 0.0322753 -0.0260147c0.0217761,-0.017382 0.0643562,-0.0312643 0.105031,-0.0388859z"/>
   <path id="_647239888" class="fil1" d="M1.75473 3.34734c0.00898265,-0.00136101 0.0167598,-0.00213873 0.0201429,-0.00101103 0.013649,0.004433 0.0148155,0.038186 0.00299422,0.0745055 -0.0118602,0.0363195 -0.0321587,0.062062 -0.0458076,0.0576679 -0.0136101,-0.00447188 -0.0688281,-0.0489963 -0.0570068,-0.0853158 0.00890488,-0.027259 0.0527293,-0.0418024 0.0796773,-0.0458465z"/>
   <path id="_647244376" class="fil1" d="M5.85008 2.61123c0.017032,-0.00279979 0.0268313,0.000661061 0.0289311,0.0127157 0.00272202,0.0154377 -0.00377194,0.0320031 -0.0140767,0.0355418 -0.0103048,0.00349974 -0.0558402,0.0173431 -0.101415,0.0305644 -0.0455743,0.0132601 -0.0849269,0.0270646 -0.0871823,0.0319254 -0.000583289,0.00120546 -0.00233316,0.00268313 -0.00451077,0.00334419 -0.00653284,0.0019443 -0.0196374,0.00155544 -0.0333641,-0.00174987 -0.0554902,-0.0134157 -0.0329364,-0.0477908 0.0402081,-0.0605065 0.0379138,-0.00657172 0.0972926,-0.0233705 0.131784,-0.0384971 0.0161377,-0.00707724 0.0293978,-0.0116658 0.0396248,-0.0133379z"/>
   <path id="_647243584" class="fil1" d="M6.00481 2.53692c0.00233316,-0.00019443 0.0055218,0.000622175 0.00781608,0.00112769 0.0186653,0.00412191 -0.000116658,0.0227483 -0.00629952,0.0507073 -0.00618287,0.0279979 0.00206096,0.0540904 -0.0166432,0.0499684 -0.0186264,-0.00408302 -0.0291256,-0.0302533 -0.0229816,-0.0582511 0.00540515,-0.0244593 0.0216595,-0.0422301 0.0381082,-0.0435523z"/>
   <path id="_647240248" class="fil1" d="M2.02876 3.26467c0.00559958,-0.000972149 0.0137267,0.0184708 0.0191319,0.0436689 0.00556069,0.0257425 0.00688281,0.0393526 0.00291645,0.0452632 0.0309532,-0.0232149 0.0860935,-0.0380305 0.0860935,-0.0380305l0.0388082 0.0325475c0.00202207,-0.000894377 0.00392748,-0.00307199 0.00575512,-0.00353862 0.0114714,-0.00307199 0.0169154,-0.016021 0.0122491,-0.0314198 -0.00466631,-0.0153211 -0.000311088,-0.0274146 0.0110436,-0.0311865 0.0104603,-0.00349974 0.0508628,-0.0159821 0.0892821,-0.0271813 0.0383804,-0.011238 0.0771108,-0.0285812 0.0858991,-0.0393137 0.00260536,-0.00318865 0.00451077,-0.00583289 0.00629952,-0.0074661 -0.00120546,0.000505517 -0.00314976,0.00182764 -0.0047052,0.00209984 -0.00742722,0.00132212 -0.0122102,-0.000933263 -0.0124046,-0.00544403l-0.0394692 0.00696058c-0.0226316,0.0113936 -0.047402,0.0190541 -0.0641229,0.0113158l-0.236777 0.0417246z"/>
   <path id="_647246800" class="fil1" d="M0.688126 3.43495c-0.0387304,0.0167987 -0.0781608,0.0360473 -0.119263,0.0591844l0.0703836 0.0600788 -0.112575 -0.0183153c0.00330531,0.0355806 -0.00703836,0.0553347 -0.0185875,0.0172654 -0.00206096,-0.00672727 -0.00458854,-0.0142711 -0.0063773,-0.0217761l-0.0024887 0.000466631c-0.0257425,0.0141545 -0.0420357,0.0230205 -0.0591844,0.032042l0.0130657 0.074c0.000427745,0.00241093 0.000699947,0.00505517 0.00128324,0.00738833 0.00019443,0.00143878 0.000622175,0.00349974 0.000894377,0.00493852l0.0158655 0.090021c0.00159432,0.00906043 0.00466631,0.0172265 0.00824382,0.025237 0.0401303,-0.0150877 0.0748943,-0.0334808 0.108181,-0.0572012 0.0178098,-0.0127546 0.0668061,-0.0310699 0.264191,-0.102542 0.0207651,-0.00754387 0.0376805,-0.0118213 0.0509017,-0.0140767 0.0220483,-0.00373305 0.0326642,-0.000116658 0.0324309,0.0108103 -0.000311088,0.0148544 -0.0509406,0.042969 -0.11343,0.0632285 -0.195596,0.063423 -0.271813,0.094454 -0.271307,0.112691 0.00019443,0.0071939 -0.0155544,0.0188986 -0.0382249,0.0283479 0.0226316,0.017032 0.0518739,0.0251981 0.0823215,0.0198318l0.249103 -0.0439411c-0.00377194,-0.0091382 -0.00357751,-0.017732 0.00614398,-0.0226705 0.00462743,-0.00237204 0.0096826,-0.00396637 0.0158266,-0.00408302 0.00882711,-0.000155544 0.0184319,0.00198318 0.0288534,0.00509406 0.0202596,-0.00960483 0.0429301,-0.0225538 0.0614398,-0.0337141 -0.0246537,-0.0116269 -0.0451077,-0.0251203 -0.0451077,-0.0251203l0.0155933 -0.0485297c0,0 0.0418802,-0.0575512 0.0720557,-0.0673505 0.00431634,-0.00139989 0.008866,-0.00178875 0.0125213,-0.000972149 0.0233705,0.00532737 0.0240704,0.0820493 0.0306032,0.101415 0.0135712,-0.00466631 0.0270257,-0.00952706 0.0386137,-0.0118991 0.0253925,-0.00517183 0.0437078,-0.00384971 0.0418413,0.0066495 -0.00147767,0.00843825 -0.0157877,0.0206484 -0.0348807,0.0328197 0,0.000233316 0.00019443,0.00101103 0.00019443,0.00124435 -0.000155544,0.00843825 -0.00482186,0.00960483 -0.0094104,0.00419968 -0.00622175,0.00357751 -0.0118991,0.00657172 -0.0186653,0.00964371 -0.01501,0.00684393 -0.0304866,0.0154377 -0.0442522,0.0230594l0.270063 -0.0475964c0.000272202,-0.00769942 0.00139989,-0.0131046 0.00400525,-0.0134545 0.00505517,-0.000622175 0.00703836,0.00361639 0.00711613,0.0114714l0.0308366 -0.00540515c-0.00501629,-0.00983814 -0.0116269,-0.0206484 -0.0180042,-0.0299033 -0.0155544,-0.022515 -0.0246926,-0.0440189 -0.0218928,-0.0521072 0.00404414,-0.0116658 0.00299422,-0.0175764 -0.00633841,-0.0357362 -0.00859379,-0.0168376 -0.00839936,-0.0210762 -0.00143878,-0.0226316 0.00493852,-0.00108881 0.00917708,0.00361639 0.0108103,0.0108103 0.00163321,0.0071939 0.00521072,0.0242648 0.00820493,0.0392359 0.00703836,0.035114 0.0285812,0.0757498 0.0383415,0.0733389 0.00451077,-0.00112769 -0.00139989,-0.0162932 -0.0129101,-0.0371361 -0.0257814,-0.0468965 -0.0184708,-0.0475186 0.0150489,-0.00139989 0.00976037,0.0134545 0.0199096,0.0321976 0.0263647,0.048763l0.20349 -0.0358528c-0.000699947,-0.00454966 -0.00171098,-0.00789385 -0.00237204,-0.0135712 -0.000155544,-0.00101103 -0.000349974,-0.00151655 -0.000466631,-0.0024887 -0.0369028,-0.00384971 -0.0691781,-0.0129879 -0.0659895,-0.0353862 0.00112769,-0.00804939 0.00649395,-0.0131046 0.0150877,-0.0153988 0.0132212,-0.00349974 0.0335586,-0.00108881 0.0539737,0.00318865 0.00283867,-0.00361639 0.00711613,-0.00629952 0.0126768,-0.00731056 0.0111214,-0.0019443 0.0158655,0.00264424 0.0205318,0.0154766 0.00489963,0.00147767 0.00528849,0.00202207 0.00948817,0.00338308 0.0055218,-0.0094104 0.00408302,-0.025237 -0.00295533,-0.052846 -0.00482186,-0.0190541 -0.0066495,-0.02932 -0.00521072,-0.0296311 0.000661061,-0.000116658 0.00283867,0.00178875 0.00478297,0.0055218 0.0131434,0.025237 0.0189763,0.0625286 0.0155933,0.0811939 0.00629952,0.0022165 0.0202207,0.00661061 0.0202207,0.00661061l0.0309921 0.00976037 -0.00400525 0.0134545 0.162777 -0.0287367 0.510534 -0.090021c0.0206096,-0.0281145 0.0556069,-0.0546348 0.0876878,-0.0650562 0.0074661,-0.00241093 0.0152822,-0.00330531 0.0222039,-0.00388859 0.00793273,-0.000661061 0.0154377,0.000233316 0.0220483,0.00244981 0.0169154,0.00575512 0.0216206,0.0211928 0.0197152,0.0397803l0.265163 -0.0467409c-0.000661061,-0.00567735 -0.000311088,-0.0130268 0.00244981,-0.0220483 0.000699947,-0.00233316 0.0016721,-0.00381082 0.0030331,-0.00439411 0.000466631,-0.000155544 0.000738833,-0.00019443 0.00124435,-0.00019443 0.00326642,3.88859e-005 0.00711613,0.00439411 0.0110047,0.0120546 0.00209984,0.00404414 0.00353862,0.00762165 0.004433,0.0106547l0.339124 -0.0598066c-0.0049774,-0.0265202 -0.00478297,-0.0398581 0.00291645,-0.0411802 0.00781608,-0.00139989 0.0134157,0.00983814 0.0180431,0.0374861l0.0752443 -0.0132601c-0.00314976,-0.00206096 -0.00139989,-0.00618287 0.00419968,-0.0122102 0.0165265,-0.017732 0.018743,-0.0253925 0.00653284,-0.0278423 -0.0144267,-0.00283867 -0.0154377,-0.00606621 -0.0099548,-0.0274924 0.00322753,-0.0124435 -0.000972149,-0.0203762 -0.0127546,-0.0218928 -0.0689448,0.0286978 -0.135906,0.040558 -0.133029,0.0171098 0.00139989,-0.011238 -0.000349974,-0.0333253 -0.00334419,-0.0477519 -0.00311088,-0.0149711 0.0200651,-0.0452632 0.0549458,-0.0706947 0.02897,-0.021154 0.0706169,-0.0404803 0.109814,-0.0549847 0.000233316,-0.00353862 0.000544403,-0.00874934 0.00233316,-0.015671 0.00536626,-0.0209206 0.00505517,-0.0234093 -0.00291645,-0.0236427 -0.00462743,-0.000116658 -0.0103048,-0.0115102 -0.0131823,-0.0243815l-0.144267 0.0254703c-0.00132212,0.00268313 -0.00353862,0.00369416 -0.0055218,0.00478297 -0.00334419,0.00174987 -0.00820493,0.000855491 -0.0129879,-0.00151655l-0.170165 0.0299811c0.00307199,0.00906043 0.000116658,0.0122102 -0.00894377,0.0142711 -0.00742722,0.00174987 -0.0113547,-0.00155544 -0.0132601,-0.0103437l-0.0123268 0.00217761c-0.000777719,0.00575512 -0.00163321,0.0117047 -0.00209984,0.0168765 0.00299422,0.0180042 0.00486074,0.0306421 0.00427745,0.0386526 0.00244981,0.00458854 0.00528849,0.00859379 0.00851602,0.0124824 0.00198318,-0.000855491 0.00404414,-0.00190541 0.00594955,-0.00229427 0.0105381,-0.00229427 0.0193263,0.00124435 0.0209206,0.0103048 0.000816605,0.00462743 -0.0016721,0.00960483 -0.0052496,0.0136101 0.016721,0.0136879 0.0286201,0.0228649 0.00812716,0.0316532 -0.035114,0.01501 -0.0783163,-0.00548292 -0.0959705,-0.0466631 -0.00513294,-0.0120546 -0.00260536,-0.037175 0.0024887,-0.0652895l-0.0369805 0.00653284c-0.00890488,0.00454966 -0.0136101,0.00645507 -0.0233705,0.0117436 -0.0152433,0.00820493 -0.0288534,0.0117436 -0.0398192,0.0120935 -0.0104992,0.000349974 -0.0188597,-0.00174987 -0.0231371,-0.00863268l-0.0234482 0.0041608c-0.000894377,0.0117436 -0.00680504,0.0189763 -0.0199485,0.0238371 -0.0133768,0.00493852 -0.0258203,-0.00147767 -0.0293589,-0.0151655l-0.213328 0.0376416c-0.000116658,0.00143878 -0.000699947,0.0027609 -0.00182764,0.00412191 0.00295533,-0.000116658 0.00311088,0.0074661 0.00124435,0.0213873 -0.00225538,0.0165654 -0.000933263,0.0395859 0.00272202,0.0516405 0.00758276,0.0249259 -0.00369416,0.0226705 -0.0171098,-0.00330531 -0.00489963,-0.00952706 -0.0144267,-0.00824382 -0.0223983,0.00264424 -0.00797162,0.010927 -0.0390415,0.02932 -0.069217,0.0401692 -0.025237,0.00909931 -0.0587178,0.0311088 -0.0810383,0.0524571l0.0207651 0.0166821c0,0 -0.0223205,0.00676615 -0.0496962,0.0138434 -0.0141545,0.0146989 -0.0269868,0.0258592 -0.0367861,0.0293589 -0.0129879,0.0047052 -0.0218928,-0.00174987 -0.0271424,-0.0167987 -0.0339863,0.00377194 -0.0652506,0.00198318 -0.0765275,-0.0157488 -0.00898265,-0.0142323 -0.00252759,-0.0285034 0.0107714,-0.0400525 -0.0101881,0.00178875 -0.0158266,-0.00991592 -0.0206096,-0.04468 -0.00349974,-0.0255481 -0.00128324,-0.0468187 0.00427745,-0.0478297l-0.247859 0.0437078 -0.299655 0.052846c-0.0214262,0.0103437 -0.0423468,0.017382 -0.0598844,0.0207651 -0.0190541,0.00361639 -0.0342196,0.00295533 -0.0436689,-0.0024887l-0.0296311 0.00521072c0.00412191,0.0168765 -0.00890488,0.0318087 -0.0350362,0.0392359 -0.0267146,0.00758276 -0.0393526,0.00384971 -0.0350751,-0.0116269 0.00171098,-0.00633841 0.00466631,-0.0113936 0.00847714,-0.016721l-0.586983 0.103476 -0.0113158 -0.0641229z"/>
   <path id="_647242360" class="fil1" d="M5.79113 2.42835c0.00171098,-0.000777719 0.00451077,0.000388859 0.00703836,0.00384971 0.00556069,0.00769942 0.00489963,0.0143878 -0.000894377,0.0166821 -0.00521072,0.00209984 -0.00871045,-0.00342196 -0.00855491,-0.0124824 0.000116658,-0.00451077 0.000699947,-0.00723279 0.00241093,-0.00804939z"/>
   <path id="_647240080" class="fil1" d="M5.8229 2.39222c0.00832159,-0.0016721 0.0160599,0.00820493 0.0169154,0.0237204 0.000894377,0.016721 -0.000272202,0.0255092 -0.00307199,0.0259758 -0.0027609,0.000505517 -0.00762165,-0.0071939 -0.0154377,-0.0227094 -0.00948817,-0.0187819 -0.00956594,-0.0246926 0.00159432,-0.0269868z"/>
   <path id="_647246896" class="fil1" d="M0.570807 3.30309c0.0172265,-0.0027609 0.0308754,-0.00128324 0.036475,0.0049774 0.0145822,0.0163321 0.00104992,0.0260925 -0.053196,0.0373694 -0.039547,0.00820493 -0.0726001,0.0108492 -0.0740388,0.00544403 0.000505517,-0.018082 0.0527682,-0.0417246 0.0907598,-0.0477908z"/>
   <path id="_647246296" class="fil1" d="M5.91961 2.27728c0.0112769,-0.00229427 0.0180431,0.00147767 0.01431,0.00894377 -0.00190541,0.00373305 -0.00509406,0.00715501 -0.00878822,0.00789385 -0.00373305,0.000738833 -0.00824382,-0.000388859 -0.0119769,-0.00299422 -0.00750499,-0.00517183 -0.00478297,-0.0115491 0.00645507,-0.0138434z"/>
   <path id="_647240344" class="fil1" d="M5.88811 2.27903c0.0052496,-0.00209984 0.00999369,0.00318865 0.00979926,0.0122491 -7.77719e-005,0.00451077 -0.00190541,0.00758276 -0.00361639,0.00828271 -0.00171098,0.000661061 -0.00349974,-0.00182764 -0.00602732,-0.00528849 -0.00556069,-0.00769942 -0.00591066,-0.012949 -0.000155544,-0.0152433z"/>
   <path id="_647246920" class="fil1" d="M5.84845 2.28474c0.0027609,-0.000505517 0.008866,0.00699947 0.0166821,0.0224761 0.00948817,0.0187819 0.00855491,0.0261702 -0.00260536,0.0284645 -0.00832159,0.00171098 -0.0150489,-0.00964371 -0.0158655,-0.0251981 -0.000933263,-0.0166821 -0.000972149,-0.0252759 0.00178875,-0.0257425z"/>
   <path id="_647242480" class="fil1" d="M0.443883 3.20339c0.00548292,-0.000972149 0.0120935,0.0108881 0.0146211,0.0253925 0.00256647,0.0145045 0,0.0277646 -0.00629952,0.0290867 -0.00929374,0.00198318 -0.00902154,0.00699947 0.000855491,0.0265591 0.00734944,0.0145433 0.00944928,0.0247703 0.00579401,0.0256647 -0.00330531,0.000816605 -0.0101103,-0.0099548 -0.0144267,-0.0241482 -0.0117047,-0.038536 -0.0118602,-0.0805328 -0.000544403,-0.0825549z"/>
   <path id="_647241352" class="fil1" d="M5.90468 2.11333c0.00559958,-0.000972149 0.0139601,0.0197152 0.0193652,0.0449133 0.00738833,0.0343363 0.00715501,0.0457688 -0.0030331,0.0475964 -0.0101881,0.00178875 -0.0155933,-0.00867157 -0.0203762,-0.0434356 -0.00353862,-0.0255481 -0.00151655,-0.048063 0.00404414,-0.0490741z"/>
   <path id="_647242744" class="fil1" d="M5.71849 2.08133l0.065445 0.371166c0.0305644,0.00684393 0.0705002,0.0189375 0.0642785,0.0471687 -0.00295533,0.013299 -0.0305644,0.0113547 -0.0527293,0.0181986l0.0141156 0.0801439 -0.0234482 0.0041608c-0.000699947,0.00626064 -0.00213873,0.0105381 -0.00439411,0.010927 -0.00225538,0.000427745 -0.00486074,-0.00318865 -0.00793273,-0.00878822l-0.345268 0.0608954c-0.00159432,0.00159432 -0.00307199,0.00346085 -0.00427745,0.00458854 0.00120546,-0.000505517 0.00190541,-0.00163321 0.00349974,-0.00190541 0.00987703,-0.00171098 0.0145822,0.00330531 0.0107714,0.0108103 -0.00186653,0.00377194 -0.00447188,0.00587178 -0.0077383,0.00645507 -0.00326642,0.000583289 -0.00645507,-0.000505517 -0.00952706,-0.00342196 -0.00361639,-0.00342196 -0.0041608,-0.00715501 -0.00171098,-0.00983814 -0.00155544,0.00019443 -0.00202207,-0.00139989 -0.00209984,-0.00474409l-0.107286 0.0189375c0.0127157,0.00703836 0.000155544,0.0171487 -0.00322753,0.0323531 -0.00408302,0.0186653 0.008866,0.0381082 -0.0237593,0.0308754 -0.0326642,-0.0071939 -0.0556458,-0.0281923 -0.0515239,-0.0468576 0.00019443,-0.000894377 0.000505517,-0.00182764 0.000816605,-0.00268313l-0.0320809 0.00567735c0.00283867,0.00307199 0.00501629,0.0066495 0.00587178,0.0116658 0.00260536,0.0147767 -0.000972149,0.0292033 -0.00731056,0.0305255 -0.00633841,0.00132212 -0.0154766,0.00859379 -0.0197929,0.0174987 -0.00217761,0.004433 -0.00505517,0.00684393 -0.00777719,0.00645507 -0.00272202,-0.000427745 -0.00451077,-0.00272202 -0.00645507,-0.00777719 -0.00999369,-0.0260147 -0.0118213,-0.041258 -0.00521072,-0.0512128l-0.0394692 0.00696058c0.00548292,0.00159432 0.00925486,0.00462743 0.0118213,0.00937151 0.00991592,0.0182764 0.00373305,0.0279201 -0.0241482,0.0360473 -0.0392359,0.0113936 -0.0411413,0.0135323 -0.090682,0.0554125 -0.00948817,0.0080105 -0.0159432,0.012599 -0.020454,0.0137656 -0.00754387,0.00190541 -0.00987703,-0.00668838 -0.00972149,-0.026248 0.000155544,-0.020454 0.00769942,-0.0401692 0.0164876,-0.0435911 0.00874934,-0.00346085 0.0379527,-0.0183931 0.0653284,-0.0331697 0.00369416,-0.00198318 0.00723279,-0.00287756 0.0106547,-0.00439411l-0.0912264 0.0160988 -0.00618287 0.00104992c0.00213873,0.0218539 0.00151655,0.0426579 -0.0030331,0.0475964 -0.000894377,0.000972149 -0.00287756,0.000272202 -0.00369416,0.000661061 -0.00575512,0.0024887 -0.00933263,-0.00983814 -0.0154766,-0.04433l-0.0209595 0.00369416c0.0047052,0.00287756 0.00606621,0.0107714 0.00579401,0.0256647 -0.000155544,0.0108103 -0.000894377,0.0166043 -0.00330531,0.0171487 -0.00241093,0.000544403 -0.00606621,-0.00373305 -0.0112769,-0.013299 -0.00863268,-0.0158655 -0.0115102,-0.0226705 -0.00847714,-0.0264813l-0.273757 0.0482963c0.04363,-0.00361639 0.0750499,0 0.0769164,0.010577 0.0024887,0.0141156 -0.0460798,0.017032 -0.111953,0.0286589 -0.0207651,0.00365528 -0.0260925,0.00556069 -0.0355418,0.00754387 -0.00178875,0.00104992 -0.00381082,0.00155544 -0.00594955,0.00229427 -0.00408302,0.00143878 -0.00836048,0.0022165 -0.0135712,0.00241093 -0.0290089,0.00112769 -0.0318087,-0.000116658 -0.0134934,-0.0116269 0.000972149,-0.000583289 0.00143878,-0.00104992 0.00225538,-0.0016721 -0.00190541,-0.00820493 -0.00342196,-0.0158266 0.0138045,-0.0227483l-0.293472 0.0517572c0.00318865,0.00583289 0.00536626,0.010227 0.00361639,0.0133379 -0.0091382,0.0160599 -0.0461576,0.0300588 -0.0789385,0.0355418 -0.00256647,0.000427745 -0.00486074,0.000972149 -0.00738833,0.00128324 -0.00750499,0.0166043 -0.0139601,0.0332475 -0.0205318,0.0493852 0.0482186,-0.0153988 0.0817771,-0.0251592 0.101609,-0.0293589 0.0179264,-0.00377194 0.025587,-0.00338308 0.0255481,0.000583289 -0.000116658,0.00758276 -0.0288145,0.0255092 -0.0640452,0.040558 -0.0214262,0.0091382 -0.0482186,0.0200263 -0.0773441,0.0301366 -0.00283867,0.010927 -0.0052496,0.0207262 -0.00408302,0.0274535 0.00832159,0.0470131 0.0637341,0.0764887 0.0260925,0.0830993 -0.0376027,0.0066495 -0.0745055,-0.0260925 -0.0827882,-0.0731056 -0.000855491,-0.0047052 -0.000388859,-0.0110436 0.000661061,-0.0179264 -0.0642785,0.0204151 -0.129646,0.0381471 -0.169854,0.0464687 -0.0240704,0.0049774 -0.0388859,0.00684393 -0.0388471,0.0030331 7.77719e-005,-0.00777719 0.0413358,-0.0290867 0.0921986,-0.0467798 0.0542459,-0.0188208 0.0884266,-0.0298644 0.127235,-0.0427745 0.00874934,-0.0239149 0.0220483,-0.0510184 0.036125,-0.0762942 -0.00155544,-0.0022165 -0.00163321,-0.0055218 -0.000311088,-0.00882711 0.000661061,-0.00159432 0.00190541,-0.00867157 0.0027609,-0.0132212l-0.18988 0.0334808 -0.0024887 0.000427745c0.00571623,0.00645507 0.00976037,0.0145433 0.00952706,0.0250425 -0.000233316,0.008866 -0.00466631,0.017382 -0.0106936,0.0260536 0.00863268,-0.00330531 0.0176153,-0.00653284 0.0252759,-0.00828271 0.00318865,-0.000738833 0.00699947,-0.00132212 0.00983814,-0.00174987l0.0411413 -0.0047052 -0.0396637 0.0273368c-0.022165,0.0150489 -0.0593011,0.0290867 -0.0820493,0.0322753l-0.0261314 0.00334419c-0.00952706,0.00268313 -0.0185486,0.00501629 -0.0271424,0.00478297 0.00260536,0.00439411 0.00606621,0.0107714 0.00944928,0.0174209 0.0091382,0.0181209 0.00797162,0.0240315 -0.0055218,0.0263647 -0.0134934,0.00241093 -0.0166043,-0.00272202 -0.0142323,-0.0229038 0.00108881,-0.008866 0.00283867,-0.0159432 0.00392748,-0.0210373 -0.00629952,-0.000777719 -0.0126379,-0.00283867 -0.0175376,-0.00579401 -0.0278423,-0.0169543 -0.0227094,-0.0498518 -0.00318865,-0.0757498l-0.149205 0.0263258c-0.00894377,0.0120546 -0.0404803,0.026248 -0.0756721,0.032392 -0.0439022,0.0077383 -0.0614787,0.00482186 -0.056268,-0.0091382l-0.284878 0.0502406c-0.00556069,0.00859379 -0.00696058,0.0194819 -0.00209984,0.038536 0.00241093,0.00944928 0.00478297,0.0162543 0.00513294,0.0219706 0.0490741,-0.0159432 0.0906043,-0.0198707 0.0932096,-0.00501629 0.0019443,0.0108881 -0.00902154,0.0267146 -0.0243426,0.0348029 -0.0153599,0.00812716 0.000233316,0.0111214 0.0344529,0.00793273 0.0341807,-0.00318865 0.0621009,-0.000583289 0.0620231,0.00559958 -0.000155544,0.00618287 -0.0239537,0.0224761 -0.0519516,0.0371361 -0.0267924,0.0139989 -0.0767997,0.0418024 -0.113703,0.0619842 0.0055218,0.00906043 0.0145433,0.0103048 0.0322364,0.00956594l0.0353862 -0.00112769 -0.0327031 0.0235649 -0.032742 0.0235649 0.0378749 -0.00159432c0.0563069,-0.00283867 0.0507462,0.0250425 0.00388859,0.0438245l0.0814272 -0.0143489c-0.00171098,-0.00412191 0.00101103,-0.00738833 0.00731056,-0.00894377 0.00680504,-0.00163321 0.0109658,0.000661061 0.0111603,0.00567735l0.357634 -0.063073c0.00147767,-0.00377194 0.00338308,-0.00696058 0.00505517,-0.00723279 0.0016721,-0.000272202 0.00330531,0.00233316 0.00478297,0.0055218l0.234288 -0.0413358 0.524105 -0.092393c0.0557624,-0.0309532 0.105848,-0.0571623 0.121713,-0.0596122 0.00318865,-0.000505517 0.00466631,-0.000933263 0.00517183,0.000349974 0.000738833,0.0019443 0.00101103,0.00447188 0.00108881,0.00618287 0.00136101,0.00190541 0.0022165,0.00408302 0.00128324,0.00738833 -0.00155544,0.00556069 -0.00583289,0.0080105 -0.010227,0.00688281 -0.00108881,0.00423857 3.88859e-005,0.0110436 0.000583289,0.017732l0.0690614 -0.0122102c-0.00979926,-0.000583289 -0.0179264,-0.00299422 -0.0229038,-0.00738833 -0.0202596,-0.0178486 -0.0202207,-0.0204151 0.00754387,-0.02932 0.0139212,-0.00447188 0.0353084,-0.0126379 0.0594566,-0.0232149 0.0074661,-0.0207651 0.0195207,-0.0428134 0.0388859,-0.0462354 0.0118602,-0.00209984 0.0241482,0.00326642 0.035114,0.011588 0.0396637,-0.0194041 0.074661,-0.0383415 0.0798717,-0.0446022 0.00171098,-0.00202207 0.00384971,-0.00419968 0.00676615,-0.0049774 0.000933263,-0.000272202 0.00136101,-0.000349974 0.00244981,-0.000427745 0.00723279,-0.000816605 0.0171098,0.00139989 0.0253925,0.0069217 0.0247315,0.0165654 0.0234482,0.0209595 -0.0135712,0.0456521 -0.0224372,0.0149322 -0.044991,0.0280757 -0.0667672,0.0397414 0.000738833,0.00171098 0.00209984,0.0047052 0.00233316,0.00594955 0.00124435,0.00703836 -0.0041608,0.0149322 -0.0139989,0.0215428l0.186225 -0.0328586 0.443922 -0.0782774c-0.000972149,-0.00237204 -0.000272202,-0.00591066 0.00299422,-0.011938 0.0125602,-0.0234871 0.0539737,-0.047052 0.0844992,-0.0543237 0.0183153,-0.00435523 0.032392,-0.00373305 0.0342196,0.00668838 0.00229427,0.0128324 -0.0055218,0.0270646 -0.0188597,0.03002 -0.0133379,0.00291645 -0.0451855,0.0130268 -0.069567,0.0237204l0.35639 -0.0628397c0.0103437,-0.0145822 0.0289311,-0.0271813 0.0431634,-0.0292422 0.00944928,-0.00139989 0.0167987,0.00139989 0.0184319,0.0107325 0.000388859,0.00233316 0.000233316,0.00532737 3.88859e-005,0.00762165l0.00863268 -0.00151655c-0.000311088,-0.00171098 -0.000505517,-0.00307199 -0.000855491,-0.00493852 -0.00649395,-0.0367861 -0.00559958,-0.0402858 0.00478297,-0.0160988 0.00851602,0.0198318 0.0139989,0.0215817 0.0173431,0.00454966 0.00155544,-0.00793273 0.0187819,-0.0177709 0.0421524,-0.0277646 -0.0157099,-0.0478297 -0.0190152,-0.049774 -0.0415691,-0.0193652 -0.0135323,0.0182375 -0.0309921,0.0260925 -0.0377194,0.0167987 -0.00715501,-0.00987703 0.0066495,-0.032742 0.0324309,-0.0540126 0.00104992,-0.000855491 0.00244981,-0.00108881 0.00349974,-0.00186653 -0.0205318,0.00151655 -0.0390415,-0.00501629 -0.0419968,-0.0218539 -0.00256647,-0.0145045 0.00769942,-0.0281923 0.0223205,-0.0319254 0.01466,-0.00373305 0.0299033,-0.0137267 0.0344141,-0.0213095 0.00727167,-0.0123268 0.0436689,-0.0298644 0.109814,-0.0549458 0,-0.00213873 0.000505517,-0.00439411 0.000155544,-0.00641618l-0.0619842 -0.351451c-0.0130657,0.00661061 -0.0237593,0.0121324 -0.0313421,0.0169932 -0.026248,0.0167598 -0.0574345,-0.00132212 -0.0574345,-0.00132212 0,0 -0.0016721,-0.0419579 0.0114714,-0.0503184 0.00326642,-0.00209984 0.00629952,-0.00268313 0.0108881,-0.00322753 0.00723279,-0.000855491 0.0155933,0.00019443 0.0244981,0.00206096 -0.00307199,-0.0125213 -0.000116658,-0.0222039 0.00742722,-0.0229427 0.00598844,-0.000583289 0.0143489,-0.00536626 0.0220872,-0.0115102l-0.0271424 -0.154144c-0.0370583,0.00789385 -0.0837603,0.0209206 -0.113547,0.0339863 -0.0161377,0.00707724 -0.0291645,0.0128712 -0.0393915,0.0145822 -0.017032,0.00287756 -0.0258203,-0.00209984 -0.0279201,-0.0141545 -0.00272202,-0.0154377 0.0027609,-0.0305644 0.0130657,-0.0340641 0.00412191,-0.00143878 0.0276868,-0.00828271 0.0410636,-0.0123268l-0.143061 0.0251981z"/>
   <path id="_647247208" class="fil1" d="M0.345657 3.02871l0.0552569 0.313226c0.00785496,-0.00147767 0.0155933,-0.00291645 0.022165,-0.00392748 0.0096826,-0.00143878 0.0181986,-0.00155544 0.023876,-0.0016721 0.0138045,-0.000272202 0.0266758,0.00696058 0.0285812,0.0178486 0.0019443,0.0108881 -0.0272979,0.0287367 -0.0655228,0.039547l0.0191708 0.108492c0.0122102,-0.00556069 0.0244204,-0.0125602 0.0278423,-0.0150877 0.00602732,-0.004433 0.0260147,-0.01431 0.0489574,-0.0251592l0.00762165 -0.0649006c0.0137267,0.0158266 0.0187041,0.0337141 0.0241482,0.0504351 0.00128324,-0.000583289 0.0022165,-0.00136101 0.00349974,-0.00190541 0.0379138,-0.0164488 0.0861324,-0.042619 0.106703,-0.0582511 0.00676615,-0.00513294 0.0174598,-0.0103825 0.0290867,-0.0152822l-0.0106547 -0.0604288c-0.0172265,-0.0104603 -0.027259,-0.0209984 -0.0251592,-0.0273368 0.000544403,-0.00171098 0.00151655,-0.00244981 0.00326642,-0.00311088 0.0016721,-0.000699947 0.00493852,-0.00019443 0.00762165,-7.77719e-005 -0.00318865,-0.00408302 -0.00626064,-0.00952706 -0.00921597,-0.0161766 -0.00937151,-0.0209984 -0.0266758,-0.0372916 -0.0380305,-0.0352696 -0.0153599,0.00272202 -0.0204151,-0.00384971 -0.0199874,-0.0269868 0.000155544,-0.00867157 0.00198318,-0.0134545 0.0049774,-0.0148544 0.00505517,-0.00241093 0.0146989,0.00501629 0.0309143,0.0237982 0.0101881,0.0117824 0.020804,0.0188597 0.0319254,0.0223205l-0.0443689 -0.251553 -0.0924708 0.0162932c-0.00707724,0.0170709 -0.0367083,0.0232927 -0.0676227,0.0131823 -0.00108881,-0.000349974 -0.00171098,-0.000427745 -0.00268313,-0.000777719l-0.099898 0.0176153z"/>
  </g>
  <path class="fil2" d="M0.346318 1.49645c-0.000466631,0.00439411 -3.88859e-005,0.00871045 0.00174987,0.00987703l-0.00174987 -0.00987703z"/>
  <path class="fil2" d="M0.312293 1.491c0.00174987,-0.000816605 0.00326642,0.000583289 0.00579401,0.00408302 0.00559958,0.00766053 0.0063773,0.0153599 0.000583289,0.0176931 -0.00521072,0.00209984 -0.0101492,-0.004433 -0.00999369,-0.0134934 7.77719e-005,-0.00454966 0.00190541,-0.00750499 0.00361639,-0.00828271z"/>
  <path class="fil2" d="M0.205629 1.46277c0.0127157,-0.00225538 0.0253925,0.00727167 0.027959,0.0217761 0.00256647,0.0145045 -0.00610509,0.0277646 -0.0188597,0.03002 -0.0127157,0.00225538 -0.0254314,-0.00727167 -0.0279979,-0.0217761 -0.00252759,-0.0144656 0.00614398,-0.0277646 0.0188986,-0.03002z"/>
  <path class="fil2" d="M0.328275 1.3941c-0.0122491,0.00789385 -0.0210762,0.0148544 -0.0195985,0.0187041 0.00202207,0.0052496 0.010927,0.00676615 0.0237204,0.0047052l-0.00412191 -0.0234093z"/>
  <path class="fil2" d="M0.193224 1.24116c0.00279979,-0.000622175 0.00618287,-0.000699947 0.00929374,0.00217761 0.00618287,0.00583289 0.00462743,0.0126379 -0.00377194,0.01466 -0.00839936,0.00202207 -0.0130268,-0.00295533 -0.0108103,-0.0108103 0.00108881,-0.00392748 0.00252759,-0.00536626 0.00528849,-0.00602732z"/>
  <path class="fil2" d="M0.0983037 1.14986c0.000894377,-0.000427745 0.00268313,-0.000738833 0.00369416,-0.000661061l0.0139989 7.77719e-005 -0.0099548 0.0157488c-0.00987703,0.0141156 -0.0108881,0.0158266 0.00217761,0.0339474 0.012288,0.0169932 0.0124046,0.0202596 0.000427745,0.0240704 -0.0101492,0.00318865 -0.0148544,-0.00649395 -0.0178098,-0.0362806 -0.00206096,-0.0202596 0.00116658,-0.0340252 0.0074661,-0.0369028z"/>
  <path class="fil2" d="M0.238954 1.06781c0.0329364,-0.00579401 0.0188208,0.0128712 0.0221261,0.0317309 0.00330531,0.0187819 0.0227483,0.0302922 -0.0101492,0.0360862 -0.0329364,0.00583289 -0.0617509,-0.00404414 -0.0650951,-0.0228261 -0.00330531,-0.0188208 0.0201818,-0.0391581 0.0531182,-0.044991z"/>
  <path class="fil2" d="M0.24817 1.04074c0.0027609,-0.000622175 0.00641618,0.000544403 0.00948817,0.00342196 0.00618287,0.00579401 0.00462743,0.0126379 -0.00377194,0.01466 -0.00836048,0.00202207 -0.0142323,-0.0027609 -0.0120158,-0.010577 0.00108881,-0.00392748 0.00353862,-0.00684393 0.00629952,-0.00750499z"/>
  <path class="fil2" d="M0.243776 0.986848c0.00369416,-0.000583289 0.00820493,0.000427745 0.011938,0.00299422 0.00754387,0.00517183 0.00458854,0.0103437 -0.00668838,0.0126379 -0.011238,0.00225538 -0.0180042,-0.00147767 -0.0142711,-0.00894377 0.00186653,-0.00373305 0.0052496,-0.00602732 0.00902154,-0.00668838z"/>
  <path class="fil1" d="M0.372372 1.00232c0.0120546,-0.0080105 0.027609,-0.0159432 0.0454577,-0.0232538 0.0401303,-0.0164099 0.11308,-0.0550236 0.161649,-0.0857435 0.0264424,-0.016721 0.0402858,-0.0244204 0.0585233,-0.0357362l-0.247859 0.0437078c0.0199485,0.00505517 0.0352307,0.0169543 0.0347252,0.0383804 -0.000505517,0.0229038 -0.0239537,0.0467798 -0.052496,0.0626453z"/>
  <path class="fil1" d="M0.0880378 0.954572c-0.0583289,0.0102659 -0.0966316,0.0649784 -0.0863657,0.123307l0.0126379 0.0715113 0.00346085 0.0197152 0.00871045 0.0493463c0.00851602,-0.000699947 0.0127157,0.00396637 0.011238,0.0132601 -0.000699947,0.00439411 -0.00311088,0.0091382 -0.00645507,0.0138823l0.0284645 0.161532c0.000116658,-0.00454966 0.000699947,-0.00727167 0.00241093,-0.00804939 0.00174987,-0.000816605 0.00451077,0.000349974 0.00703836,0.00384971 0.00559958,0.00766053 0.00509406,0.0155933 -0.000661061,0.0179264 -0.00260536,0.00101103 -0.0052496,-7.77719e-005 -0.00680504,-0.00264424l0.0091382 0.0517961c0.0158266,-0.00182764 0.0285034,0.00139989 0.0328197,0.013299 0.00462743,0.0126379 -0.00758276,0.0226705 -0.0250037,0.0311088l0.0486852 0.276207 0.188675 -0.0332475c0.0157877,-0.0140378 0.0389248,-0.0290867 0.0683615,-0.0451077l-0.0278423 -0.157838c-0.00209984,0.00139989 -0.00431634,0.00283867 -0.00696058,0.00377194 -0.00408302,0.00143878 -0.00836048,0.00217761 -0.0135712,0.00237204 -0.0290478,0.00112769 -0.032042,-0.00132212 -0.0137267,-0.0128324 0.0172265,-0.0108103 0.0198318,-0.0229427 0.0124824,-0.0517961 -0.00237204,-0.00948817 -0.00353862,-0.0165265 -0.00388859,-0.0222039 -0.0490352,0.0159432 -0.0903709,0.0211151 -0.0930152,0.00622175 -0.00190541,-0.0108492 0.00906043,-0.0267146 0.0243815,-0.0348029 0.0153599,-0.00808828 -0.000466631,-0.0123657 -0.0346474,-0.0091382 -0.0341807,0.00318865 -0.0619453,0.00182764 -0.0618287,-0.00435523 7.77719e-005,-0.00244981 0.00466631,-0.00575512 0.0108103,-0.0108103 -0.0182764,0.0047052 -0.0365528,0.00458854 -0.0488019,-0.00283867 -0.0391581,-0.0238371 -0.0138045,-0.0805328 0.0264036,-0.102581 0.0100715,-0.00548292 0.0229427,-0.00937151 0.0349196,-0.011238 0.0358917,-0.00556069 0.0727945,0.00633841 0.0720168,0.0407136 -0.000272202,0.0114714 -0.00626064,0.0224372 -0.0157488,0.0332864 0.0231371,-0.0122102 0.0490352,-0.025237 0.0733389,-0.0383415l-0.00283867 -0.0160599c-0.00489963,-0.000622175 -0.0104603,-0.000933263 -0.0178875,-0.000622175l-0.0341807 0.000933263 0.0327031 -0.0235649 0.0134934 -0.0100326 -0.00217761 -0.0123268 -0.0162154 0.00159432c-0.0607787,0.00307199 -0.0496185,-0.0297866 0.00797162,-0.0484519l-0.000661061 -0.00369416 0.0332864 -0.00587178 0.11098 -0.0195596c-0.000155544,-0.00108881 -0.000272202,-0.00136101 -0.000427745,-0.0024887 -0.00373305,-0.0254703 -0.00330531,-0.0464298 0.00182764,-0.0473631 0.00513294,-0.000894377 0.0139212,0.0184319 0.0191319,0.0436689 0.00019443,0.000972149 0.000272202,0.00155544 0.000427745,0.00244981l0.339124 -0.0597677c-0.00019443,-0.00462743 0.00171098,-0.00777719 0.00734944,-0.00890488 0.00680504,-0.00139989 0.0110436,0.000972149 0.0136101,0.00521072l0.556186 -0.0980704 0.462393 -0.0815438c-0.0232149,-0.0173431 -0.0488796,-0.04363 -0.04363,-0.0673116 0.00435523,-0.0197152 0.036825,0.017032 0.0614398,0.00952706 0.0219317,-0.00672727 0.036475,-0.0599232 0.0430856,-0.0584845 0.0139989,0.00311088 0.0185875,0.0358917 0.0103437,0.0731834 -0.00272202,0.0123657 -0.00649395,0.0229816 -0.0108103,0.0324309l0.0703058 -0.0124046c-0.00392748,-0.0285034 -0.00128324,-0.0353473 0.0160988,-0.0384193 0.00758276,-0.00136101 0.0126379,-0.00124435 0.0166821,0.000855491 0.00657172,-0.0266369 0.0219706,-0.0471687 0.0388082,-0.0538959 0.00291645,-0.00112769 0.0055218,-0.00241093 0.00843825,-0.0027609 0.00291645,-0.000311088 0.00614398,0.000349974 0.00906043,0.000972149 0.0233316,0.00513294 0.0991203,0.0165654 0.0908765,0.0538959 -0.000894377,0.00408302 -0.00384971,0.00727167 -0.00855491,0.0091382l0.0752054 -0.0132601c-0.00237204,-0.00703836 -0.00377194,-0.0141156 -0.0047052,-0.0195207 -0.00338308,-0.0192097 0.00198318,-0.0755554 0.0122102,-0.125485 0.00108881,-0.0052496 0.00198318,-0.00738833 0.00299422,-0.0119769 -0.00462743,-0.00159432 -0.00808828,-0.00237204 -0.00808828,-0.00237204 0,0 -0.00128324,-0.0398581 0.0118991,-0.0478686 0.00330531,-0.00202207 0.00734944,-0.00408302 0.0118991,-0.00466631 0.0319642,-0.00384971 0.0893599,0.0236815 0.0893599,0.0236815 0,0 -0.0427357,0.0209206 -0.055918,0.0289311 -0.00661061,0.00400525 -0.0139212,0.00540515 -0.0205318,0.00618287 -0.000349974,0.00808828 -0.00104992,0.0191708 -0.00400525,0.0349974 -0.00633841,0.0341419 -0.010227,0.0717057 -0.00804939,0.0840714 0.00108881,0.00618287 0.0055218,0.0163321 0.0111603,0.0272979l0.0332864 -0.00587178c0.00019443,-0.00202207 7.77719e-005,-0.00264424 0.000388859,-0.00517183 0.00252759,-0.0202596 0.00151655,-0.0259758 -0.00653284,-0.0369805 -0.0066495,-0.00909931 -0.00661061,-0.0151266 -0.000583289,-0.0176931 0.00474409,-0.00202207 0.0113158,0.0137267 0.0151655,0.035464 0.00151655,0.00851602 0.00128324,0.0159821 0.00143878,0.0226316l0.283634 -0.0500073c0.0091382,-0.00521072 0.0188208,-0.0108492 0.0229038,-0.0141934 0.00987703,-0.00812716 0.0218539,-0.01466 0.0344141,-0.0213484 -0.00917708,-0.0227483 -0.0226316,-0.0615176 -0.00999369,-0.0783552 0.00602732,-0.00804939 0.0193263,-0.0135712 0.0327809,-0.0159432 0.0134157,-0.00237204 0.026598,-0.00151655 0.0350362,0.00400525 0.0145433,0.00952706 0.0183931,0.0386915 0.0187041,0.0628397 0.0161766,-0.00163321 0.0274146,0.00147767 0.027259,0.0104214 -0.000155544,0.00785496 -0.00614398,0.017732 -0.0155933,0.0269091l0.54137 -0.095465c0.00668838,-0.0142711 0.0332475,-0.0357751 0.0659895,-0.0510184 0.0363972,-0.0169543 0.0678949,-0.036475 0.0687892,-0.0426579 0.000233316,-0.00155544 0.000233316,-0.00256647 0.000777719,-0.00268313 0.00171098,-0.000349974 0.00474409,0.00521072 0.00777719,0.0151655 0.00602732,0.0198707 -0.0109658,0.0407525 -0.054557,0.0655617l0.18743 -0.0330531 0.25898 -0.0456521c0.0182375,-0.0149322 0.0519905,-0.0325864 0.10612,-0.0543237 0.00346085,-0.00474409 0.00657172,-0.00797162 0.00956594,-0.010577 -0.00108881,-0.00388859 0.000466631,-0.0101103 0.00287756,-0.0195985 0.004433,-0.0170709 0.0104992,-0.0260147 0.0156322,-0.0269091 0.00509406,-0.000894377 0.0094104,0.00622175 0.0102659,0.0223594 0.000583289,0.00987703 -0.00244981,0.0191708 -0.00715501,0.0241482 0.022165,-0.00614398 0.0299422,-0.00283867 0.0233316,0.00983814 -0.0016721,0.00334419 -0.00579401,0.00793273 -0.010577,0.0120546 0.00151655,0.00454966 0.00233316,0.0106547 0.00283867,0.016021l0.101103 -0.0178098c0.00715501,-0.0138434 0.015671,-0.0235649 0.0234482,-0.0257425 0.00186653,-0.000544403 0.00338308,0 0.00513294,0.000349974 0.00462743,0.000933263 0.0152433,0.00754387 0.0269091,0.0155933l0.388432 -0.0684782 0.270063 -0.0476353 0.120858 -0.0213095c-0.0055218,-0.0149322 -0.00583289,-0.0243815 -0.000661061,-0.0253148 0.00458854,-0.000816605 0.0103048,-0.00925486 0.0132212,-0.0188597 0.00108881,-0.00357751 0.00272202,-0.00579401 0.00404414,-0.00579401 0.0022165,0 0.00474409,0.00517183 0.00633841,0.0141545 0.00217761,0.0124824 0.000349974,0.0234871 -0.00198318,0.0321198l0.492024 -0.0867545 0.0911098 0.516678 0.0628786 -0.0110825c-0.00377194,-0.00540515 0.00202207,-0.0174598 -3.88859e-005,-0.0292422 -0.00291645,-0.0164488 -0.0191708,-0.0288534 -0.00116658,-0.0353862 0.00256647,-0.000933263 0.00575512,-0.00101103 0.00983814,-0.00174987 0.0329753,-0.00575512 0.0632285,0.00505517 0.0665339,0.023876 0.00213873,0.0123657 -0.00820493,0.0247703 -0.0245759,0.0335975l0.150411 -0.0265202 -0.049113 -0.278696c-0.000388859,0.0249648 -0.020454,0.0537404 -0.0465076,0.0679337 -0.0324309,0.0176931 -0.0815827,0.0167987 -0.0993147,-0.00789385 -0.000699947,0.000233316 -0.00178875,0.000233316 -0.00244981,0.000427745 -0.0198707,0.00626064 -0.027959,0.000116658 -0.0308366,-0.0161766 -0.00396637,-0.022515 0.00944928,-0.0365917 0.0587567,-0.0561513 0.018743,-0.0143878 0.042269,-0.0244981 0.063773,-0.0277646 0.00532737,-0.000816605 0.0100326,-0.00151655 0.01501,-0.00136101 0.0158266,-0.00606621 0.0285034,-0.0114714 0.0280757,-0.0138434 -0.000427745,-0.0024887 0.000738833,-0.00501629 0.00241093,-0.00804939l-0.0493852 -0.27994 -0.00346085 -0.0197541 -0.0126379 -0.0715113c-0.00521072,-0.0297477 -0.0220483,-0.0540904 -0.0453021,-0.069567 -0.00108881,0.00264424 -0.00233316,0.00423857 -0.00427745,0.00458854 -0.00439411,0.000777719 -0.00929374,-0.0047052 -0.0127157,-0.01431 -0.00287756,-0.00124435 -0.00626064,-0.00116658 -0.00929374,-0.00217761 0.0130657,0.0133768 0.0233316,0.0310699 0.0270646,0.0524571 0.00824382,0.047052 -0.0843825,0.2171 -0.122024,0.223672 -0.0376416,0.00657172 0.072289,-0.166393 0.064084,-0.213445 -0.00489963,-0.0280757 -0.0259369,-0.0503184 -0.0343752,-0.0651728l-0.61782 0.108958 -0.0850825 0.01501c-0.00136101,0.00696058 -0.00264424,0.0118991 -0.00419968,0.0121713 -0.00155544,0.000272202 -0.00334419,-0.00408302 -0.004433,-0.0106547l-0.0123268 0.00217761c-0.000349974,0.00155544 -0.00019443,0.00346085 -0.000583289,0.00392748 -0.000855491,0.00101103 -0.00182764,-7.77719e-005 -0.00311088,-0.00326642l-0.0517961 0.00909931 -0.270063 0.0476353 -0.422962 0.0745832c0.000816605,0.0171098 0.000349974,0.0615176 0.00244981,0.0643951 0.00556069,0.00769942 0.00633841,0.0153988 0.000583289,0.017732 -0.00521072,0.00209984 -0.0101492,-0.00447188 -0.00999369,-0.0135323 3.88859e-005,-0.00377194 0.00252759,-0.0502795 0.00447188,-0.0681671l-0.213328 0.0376027c0.000233316,0.00703836 -0.000233316,0.0127935 -0.00400525,0.0134545 -0.00688281,0.00120546 -0.0118213,-0.0027609 -0.0132601,-0.0103825l-0.00983814 0.00171098c-0.000933263,0.00521072 -0.00287756,0.0113547 -0.0071939,0.0241482 -0.00489963,0.0145822 -0.00863268,0.0236038 -0.0118991,0.0262869 -0.00548292,0.00447188 -0.00816605,-0.00828271 -0.00486074,-0.0347252 0.000622175,-0.00486074 0.00244981,-0.00839936 0.00419968,-0.0122102l-0.271268 0.0478297 -1.02725 0.181131c0.0136101,0.0318087 0.0274924,0.0684782 0.0301755,0.0773441 0.00307199,0.0101103 0.00151655,0.0180431 -0.00513294,0.0212317 -0.0022165,0.00104992 -0.00559958,0.0016721 -0.00863268,0.00151655 -0.0118213,-0.000583289 -0.163671,-0.0265591 -0.0253148,-0.0209595 0.00734944,0.000311088 -0.00174987,-0.0402081 -0.00956594,-0.0758665l-0.91868 0.161999c-0.00349974,0.00338308 -0.00793273,0.00610509 -0.0127157,0.00731056 -0.01466,0.00373305 -0.0300977,0.0124824 -0.0346085,0.020104 -0.0100326,0.0169543 -0.0725223,0.0441744 -0.196996,0.0868323 -0.0522627,0.0179264 -0.103787,0.0376027 -0.11448,0.0430856 -0.00268313,0.00139989 -0.00528849,0.00225538 -0.00839936,0.0027609 -0.00388859,0.000622175 -0.00762165,0.00019443 -0.0115491,-0.000505517 -0.00272202,0.0164876 -0.0151266,0.0853935 -0.040908,0.092393 -0.0120546,0.00330531 -0.0281145,-0.0140378 -0.0427357,-0.0331308 -0.00112769,0.00174987 -0.00318865,0.00182764 -0.0047052,0.00209984 -0.00567735,0.00101103 -0.0108492,-0.00381082 -0.0118213,-0.00937151 -0.000583289,-0.00330531 -0.000233316,-0.00867157 0.00128324,-0.0141934 -0.00797162,-0.0111992 -0.0151655,-0.0203762 -0.0193652,-0.0232927 -0.0127546,-0.00894377 -0.0180431,-0.0390415 -0.0091382,-0.0517961 -0.016371,0.00824382 -0.0373694,0.0176542 -0.0622953,0.0287756 -0.040558,0.018082 -0.102076,0.0620231 -0.136801,0.0965927 -0.091382,0.0909931 -0.278929,0.18463 -0.371789,0.199057 -0.0309532,0.00482186 -0.0518739,0.00143878 -0.0547125,-0.0145045 -0.00338308,-0.0192097 0.017732,-0.0331697 0.0650951,-0.0419968 0.0388471,-0.0071939 0.0853547,-0.0213873 0.10262,-0.0307977 0.0173431,-0.0094104 0.049424,-0.0262869 0.0721334,-0.0381471 0.00190541,-0.00101103 0.00260536,-0.00237204 0.00451077,-0.00334419 -0.0312643,0.00178875 -0.0599232,-0.000894377 -0.0599621,-0.000894377l-0.0104214 -0.0591844c-0.075011,0.0417635 -0.15325,0.0736889 -0.194624,0.0788218 -0.0172265,0.00217761 -0.0281534,-0.000972149 -0.0295144,-0.00878822 -0.00101103,-0.00583289 0.00836048,-0.0157099 0.0234482,-0.0257425 -0.0285812,0.0159044 -0.0622564,0.0237982 -0.0818549,0.0118991 -0.0376416,-0.0229038 -0.0143878,-0.0757887 0.023176,-0.0994314l-0.15045 0.0265202c-0.00567735,0.0142323 -0.02932,0.0562291 -0.0294755,0.0636952 -3.88859e-005,0.00451077 -0.0134157,0.00703836 -0.0151655,0.0077383 -0.00171098,0.000699947 -0.00447188,-0.000349974 -0.00699947,-0.00384971 -0.0047052,-0.00645507 0.0302922,-0.0505517 0.0454966,-0.066495l-0.0690614 0.0121713z"/>
 </g>
</svg>
