<?xml version="1.0" encoding="UTF-8"?>
<!DOCTYPE svg PUBLIC "-//W3C//DTD SVG 1.1//EN" "http://www.w3.org/Graphics/SVG/1.1/DTD/svg11.dtd">
<!-- Creator: CorelDRAW -->
<svg xmlns="http://www.w3.org/2000/svg" xml:space="preserve" width="39.9231mm" height="10.9171mm" style="shape-rendering:geometricPrecision; text-rendering:geometricPrecision; image-rendering:optimizeQuality; fill-rule:evenodd; clip-rule:evenodd"
viewBox="0 0 11.2568 3.0782"
 xmlns:xlink="http://www.w3.org/1999/xlink">
 <defs>
  <style type="text/css">
   <![CDATA[
    .fil0 {fill:#F29413}
   ]]>
  </style>
 </defs>
 <g id="Layer_x0020_1">
  <metadata id="CorelCorpID_0Corel-Layer"/>
  <path class="fil0" d="M2.13129 0.00640053l0 0.00637233 0.307676 0c-0.0320872,0.0182147 -0.0593247,0.0127729 -0.0975587,0.0127729 -0.0800489,0 -0.160098,0 -0.240147,0 -0.0879156,0 -0.147268,-0.00642872 -0.232618,-0.00637233 -0.167203,8.45885e-005 -0.304067,0.00744378 -0.465321,2.81962e-005 -0.0638079,-0.0029324 -0.161846,-0.00930473 -0.226443,-0.00118424 -0.164214,0.0206678 -0.290561,0.0175944 -0.448488,0.0270683 -0.0976433,0.0058648 -0.19523,0.0124063 -0.293127,0.0124063 -0.0128292,0 -0.0186659,-0.0120961 -0.0719566,-0.0160718 -0.0930191,-0.00696445 -0.187335,-0.00310158 -0.280749,-0.00310158 -0.0228389,0.0534317 -0.0338354,0.0686294 -0.02501,0.123471 0.00321436,0.0199347 0.0066261,0.0317207 0.0175098,0.0489767l0.00750018 -0.102183c0,0.063244 0.00394746,0.135934 5.63923e-005,0.197993 -0.0036655,0.0578585 -0.0207806,0.126657 -0.0228107,0.184967 -0.00228389,0.0656124 -0.00177636,0.243756 -0.0114194,0.29699 -0.0181301,0.10035 -0.0401231,0.363448 -0.0408844,0.456778l-0.00750018 1.00906c0,0.0313259 0.0145774,0.0437322 0.0199629,0.0728871 0.00507531,0.0272657 -0.00845885,0.0504993 -0.0115322,0.0747762l-0.00843065 0.548443c0,0.0907352 0.000620315,0.120482 0.0271247,0.127729l0.0494279 0c0.020837,-0.00194553 0.0473131,-0.00487793 0.0810075,-0.00642872 0.0358373,-0.00163538 0.0759322,0.00468056 0.1116,-0.000902277 0.0292958,-0.00459597 0.0108837,-0.00611856 0.0335252,-0.00978406 0.0311849,-0.00504711 0.0234592,0.00620315 0.0636669,0.00358091l0.0764398 -0.00563923 0 -0.0191452c0.0679245,0 0.100406,-0.00383468 0.161141,0.00972767 0.0515144,0.011504 0.438563,0.00304518 0.52177,0.00304518l0.33748 0.0065697c0.0413638,0.00273503 0.0504147,0.0128574 0.105002,0.0128011 0.077624,-5.63923e-005 0.155304,-8.45885e-005 0.232928,-0.000225569 0.079203,-0.000169177 0.138471,0.00625955 0.222468,0.00640053l0.243107 0c0.0204704,-0.000169177 -0.0179046,-0.014521 0.0817406,-0.0126883l0.340412 -0.00552645c0.00425762,-0.00521629 -0.0147184,0.00465236 0.00690806,-0.00738739 0.0444653,-0.0247562 0.535389,-0.0127165 0.591245,-0.0127165 0.780469,0.0127729 0.968481,0.0105454 0.780469,0.0127729 0.119946,0 0.259179,-0.00795131 0.375657,0.00597758l0.112108 0.0195681 0.453563 0c0.208764,-0.000169177 0.46425,-0.0158744 0.652233,-0.00795131 0.0914965,0.00386287 0.109288,0.00781033 0.210146,0.00795131l0.702789 0c-0.0203012,-0.0235438 -0.0834042,-0.0114194 -0.120369,-0.0125191l-0.134778 -0.0130266c0.0781597,0 0.129674,-0.00665429 0.202589,-0.00640053 0.0784417,0.000253765 0.129392,-0.0066261 0.202618,-0.00640053l0.622909 -0.00634413c0.0751427,0.000140981 0.124317,-0.00642872 0.202618,-0.00640053l0.518076 -0.0066261c0.0450856,5.63923e-005 0.0543904,0.00642872 0.0969948,0.00687986l0.195399 -0.00665429 -0.00750018 0.0191734 1.10317 0.0127729c-0.0596913,0 -0.107794,0.00795131 -0.165117,0.0191452 0.0697291,0.00541366 0.139063,0.00625955 0.208764,0.00640053l0.0624827 0c0.0461289,-0.000140981 0.0648793,-0.00922014 0.10458,-0.0122653 0.0413074,-0.00318617 0.0745224,-0.00391927 0.118339,-0.00786673 0.154036,-0.0139007 0.329246,0.01438 0.488978,0.00738739 0.0378956,-0.00166357 0.0745788,-0.0111939 0.112474,-0.0128574l0.127616 5.63923e-005c0.00332715,-0.00907916 0.00248126,0.00389107 -0.00750018,-0.0127729 0.0707723,0 0.188153,0.00580841 0.253117,-0.00174816 0.0844757,-0.00685166 0.172307,-0.0110247 0.257205,-0.0110247l0.105059 0c0.03048,-0.00132522 0.0599732,0.00270683 0.0900585,0.00637233 0.0279424,-0.102042 -0.0187222,-0.208313 0.012068,-0.347348 0.00676708,-0.0305928 8.45885e-005,-0.0625955 0.0138161,-0.0840245 0.0229235,-0.0358091 0.0116168,-0.0843629 0.0116168,-0.124232 0,-0.108076 0.00752837,-0.196696 0.00752837,-0.300148l-0.00752837 -0.613069 -0.0225005 0.146874c0,-0.0407998 -0.00671068,-0.0557438 -0.00764116,-0.0892972l-0.00710543 -0.191931c-8.45885e-005,-0.0403487 -0.00814869,-0.0530652 -0.00795131,-0.0954158 0.000620315,-0.129082 -0.00307338,-0.259517 -0.0223314,-0.383327l-0.0225005 0c0.00298879,-0.0307902 0.0225851,-0.0296905 0.0314105,-0.0754529 0.00552645,-0.0286755 0.00910736,-0.0576893 0.0139007,-0.0903405 0.00383468,-0.026166 0.00527268,-0.0199065 0.0136187,-0.0395028 0.00750018,-0.0176226 0.00642872,-0.0202448 0.0118706,-0.0409972 0.0115886,-0.043986 0.00704904,-0.0496816 0.00422942,-0.0921732 0,-0.0338072 0.0154233,-0.0080923 0.0021711,-0.0400667 -0.0119552,-0.0288447 -0.0148594,-0.000930473 -0.0178764,-0.0428018 -0.00668249,-0.0934702 0.0584788,-0.367424 0.0232054,-0.517456 -0.0357809,-0.000676708 -0.0543622,-0.0111657 -0.086252,-0.00905096 -0.039531,0.00265044 -0.052755,0.00890998 -0.0935548,0.00930473l-0.420546 -0.000253765c-0.0501328,0 -0.170784,0.0073028 -0.199149,0.00394746 -0.124965,-0.014803 -0.664076,0.00171997 -0.828967,0.00245307 -0.0493715,0 -0.0747762,-0.00338354 -0.113151,-0.00620315l-0.111995 0.00620315c-0.0975587,0.000169177 -0.194948,-0.0127729 -0.292676,-0.0127729 -0.0214009,0 -0.0419559,0.013083 -0.120031,0.0128011 -0.0450575,-0.000169177 -0.0901149,0.000112785 -0.135172,-8.45885e-005 -0.0549543,-0.000225569 -0.0782161,0.0065979 -0.127249,0.00665429l-0.405517 -0.0065979c-0.0936958,2.81962e-005 -0.182824,0.00764116 -0.261294,0.00234028l-0.11349 -0.00843065c-0.0330459,0.000817688 -0.155868,0.00944571 -0.19086,0.0169741 -0.060368,0.0129984 -0.12333,-0.0065697 -0.184798,-0.0108837 -0.041392,0 -0.0145774,0.0146056 -0.058789,0.00580841 -0.0580559,-0.011504 -0.172758,0.000592119 -0.241387,0.000563923l-1.40335 0c-0.0274631,0 -0.0249818,-0.00724641 -0.0472004,-0.0109119 -0.063103,-0.010489 -0.128321,-0.00814869 -0.193115,-0.00837426 -0.0523321,-0.000197373 -0.0728871,0.00687986 -0.127306,0.0065979 -0.156404,-0.000422942 -0.317545,0.00343993 -0.472427,-0.00685166 -0.0554336,-0.0036655 -0.0572382,-0.00679527 -0.116253,0.00403205 -0.0758758,0.0139007 -1.05386,0.0155079 -1.16746,0.0155079 -0.0517681,0 -0.142814,-0.00569562 -0.176423,-0.00256585l-0.116422 0.0153105c-0.05893,0.012942 -0.316671,-0.00704904 -0.397622,-0.00631594 -0.0663455,0.000620315 -0.11332,-0.0115322 -0.172307,-0.0130266l-0.533076 -0.0189478c-0.0777932,0 -0.125839,0.00640053 -0.202618,0.00640053z"/>
 </g>
</svg>
