<?xml version="1.0" encoding="UTF-8"?>
<!DOCTYPE svg PUBLIC "-//W3C//DTD SVG 1.1//EN" "http://www.w3.org/Graphics/SVG/1.1/DTD/svg11.dtd">
<!-- Creator: CorelDRAW X7 -->
<svg xmlns="http://www.w3.org/2000/svg" xml:space="preserve" width="42.7468mm" height="31.7905mm" version="1.1" style="shape-rendering:geometricPrecision; text-rendering:geometricPrecision; image-rendering:optimizeQuality; fill-rule:evenodd; clip-rule:evenodd"
viewBox="0 0 4091 3042"
 xmlns:xlink="http://www.w3.org/1999/xlink">
 <defs>
  <style type="text/css">
   <![CDATA[
    .str0 {stroke:#4D4D4D;stroke-width:9.57032;stroke-dasharray:57.393221 38.262147}
    .fil0 {fill:none}
    .fil3 {fill:#1A1A1A}
    .fil4 {fill:#666666}
    .fil1 {fill:#B3B3B3}
    .fil2 {fill:black;fill-rule:nonzero}
    .fil8 {fill:black;fill-rule:nonzero}
    .fil7 {fill:#E2301C;fill-rule:nonzero}
    .fil6 {fill:white;fill-rule:nonzero}
    .fil5 {fill:url(#id0)}
   ]]>
  </style>
  <linearGradient id="id0" gradientUnits="userSpaceOnUse" x1="292.373" y1="563.127" x2="627.985" y2="339.392">
   <stop offset="0" style="stop-opacity:1; stop-color:#898989"/>
   <stop offset="0.419608" style="stop-opacity:1; stop-color:#9D9E9E"/>
   <stop offset="0.45098" style="stop-opacity:1; stop-color:#EBECEC"/>
   <stop offset="1" style="stop-opacity:1; stop-color:#B2B3B3"/>
  </linearGradient>
 </defs>
 <g id="Слой_x0020_1">
  <metadata id="CorelCorpID_0Corel-Layer"/>
  <polygon class="fil0 str0" points="5,5 4086,5 4086,2930 5,2930 "/>
  <polygon class="fil1" points="107,107 3984,107 3984,2828 107,2828 "/>
  <path class="fil2" d="M779 2342l-60 0 0 33 51 0 0 14 -51 0 0 58 -16 0 0 -119 76 0 0 14zm92 60c0,15 -3,26 -11,34 -7,9 -17,13 -30,13 -12,0 -22,-4 -30,-13 -7,-8 -11,-19 -11,-34 0,-14 4,-26 11,-34 8,-9 18,-13 30,-13 13,0 23,4 30,13 8,8 11,20 11,34zm-15 0c0,-11 -2,-20 -7,-26 -4,-5 -11,-8 -19,-8 -8,0 -14,3 -19,8 -4,6 -6,15 -6,26 0,11 2,20 6,25 5,6 11,9 19,9 8,0 15,-3 19,-8 5,-6 7,-15 7,-26zm94 -28l-1 0c-2,-1 -4,-1 -6,-1 -2,0 -5,-1 -8,-1 -4,0 -9,1 -13,3 -4,3 -8,5 -12,8l0 64 -15 0 0 -89 15 0 0 13c6,-5 11,-8 15,-10 5,-2 9,-3 14,-3 3,0 5,0 6,0 1,0 3,0 5,1l0 15zm159 39c0,4 -1,9 -3,13 -2,5 -5,9 -9,12 -4,3 -9,6 -15,8 -6,2 -13,3 -21,3 -8,0 -16,-1 -23,-3 -6,-1 -13,-4 -20,-7l0 -20 1 0c6,5 13,9 20,12 8,3 16,4 23,4 9,0 17,-2 22,-5 6,-4 9,-9 9,-15 0,-5 -2,-9 -4,-12 -3,-2 -7,-4 -12,-6 -4,-1 -8,-1 -13,-2 -5,-1 -10,-2 -15,-3 -10,-2 -18,-6 -23,-11 -5,-6 -8,-13 -8,-21 0,-10 4,-18 13,-25 8,-6 19,-9 32,-9 8,0 16,1 23,2 7,2 13,4 18,6l0 19 -1 0c-4,-4 -10,-7 -18,-10 -7,-2 -15,-4 -22,-4 -9,0 -15,2 -21,6 -5,3 -7,8 -7,13 0,5 1,9 4,12 2,3 7,5 13,6 3,1 8,2 14,3 7,1 12,2 16,3 9,3 16,6 20,11 5,5 7,11 7,20zm99 -9l-66 0c0,5 1,10 3,14 1,4 3,7 6,10 3,2 6,4 10,6 4,1 8,2 13,2 6,0 12,-2 18,-4 6,-2 11,-5 13,-7l1 0 0 16c-5,2 -10,4 -16,5 -5,2 -10,3 -16,3 -15,0 -26,-4 -35,-12 -8,-8 -12,-20 -12,-34 0,-15 4,-27 12,-35 8,-9 18,-13 31,-13 12,0 21,4 28,11 6,7 10,17 10,29l0 9zm-15 -12c0,-8 -2,-14 -6,-18 -4,-4 -10,-7 -18,-7 -8,0 -14,3 -19,8 -5,4 -7,10 -8,17l51 0zm112 55l-15 0 0 -51c0,-4 0,-8 -1,-12 0,-3 -1,-6 -3,-8 -1,-2 -3,-4 -5,-5 -3,-1 -6,-2 -10,-2 -4,0 -8,1 -13,3 -4,2 -9,5 -13,8l0 67 -15 0 0 -89 15 0 0 9c5,-3 10,-6 15,-9 5,-2 10,-3 15,-3 10,0 17,3 22,9 5,6 8,14 8,25l0 58zm45 -104l-17 0 0 -16 17 0 0 16zm-1 104l-15 0 0 -89 15 0 0 89zm105 -45c0,15 -3,26 -11,34 -7,9 -17,13 -30,13 -12,0 -22,-4 -30,-13 -7,-8 -11,-19 -11,-34 0,-14 4,-26 11,-34 8,-9 18,-13 30,-13 13,0 23,4 30,13 8,8 11,20 11,34zm-15 0c0,-11 -2,-20 -7,-26 -4,-5 -11,-8 -19,-8 -8,0 -14,3 -19,8 -4,6 -6,15 -6,26 0,11 2,20 6,25 5,6 11,9 19,9 8,0 14,-3 19,-8 5,-6 7,-15 7,-26zm94 -28l-1 0c-2,-1 -4,-1 -6,-1 -2,0 -5,-1 -8,-1 -4,0 -9,1 -13,3 -4,3 -9,5 -13,8l0 64 -15 0 0 -89 15 0 0 13c6,-5 12,-8 16,-10 5,-2 9,-3 14,-3 3,0 5,0 6,0 1,0 3,0 5,1l0 15zm164 64c-3,1 -5,2 -8,4 -2,1 -5,2 -9,3 -3,1 -7,2 -10,3 -4,0 -8,1 -13,1 -9,0 -16,-1 -23,-4 -7,-2 -14,-6 -19,-11 -5,-5 -9,-12 -12,-19 -3,-8 -4,-17 -4,-28 0,-9 1,-18 4,-26 3,-8 7,-14 12,-19 5,-6 11,-9 18,-12 7,-3 15,-4 24,-4 6,0 13,1 19,2 7,2 14,4 21,8l0 19 -1 0c-6,-6 -13,-10 -19,-12 -7,-3 -14,-4 -21,-4 -6,0 -11,1 -16,3 -5,2 -9,5 -13,9 -4,4 -7,9 -9,15 -2,6 -3,13 -3,21 0,9 1,16 4,22 2,6 5,11 8,15 4,3 9,6 13,8 5,2 11,3 16,3 8,0 15,-1 22,-4 6,-2 12,-6 18,-12l1 0 0 19zm38 -95l-17 0 0 -16 17 0 0 16zm-1 104l-15 0 0 -89 15 0 0 89zm75 -1c-2,1 -5,1 -9,2 -3,0 -6,0 -9,0 -9,0 -16,-2 -20,-7 -5,-5 -7,-13 -7,-23l0 -48 -11 0 0 -12 11 0 0 -26 15 0 0 26 30 0 0 12 -30 0 0 41c0,4 0,8 0,11 0,2 1,5 2,7 1,2 3,4 5,5 2,1 5,1 9,1 3,0 5,0 8,-1 3,-1 4,-1 6,-2l0 0 0 14zm35 -103l-17 0 0 -16 17 0 0 16zm-1 104l-15 0 0 -89 15 0 0 89zm94 0l-72 0 0 -11 52 -66 -51 0 0 -12 69 0 0 10 -52 66 54 0 0 13zm95 -43l-66 0c0,5 1,10 2,14 2,4 4,7 7,10 3,2 6,4 10,6 4,1 8,2 13,2 6,0 12,-2 18,-4 6,-2 10,-5 13,-7l1 0 0 16c-5,2 -10,4 -16,5 -5,2 -10,3 -16,3 -15,0 -27,-4 -35,-12 -8,-8 -12,-20 -12,-34 0,-15 4,-27 12,-35 8,-9 18,-13 31,-13 12,0 21,4 28,11 6,7 10,17 10,29l0 9zm-15 -12c0,-8 -2,-14 -6,-18 -4,-4 -10,-7 -18,-7 -8,0 -14,3 -19,8 -5,4 -7,10 -8,17l51 0zm112 55l-15 0 0 -51c0,-4 -1,-8 -1,-12 -1,-3 -1,-6 -3,-8 -1,-2 -3,-4 -5,-5 -3,-1 -6,-2 -10,-2 -4,0 -8,1 -13,3 -4,2 -9,5 -13,8l0 67 -15 0 0 -89 15 0 0 9c5,-3 10,-6 15,-9 5,-2 10,-3 15,-3 10,0 17,3 22,9 5,6 8,14 8,25l0 58zm92 -26c0,8 -3,15 -10,20 -7,5 -16,8 -27,8 -7,0 -13,-1 -19,-3 -5,-1 -10,-3 -13,-5l0 -17 0 0c5,4 10,7 16,9 6,2 11,3 17,3 6,0 12,-1 15,-3 4,-2 6,-6 6,-10 0,-4 -1,-6 -3,-8 -2,-2 -6,-3 -12,-5 -2,0 -5,-1 -8,-1 -4,-1 -7,-2 -10,-3 -7,-2 -13,-5 -16,-9 -3,-4 -5,-9 -5,-14 0,-4 1,-8 2,-11 2,-3 4,-6 7,-8 3,-3 7,-5 11,-6 5,-2 10,-3 16,-3 5,0 11,1 16,2 5,2 10,3 14,5l0 16 -1 0c-4,-3 -9,-5 -14,-7 -6,-2 -11,-3 -16,-3 -6,0 -10,1 -14,3 -4,2 -6,5 -6,10 0,3 1,6 4,8 2,2 6,3 11,4 2,1 5,2 9,2 3,1 6,2 8,2 7,2 13,4 16,8 4,4 6,9 6,16zm169 -79c4,5 8,11 11,19 2,8 4,17 4,26 0,10 -2,19 -4,27 -3,7 -7,14 -11,19 -5,5 -11,9 -18,12 -6,3 -14,4 -23,4 -8,0 -16,-1 -22,-4 -7,-3 -13,-7 -18,-12 -5,-5 -8,-12 -11,-19 -2,-8 -4,-17 -4,-27 0,-9 2,-18 4,-26 3,-7 6,-14 11,-19 5,-6 11,-10 18,-12 7,-3 14,-5 22,-5 9,0 17,2 23,5 7,2 13,6 18,12zm-2 45c0,-15 -3,-27 -10,-35 -7,-9 -17,-13 -29,-13 -12,0 -21,4 -28,13 -7,8 -10,20 -10,35 0,16 3,28 10,36 7,8 17,12 28,12 12,0 22,-4 29,-12 7,-8 10,-20 10,-36zm115 60l-15 0 0 -51c0,-4 0,-8 -1,-12 0,-3 -1,-6 -3,-8 -1,-2 -3,-4 -5,-5 -3,-1 -6,-2 -10,-2 -4,0 -8,1 -13,3 -4,2 -9,5 -13,8l0 67 -15 0 0 -89 15 0 0 9c5,-3 10,-6 15,-9 5,-2 10,-3 15,-3 10,0 17,3 22,9 5,6 8,14 8,25l0 58zm181 0l-17 0 -12 -33 -51 0 -12 33 -16 0 44 -119 21 0 43 119zm-34 -47l-20 -58 -21 58 41 0zm125 47l-15 0 0 -51c0,-4 0,-8 -1,-12 0,-3 -1,-6 -2,-8 -2,-2 -4,-4 -6,-5 -3,-1 -6,-2 -10,-2 -4,0 -8,1 -13,3 -4,2 -8,5 -12,8l0 67 -15 0 0 -89 15 0 0 9c4,-3 9,-6 14,-9 5,-2 10,-3 15,-3 10,0 17,3 22,9 5,6 8,14 8,25l0 58zm104 -89l-52 121 -16 0 17 -37 -36 -84 17 0 27 66 28 -66 15 0zm122 58c0,10 -3,18 -10,24 -6,5 -14,8 -25,8 -3,0 -6,0 -10,0 -5,-1 -8,-1 -11,-2l0 -15 1 0c2,1 5,2 8,3 3,0 6,1 10,1 5,0 9,-1 11,-2 3,-1 5,-3 7,-5 1,-2 2,-4 3,-8 0,-3 0,-6 0,-10l0 -69 -25 0 0 -13 41 0 0 88zm105 -14c0,15 -3,26 -11,34 -7,9 -17,13 -30,13 -12,0 -22,-4 -30,-13 -7,-8 -11,-19 -11,-34 0,-14 4,-26 11,-34 8,-9 18,-13 30,-13 13,0 23,4 30,13 8,8 11,20 11,34zm-15 0c0,-11 -2,-20 -7,-26 -4,-5 -11,-8 -19,-8 -8,0 -14,3 -19,8 -4,6 -6,15 -6,26 0,11 2,20 6,25 5,6 11,9 19,9 8,0 14,-3 19,-8 5,-6 7,-15 7,-26zm117 -1c0,8 -1,15 -3,20 -2,6 -5,11 -9,15 -4,5 -8,8 -12,10 -5,2 -10,3 -15,3 -5,0 -10,-1 -13,-2 -4,-1 -8,-3 -12,-5l0 5 -15 0 0 -124 15 0 0 44c5,-4 9,-6 14,-9 5,-2 10,-3 16,-3 10,0 19,4 25,12 6,8 9,20 9,34zm-16 1c0,-11 -1,-19 -5,-24 -3,-6 -9,-9 -17,-9 -4,0 -9,1 -13,3 -5,2 -9,5 -13,7l0 51c5,2 8,4 11,4 3,1 7,2 11,2 8,0 15,-3 19,-9 5,-5 7,-14 7,-25zm62 45l-19 0 0 -23 19 0 0 23z"/>
  <g id="_595156744">
   <path id="_595163632" class="fil3" d="M814 3011c0,6 4,12 8,17l4 5c3,2 5,4 9,6l13 3 6 0c4,0 9,-1 12,-1 10,-3 20,-8 29,-15l5 -5c4,-3 6,-5 9,-9 2,-2 4,-6 6,-9 10,-20 -5,-34 11,-44 3,-2 7,-3 10,-4 11,-6 26,-16 37,-22l18 -10c3,-2 6,-3 9,-5 19,-12 40,-23 59,-35l60 -34c-1,-1 -1,-1 -2,-1 -2,-1 -6,-2 -8,-3 -14,-2 -24,-1 -37,2 -4,1 -7,3 -11,4 -1,0 -1,0 -2,1 -4,1 -3,0 -7,3 -7,5 -19,11 -26,16 -2,1 -3,2 -5,3 -1,1 -3,1 -4,2 -2,1 -3,2 -5,3 -8,6 -21,13 -30,19l-18 10c-11,7 -23,15 -34,22l-20 12c-1,0 -1,1 -2,1 -3,3 -10,6 -13,8l-27 16c-3,2 -6,3 -9,5 -6,3 -22,12 -26,16 -5,3 -8,5 -12,9 -3,3 -7,9 -7,14zm74 -38c0,0 0,0 -1,0l-4 2c-11,7 -25,15 -36,20 -7,4 -14,9 -16,17 -2,11 7,14 17,15 15,0 30,-7 40,-16 7,-6 14,-13 17,-24 1,-6 1,-9 -4,-12 -2,-1 -9,-4 -13,-2z"/>
   <path id="_595158328" class="fil3" d="M822 2859c0,8 2,14 7,20 6,6 10,9 17,13 4,2 10,5 12,6 4,3 12,6 16,9 3,1 6,2 8,4 4,2 23,12 28,14 9,5 4,6 20,-4 3,-2 4,-3 7,-5 0,0 -20,-11 -21,-12 -6,-4 -16,-7 -19,-16 -3,-7 2,-19 -2,-30 -3,-9 -7,-15 -14,-20 -3,-2 -7,-5 -10,-6l-16 -4 -5 0c-10,0 -19,6 -23,13 -3,5 -5,12 -5,18zm27 -16c-14,2 -20,19 -4,30 6,4 17,10 23,11 18,3 15,-19 10,-27 -1,-1 -2,-2 -2,-3 -2,-2 -2,-1 -3,-2 -6,-6 -15,-11 -24,-9z"/>
   <path id="_595157848" class="fil3" d="M954 2953c2,0 4,2 5,3l14 8c3,2 6,4 9,6l78 51c5,3 10,4 18,4 2,0 5,0 7,0 3,0 5,0 8,0 5,0 10,0 14,-1 4,0 8,-2 12,-3 -1,-1 -16,-10 -18,-11 -14,-8 -30,-17 -44,-25 -14,-9 -30,-17 -45,-26 -6,-3 -12,-6 -17,-10l-18 -10c-3,2 -22,13 -23,14z"/>
  </g>
  <g id="_595156768">
   <path id="_375679576" class="fil2" d="M981 510l0 -203c0,-12 4,-22 12,-29 8,-8 17,-11 29,-11 9,0 17,2 26,7 8,5 15,12 20,22l37 79 0 -106 76 0 0 203c0,14 -4,25 -12,33 -8,7 -17,10 -28,10 -8,0 -17,-2 -25,-7 -9,-5 -15,-11 -19,-20l-40 -76 0 98 -76 0z"/>
   <path id="_375679696" class="fil2" d="M1189 531l19 -234c0,-15 6,-26 18,-36 13,-9 26,-13 41,-13 14,0 26,3 36,10 10,7 17,18 20,32l22 92 25 -98c2,-10 9,-19 21,-25 11,-7 23,-10 36,-10 15,0 28,4 39,13 13,9 19,23 19,41l19 228 -84 0 -10 -162 -34 143c-2,7 -5,13 -11,17 -5,4 -11,6 -18,6 -7,0 -13,-2 -18,-5 -5,-3 -8,-8 -9,-15l-37 -146 -10 162 -84 0z"/>
   <path id="_368675264" class="fil2" d="M1519 522l0 -76 58 0c7,0 12,-1 17,-3 5,-2 7,-5 7,-9 0,-1 0,-3 -1,-4 -1,-3 -4,-6 -8,-9 -25,-17 -42,-32 -51,-43 -15,-17 -22,-35 -22,-54l-1 -3c0,-22 11,-39 33,-50 16,-8 34,-12 53,-12l80 0 0 71 -55 0c-6,0 -11,1 -15,3 -4,2 -6,4 -6,7 0,3 3,7 9,11 30,23 47,36 51,40 17,17 25,34 25,52l0 9c0,23 -10,40 -29,53 -17,12 -38,17 -63,17l-82 0z"/>
   <path id="_491115792" class="fil2" d="M748 567l14 0 56 84 0 -84 10 0 0 101 -10 0 -60 -88 0 88 -10 0 0 -101zm106 67c0,5 2,9 5,13 2,4 6,7 10,10 4,2 9,3 13,3 4,0 8,-1 11,-2 4,-1 7,-3 10,-6 2,-2 4,-5 6,-8l10 0c-1,5 -4,9 -8,13 -3,4 -8,7 -13,9 -5,3 -10,4 -15,4 -7,0 -13,-2 -19,-6 -6,-3 -11,-8 -15,-14 -3,-6 -5,-12 -5,-19 0,-7 2,-14 5,-20 4,-6 8,-10 14,-14 6,-3 13,-5 20,-5 6,0 11,1 16,4 6,2 10,6 14,10 3,4 5,8 6,13 2,4 2,9 3,15l-68 0zm57 -9c0,-4 -2,-8 -5,-12 -3,-3 -6,-6 -10,-8 -4,-2 -8,-3 -13,-3 -5,0 -9,1 -13,3 -4,2 -8,4 -10,8 -3,4 -5,8 -6,12l57 0zm100 43l-10 0 0 -14c-1,3 -4,6 -7,9 -3,2 -6,4 -10,5 -4,1 -8,2 -11,2 -6,0 -12,-2 -18,-4 -5,-3 -11,-7 -15,-12 -2,-2 -4,-5 -5,-9 -2,-5 -3,-10 -3,-15 0,-4 1,-9 3,-13 2,-5 4,-8 5,-9 10,-11 21,-16 32,-16 6,0 12,1 17,4 6,3 10,7 12,12l0 -14 10 0 0 74zm-68 -37c0,5 1,10 4,15 2,4 6,8 11,10 4,3 9,4 15,4 5,0 9,-1 14,-4 4,-3 8,-6 10,-11 3,-4 4,-9 4,-14 0,-5 -1,-10 -3,-15 -3,-4 -6,-8 -11,-11 -4,-2 -9,-3 -15,-3 -5,0 -10,1 -15,3 -4,3 -8,7 -10,11 -3,5 -4,10 -4,15zm85 -37l10 0 0 10c3,-8 10,-12 21,-12l0 10c-5,0 -10,2 -13,5 -3,3 -5,5 -6,8 -1,3 -2,7 -2,11l0 42 -10 0 0 -74zm81 -27l15 0 37 86 36 -86 16 0 0 101 -10 0 0 -89 -38 89 -9 0 -37 -89 0 89 -10 0 0 -101zm130 67c0,5 2,9 4,13 3,4 6,7 11,10 4,2 8,3 13,3 4,0 7,-1 11,-2 3,-1 6,-3 9,-6 3,-2 5,-5 7,-8l10 0c-2,5 -4,9 -8,13 -4,4 -8,7 -13,9 -5,3 -10,4 -15,4 -7,0 -14,-2 -20,-6 -6,-3 -10,-8 -14,-14 -3,-6 -5,-12 -5,-19 0,-7 2,-14 5,-20 4,-6 8,-10 14,-14 6,-3 13,-5 20,-5 5,0 11,1 16,4 5,2 10,6 14,10 3,4 5,8 6,13 1,4 2,9 2,15l-67 0zm57 -9c-1,-4 -3,-8 -5,-12 -3,-3 -6,-6 -10,-8 -5,-2 -9,-3 -13,-3 -5,0 -9,1 -13,3 -4,2 -8,4 -11,8 -2,4 -4,8 -5,12l57 0zm67 15c0,3 1,7 3,10 1,3 4,5 7,7 3,2 6,3 10,3 4,0 7,-1 10,-3 4,-1 6,-4 8,-7 2,-3 3,-6 3,-10 0,-3 -1,-5 -2,-8 -1,-2 -3,-4 -5,-6 -2,-2 -4,-3 -7,-4 -2,-1 -5,-2 -9,-3 -4,-1 -7,-2 -10,-3 -3,-1 -5,-2 -7,-4 -6,-5 -9,-11 -9,-19 0,-5 2,-10 4,-14 3,-4 6,-8 10,-10 5,-2 10,-3 15,-3 5,0 9,1 14,3 4,3 7,6 10,10 2,4 3,9 3,14l-10 0c0,-3 -1,-6 -3,-9 -1,-3 -4,-5 -6,-6 -3,-2 -6,-3 -9,-3 -4,0 -6,1 -9,3 -3,1 -5,4 -6,6 -2,3 -3,6 -3,9 0,4 1,7 3,9 2,2 4,4 7,5 3,1 6,3 10,4 5,1 9,2 12,3 2,1 5,3 7,5 3,3 6,6 7,10 2,3 3,7 3,11 0,6 -2,11 -4,15 -3,5 -7,8 -12,11 -4,2 -9,4 -15,4 -5,0 -11,-2 -15,-4 -5,-3 -9,-6 -12,-11 -2,-4 -4,-10 -4,-15l11 0zm70 -6c0,5 1,9 4,13 3,4 6,7 10,10 5,2 9,3 14,3 3,0 7,-1 11,-2 3,-1 6,-3 9,-6 3,-2 5,-5 6,-8l11 0c-2,5 -5,9 -8,13 -4,4 -8,7 -13,9 -5,3 -10,4 -15,4 -8,0 -14,-2 -20,-6 -6,-3 -11,-8 -14,-14 -4,-6 -5,-12 -5,-19 0,-7 1,-14 5,-20 3,-6 8,-10 14,-14 6,-3 12,-5 19,-5 6,0 12,1 17,4 5,2 9,6 13,10 3,4 6,8 7,13 1,4 2,9 2,15l-67 0zm57 -9c-1,-4 -3,-8 -6,-12 -2,-3 -6,-6 -10,-8 -4,-2 -8,-3 -13,-3 -4,0 -9,1 -13,3 -4,2 -7,4 -10,8 -3,4 -5,8 -5,12l57 0zm24 -31l9 0 0 10c4,-8 11,-12 22,-12l0 10c-5,0 -10,2 -14,5 -3,3 -5,5 -6,8 -1,3 -1,7 -1,11l0 42 -10 0 0 -74zm33 0l11 0 26 61 25 -61 11 0 -31 74 -11 0 -31 -74zm83 0l10 0 0 74 -10 0 0 -74zm0 -27l10 0 0 18 -10 0 0 -18zm101 79c-3,7 -8,13 -15,17 -6,5 -13,7 -21,7 -7,0 -14,-2 -20,-5 -7,-4 -12,-8 -15,-14 -4,-6 -6,-13 -6,-20 0,-7 2,-14 6,-20 4,-6 8,-11 15,-14 6,-3 12,-5 20,-5 5,0 10,1 15,3 5,2 9,5 13,8 4,4 6,8 8,13l-11 0c-2,-3 -4,-5 -7,-8 -2,-2 -5,-3 -8,-5 -4,-1 -7,-1 -10,-1 -6,0 -11,1 -15,3 -5,3 -9,6 -12,11 -2,4 -4,9 -4,15 0,5 2,10 4,14 3,5 6,8 11,11 4,3 9,4 15,4 6,0 10,-1 15,-3 4,-3 8,-6 11,-11l11 0zm21 -12c1,5 2,9 5,13 2,4 6,7 10,10 4,2 9,3 13,3 4,0 8,-1 11,-2 4,-1 7,-3 10,-6 2,-2 5,-5 6,-8l10 0c-1,5 -4,9 -8,13 -3,4 -8,7 -13,9 -5,3 -10,4 -15,4 -7,0 -13,-2 -19,-6 -6,-3 -11,-8 -15,-14 -3,-6 -5,-12 -5,-19 0,-7 2,-14 5,-20 4,-6 9,-10 15,-14 5,-3 12,-5 19,-5 6,0 11,1 16,4 6,2 10,6 14,10 3,4 5,8 7,13 1,4 1,9 2,15l-68 0zm58 -9c-1,-4 -3,-8 -6,-12 -3,-3 -6,-6 -10,-8 -4,-2 -8,-3 -13,-3 -4,0 -9,1 -13,3 -4,2 -8,4 -10,8 -3,4 -5,8 -6,12l58 0zm27 21c0,3 1,5 2,7 1,2 3,4 5,5 2,1 4,2 7,2 3,0 7,-1 9,-3 3,-3 4,-6 4,-9 0,-4 -1,-8 -4,-10 -3,-2 -6,-3 -11,-5 -3,-1 -6,-2 -8,-3 -2,0 -3,-2 -5,-3 -4,-4 -6,-8 -6,-14 0,-4 1,-8 3,-11 2,-3 5,-6 8,-7 3,-2 7,-3 11,-3 3,0 7,1 10,3 3,2 5,4 7,7 2,3 3,7 3,10l-10 0c0,-3 -1,-6 -3,-8 -2,-2 -5,-2 -9,-2 -2,0 -5,1 -7,3 -2,2 -3,4 -3,7 0,2 1,4 2,6 1,2 2,3 4,4 2,1 4,1 7,2 5,2 8,3 11,5 3,1 5,4 7,6 2,3 3,7 3,11 0,5 -1,9 -3,12 -2,4 -5,7 -9,9 -3,2 -8,3 -12,3 -4,0 -8,-1 -11,-3 -4,-3 -7,-5 -9,-9 -2,-4 -3,-8 -3,-12l10 0z"/>
  </g>
  <g id="_595144816">
   <path id="_375678808" class="fil4" d="M270 668l404 0 0 -202 -56 0 0 146 -292 0 0 -292 146 0 0 -56 -202 0 0 404zm404 -258l0 -146 -146 0 0 56 90 0 0 90 56 0z"/>
   <path id="_375678808_0" class="fil5" d="M258 653l404 0 0 -202 -55 0 0 147 -293 0 0 -293 146 0 0 -56 -202 0 0 404zm404 -257l0 -147 -146 0 0 56 91 0 0 91 55 0z"/>
  </g>
  <path class="fil6" d="M3511 380l-20 0 -57 -107 0 107 -15 0 0 -120 25 0 52 98 0 -98 15 0 0 120zm139 0l-16 0 0 -103 -33 70 -10 0 -33 -70 0 103 -15 0 0 -120 22 0 32 67 31 -67 22 0 0 120zm119 -34c0,5 -1,10 -3,14 -2,5 -5,9 -9,12 -4,3 -9,6 -15,8 -6,2 -13,3 -21,3 -8,0 -16,-1 -23,-3 -7,-1 -14,-4 -21,-7l0 -20 1 0c6,5 13,9 21,12 8,3 15,4 22,4 10,0 18,-2 24,-6 5,-3 8,-8 8,-15 0,-5 -2,-9 -4,-11 -3,-3 -7,-5 -12,-6 -4,-1 -8,-2 -13,-3 -5,-1 -10,-1 -15,-3 -11,-2 -19,-6 -24,-11 -5,-6 -7,-13 -7,-21 0,-10 4,-19 12,-25 9,-7 20,-10 33,-10 8,0 16,1 23,3 7,1 13,3 19,6l0 19 -2 0c-4,-4 -10,-8 -18,-10 -7,-3 -15,-4 -22,-4 -9,0 -16,2 -21,5 -5,4 -8,8 -8,14 0,5 1,9 4,12 3,3 7,5 14,6 3,1 8,2 14,3 7,1 12,2 16,3 9,3 16,6 21,11 4,5 6,12 6,20zm-1462 235l-76 0 0 -120 16 0 0 106 60 0 0 14zm91 -45c0,15 -3,27 -11,35 -7,8 -17,13 -30,13 -13,0 -23,-5 -30,-13 -8,-8 -12,-20 -12,-35 0,-14 4,-26 12,-35 7,-8 17,-12 30,-12 13,0 23,4 30,12 8,9 11,21 11,35zm-15 0c0,-11 -2,-20 -7,-26 -5,-5 -11,-8 -19,-8 -8,0 -15,3 -19,8 -5,6 -7,15 -7,26 0,11 2,20 7,26 4,6 11,9 19,9 8,0 14,-3 19,-9 5,-6 7,-14 7,-26zm106 40c-6,2 -10,4 -15,5 -4,2 -9,2 -14,2 -7,0 -13,-1 -18,-3 -6,-2 -10,-4 -14,-8 -4,-4 -7,-9 -9,-15 -2,-6 -4,-13 -4,-21 0,-14 5,-26 13,-34 8,-9 18,-13 32,-13 5,0 10,1 15,2 5,2 9,3 14,6l0 16 -1 0c-5,-3 -10,-6 -15,-8 -4,-2 -9,-3 -14,-3 -9,0 -15,3 -20,9 -5,6 -8,14 -8,25 0,11 3,19 8,25 4,6 11,9 20,9 3,0 6,0 9,-1 4,-1 6,-2 9,-3 2,-1 4,-3 6,-4 2,-1 4,-2 5,-3l1 0 0 17zm101 5l-20 0 -36 -39 -10 9 0 30 -15 0 0 -125 15 0 0 80 44 -45 19 0 -42 42 45 48zm80 -26c0,8 -3,15 -10,21 -7,5 -16,7 -28,7 -7,0 -13,0 -18,-2 -6,-2 -11,-3 -14,-5l0 -17 0 0c5,3 11,6 16,8 6,3 12,4 17,4 7,0 12,-1 16,-4 4,-2 6,-5 6,-10 0,-3 -1,-6 -3,-8 -3,-2 -6,-3 -12,-5 -2,0 -5,-1 -9,-1 -3,-1 -6,-2 -9,-2 -8,-2 -14,-6 -17,-10 -3,-4 -5,-9 -5,-15 0,-3 1,-7 2,-10 2,-3 4,-6 7,-9 3,-2 7,-4 12,-6 4,-1 10,-2 15,-2 6,0 11,1 17,2 5,1 10,3 14,5l0 16 -1 0c-4,-3 -9,-5 -14,-7 -6,-2 -11,-3 -17,-3 -5,0 -10,1 -14,3 -4,2 -5,5 -5,9 0,4 1,7 3,9 2,2 6,3 11,4 3,1 6,2 9,2 4,1 7,2 9,2 7,2 13,5 16,8 4,4 6,10 6,16zm153 26l-15 0 0 -51c0,-4 0,-8 0,-11 -1,-4 -2,-7 -3,-9 -1,-2 -3,-4 -5,-5 -2,-1 -6,-2 -10,-2 -4,0 -9,1 -13,3 -4,2 -8,5 -12,8 0,2 0,3 0,5 0,1 0,3 0,5l0 57 -15 0 0 -51c0,-4 0,-8 -1,-11 0,-4 -1,-7 -2,-9 -1,-2 -3,-4 -5,-5 -2,-1 -6,-2 -10,-2 -4,0 -8,1 -13,3 -4,2 -8,5 -12,8l0 67 -15 0 0 -90 15 0 0 10c5,-4 9,-7 14,-9 5,-2 10,-3 15,-3 6,0 11,1 16,4 4,2 7,6 9,10 6,-5 12,-9 17,-11 5,-2 11,-3 16,-3 10,0 17,3 22,9 5,6 7,14 7,25l0 58zm46 -105l-17 0 0 -16 17 0 0 16zm-1 105l-15 0 0 -90 15 0 0 90zm77 -1c-3,1 -6,2 -10,2 -3,1 -6,1 -9,1 -9,0 -16,-2 -21,-7 -5,-5 -7,-13 -7,-24l0 -48 -10 0 0 -13 10 0 0 -26 15 0 0 26 32 0 0 13 -32 0 0 41c0,5 0,8 1,11 0,3 1,5 2,7 1,3 3,4 5,5 2,1 5,2 9,2 3,0 5,-1 8,-1 3,-1 5,-2 6,-2l1 0 0 13zm93 1l-15 0 0 -51c0,-4 0,-8 -1,-12 0,-3 -1,-6 -2,-8 -2,-2 -4,-4 -6,-5 -3,-1 -6,-2 -10,-2 -4,0 -9,1 -13,3 -5,2 -9,5 -13,8l0 67 -15 0 0 -125 15 0 0 45c5,-4 10,-7 15,-9 5,-2 10,-3 15,-3 10,0 17,3 22,8 6,6 8,15 8,26l0 58zm152 -26c0,8 -4,15 -10,21 -7,5 -17,7 -28,7 -7,0 -13,0 -19,-2 -5,-2 -10,-3 -14,-5l0 -17 1 0c5,3 10,6 16,8 6,3 12,4 17,4 7,0 12,-1 16,-4 3,-2 5,-5 5,-10 0,-3 -1,-6 -3,-8 -2,-2 -6,-3 -12,-5 -2,0 -5,-1 -8,-1 -3,-1 -7,-2 -9,-2 -8,-2 -14,-6 -17,-10 -4,-4 -5,-9 -5,-15 0,-3 1,-7 2,-10 2,-3 4,-6 7,-9 3,-2 7,-4 11,-6 5,-1 10,-2 16,-2 5,0 11,1 16,2 6,1 11,3 14,5l0 16 -1 0c-3,-3 -8,-5 -14,-7 -5,-2 -11,-3 -16,-3 -6,0 -10,1 -14,3 -4,2 -6,5 -6,9 0,4 1,7 4,9 2,2 6,3 11,4 2,1 6,2 9,2 4,1 6,2 9,2 7,2 12,5 16,8 4,4 6,10 6,16zm97 -17l-67 0c0,5 1,10 3,14 2,4 4,8 7,10 3,3 6,5 10,6 4,1 8,2 12,2 7,0 13,-1 19,-4 6,-2 11,-4 13,-7l1 0 0 17c-5,2 -10,4 -16,5 -5,2 -10,2 -16,2 -15,0 -27,-4 -35,-12 -9,-8 -13,-19 -13,-34 0,-15 4,-27 12,-35 8,-9 19,-13 32,-13 12,0 21,3 28,10 7,7 10,17 10,31l0 8zm-15 -12c0,-8 -2,-14 -6,-18 -4,-5 -10,-7 -18,-7 -8,0 -15,3 -19,7 -5,5 -8,11 -9,18l52 0zm94 -18l-1 0c-2,-1 -4,-1 -6,-1 -2,-1 -5,-1 -8,-1 -5,0 -9,1 -13,3 -5,2 -9,5 -13,8l0 64 -15 0 0 -90 15 0 0 13c6,-4 11,-8 16,-10 5,-2 9,-3 14,-3 3,0 5,0 6,0 1,0 3,1 5,1l0 16zm92 -17l-36 90 -15 0 -37 -90 17 0 28 72 27 -72 16 0zm36 -15l-17 0 0 -16 17 0 0 16zm-1 105l-15 0 0 -90 15 0 0 90zm97 -5c-5,2 -10,4 -14,5 -5,2 -10,2 -15,2 -6,0 -12,-1 -18,-3 -5,-2 -10,-4 -14,-8 -4,-4 -7,-9 -9,-15 -2,-6 -3,-13 -3,-21 0,-14 4,-26 12,-34 8,-9 19,-13 32,-13 5,0 10,1 15,2 5,2 10,3 14,6l0 16 -1 0c-4,-3 -9,-6 -14,-8 -5,-2 -10,-3 -15,-3 -8,0 -15,3 -20,9 -5,6 -7,14 -7,25 0,11 2,19 7,25 5,6 12,9 20,9 4,0 7,0 10,-1 3,-1 6,-2 8,-3 3,-1 5,-3 7,-4 2,-1 3,-2 4,-3l1 0 0 17zm95 -38l-67 0c0,5 1,10 3,14 2,4 4,8 7,10 3,3 6,5 10,6 4,1 8,2 12,2 7,0 13,-1 19,-4 6,-2 11,-4 13,-7l1 0 0 17c-5,2 -10,4 -16,5 -5,2 -11,2 -16,2 -15,0 -27,-4 -35,-12 -9,-8 -13,-19 -13,-34 0,-15 4,-27 12,-35 8,-9 19,-13 32,-13 12,0 21,3 28,10 7,7 10,17 10,31l0 8zm-15 -12c0,-8 -2,-14 -6,-18 -4,-5 -10,-7 -18,-7 -8,0 -15,3 -19,7 -5,5 -8,11 -9,18l52 0zm102 29c0,8 -3,15 -10,21 -7,5 -16,7 -28,7 -7,0 -13,0 -18,-2 -6,-2 -10,-3 -14,-5l0 -17 1 0c4,3 10,6 16,8 5,3 11,4 16,4 7,0 12,-1 16,-4 4,-2 6,-5 6,-10 0,-3 -1,-6 -3,-8 -2,-2 -6,-3 -12,-5 -2,0 -5,-1 -9,-1 -3,-1 -6,-2 -9,-2 -8,-2 -14,-6 -17,-10 -3,-4 -5,-9 -5,-15 0,-3 1,-7 2,-10 2,-3 4,-6 7,-9 3,-2 7,-4 12,-6 5,-1 10,-2 16,-2 5,0 10,1 16,2 5,1 10,3 14,5l0 16 -1 0c-4,-3 -9,-5 -14,-7 -6,-2 -11,-3 -17,-3 -5,0 -10,1 -14,3 -3,2 -5,5 -5,9 0,4 1,7 3,9 2,2 6,3 11,4 3,1 6,2 9,2 4,1 7,2 9,2 7,2 13,5 16,8 4,4 6,10 6,16zm-1006 201c0,8 -4,15 -11,20 -6,5 -16,8 -27,8 -7,0 -13,-1 -19,-2 -5,-2 -10,-4 -14,-5l0 -17 1 0c5,3 10,6 16,8 6,2 11,3 17,3 7,0 12,-1 16,-3 3,-2 5,-5 5,-10 0,-4 -1,-6 -3,-8 -2,-2 -6,-4 -12,-5 -2,0 -5,-1 -8,-2 -4,0 -7,-1 -10,-2 -7,-2 -13,-5 -16,-9 -4,-4 -5,-9 -5,-15 0,-4 0,-7 2,-10 1,-4 4,-7 7,-9 3,-3 7,-5 11,-6 5,-2 10,-2 16,-2 5,0 11,0 16,2 6,1 10,3 14,4l0 17 -1 0c-4,-3 -8,-6 -14,-8 -5,-2 -11,-2 -16,-2 -6,0 -10,1 -14,3 -4,2 -6,5 -6,9 0,4 1,7 4,9 2,1 6,3 11,4 2,1 6,1 9,2 3,1 6,1 9,2 7,1 12,4 16,8 4,4 6,9 6,16zm101 -20c0,7 -1,14 -4,20 -2,6 -5,11 -8,15 -4,4 -8,7 -13,9 -5,3 -10,4 -15,4 -5,0 -9,-1 -13,-2 -4,-1 -8,-2 -11,-5l0 38 -16 0 0 -123 16 0 0 9c4,-3 8,-6 13,-8 5,-2 10,-4 16,-4 11,0 20,4 26,13 6,8 9,19 9,34zm-16 0c0,-11 -2,-19 -6,-24 -3,-5 -9,-8 -17,-8 -4,0 -8,1 -13,3 -4,2 -8,4 -12,7l0 51c4,2 8,3 11,4 3,1 6,1 10,1 9,0 15,-3 20,-8 5,-6 7,-15 7,-26zm115 2l-67 0c0,6 1,11 3,15 1,4 4,7 7,10 2,3 6,5 10,6 3,1 8,2 12,2 6,0 13,-1 19,-4 6,-2 10,-5 13,-7l1 0 0 16c-5,3 -10,4 -16,6 -5,1 -11,2 -17,2 -14,0 -26,-4 -35,-12 -8,-8 -12,-20 -12,-35 0,-14 4,-26 12,-35 8,-8 19,-13 32,-13 12,0 21,4 28,11 6,7 10,17 10,30l0 8zm-15 -11c0,-8 -2,-14 -6,-19 -4,-4 -10,-6 -18,-6 -8,0 -15,2 -20,7 -4,5 -7,11 -8,18l52 0zm104 49c-5,3 -10,5 -14,6 -5,1 -10,2 -15,2 -6,0 -12,-1 -18,-3 -5,-2 -10,-5 -13,-9 -4,-3 -7,-8 -10,-14 -2,-6 -3,-13 -3,-21 0,-15 4,-26 12,-35 8,-8 19,-12 32,-12 6,0 11,0 16,2 5,1 9,3 13,5l0 17 -1 0c-4,-3 -9,-6 -14,-8 -5,-2 -10,-3 -14,-3 -9,0 -16,3 -21,9 -5,5 -7,14 -7,25 0,11 2,19 7,25 5,6 12,9 21,9 3,0 6,-1 9,-1 3,-1 6,-2 9,-4 2,-1 4,-2 6,-3 2,-1 3,-2 4,-3l1 0 0 16zm36 -99l-17 0 0 -16 17 0 0 16zm-1 105l-15 0 0 -90 15 0 0 90zm100 0l-15 0 0 -10c-1,1 -3,3 -6,4 -2,2 -4,3 -6,4 -3,1 -6,2 -9,3 -3,1 -7,1 -11,1 -9,0 -15,-2 -21,-8 -6,-5 -9,-12 -9,-20 0,-7 2,-13 5,-17 3,-4 7,-7 12,-10 6,-2 12,-4 20,-5 8,0 16,-1 25,-2l0 -2c0,-3 -1,-6 -2,-8 -1,-3 -3,-5 -5,-6 -2,-1 -5,-2 -8,-2 -3,-1 -6,-1 -9,-1 -4,0 -9,1 -14,2 -4,1 -10,2 -15,4l-1 0 0 -15c3,-1 8,-2 13,-3 6,-1 11,-1 17,-1 6,0 12,0 16,1 5,1 9,3 13,6 3,2 6,5 7,9 2,4 3,9 3,15l0 61zm-15 -22l0 -25c-5,0 -10,0 -16,1 -7,0 -12,1 -15,2 -5,1 -8,3 -11,6 -3,3 -4,6 -4,11 0,5 2,9 5,11 3,3 8,4 14,4 5,0 10,-1 15,-3 4,-2 8,-4 12,-7zm60 22l-16 0 0 -126 16 0 0 126zm164 -45c0,15 -3,26 -11,35 -7,8 -18,12 -30,12 -13,0 -23,-4 -31,-12 -7,-9 -11,-20 -11,-35 0,-15 4,-26 11,-35 8,-8 18,-13 31,-13 12,0 23,5 30,13 8,9 11,20 11,35zm-15 0c0,-12 -3,-20 -7,-26 -5,-6 -11,-9 -19,-9 -8,0 -15,3 -19,9 -5,6 -7,14 -7,26 0,11 2,20 7,26 4,5 11,8 19,8 8,0 14,-3 19,-8 4,-6 7,-15 7,-26zm87 -66l-1 0c-1,0 -3,-1 -6,-1 -3,-1 -5,-1 -7,-1 -7,0 -11,1 -14,4 -3,3 -5,8 -5,16l0 3 28 0 0 13 -27 0 0 77 -15 0 0 -77 -11 0 0 -13 11 0 0 -3c0,-11 2,-19 8,-25 5,-5 13,-8 23,-8 3,0 6,0 9,0 3,0 5,1 7,1l0 14zm58 0l0 0c-2,0 -4,-1 -7,-1 -3,-1 -5,-1 -7,-1 -7,0 -11,1 -14,4 -3,3 -5,8 -5,16l0 3 28 0 0 13 -27 0 0 77 -15 0 0 -77 -11 0 0 -13 11 0 0 -3c0,-11 2,-19 8,-25 5,-5 13,-8 23,-8 3,0 6,0 9,0 3,0 5,1 7,1l0 14zm85 67l-66 0c0,6 1,11 2,15 2,4 4,7 7,10 3,3 6,5 10,6 4,1 8,2 13,2 6,0 12,-1 18,-4 7,-2 11,-5 14,-7l1 0 0 16c-6,3 -11,4 -16,6 -5,1 -11,2 -17,2 -15,0 -26,-4 -35,-12 -8,-8 -12,-20 -12,-35 0,-14 4,-26 12,-35 8,-8 18,-13 31,-13 12,0 22,4 28,11 7,7 10,17 10,30l0 8zm-14 -11c0,-8 -3,-14 -6,-19 -4,-4 -10,-6 -18,-6 -9,0 -15,2 -20,7 -5,5 -7,11 -8,18l52 0zm94 -19l-1 0c-3,0 -5,-1 -7,-1 -2,0 -4,0 -7,0 -5,0 -10,1 -14,3 -4,2 -9,5 -13,8l0 64 -15 0 0 -90 15 0 0 13c6,-5 12,-8 16,-10 5,-2 10,-3 14,-3 3,0 5,0 6,0 1,0 3,0 6,1l0 15zm78 48c0,8 -3,15 -10,20 -7,5 -16,8 -28,8 -7,0 -13,-1 -18,-2 -6,-2 -10,-4 -14,-5l0 -17 1 0c4,3 10,6 16,8 5,2 11,3 16,3 7,0 12,-1 16,-3 4,-2 6,-5 6,-10 0,-4 -1,-6 -3,-8 -2,-2 -6,-4 -12,-5 -2,0 -5,-1 -9,-2 -3,0 -6,-1 -9,-2 -8,-2 -14,-5 -17,-9 -3,-4 -5,-9 -5,-15 0,-4 1,-7 2,-10 2,-4 4,-7 7,-9 3,-3 7,-5 12,-6 5,-2 10,-2 16,-2 5,0 10,0 16,2 5,1 10,3 14,4l0 17 -1 0c-4,-3 -9,-6 -14,-8 -6,-2 -11,-2 -17,-2 -5,0 -10,1 -14,3 -3,2 -5,5 -5,9 0,4 1,7 3,9 2,1 6,3 11,4 3,1 6,1 9,2 4,1 7,1 9,2 7,1 13,4 16,8 4,4 6,9 6,16z"/>
  <path class="fil7" d="M1803 1720l-342 0 0 -72c26,-19 52,-39 78,-60 27,-22 48,-40 63,-55 24,-23 41,-43 51,-60 9,-17 14,-34 14,-50 0,-20 -6,-36 -19,-47 -12,-10 -31,-16 -55,-16 -18,0 -36,4 -56,11 -20,8 -38,17 -55,29l-10 0 0 -97c14,-6 35,-12 62,-18 27,-6 54,-9 81,-9 54,0 96,11 124,34 29,23 43,56 43,97 0,28 -6,54 -20,79 -14,25 -35,50 -63,77 -18,16 -36,31 -54,45 -18,14 -30,23 -38,29l196 0 0 83zm416 -148c0,23 -4,44 -12,64 -9,19 -21,36 -37,49 -18,15 -39,26 -62,33 -23,7 -50,11 -80,11 -35,0 -64,-3 -88,-8 -25,-6 -44,-12 -59,-18l0 -97 12 0c18,11 37,20 57,27 21,7 41,10 62,10 12,0 25,-1 40,-4 14,-3 26,-8 34,-15 7,-6 12,-13 15,-19 4,-6 5,-16 5,-29 0,-10 -2,-19 -7,-26 -4,-7 -10,-13 -17,-18 -11,-6 -24,-11 -39,-13 -15,-2 -28,-3 -40,-3 -18,0 -35,2 -51,5 -16,3 -30,6 -42,9l-13 0 0 -245 310 0 0 83 -205 0 0 71c6,-1 14,-1 23,-1 9,-1 18,-1 25,-1 24,0 45,3 64,7 19,5 35,11 49,19 18,11 31,25 41,43 10,18 15,40 15,66zm346 -155c0,48 -11,84 -34,107 -22,24 -55,35 -98,35 -44,0 -77,-11 -99,-35 -23,-24 -34,-59 -34,-106 0,-48 12,-84 34,-107 23,-24 56,-35 99,-35 44,0 77,11 99,35 22,23 33,58 33,106zm228 -132l-228 435 -79 0 228 -435 79 0zm185 301c0,49 -11,84 -34,108 -22,23 -55,35 -98,35 -44,0 -77,-12 -99,-36 -23,-23 -34,-59 -34,-106 0,-48 12,-84 34,-107 23,-23 56,-35 99,-35 44,0 77,12 99,35 22,23 33,59 33,106zm-499 -169c0,-31 -4,-52 -11,-63 -7,-11 -19,-16 -36,-16 -16,0 -28,5 -35,16 -7,11 -11,32 -11,64 0,31 4,52 11,63 7,11 19,16 35,16 17,0 29,-5 36,-16 7,-11 11,-32 11,-64zm413 170c0,-31 -4,-52 -11,-63 -7,-11 -19,-17 -35,-17 -17,0 -29,6 -36,17 -7,11 -11,32 -11,63 0,31 4,52 11,63 7,11 19,17 36,17 16,0 28,-6 35,-17 7,-11 11,-32 11,-63z"/>
  <path class="fil8" d="M824 2018c0,44 -13,79 -38,105 -25,26 -60,39 -105,39 -44,0 -79,-13 -104,-39 -25,-26 -38,-61 -38,-105 0,-44 13,-79 38,-105 25,-26 60,-39 104,-39 45,0 80,13 105,39 25,26 38,61 38,105zm-95 70c7,-9 13,-18 16,-30 3,-11 5,-25 5,-40 0,-17 -2,-31 -6,-43 -4,-11 -9,-21 -15,-28 -6,-7 -14,-12 -22,-16 -8,-3 -17,-5 -25,-5 -9,0 -18,2 -26,5 -8,3 -15,9 -22,16 -6,7 -11,16 -15,29 -4,12 -6,26 -6,42 0,16 2,30 6,42 4,12 9,21 15,28 6,8 13,13 21,16 9,4 17,6 27,6 9,0 17,-2 26,-6 8,-3 15,-9 21,-16zm347 -155l-126 0 0 52 117 0 0 53 -117 0 0 118 -72 0 0 -276 198 0 0 53zm247 0l-126 0 0 52 117 0 0 53 -117 0 0 118 -72 0 0 -276 198 0 0 53zm304 229c-21,0 -39,-3 -57,-9 -17,-7 -32,-16 -45,-28 -12,-12 -22,-27 -29,-45 -7,-18 -10,-38 -10,-62 0,-22 3,-42 10,-59 6,-18 16,-34 28,-46 12,-13 27,-22 45,-29 18,-7 37,-10 58,-10 12,0 22,1 32,2 9,1 18,3 26,5 8,3 15,5 22,8 7,3 13,6 18,8l0 67 -8 0c-4,-3 -8,-6 -13,-10 -6,-4 -12,-8 -18,-12 -7,-4 -15,-8 -22,-10 -8,-3 -17,-4 -26,-4 -10,0 -19,1 -28,4 -10,4 -18,9 -26,16 -7,7 -13,16 -17,28 -5,12 -7,26 -7,42 0,18 2,32 7,44 5,11 11,21 19,27 7,7 16,12 25,15 9,3 18,4 27,4 9,0 18,-1 26,-4 9,-2 17,-6 24,-10 6,-4 11,-7 17,-12 5,-4 9,-7 12,-10l8 0 0 66c-7,3 -14,6 -20,9 -6,2 -13,5 -20,7 -9,2 -17,4 -25,6 -8,1 -19,2 -33,2zm405 -6l-74 0 -19 -56 -101 0 -20 56 -72 0 102 -276 82 0 102 276zm-110 -106l-34 -99 -33 99 67 0zm304 -86c0,-7 -1,-13 -4,-17 -3,-5 -8,-9 -14,-12 -5,-2 -11,-3 -17,-4 -6,0 -14,0 -22,0l-26 0 0 73 22 0c11,0 21,0 28,-1 8,-1 14,-4 19,-8 5,-4 9,-8 11,-12 2,-5 3,-11 3,-19zm112 192l-87 0 -75 -101 -33 0 0 101 -71 0 0 -276 119 0c17,0 31,1 42,3 12,1 23,5 33,12 11,6 19,14 25,24 6,9 9,22 9,37 0,20 -4,37 -14,49 -9,13 -23,24 -40,33l92 118zm419 0l-88 0 -82 -110 -17 20 0 90 -71 0 0 -276 71 0 0 125 99 -125 82 0 -108 128 114 148zm235 0l-200 0 0 -276 200 0 0 53 -129 0 0 48 120 0 0 53 -120 0 0 68 129 0 0 54zm302 -276l-101 169 0 107 -72 0 0 -104 -103 -172 81 0 59 106 58 -106 78 0zm258 189c0,27 -12,49 -35,66 -23,17 -54,26 -93,26 -23,0 -43,-2 -60,-6 -17,-4 -33,-9 -48,-15l0 -66 8 0c15,11 31,20 49,27 18,6 36,9 53,9 4,0 10,0 17,-1 7,-1 12,-2 17,-4 5,-2 10,-5 13,-8 4,-4 6,-9 6,-15 0,-6 -3,-11 -8,-16 -5,-4 -13,-7 -23,-10 -10,-2 -21,-5 -32,-7 -12,-2 -23,-5 -33,-8 -23,-8 -40,-18 -50,-31 -10,-13 -15,-29 -15,-48 0,-26 11,-46 34,-63 23,-16 53,-24 89,-24 18,0 36,2 54,5 18,4 33,8 46,13l0 64 -8 0c-11,-9 -24,-16 -41,-22 -16,-6 -32,-9 -49,-9 -6,0 -12,0 -18,1 -5,1 -11,2 -17,4 -4,2 -8,5 -12,9 -3,4 -5,8 -5,13 0,7 3,13 8,17 6,3 16,7 32,10 10,2 20,4 29,6 9,2 19,5 30,8 21,7 37,17 47,29 10,12 15,27 15,46z"/>
 </g>
</svg>
