<?xml version="1.0" encoding="UTF-8"?>
<!DOCTYPE svg PUBLIC "-//W3C//DTD SVG 1.1//EN" "http://www.w3.org/Graphics/SVG/1.1/DTD/svg11.dtd">
<!-- Creator: CorelDRAW -->
<svg xmlns="http://www.w3.org/2000/svg" xml:space="preserve" width="4.4525mm" height="3.7004mm" style="shape-rendering:geometricPrecision; text-rendering:geometricPrecision; image-rendering:optimizeQuality; fill-rule:evenodd; clip-rule:evenodd"
viewBox="0 0 3.66799 3.04841"
 xmlns:xlink="http://www.w3.org/1999/xlink">
 <defs>
  <style type="text/css">
   <![CDATA[
    .fil0 {fill:#666666}
    .fil2 {fill:url(#id0)}
    .fil1 {fill:url(#id1)}
   ]]>
  </style>
  <linearGradient id="id0" gradientUnits="userSpaceOnUse" x1="0.818285" y1="1.35285" x2="3.66807" y2="1.35285">
   <stop offset="0" style="stop-color:#277492"/>
   <stop offset="1" style="stop-color:#BDE6FC"/>
  </linearGradient>
  <linearGradient id="id1" gradientUnits="userSpaceOnUse" x1="-0.0611263" y1="1.61186" x2="3.66478" y2="1.61186">
   <stop offset="0" style="stop-color:#9A9A9A"/>
   <stop offset="1" style="stop-color:#E8E8E8"/>
  </linearGradient>
 </defs>
 <g id="Layer_x0020_1">
  <metadata id="CorelCorpID_0Corel-Layer"/>
  <g id="_576180512">
   <path id="_576180584" class="fil0" d="M1.97112 0.207434c0.353165,0.0610439 0.672637,0.197878 0.933453,0.383811l-0.24121 0.236679c-0.202244,-0.185686 -0.462649,-0.323179 -0.75444,-0.380268 -0.722724,-0.14153 -1.3643,0.263041 -1.43301,0.903631 -0.0687877,0.640591 0.461413,1.27459 1.18414,1.41612 0.722724,0.14153 1.3643,-0.263041 1.43309,-0.903631 0.0247965,-0.231489 -0.028586,-0.462154 -0.141035,-0.669012l0.237832 -0.356131c0.292615,0.309586 0.450127,0.69422 0.403088,1.08091 -0.0940785,0.774459 -0.972913,1.26355 -1.9628,1.09245 -0.989966,-0.171104 -1.71607,-0.937572 -1.62199,-1.71211 0.0941609,-0.774459 0.972996,-1.26355 1.96288,-1.09245z"/>
   <path id="_576182720" class="fil1" d="M1.99583 0.209576c0.353165,0.0610439 0.672719,0.197878 0.933453,0.383811l-0.241128 0.236679c-0.202326,-0.185686 -0.462649,-0.323179 -0.75444,-0.380268 -0.722724,-0.14153 -1.36439,0.263041 -1.43309,0.903631 -0.0687053,0.640591 0.461413,1.27459 1.18414,1.41612 0.722806,0.14153 1.36439,-0.263041 1.43309,-0.903631 0.0248789,-0.231489 -0.028586,-0.462154 -0.141035,-0.669012l0.237832 -0.356131c0.292698,0.309586 0.450127,0.69422 0.40317,1.08091 -0.0941609,0.774459 -0.972913,1.26355 -1.96288,1.09245 -0.989884,-0.171104 -1.71607,-0.937572 -1.62191,-1.71203 0.0941609,-0.774459 0.972913,-1.26363 1.9628,-1.09253z"/>
   <polygon id="_576181568" class="fil2" points="1.18463,1.31298 1.76632,1.86666 3.66807,0 1.86139,2.7057 0.818285,1.70173 "/>
  </g>
 </g>
</svg>
