<?xml version="1.0" encoding="UTF-8"?>
<!DOCTYPE svg PUBLIC "-//W3C//DTD SVG 1.1//EN" "http://www.w3.org/Graphics/SVG/1.1/DTD/svg11.dtd">
<!-- Creator: CorelDRAW X7 -->
<svg xmlns="http://www.w3.org/2000/svg" xml:space="preserve" width="42.7468mm" height="31.7905mm" version="1.1" style="shape-rendering:geometricPrecision; text-rendering:geometricPrecision; image-rendering:optimizeQuality; fill-rule:evenodd; clip-rule:evenodd"
viewBox="0 0 1183 880"
 xmlns:xlink="http://www.w3.org/1999/xlink">
 <defs>
  <style type="text/css">
   <![CDATA[
    .str0 {stroke:#4D4D4D;stroke-width:2.76834;stroke-dasharray:16.601726 11.067817}
    .fil0 {fill:none}
    .fil2 {fill:#1A1A1A}
    .fil5 {fill:#E5097F}
    .fil1 {fill:#EBECEC}
    .fil4 {fill:#2B2A29;fill-rule:nonzero}
    .fil6 {fill:gray;fill-rule:nonzero}
    .fil3 {fill:#E5097F;fill-rule:nonzero}
   ]]>
  </style>
 </defs>
 <g id="Слой_x0020_1">
  <metadata id="CorelCorpID_0Corel-Layer"/>
  <polygon class="fil0 str0" points="1,1 1182,1 1182,847 1,847 "/>
  <polygon class="fil1" points="31,31 1152,31 1152,818 31,818 "/>
  <g id="_595156744">
   <path id="_595163632" class="fil2" d="M235 871c0,2 2,4 3,5l1 1c1,1 1,2 3,2l3 1 2 0c1,0 3,0 3,0 3,-1 6,-3 9,-5l1 -1c2,-1 2,-2 3,-3 1,0 1,-1 2,-2 3,-6 -2,-10 3,-13 1,-1 2,-1 3,-1 3,-2 7,-5 10,-6l6 -4c1,0 1,0 2,-1 6,-3 12,-7 17,-10l18 -10c-1,0 -1,0 -1,0 -1,0 -2,-1 -2,-1 -4,-1 -7,0 -11,1 -1,0 -2,0 -3,1 0,0 0,0 -1,0 -1,0 -1,0 -2,1 -2,1 -5,3 -7,4 -1,1 -1,1 -2,1 0,1 0,1 -1,1 0,0 -1,1 -1,1 -3,1 -6,4 -9,5l-5 3c-3,2 -7,4 -10,6l-6 4c0,0 0,0 0,0 -1,1 -3,2 -4,3l-8 4c-1,1 -2,1 -2,2 -2,1 -7,3 -8,4 -2,1 -2,2 -3,3 -1,1 -3,3 -3,4zm22 -11c0,0 0,0 0,0l-2 1c-3,1 -7,4 -10,5 -2,1 -4,3 -5,5 0,4 2,4 5,5 5,0 9,-2 12,-5 2,-2 4,-4 5,-7 0,-2 0,-3 -1,-3 -1,-1 -3,-2 -4,-1z"/>
   <path id="_595158328" class="fil2" d="M238 827c0,2 0,4 2,6 1,2 3,2 5,4 1,0 3,1 3,1 1,1 4,2 5,3 1,0 1,1 2,1 1,1 7,3 8,4 3,1 1,2 6,-1 1,-1 1,-1 2,-2 0,0 -6,-3 -6,-3 -2,-1 -5,-2 -6,-4 0,-3 1,-6 0,-9 -1,-3 -2,-5 -4,-6 -1,-1 -2,-2 -3,-2l-5 -1 -1 0c-3,0 -6,2 -7,4 -1,1 -1,3 -1,5zm8 -5c-4,1 -6,6 -1,9 1,1 4,3 6,3 5,1 4,-5 3,-7 0,-1 -1,-1 -1,-1 0,-1 0,-1 -1,-1 -1,-2 -4,-3 -6,-3z"/>
   <path id="_595157848" class="fil2" d="M276 854c0,0 1,1 1,1l4 3c1,0 2,1 3,1l23 15c1,1 2,1 5,1 1,0 1,0 2,0 1,0 1,0 2,0 2,0 3,0 4,0 1,0 3,-1 4,-1 -1,0 -5,-3 -5,-3 -4,-3 -9,-5 -13,-8 -4,-2 -9,-5 -13,-7 -2,-1 -4,-2 -5,-3l-5 -3c-1,1 -7,4 -7,4z"/>
  </g>
  <path class="fil3" d="M518 464c0,7 -1,13 -3,19 -2,5 -6,10 -10,14 -5,4 -10,7 -16,10 -6,2 -13,3 -21,3 -8,0 -15,-1 -21,-3 -6,-2 -11,-5 -16,-10 -5,-4 -9,-11 -12,-18 -2,-8 -4,-17 -4,-28 0,-11 2,-21 4,-29 3,-9 7,-16 13,-23 5,-6 12,-11 21,-15 9,-3 19,-5 32,-5 4,0 8,0 13,1 5,0 8,1 10,1l0 25 -3 0c-2,-1 -5,-2 -8,-3 -4,-1 -8,-1 -13,-1 -10,0 -19,3 -25,8 -6,5 -9,13 -11,22 5,-3 9,-5 14,-6 5,-2 10,-3 16,-3 5,0 9,1 13,2 4,1 8,3 12,5 5,4 8,8 11,14 3,5 4,12 4,20zm-38 19c2,-2 3,-4 4,-6 1,-3 2,-7 2,-11 0,-4 -1,-8 -2,-10 -1,-3 -3,-5 -5,-7 -2,-1 -4,-2 -7,-3 -3,0 -6,-1 -9,-1 -2,0 -5,1 -7,1 -3,1 -6,1 -8,2 0,1 0,2 0,3 0,1 0,3 0,5 0,7 1,13 2,17 1,5 3,8 6,10 1,2 3,3 5,4 2,1 5,1 7,1 2,0 4,0 6,-1 2,-1 4,-2 6,-4zm159 -46c0,11 -1,21 -4,30 -3,9 -7,17 -12,23 -6,6 -14,11 -22,15 -9,3 -20,5 -31,5 -5,0 -9,0 -14,-1 -5,0 -8,-1 -10,-1l0 -25 4 0c2,1 4,2 7,3 3,0 8,1 13,1 4,0 9,-1 13,-2 4,-1 8,-3 11,-5 3,-3 6,-6 8,-10 2,-3 4,-8 4,-13 -5,2 -9,5 -13,6 -5,2 -10,2 -16,2 -5,0 -9,0 -14,-1 -4,-2 -8,-3 -11,-6 -5,-3 -9,-7 -12,-13 -3,-5 -4,-12 -4,-20 0,-14 5,-25 14,-33 10,-9 22,-13 37,-13 8,0 15,1 21,3 6,2 11,5 16,9 5,5 9,11 11,19 3,7 4,17 4,27zm-32 -4c0,-7 -1,-13 -2,-17 -2,-5 -3,-8 -6,-11 -1,-1 -3,-3 -5,-4 -3,0 -5,-1 -7,-1 -2,0 -4,1 -6,1 -2,1 -4,2 -6,4 -2,2 -3,5 -5,7 -1,3 -1,7 -1,11 0,4 0,7 2,10 1,3 2,5 5,6 1,2 4,3 7,3 2,1 5,1 8,1 3,0 6,0 9,-1 3,0 5,-1 6,-2 0,0 1,-1 1,-2 0,-1 0,-3 0,-5zm157 38c0,10 -4,18 -12,25 -8,6 -19,10 -32,11l0 31 -15 0 0 -30c-6,0 -14,-1 -22,-3 -8,-1 -15,-3 -19,-5l0 -25 4 0c5,3 11,5 17,7 7,2 14,3 21,3l0 -23 -9 -2c-5,-1 -10,-2 -14,-4 -4,-2 -8,-4 -11,-6 -4,-3 -6,-6 -8,-10 -1,-4 -2,-8 -2,-14 0,-8 3,-16 11,-21 8,-6 18,-10 32,-11l0 -20 15 0 0 20c5,0 11,0 18,2 7,1 12,2 16,4l0 24 -3 0c-4,-2 -9,-4 -14,-5 -5,-2 -11,-3 -17,-3l0 21 7 2c12,2 22,6 28,11 6,5 9,12 9,21zm-58 -36l0 -19c-3,0 -7,1 -10,3 -3,1 -4,3 -4,6 0,3 1,5 3,7 2,1 6,2 11,3zm27 39c0,-3 -2,-5 -5,-7 -3,-2 -6,-3 -9,-3l0 21c4,-1 7,-2 10,-3 3,-2 4,-4 4,-8z"/>
  <path class="fil4" d="M956 87c0,3 -1,6 -2,9 -2,3 -3,5 -6,6 -1,1 -3,2 -5,2 -2,1 -5,1 -8,1l-9 0 0 -36 9 0c3,0 6,0 8,1 2,0 4,1 5,2 3,1 5,3 6,6 1,3 2,6 2,9zm-5 0c0,-3 0,-5 -1,-7 -1,-2 -3,-4 -5,-5 -1,0 -3,-1 -4,-1 -2,-1 -4,-1 -6,-1l-4 0 0 28 4 0c2,0 4,0 6,-1 2,0 3,-1 5,-2 1,-1 3,-2 4,-4 1,-2 1,-4 1,-7zm42 18l-6 0 -12 -14 -6 0 0 14 -5 0 0 -36 10 0c2,0 4,0 5,0 2,1 3,1 4,2 1,1 2,2 3,3 1,1 1,3 1,5 0,2 0,5 -2,6 -1,2 -3,3 -5,4l13 16zm-11 -26c0,-1 0,-2 0,-3 -1,0 -1,-1 -2,-2 -1,0 -2,0 -2,0 -1,-1 -3,-1 -4,-1l-5 0 0 14 4 0c2,0 3,0 4,-1 1,0 2,0 3,-1 1,-1 1,-2 2,-2 0,-1 0,-2 0,-4zm40 26l-24 0 0 -36 24 0 0 4 -19 0 0 10 19 0 0 4 -19 0 0 14 19 0 0 4zm36 0l-5 0 -4 -10 -16 0 -3 10 -5 0 13 -36 7 0 13 36zm-10 -14l-7 -18 -6 18 13 0zm47 14l-5 0 0 -31 -10 21 -3 0 -9 -21 0 31 -5 0 0 -36 7 0 9 20 9 -20 7 0 0 36zm-337 57c-2,1 -4,2 -6,3 -2,0 -5,1 -7,1 -3,0 -5,-1 -7,-1 -3,-1 -5,-2 -6,-4 -2,-1 -3,-3 -4,-6 -1,-2 -2,-5 -2,-8 0,-6 2,-10 5,-14 4,-3 8,-5 14,-5 2,0 4,1 6,1 3,1 5,2 7,3l0 5 0 0c-1,0 -1,-1 -2,-1 -1,-1 -2,-1 -3,-2 -1,0 -2,-1 -4,-1 -1,0 -3,0 -5,0 -4,0 -7,1 -9,3 -2,3 -4,7 -4,11 0,5 2,8 4,11 2,2 6,4 10,4 2,0 3,-1 5,-1 1,0 2,-1 4,-1l0 -9 -10 0 0 -4 14 0 0 15zm37 3l-5 0 -4 -10 -15 0 -4 10 -4 0 13 -36 6 0 13 36zm-10 -14l-6 -18 -7 18 13 0zm45 14l-6 0 -12 -14 -7 0 0 14 -5 0 0 -36 11 0c2,0 4,0 5,1 1,0 3,0 4,1 1,1 2,2 3,3 1,1 1,3 1,5 0,2 -1,5 -2,6 -1,2 -3,3 -5,4l13 16zm-11 -26c0,-1 0,-2 0,-3 -1,0 -1,-1 -2,-2 -1,0 -2,0 -3,0 -1,-1 -2,-1 -3,-1l-6 0 0 14 5 0c2,0 3,0 4,-1 1,0 2,0 3,-1 1,-1 1,-2 2,-2 0,-1 0,-2 0,-4zm43 26l-5 0 -3 -10 -16 0 -3 10 -5 0 13 -36 6 0 13 36zm-10 -14l-6 -18 -6 18 12 0zm46 11c-2,1 -4,2 -7,3 -2,0 -4,1 -7,1 -2,0 -5,-1 -7,-1 -3,-1 -5,-2 -6,-4 -2,-1 -3,-3 -4,-6 -1,-2 -1,-5 -1,-8 0,-6 1,-10 5,-14 3,-3 8,-5 13,-5 3,0 5,1 7,1 2,1 4,2 7,3l0 5 -1 0c0,0 -1,-1 -2,-1 -1,-1 -2,-1 -3,-2 -1,0 -2,-1 -4,-1 -1,0 -3,0 -4,0 -4,0 -8,1 -10,3 -2,3 -3,7 -3,11 0,5 1,8 3,11 3,2 6,4 10,4 2,0 3,-1 5,-1 1,0 3,-1 4,-1l0 -9 -10 0 0 -4 15 0 0 15zm32 3l-24 0 0 -36 24 0 0 4 -19 0 0 10 19 0 0 4 -19 0 0 14 19 0 0 4zm55 -18c0,3 -1,6 -2,9 -2,3 -4,5 -6,6 -2,1 -3,2 -5,2 -2,1 -5,1 -8,1l-9 0 0 -36 9 0c3,0 6,0 8,1 2,0 4,1 5,2 3,1 4,3 6,6 1,3 2,6 2,9zm-5 0c0,-3 -1,-5 -2,-7 -1,-2 -2,-4 -4,-5 -1,0 -3,-1 -4,-1 -2,-1 -4,-1 -6,-1l-5 0 0 28 5 0c2,0 4,0 6,-1 2,0 3,-1 5,-2 1,-1 3,-2 4,-4 0,-2 1,-4 1,-7zm39 -14c2,2 3,4 4,6 1,2 1,5 1,8 0,3 -1,6 -1,8 -1,2 -2,4 -4,6 -1,1 -3,3 -5,4 -2,0 -4,1 -7,1 -2,0 -5,-1 -7,-2 -2,0 -3,-2 -5,-3 -1,-2 -2,-4 -3,-6 -1,-2 -1,-5 -1,-8 0,-3 0,-5 1,-8 0,-2 2,-4 3,-6 1,-1 3,-3 5,-3 2,-1 5,-2 7,-2 3,0 5,1 7,2 2,0 4,2 5,3zm0 14c0,-5 -1,-8 -3,-11 -2,-2 -5,-4 -9,-4 -3,0 -6,2 -8,4 -2,3 -3,6 -3,11 0,5 1,8 3,11 2,2 5,4 8,4 4,0 7,-2 9,-4 2,-3 3,-6 3,-11zm39 -14c2,2 3,4 4,6 0,2 1,5 1,8 0,3 -1,6 -1,8 -1,2 -2,4 -4,6 -1,1 -3,3 -5,4 -2,0 -4,1 -7,1 -2,0 -5,-1 -7,-2 -2,0 -4,-2 -5,-3 -2,-2 -3,-4 -3,-6 -1,-2 -2,-5 -2,-8 0,-3 1,-5 2,-8 0,-2 1,-4 3,-6 1,-1 3,-3 5,-3 2,-1 5,-2 7,-2 3,0 5,1 7,2 2,0 4,2 5,3zm0 14c0,-5 -1,-8 -3,-11 -2,-2 -5,-4 -9,-4 -4,0 -6,2 -8,4 -3,3 -4,6 -4,11 0,5 1,8 4,11 2,2 5,4 8,4 4,0 6,-2 9,-4 2,-3 3,-6 3,-11zm42 18l-6 0 -12 -14 -7 0 0 14 -5 0 0 -36 10 0c3,0 4,0 6,1 1,0 3,0 4,1 1,1 2,2 3,3 1,1 1,3 1,5 0,2 -1,5 -2,6 -1,2 -3,3 -5,4l13 16zm-11 -26c0,-1 0,-2 -1,-3 0,0 -1,-1 -1,-2 -1,0 -2,0 -3,0 -1,-1 -2,-1 -3,-1l-6 0 0 14 5 0c2,0 3,0 4,-1 1,0 2,0 3,-1 1,-1 1,-2 1,-2 1,-1 1,-2 1,-4zm-382 76c0,1 0,3 -1,4 0,1 -1,2 -3,3 -1,1 -2,2 -4,3 -2,0 -4,1 -6,1 -3,0 -5,-1 -7,-1 -2,-1 -4,-1 -7,-2l0 -6 1 0c2,1 4,2 6,3 2,1 5,2 7,2 3,0 5,-1 7,-2 1,-1 2,-3 2,-5 0,-1 0,-2 -1,-3 -1,-1 -2,-1 -4,-2 -1,0 -2,0 -3,-1 -2,0 -3,0 -5,0 -3,-1 -5,-2 -7,-4 -2,-2 -2,-4 -2,-6 0,-3 1,-6 4,-8 2,-2 5,-3 9,-3 3,0 5,1 7,1 2,1 4,1 6,2l0 6 -1 0c-1,-2 -3,-2 -5,-3 -2,-1 -4,-1 -7,-1 -2,0 -4,0 -6,1 -2,1 -2,3 -2,4 0,2 0,3 1,4 1,1 2,1 4,2 1,0 2,0 4,1 2,0 4,0 5,1 3,0 5,1 6,3 1,1 2,3 2,6zm31 -15c0,2 0,3 0,4 -1,2 -2,3 -3,4 -1,1 -2,2 -4,3 -2,0 -4,1 -7,1l-4 0 0 13 -5 0 0 -36 10 0c2,0 4,0 5,1 2,0 3,1 4,1 1,1 2,2 3,4 1,1 1,3 1,5zm-5 0c0,-1 0,-2 0,-3 -1,-1 -1,-2 -2,-2 -1,-1 -2,-1 -3,-1 -1,-1 -2,-1 -4,-1l-4 0 0 14 4 0c2,0 3,0 4,0 2,0 3,-1 3,-2 1,0 2,-1 2,-2 0,-1 0,-2 0,-3zm35 25l-23 0 0 -36 23 0 0 4 -19 0 0 10 19 0 0 4 -19 0 0 14 19 0 0 4zm36 -3c-1,1 -2,1 -3,1 -1,1 -1,1 -3,2 -1,0 -2,0 -3,0 -1,1 -2,1 -4,1 -2,0 -5,-1 -7,-1 -2,-1 -4,-2 -5,-4 -2,-1 -3,-3 -4,-6 -1,-2 -1,-5 -1,-8 0,-3 0,-6 1,-8 1,-2 2,-4 4,-6 1,-1 3,-2 5,-3 2,-1 5,-2 7,-2 2,0 4,1 6,1 2,1 4,1 7,3l0 5 -1 0c-2,-1 -4,-3 -6,-3 -2,-1 -4,-1 -6,-1 -2,0 -3,0 -5,0 -1,1 -3,2 -4,3 -1,1 -2,3 -2,5 -1,2 -1,4 -1,6 0,3 0,5 1,7 1,1 1,3 2,4 2,1 3,2 4,3 2,0 3,1 5,1 2,0 5,-1 7,-2 2,0 4,-2 5,-3l1 0 0 5zm19 3l-14 0 0 -4 5 0 0 -28 -5 0 0 -4 14 0 0 4 -5 0 0 28 5 0 0 4zm36 0l-5 0 -3 -10 -16 0 -3 10 -5 0 13 -36 6 0 13 36zm-10 -14l-6 -18 -6 18 12 0zm39 14l-23 0 0 -36 5 0 0 32 18 0 0 4zm48 -32c2,2 3,4 4,6 1,2 1,5 1,8 0,3 0,6 -1,8 -1,2 -2,4 -4,6 -1,1 -3,3 -5,4 -2,0 -4,1 -7,1 -2,0 -4,-1 -7,-2 -2,0 -3,-2 -5,-3 -1,-2 -2,-4 -3,-6 -1,-2 -1,-5 -1,-8 0,-3 0,-5 1,-8 1,-2 2,-4 3,-6 2,-1 3,-3 5,-3 3,-1 5,-2 7,-2 3,0 5,1 7,2 2,0 4,2 5,3zm0 14c0,-5 -1,-8 -3,-11 -2,-2 -5,-3 -9,-3 -3,0 -6,1 -8,3 -2,3 -3,6 -3,11 0,5 1,8 3,11 2,2 5,4 8,4 4,0 7,-2 9,-4 2,-3 3,-6 3,-11zm36 -14l-19 0 0 10 16 0 0 5 -16 0 0 17 -4 0 0 -36 23 0 0 4zm28 0l-18 0 0 10 15 0 0 5 -15 0 0 17 -5 0 0 -36 23 0 0 4zm29 32l-24 0 0 -36 24 0 0 4 -19 0 0 10 19 0 0 4 -19 0 0 14 19 0 0 4zm37 0l-6 0 -12 -14 -7 0 0 14 -4 0 0 -36 10 0c2,0 4,0 5,1 2,0 3,0 4,1 1,1 2,2 3,3 1,1 1,3 1,5 0,2 0,5 -2,6 -1,2 -3,3 -5,4l13 16zm-11 -26c0,-1 0,-2 0,-2 -1,-1 -1,-2 -2,-2 -1,-1 -2,-1 -3,-1 -1,-1 -2,-1 -3,-1l-6 0 0 14 5 0c2,0 3,0 4,-1 1,0 2,0 3,-1 1,-1 1,-2 2,-2 0,-1 0,-2 0,-4zm42 16c0,1 0,3 -1,4 -1,1 -2,2 -3,3 -1,1 -3,2 -4,3 -2,0 -4,1 -6,1 -3,0 -5,-1 -7,-1 -2,-1 -5,-1 -7,-2l0 -6 1 0c1,1 4,2 6,3 2,1 5,2 7,2 3,0 5,-1 7,-2 1,-1 2,-3 2,-5 0,-1 0,-2 -1,-3 -1,-1 -2,-1 -4,-2 -1,0 -2,0 -4,-1 -1,0 -3,0 -4,0 -3,-1 -6,-2 -7,-4 -2,-2 -2,-4 -2,-6 0,-3 1,-6 3,-8 3,-2 6,-3 10,-3 3,0 5,1 7,1 2,1 4,1 6,2l0 6 -1 0c-1,-2 -3,-2 -5,-3 -2,-1 -5,-1 -7,-1 -3,0 -5,0 -6,1 -2,1 -2,3 -2,4 0,2 0,3 1,4 0,1 2,1 4,2 1,0 2,0 4,1 2,0 4,0 5,1 3,0 5,1 6,3 1,1 2,3 2,6z"/>
  <path id="_375678808" class="fil5" d="M75 222l134 0 0 -67 -18 0 0 49 -98 0 0 -98 49 0 0 -18 -67 0 0 134zm134 -86l0 -48 -49 0 0 18 31 0 0 30 18 0z"/>
  <g id="_770470656">
   <path id="_375679576" class="fil6" d="M244 171l0 -70c0,-4 1,-8 4,-10 3,-3 6,-4 10,-4 3,0 6,1 9,3 3,1 5,4 7,7l13 27 0 -36 26 0 0 70c0,5 -2,9 -4,11 -3,3 -6,4 -10,4 -3,0 -6,-1 -9,-3 -3,-1 -5,-4 -6,-7l-14 -26 0 34 -26 0z"/>
   <path id="_375679696" class="fil6" d="M316 178l6 -81c0,-5 2,-9 7,-12 4,-3 8,-5 14,-5 4,0 8,2 12,4 4,3 6,6 7,11l7 32 9 -34c1,-4 3,-6 7,-9 4,-2 8,-3 13,-3 5,0 10,1 13,4 5,4 7,8 7,15l6 78 -29 0 -3 -56 -12 50c0,2 -2,4 -3,5 -2,2 -4,3 -7,3 -2,0 -4,-1 -6,-2 -2,-1 -3,-3 -3,-5l-13 -51 -3 56 -29 0z"/>
   <path id="_368675264" class="fil6" d="M430 175l0 -26 20 0c2,0 4,0 5,-1 2,-1 3,-2 3,-3 0,-1 0,-1 0,-2 -1,-1 -2,-2 -3,-3 -9,-6 -15,-11 -18,-15 -5,-5 -7,-11 -7,-18l-1 -1c0,-8 4,-14 12,-18 5,-2 11,-4 18,-4l28 0 0 25 -19 0c-3,0 -4,0 -6,1 -1,1 -2,1 -2,2 0,1 1,3 3,4 11,8 16,13 18,14 6,6 9,12 9,18l0 3c0,8 -4,14 -11,18 -5,4 -13,6 -21,6l-28 0z"/>
  </g>
  <path id="_491115792" class="fil6" d="M245 201l3 0 12 18 0 -18 2 0 0 22 -2 0 -13 -19 0 19 -2 0 0 -22zm23 14c0,1 0,2 0,3 1,1 2,2 3,2 1,1 2,1 3,1 0,0 1,0 2,-1 1,0 1,0 2,-1 1,0 1,-1 1,-2l3 0c-1,1 -1,2 -2,3 -1,1 -2,2 -3,2 -1,1 -2,1 -3,1 -2,0 -3,0 -4,-1 -2,-1 -3,-2 -4,-3 0,-2 -1,-3 -1,-4 0,-2 1,-3 1,-5 1,-1 2,-2 4,-3 1,0 2,-1 4,-1 1,0 2,0 3,1 1,1 2,1 3,2 1,1 1,2 2,3 0,1 0,2 0,3l-14 0zm12 -2c0,-1 -1,-1 -1,-2 -1,-1 -2,-2 -3,-2 0,-1 -1,-1 -2,-1 -1,0 -2,0 -3,1 -1,0 -2,1 -2,2 -1,1 -1,1 -1,2l12 0zm21 10l-2 0 0 -3c0,0 -1,1 -1,1 -1,1 -2,1 -3,2 0,0 -1,0 -2,0 -1,0 -3,0 -4,-1 -1,-1 -2,-1 -3,-2 0,-1 -1,-2 -1,-3 0,0 -1,-1 -1,-3 0,-1 1,-2 1,-2 0,-1 1,-2 1,-2 2,-3 4,-4 7,-4 1,0 2,0 4,1 1,1 2,1 2,3l0 -3 2 0 0 16zm-14 -8c0,1 0,2 0,3 1,1 2,1 3,2 1,1 2,1 3,1 1,0 2,0 3,-1 1,-1 2,-1 2,-2 1,-1 1,-2 1,-3 0,-2 0,-3 -1,-4 0,-1 -1,-1 -2,-2 -1,0 -2,-1 -3,-1 -1,0 -2,1 -3,1 -1,1 -2,1 -3,2 0,1 0,2 0,4zm18 -8l2 0 0 2c1,-2 2,-3 5,-3l0 2c-2,0 -2,1 -3,1 -1,1 -1,2 -2,2 0,1 0,2 0,3l0 9 -2 0 0 -16zm17 -6l4 0 7 18 8 -18 4 0 0 22 -3 0 0 -20 -8 20 -2 0 -8 -20 0 20 -2 0 0 -22zm28 14c0,1 1,2 1,3 1,1 1,2 2,2 1,1 2,1 3,1 1,0 2,0 3,-1 0,0 1,0 2,-1 0,0 1,-1 1,-2l2 0c0,1 -1,2 -2,3 0,1 -1,2 -2,2 -1,1 -2,1 -4,1 -1,0 -2,0 -4,-1 -1,-1 -2,-2 -3,-3 -1,-2 -1,-3 -1,-4 0,-2 0,-3 1,-5 1,-1 2,-2 3,-3 1,0 3,-1 4,-1 2,0 3,0 4,1 1,1 2,1 3,2 0,1 1,2 1,3 0,1 1,2 1,3l-15 0zm13 -2c-1,-1 -1,-1 -2,-2 0,-1 -1,-2 -2,-2 -1,-1 -2,-1 -3,-1 -1,0 -2,0 -2,1 -1,0 -2,1 -3,2 0,1 -1,1 -1,2l13 0zm14 3c0,1 0,2 0,3 1,0 1,1 2,1 1,1 1,1 2,1 1,0 2,0 2,-1 1,0 2,-1 2,-1 0,-1 1,-2 1,-2 0,-1 0,-2 -1,-2 0,-1 0,-1 -1,-2 0,0 -1,0 -1,0 -1,-1 -1,-1 -2,-1 -1,0 -2,0 -2,-1 -1,0 -1,0 -2,-1 -1,-1 -2,-2 -2,-4 0,-1 0,-2 1,-3 1,-1 1,-1 2,-2 1,0 2,0 3,0 1,0 2,0 3,0 1,1 2,2 2,2 1,1 1,2 1,3l-2 0c0,0 0,-1 -1,-2 0,0 0,-1 -1,-1 -1,0 -1,0 -2,0 -1,0 -1,0 -2,0 0,1 -1,1 -1,2 0,0 -1,1 -1,1 0,1 1,2 1,2 0,1 1,1 1,1 1,1 2,1 3,1 1,1 2,1 2,1 1,0 1,1 2,1 0,1 1,1 1,2 1,1 1,2 1,3 0,1 0,2 -1,3 -1,1 -1,2 -3,2 -1,1 -2,1 -3,1 -1,0 -2,0 -3,-1 -1,0 -2,-1 -3,-2 0,-1 0,-2 0,-4l2 0zm15 -1c0,1 0,2 1,3 0,1 1,2 2,2 1,1 2,1 3,1 1,0 1,0 2,-1 1,0 2,0 2,-1 1,0 1,-1 2,-2l2 0c-1,1 -1,2 -2,3 -1,1 -2,2 -3,2 -1,1 -2,1 -3,1 -1,0 -3,0 -4,-1 -1,-1 -2,-2 -3,-3 -1,-2 -1,-3 -1,-4 0,-2 0,-3 1,-5 1,-1 2,-2 3,-3 1,0 2,-1 4,-1 1,0 2,0 4,1 1,1 2,1 2,2 1,1 2,2 2,3 0,1 0,2 0,3l-14 0zm12 -2c0,-1 0,-1 -1,-2 -1,-1 -1,-2 -2,-2 -1,-1 -2,-1 -3,-1 -1,0 -2,0 -3,1 -1,0 -1,1 -2,2 -1,1 -1,1 -1,2l12 0zm5 -6l2 0 0 2c1,-2 3,-3 5,-3l0 2c-1,0 -2,1 -3,1 -1,1 -1,2 -1,2 0,1 -1,2 -1,3l0 9 -2 0 0 -16zm7 0l3 0 5 13 6 -13 2 0 -7 16 -2 0 -7 -16zm18 0l2 0 0 16 -2 0 0 -16zm0 -6l2 0 0 4 -2 0 0 -4zm22 17c-1,1 -2,3 -3,4 -2,0 -3,1 -5,1 -1,0 -3,0 -4,-1 -1,-1 -3,-2 -3,-3 -1,-1 -2,-3 -2,-4 0,-2 1,-3 2,-5 0,-1 2,-2 3,-3 1,0 3,-1 4,-1 1,0 2,0 3,1 1,0 2,1 3,2 1,0 2,1 2,2l-2 0c-1,0 -1,-1 -2,-1 0,-1 -1,-1 -2,-1 0,-1 -1,-1 -2,-1 -1,0 -2,1 -3,1 -1,1 -2,1 -2,2 -1,1 -1,2 -1,3 0,2 0,3 0,4 1,1 2,1 3,2 1,1 2,1 3,1 1,0 2,0 3,-1 1,0 2,-1 3,-2l2 0zm5 -3c0,1 0,2 0,3 1,1 2,2 3,2 1,1 2,1 3,1 0,0 1,0 2,-1 1,0 1,0 2,-1 1,0 1,-1 1,-2l3 0c-1,1 -1,2 -2,3 -1,1 -2,2 -3,2 -1,1 -2,1 -3,1 -2,0 -3,0 -4,-1 -2,-1 -3,-2 -3,-3 -1,-2 -2,-3 -2,-4 0,-2 1,-3 2,-5 0,-1 1,-2 3,-3 1,0 2,-1 4,-1 1,0 2,0 3,1 1,1 2,1 3,2 1,1 1,2 2,3 0,1 0,2 0,3l-14 0zm12 -2c0,-1 -1,-1 -1,-2 -1,-1 -2,-2 -3,-2 0,-1 -1,-1 -2,-1 -1,0 -2,0 -3,1 -1,0 -2,1 -2,2 -1,1 -1,1 -1,2l12 0zm6 5c0,0 0,1 0,1 0,1 1,1 1,1 1,1 1,1 2,1 1,0 1,0 2,-1 0,0 1,-1 1,-2 0,-1 -1,-1 -1,-2 -1,0 -2,-1 -3,-1 0,0 -1,0 -1,-1 -1,0 -1,0 -1,0 -1,-1 -2,-2 -2,-3 0,-1 0,-2 1,-3 0,0 1,-1 2,-1 0,-1 1,-1 2,-1 1,0 1,0 2,1 1,0 1,1 2,1 0,1 0,2 0,3l-2 0c0,-1 0,-2 -1,-2 0,-1 -1,-1 -1,-1 -1,0 -1,0 -2,1 0,0 -1,1 -1,1 0,1 1,1 1,2 0,0 0,0 1,1 0,0 1,0 1,0 1,0 2,1 3,1 0,0 1,1 1,2 1,0 1,1 1,2 0,1 -1,2 -1,2 0,1 -1,2 -2,2 -1,1 -1,1 -2,1 -1,0 -2,0 -3,-1 -1,0 -1,-1 -2,-2 0,0 0,-1 0,-2l2 0z"/>
  <path class="fil4" d="M154 643c-5,0 -10,0 -14,-2 -4,-1 -8,-3 -10,-6 -3,-3 -6,-7 -7,-11 -2,-4 -3,-9 -3,-15 0,-5 1,-10 2,-14 2,-5 4,-8 7,-11 3,-3 7,-5 11,-7 4,-2 9,-2 14,-2 3,0 5,0 7,0 3,0 5,1 7,1 2,1 3,1 5,2 2,1 3,1 4,2l0 16 -2 0c-1,-1 -2,-1 -3,-2 -1,-1 -2,-2 -4,-3 -2,-1 -3,-2 -5,-3 -2,0 -4,-1 -6,-1 -3,0 -5,1 -7,1 -2,1 -4,2 -6,4 -2,2 -3,4 -5,7 -1,3 -1,6 -1,10 0,4 0,8 2,10 1,3 2,5 4,7 2,2 4,3 6,3 2,1 4,2 7,2 2,0 4,-1 6,-1 2,-1 4,-2 5,-3 2,-1 3,-2 4,-3 2,-1 3,-1 4,-2l1 0 0 16c-1,0 -3,1 -4,2 -2,0 -4,1 -5,1 -2,1 -4,2 -6,2 -2,0 -5,0 -8,0zm83 -1l-47 0 0 -66 17 0 0 53 30 0 0 13zm72 0l-18 0 -4 -13 -25 0 -4 13 -18 0 25 -66 19 0 25 66zm-27 -25l-8 -24 -8 24 16 0zm73 -21c0,-2 0,-3 -1,-4 0,-1 -2,-2 -3,-3 -1,0 -3,-1 -4,-1 -2,0 -3,0 -5,0l-7 0 0 18 6 0c2,0 5,0 6,-1 2,0 4,-1 5,-1 1,-1 2,-2 2,-4 1,-1 1,-2 1,-4zm27 46l-21 0 -18 -24 -8 0 0 24 -17 0 0 -66 29 0c4,0 7,0 10,1 3,0 5,1 8,2 2,2 4,4 6,6 1,3 2,5 2,9 0,5 -1,9 -3,12 -3,3 -6,6 -10,8l22 28zm55 0l-48 0 0 -66 48 0 0 13 -30 0 0 11 28 0 0 13 -28 0 0 16 30 0 0 13zm66 -53l-20 0 0 53 -17 0 0 -53 -21 0 0 -13 58 0 0 13zm72 54c-5,0 -10,0 -14,-2 -4,-1 -8,-3 -11,-6 -3,-3 -5,-7 -7,-11 -1,-4 -2,-9 -2,-15 0,-5 1,-10 2,-14 2,-5 4,-8 7,-11 3,-3 6,-5 11,-7 4,-2 9,-2 14,-2 2,0 5,0 7,0 2,0 4,1 6,1 2,1 4,1 6,2 1,1 3,1 4,2l0 16 -2 0c-1,-1 -2,-1 -3,-2 -1,-1 -3,-2 -4,-3 -2,-1 -4,-2 -6,-3 -2,0 -4,-1 -6,-1 -2,0 -4,1 -7,1 -2,1 -4,2 -6,4 -1,2 -3,4 -4,7 -1,3 -1,6 -1,10 0,4 0,8 1,10 1,3 3,5 5,7 2,2 4,3 6,3 2,1 4,2 6,2 2,0 4,-1 6,-1 2,-1 4,-2 6,-3 2,-1 3,-2 4,-3 1,-1 2,-1 3,-2l2 0 0 16c-2,0 -3,1 -5,2 -1,0 -3,1 -5,1 -2,1 -4,2 -6,2 -2,0 -4,0 -7,0zm83 -1l-47 0 0 -66 17 0 0 53 30 0 0 13zm58 0l-48 0 0 -66 48 0 0 13 -30 0 0 11 28 0 0 13 -28 0 0 16 30 0 0 13zm76 0l-18 0 -5 -13 -24 0 -5 13 -17 0 25 -66 19 0 25 66zm-27 -25l-8 -24 -8 24 16 0zm96 25l-16 0 -28 -45 0 45 -16 0 0 -66 21 0 24 38 0 -38 15 0 0 66zm53 0l-39 0 0 -12 11 0 0 -42 -11 0 0 -12 39 0 0 12 -11 0 0 42 11 0 0 12zm74 0l-17 0 -28 -45 0 45 -15 0 0 -66 20 0 24 38 0 -38 16 0 0 66zm75 -4c-3,1 -7,3 -11,4 -5,1 -10,1 -15,1 -11,0 -20,-3 -27,-9 -6,-6 -9,-14 -9,-25 0,-10 3,-19 10,-25 6,-6 15,-9 26,-9 5,0 9,0 13,1 4,0 8,2 13,4l0 16 -2 0c-1,-1 -2,-2 -4,-3 -1,-1 -3,-2 -4,-3 -2,-1 -4,-1 -6,-2 -2,-1 -5,-1 -7,-1 -4,0 -6,0 -9,1 -2,1 -4,2 -6,4 -2,2 -4,4 -5,7 -1,3 -1,6 -1,10 0,7 2,12 5,16 4,4 10,6 18,6 0,0 1,0 2,0 1,0 1,0 2,0l0 -13 -13 0 0 -12 30 0 0 32zm-815 69c0,-2 0,-3 -1,-5 -1,-1 -2,-2 -3,-2 -2,-1 -3,-1 -4,-1 -2,0 -4,0 -6,0l-6 0 0 17 5 0c3,0 5,0 7,0 2,0 3,-1 5,-2 1,-1 2,-2 2,-3 1,-1 1,-3 1,-4zm27 46l-21 0 -18 -25 -8 0 0 25 -17 0 0 -67 29 0c4,0 7,1 10,1 3,1 5,1 8,3 2,1 4,3 6,6 1,2 2,5 2,9 0,4 -1,8 -4,11 -2,4 -5,6 -9,8l22 29zm71 -34c0,11 -3,19 -9,26 -6,6 -14,9 -25,9 -10,0 -19,-3 -25,-9 -6,-7 -9,-15 -9,-26 0,-10 3,-19 9,-25 6,-6 15,-9 25,-9 11,0 19,3 25,9 6,6 9,15 9,25zm-22 17c2,-2 3,-4 4,-7 0,-3 1,-6 1,-10 0,-4 -1,-7 -2,-10 -1,-2 -2,-5 -3,-6 -2,-2 -3,-4 -5,-4 -2,-1 -4,-2 -7,-2 -2,0 -4,1 -6,2 -2,0 -3,2 -5,3 -1,2 -3,4 -4,7 -1,3 -1,7 -1,10 0,4 0,8 1,11 1,2 2,5 4,6 1,2 3,3 5,4 2,1 4,1 6,1 3,0 5,0 7,-1 2,-1 3,-2 5,-4zm100 -17c0,11 -3,19 -9,26 -6,6 -15,9 -25,9 -11,0 -19,-3 -25,-9 -6,-7 -9,-15 -9,-26 0,-10 3,-19 9,-25 6,-6 14,-9 25,-9 10,0 19,3 25,9 6,6 9,15 9,25zm-23 17c2,-2 3,-4 4,-7 1,-3 1,-6 1,-10 0,-4 0,-7 -1,-10 -1,-2 -2,-5 -4,-6 -1,-2 -3,-4 -5,-4 -2,-1 -4,-2 -6,-2 -2,0 -4,1 -6,2 -2,0 -4,2 -6,3 -1,2 -2,4 -3,7 -1,3 -2,7 -2,10 0,4 1,8 2,11 1,2 2,5 3,6 2,2 3,3 5,4 2,1 5,1 7,1 2,0 4,0 6,-1 2,-1 4,-2 5,-4zm105 17l-17 0 0 -45 -12 29 -12 0 -12 -29 0 45 -16 0 0 -67 20 0 14 34 15 -34 20 0 0 67zm101 -21c0,6 -3,12 -8,16 -6,4 -13,6 -23,6 -5,0 -10,-1 -14,-2 -4,-1 -8,-2 -12,-3l0 -16 2 0c4,3 8,5 12,6 5,2 9,3 13,3 1,0 2,-1 4,-1 1,0 3,0 4,-1 1,0 2,-1 3,-2 1,0 1,-2 1,-3 0,-2 0,-3 -1,-4 -2,-1 -3,-2 -6,-2 -2,-1 -5,-2 -8,-2 -2,-1 -5,-1 -8,-2 -5,-2 -9,-4 -11,-7 -3,-3 -4,-7 -4,-12 0,-6 3,-11 8,-15 6,-4 13,-6 21,-6 5,0 9,1 13,1 5,1 8,2 11,4l0 15 -2 0c-2,-2 -5,-4 -9,-5 -4,-2 -8,-3 -12,-3 -2,0 -3,0 -4,1 -2,0 -3,0 -4,1 -2,0 -3,1 -3,2 -1,1 -2,2 -2,3 0,2 1,3 2,4 2,1 4,2 8,2 2,1 5,1 7,2 2,0 5,1 7,2 5,2 9,4 11,7 3,2 4,6 4,11zm66 -25c0,3 0,6 -1,9 -1,3 -3,5 -5,7 -2,3 -5,5 -8,6 -4,1 -8,2 -13,2l-10 0 0 22 -17 0 0 -67 28 0c4,0 8,1 10,1 3,1 6,2 8,4 3,1 5,4 6,6 2,3 2,6 2,10zm-17 1c0,-2 -1,-4 -2,-5 -1,-1 -2,-2 -3,-3 -2,-1 -4,-1 -6,-1 -1,0 -3,0 -6,0l-3 0 0 20 5 0c3,0 5,-1 7,-1 2,0 3,-1 4,-2 2,-1 2,-2 3,-4 0,-1 1,-2 1,-4zm77 45l-48 0 0 -67 48 0 0 13 -31 0 0 12 29 0 0 12 -29 0 0 17 31 0 0 13zm44 1c-5,0 -9,-1 -13,-2 -4,-2 -8,-4 -11,-7 -3,-3 -5,-6 -7,-11 -2,-4 -2,-9 -2,-14 0,-6 0,-10 2,-15 2,-4 4,-8 7,-11 3,-3 6,-5 10,-7 5,-1 9,-2 14,-2 3,0 6,0 8,1 2,0 4,0 6,1 2,0 4,1 6,2 1,0 3,1 4,2l0 16 -2 0c-1,-1 -2,-2 -3,-3 -2,-1 -3,-2 -5,-3 -1,-1 -3,-2 -5,-2 -2,-1 -4,-1 -6,-1 -2,0 -5,0 -7,1 -2,1 -4,2 -6,4 -2,1 -3,4 -4,6 -1,3 -2,7 -2,11 0,4 1,7 2,10 1,3 3,5 5,7 1,1 3,2 6,3 2,1 4,1 6,1 2,0 4,0 6,-1 2,0 4,-1 6,-2 1,-1 3,-2 4,-3 1,-1 2,-2 3,-3l2 0 0 16c-2,1 -3,2 -5,2 -1,1 -3,2 -5,2 -2,1 -4,1 -6,1 -2,1 -4,1 -8,1zm72 -1l-39 0 0 -12 11 0 0 -43 -11 0 0 -12 39 0 0 12 -11 0 0 43 11 0 0 12zm75 0l-18 0 -4 -14 -25 0 -4 14 -17 0 24 -67 20 0 24 67zm-26 -26l-8 -23 -8 23 16 0zm83 26l-47 0 0 -67 17 0 0 54 30 0 0 13z"/>
 </g>
</svg>
